<svg width="48" height="29" viewBox="0 0 48 29" fill="none" xmlns="http://www.w3.org/2000/svg">
<path d="M9.43969 28.48C17.7997 28.48 23.7597 19.08 23.7597 10.28C23.7597 4.12004 20.4397 0.0400391 14.9997 0.0400391C6.63969 0.0400391 0.679688 9.44004 0.679688 18.24C0.679688 24.44 3.95969 28.48 9.43969 28.48ZM9.55969 26.08C5.55969 26.08 3.19969 22.92 3.19969 18.08C3.19969 10.96 8.03969 2.44004 14.8397 2.44004C18.8397 2.44004 21.1997 5.60004 21.1997 10.36C21.1997 17.52 16.4397 26.08 9.55969 26.08Z" fill="#8C64FF"/>
<path d="M24.8319 28H43.6319L44.1919 25.56H29.3919L38.8719 18.72C43.5519 15.28 47.5519 11.36 47.5519 6.56004C47.5519 2.68004 44.5519 0.0400391 40.2719 0.0400391C36.3919 0.0400391 32.7919 1.84004 29.7519 5.24004L31.3919 6.88004C33.9119 4.12004 36.8719 2.36004 40.1119 2.36004C42.9519 2.36004 44.9519 4.12004 44.9519 6.76004C44.9519 10.52 41.3119 14 37.3119 16.92L25.2719 25.76L24.8319 28Z" fill="#8C64FF"/>
</svg>
