<svg width="264" height="91" viewBox="0 0 264 91" fill="none" xmlns="http://www.w3.org/2000/svg">
<path d="M0.657041 28.0653L0.646845 18.9013L65.6338 43.073L65.6441 52.353L0.711243 76.7853L0.700919 67.5053L58.4455 46.445L58.4485 49.113L0.657041 28.0653ZM95.2978 2.09201L156.546 2.02387L156.556 11.0719L99.2519 11.1356L103.772 7.76659L98.9439 47.096L95.232 47.2161C97.1622 44.43 99.7114 41.8751 102.879 39.5516C106.125 37.1507 109.912 35.2131 114.241 33.739C118.57 32.2648 123.325 31.5248 128.507 31.5191C136.163 31.5106 142.583 32.8181 147.767 35.4417C152.951 38.0652 156.86 41.5795 159.495 45.9846C162.206 50.3896 163.565 55.3374 163.571 60.8281C163.578 66.6281 161.998 71.7725 158.832 76.2614C155.667 80.6729 151.224 84.1578 145.504 86.7162C139.784 89.2746 133.058 90.5581 125.324 90.5667C117.436 90.5754 110.63 89.423 104.904 87.1094C99.1791 84.7184 94.6128 81.5142 91.2057 77.4966C87.8759 73.479 85.7442 68.9574 84.8106 63.9317L95.8306 63.9195C97.0739 69.2541 100.211 73.5039 105.241 76.669C110.348 79.834 117.039 81.4119 125.314 81.4027C130.805 81.3966 135.56 80.5406 139.579 78.8348C143.676 77.1289 146.844 74.7667 149.083 71.7482C151.4 68.6523 152.556 65.0164 152.551 60.8404C152.547 56.7417 151.537 53.1855 149.523 50.1717C147.509 47.0806 144.607 44.6865 140.815 42.9894C137.101 41.2922 132.538 40.4466 127.124 40.4526C122.407 40.4579 118.155 41.1199 114.367 42.4388C110.579 43.6804 107.294 45.2694 104.512 47.2058C101.73 49.1422 99.4511 51.1941 97.6748 53.3614L89.0908 53.3709L95.2978 2.09201ZM219.381 90.462C210.101 90.4723 202.095 88.6253 195.363 84.9207C188.708 81.1388 183.598 75.8858 180.033 69.1618C176.469 62.4377 174.681 54.5517 174.671 45.5037C174.661 36.4557 176.431 28.5658 179.981 21.8338C183.531 15.1019 188.629 9.87618 195.275 6.15678C201.999 2.35997 210.001 0.4564 219.281 0.446075C228.561 0.435751 236.528 2.32155 243.183 6.10348C249.838 9.80808 254.948 15.0224 258.513 21.7464C262.078 28.4705 263.865 36.3565 263.875 45.4045C263.885 54.3752 262.115 62.2651 258.565 69.0744C255.016 75.8064 249.917 81.0707 243.271 84.8674C236.624 88.5868 228.661 90.4517 219.381 90.462ZM219.255 81.1822C229.85 81.1704 238.082 78.0292 243.952 71.7587C249.823 65.4881 252.752 56.7075 252.739 45.4169C252.727 34.1262 249.778 25.3522 243.894 19.0947C238.009 12.7599 229.77 9.59841 219.175 9.6102C208.658 9.6219 200.464 12.8017 194.594 19.1495C188.723 25.4201 185.795 34.2007 185.807 45.4913C185.82 56.782 188.768 65.5561 194.652 71.8135C200.537 78.071 208.738 81.1939 219.255 81.1822Z" fill="#363636"/>
</svg>
