<svg width="216" height="72" viewBox="0 0 216 72" fill="none" xmlns="http://www.w3.org/2000/svg">
<path d="M0.531127 65.1006L0.51824 53.5176L34.362 40.7089L34.361 39.8179L0.488722 26.9856L0.475946 15.5016L53.4632 35.4407L53.4739 45.0437L0.531127 65.1006Z" fill="#363636"/>
<path d="M92.2006 71.4336C85.9966 71.4405 80.2868 70.6878 75.0711 69.1756C69.9214 67.6634 66.0256 66.0177 63.3836 64.2387L63.3693 51.3687C66.1436 53.4776 70.0068 55.4203 74.9588 57.1968C79.9107 58.9073 85.1916 59.7594 90.8016 59.7531C95.0916 59.7484 98.688 59.2164 101.591 58.1571C104.494 57.0979 106.637 55.7425 108.021 54.091C109.406 52.4394 110.097 50.6567 110.094 48.7427C110.092 46.8947 109.397 45.1464 108.01 43.498C106.688 41.7835 104.64 40.3997 101.867 39.3468C99.1598 38.2938 95.7932 37.7696 91.7672 37.7741C87.9392 37.7783 84.6068 38.31 81.7699 39.3692C78.9991 40.4283 77.0535 41.6184 75.9329 42.9397L64.8449 42.952L67.6694 1.17084L119.941 1.11269L119.955 13.4877L79.5632 13.5326L78.3956 31.8489L78.8906 31.8484C80.1436 30.989 82.1558 30.2277 84.927 29.5647C87.7643 28.9015 91.0309 28.5679 94.7269 28.5638C101.063 28.5567 106.476 29.5407 110.966 31.5157C115.522 33.4246 118.957 35.9948 121.271 39.2262C123.584 42.4577 124.743 45.9874 124.748 49.8154C124.752 53.6434 123.535 57.2087 121.097 60.5114C118.658 63.7482 114.965 66.3923 110.017 68.4438C105.136 70.4292 99.1966 71.4258 92.2006 71.4336Z" fill="#363636"/>
<path d="M175.308 71.3411C167.322 71.35 160.225 69.7739 154.018 66.6128C147.876 63.4516 143.119 59.1669 139.747 53.7587C136.375 48.3504 134.686 42.3463 134.678 35.7463C134.671 29.1463 136.347 23.1385 139.707 17.7227C143.067 12.307 147.815 8.01168 153.949 4.83685C160.149 1.66195 167.243 0.0700622 175.229 0.0611775C183.215 0.0522928 190.278 1.62843 196.42 4.7896C202.627 7.9507 207.417 12.2354 210.789 17.6436C214.161 23.0519 215.851 29.056 215.858 35.656C215.866 42.256 214.189 48.2639 210.829 53.6796C207.469 59.0953 202.689 63.3907 196.489 66.5656C190.354 69.7404 183.294 71.3322 175.308 71.3411ZM175.295 59.6591C180.377 59.6535 184.897 58.6255 188.855 56.5751C192.812 54.4587 195.845 51.5843 197.953 47.9519C200.127 44.3195 201.211 40.2263 201.206 35.6723C201.201 31.1183 200.108 27.0275 197.926 23.3999C195.81 19.7723 192.77 16.9377 188.808 14.8961C184.846 12.7885 180.324 11.7375 175.242 11.7432C170.16 11.7488 165.64 12.8099 161.682 14.9263C157.724 16.9767 154.659 19.8181 152.485 23.4505C150.377 27.0828 149.325 31.176 149.33 35.73C149.335 40.284 150.396 44.3748 152.512 48.0025C154.694 51.6301 157.766 54.4976 161.729 56.6052C165.691 58.6468 170.213 59.6648 175.295 59.6591Z" fill="#363636"/>
</svg>
