<svg width="127" height="71" viewBox="0 0 127 71" fill="none" xmlns="http://www.w3.org/2000/svg">
<path d="M0.531002 64.1006L0.518115 52.5176L34.3619 39.7089L34.3609 38.8179L0.488598 25.9856L0.475821 14.5016L53.463 34.4407L53.4737 44.0437L0.531002 64.1006Z" fill="#363636"/>
<path d="M93.2895 70.4324C86.0295 70.4405 79.8904 69.4573 74.8722 67.4829C69.854 65.5084 66.0891 62.9056 63.5775 59.6744C61.1318 56.3771 59.907 52.8805 59.9028 49.1845C59.8992 45.9505 60.5889 42.9137 61.9717 40.0742C63.4206 37.2346 65.4632 34.2293 68.0997 31.0584L94.1023 0.141425L110.14 0.123582L86.6094 28.0678L86.6099 28.5628C87.2036 28.2981 88.2594 28.0659 89.7771 27.8663C91.2949 27.6666 93.0438 27.5656 95.0238 27.5634C101.822 27.5559 107.598 28.5394 112.352 30.5141C117.106 32.4889 120.673 35.1249 123.053 38.4222C125.433 41.6536 126.624 45.2163 126.629 49.1103C126.633 52.8063 125.383 56.3057 122.878 59.6084C120.44 62.8452 116.714 65.4563 111.7 67.4419C106.686 69.4275 100.549 70.4243 93.2895 70.4324ZM93.2774 59.5424C97.3694 59.5378 100.801 59.006 103.572 57.9469C106.408 56.8878 108.519 55.5324 109.903 53.8809C111.287 52.2293 111.978 50.5126 111.976 48.7306C111.974 46.9486 111.279 45.2333 109.892 43.5849C108.504 41.9364 106.39 40.5858 103.551 39.5329C100.778 38.48 97.3454 37.9558 93.2534 37.9604C89.1614 37.9649 85.697 38.4968 82.8601 39.556C80.0893 40.615 78.0118 41.9704 76.6277 43.6219C75.2435 45.2734 74.5524 46.9902 74.5544 48.7722C74.5564 50.5542 75.2513 52.2694 76.6391 53.9179C78.027 55.5663 80.1075 56.917 82.8806 57.9699C85.7198 59.0228 89.1854 59.5469 93.2774 59.5424Z" fill="#363636"/>
</svg>
