<svg width="172" height="91" viewBox="0 0 172 91" fill="none" xmlns="http://www.w3.org/2000/svg">
<path d="M128.936 0.845527C141.155 0.831933 150.63 2.87072 157.363 6.9619C164.173 10.9757 167.582 16.6559 167.59 24.0025C167.597 30.8079 164.433 36.1474 158.096 40.0211C151.758 43.8175 142.867 45.6447 131.422 45.5028L131.419 43.0668C144.101 42.434 153.885 44.0858 160.772 48.0221C167.737 51.9584 171.223 57.7932 171.232 65.5265C171.241 73.4918 167.574 79.7213 160.233 84.2148C152.891 88.6309 142.492 90.8465 129.036 90.8615C115.58 90.8765 105.138 88.6841 97.7088 84.2843C90.3571 79.8072 86.6769 73.5859 86.668 65.6206C86.6594 57.8873 90.1329 52.0447 97.0885 48.093C104.044 44.0639 113.825 42.3904 126.431 43.0723L126.434 45.5083C115.143 45.6756 106.286 43.8681 99.8636 40.0859C93.518 36.2263 90.3414 30.8938 90.3338 24.0885C90.3256 16.7418 93.6833 11.0541 100.407 7.02527C107.208 2.91903 116.717 0.85912 128.936 0.845527ZM129.026 81.8135C139.002 81.8024 146.695 80.3632 152.105 77.4958C157.593 74.551 160.333 70.4106 160.327 65.0746C160.321 59.584 157.61 55.527 152.194 52.9037C146.855 50.203 139.12 48.8582 128.989 48.8695C118.781 48.8809 111.011 50.2428 105.678 52.9554C100.345 55.668 97.6815 59.731 97.6875 65.1443C97.6934 70.4803 100.405 74.6147 105.821 77.5473C111.315 80.4025 119.05 81.8246 129.026 81.8135ZM128.979 39.9375C134.625 39.9312 139.535 39.3458 143.71 38.1811C147.884 37.0165 151.092 35.3116 153.332 33.0664C155.572 30.7439 156.69 27.92 156.686 24.5947C156.681 19.9547 154.241 16.3227 149.366 13.6988C144.491 11.0749 137.685 9.7678 128.946 9.77752C120.207 9.78724 113.403 11.1095 108.534 13.7442C103.665 16.379 101.233 20.0164 101.238 24.6564C101.242 27.9817 102.367 30.8031 104.612 33.1206C106.857 35.3608 110.03 37.0586 114.13 38.214C118.307 39.3694 123.257 39.9439 128.979 39.9375Z" fill="#363636"/>
<path d="M0.656924 28.3642L0.646729 19.2002L65.6337 43.372L65.644 52.652L0.711127 77.0842L0.700802 67.8042L58.4454 46.744L58.4484 49.412L0.656924 28.3642Z" fill="#363636"/>
</svg>
