<svg width="335" height="99" viewBox="0 0 335 99" fill="none" xmlns="http://www.w3.org/2000/svg">
<path d="M12.0559 42.9999H15.7519L24.9679 14.9199L34.1359 42.9999H37.8319L49.1119 10.0239H44.8879L35.7679 36.7119L27.0319 10.0239H22.8559L14.1199 36.7119L4.99988 10.0239H0.775879L12.0559 42.9999Z" fill="#353535"/>
<path d="M78.3465 13.5759V10.0239H54.6825V42.9999H78.3465V39.4479H58.4745V27.9759H76.3785V24.4239H58.4745V13.5759H78.3465Z" fill="#353535"/>
<path d="M125.53 42.9999H129.61L115.066 10.0239H110.986L96.4421 42.9999H100.522L103.834 35.5119H122.218L125.53 42.9999ZM105.37 31.9599L113.05 14.6319L120.682 31.9599H105.37Z" fill="#353535"/>
<path d="M160.469 20.5839C160.469 14.3919 155.141 10.0239 148.325 10.0239H134.933V42.9999H138.676V31.1439H147.413L155.764 42.9999H160.036L151.493 30.8079C156.725 29.7039 160.469 25.7679 160.469 20.5839ZM138.676 13.5759H147.652C153.028 13.5759 156.676 16.1679 156.676 20.5839C156.676 24.9999 153.028 27.5919 147.652 27.5919H138.676V13.5759Z" fill="#353535"/>
<path d="M189.815 13.5759V10.0239H166.151V42.9999H189.815V39.4479H169.943V27.9759H187.847V24.4239H169.943V13.5759H189.815Z" fill="#353535"/>
<path d="M89.5796 98.5759C94.1396 98.5759 98.3636 96.6079 101.436 93.5359L98.8916 90.9439C96.4916 93.4879 93.1796 95.1199 89.5796 95.1199C82.4756 95.1199 76.4756 88.8799 76.4756 81.4879C76.4756 74.1439 82.4756 67.9039 89.5796 67.9039C93.1796 67.9039 96.4916 69.5359 98.8916 72.0799L101.436 69.4879C98.3636 66.3679 94.1396 64.4479 89.5796 64.4479C80.4596 64.4479 72.6836 72.2239 72.6836 81.4879C72.6836 90.7519 80.4596 98.5759 89.5796 98.5759Z" fill="#353535"/>
<path d="M129.789 65.0239V79.4239H110.349V65.0239H106.605V97.9999H110.349V82.9759H129.789V97.9999H133.533V65.0239H129.789Z" fill="#353535"/>
<path d="M167.937 97.9999H172.017L157.473 65.0239H153.393L138.849 97.9999H142.929L146.241 90.5119H164.625L167.937 97.9999ZM147.777 86.9599L155.457 69.6319L163.089 86.9599H147.777Z" fill="#353535"/>
<path d="M178.059 97.9999H181.803V71.1679L202.251 97.9999H205.995V65.0239H202.251V91.8559L181.803 65.0239H178.059V97.9999Z" fill="#353535"/>
<path d="M229.492 84.1759H238.948V92.0479C236.5 93.9199 232.948 95.1199 229.876 95.1199C222.772 95.1199 216.772 88.8799 216.772 81.4879C216.772 74.1439 222.772 67.9039 229.876 67.9039C233.476 67.9039 237.748 69.5359 240.148 72.0799L242.692 69.4879C239.62 66.3679 234.436 64.4479 229.876 64.4479C220.756 64.4479 212.98 72.2239 212.98 81.4879C212.98 90.7519 220.756 98.5759 229.876 98.5759C234.436 98.5759 239.62 96.6079 242.692 93.5359V80.6239H229.492V84.1759Z" fill="#353535"/>
<path d="M273.706 68.5759V65.0239H250.042V97.9999H273.706V94.4479H253.834V82.9759H271.738V79.4239H253.834V68.5759H273.706Z" fill="#353535"/>
<path d="M305.672 75.5839C305.672 69.3919 300.344 65.0239 293.528 65.0239H280.136V97.9999H283.88V86.1439H292.616L300.968 97.9999H305.24L296.696 85.8079C301.928 84.7039 305.672 80.7679 305.672 75.5839ZM283.88 68.5759H292.856C298.232 68.5759 301.88 71.1679 301.88 75.5839C301.88 79.9999 298.232 82.5919 292.856 82.5919H283.88V68.5759Z" fill="#353535"/>
<path d="M322.779 98.5279C330.459 98.5279 334.395 94.2559 334.395 89.0239C334.395 83.2159 329.883 80.9599 323.595 79.4719C317.979 78.1279 314.715 76.9279 314.715 73.5199C314.715 70.4959 317.691 67.8079 321.771 67.8079C325.227 67.8079 328.491 69.3919 331.227 72.0319L333.531 69.1039C330.507 66.3199 326.859 64.3999 321.963 64.3999C315.627 64.3999 310.923 68.5279 310.923 73.8079C310.923 79.5199 315.099 81.5839 321.723 83.1199C327.483 84.4639 330.603 85.8559 330.603 89.3599C330.603 92.3359 328.011 95.1199 322.923 95.1199C318.315 95.1199 314.907 93.1519 312.123 90.3679L309.771 93.2959C313.083 96.5599 317.355 98.5279 322.779 98.5279Z" fill="#353535"/>
<path d="M224.5 0L224.976 6.99763C225.596 16.1318 232.868 23.4036 242.002 24.0244L249 24.5L242.002 24.9756C232.868 25.5964 225.596 32.8682 224.976 42.0024L224.5 49L224.024 42.0024C223.404 32.8682 216.132 25.5964 206.998 24.9756L200 24.5L206.998 24.0244C216.132 23.4036 223.404 16.1318 224.024 6.99763L224.5 0Z" fill="#8C64FF"/>
</svg>
