<svg width="30" height="30" viewBox="0 0 30 30" fill="none" xmlns="http://www.w3.org/2000/svg">
<path fill-rule="evenodd" clip-rule="evenodd" d="M26.1149 15.3457L13.7672 27.6934L15.2682 29.1943L27.6158 16.8466L26.1149 15.3457Z" fill="white"/>
<path fill-rule="evenodd" clip-rule="evenodd" d="M15.2682 29.6824L28.1039 16.8467L26.1149 14.8577L13.2792 27.6934L15.2682 29.6824ZM15.2682 28.7064L14.2552 27.6934L26.1149 15.8337L27.1278 16.8467L15.2682 28.7064Z" fill="white"/>
<path fill-rule="evenodd" clip-rule="evenodd" d="M14.1064 3.33834L27.6153 16.8472L28.9872 15.4752L15.4784 1.96637L14.1064 3.33834Z" fill="white"/>
<path fill-rule="evenodd" clip-rule="evenodd" d="M29.4752 15.4752L15.4784 1.47837L13.6184 3.33834L27.6152 17.3352L29.4752 15.4752ZM28.4992 15.4752L27.6152 16.3592L14.5944 3.33834L15.4784 2.45438L28.4992 15.4752Z" fill="white"/>
<path fill-rule="evenodd" clip-rule="evenodd" d="M1.78908 16.167L27.5846 16.3659L27.4178 14.3324L1.62237 14.1335L1.78908 16.167Z" fill="white"/>
<path fill-rule="evenodd" clip-rule="evenodd" d="M27.7347 13.9911L1.24911 13.7869L1.4722 16.5082L27.9578 16.7124L27.7347 13.9911ZM27.101 14.6736L27.2113 16.0192L2.10594 15.8256L1.99563 14.48L27.101 14.6736Z" fill="white"/>
</svg>
