<svg width="43" height="43" viewBox="0 0 43 43" fill="none" xmlns="http://www.w3.org/2000/svg">
<path fill-rule="evenodd" clip-rule="evenodd" d="M4.86903 21.4847L22.7604 39.376L20.5855 41.5509L2.69416 23.6596L4.86903 21.4847Z" fill="white"/>
<path fill-rule="evenodd" clip-rule="evenodd" d="M20.5855 42.2581L1.98706 23.6596L4.86903 20.7776L23.4675 39.3761L20.5855 42.2581ZM20.5855 40.8438L22.0533 39.3761L4.86903 22.1918L3.40127 23.6596L20.5855 40.8438Z" fill="white"/>
<path fill-rule="evenodd" clip-rule="evenodd" d="M22.2688 4.08659L2.69502 23.6604L0.707092 21.6725L20.2809 2.09866L22.2688 4.08659Z" fill="white"/>
<path fill-rule="evenodd" clip-rule="evenodd" d="M0 21.6725L20.2809 1.39155L22.976 4.08659L2.69503 24.3675L0 21.6725ZM1.41421 21.6725L2.69503 22.9533L21.5618 4.08659L20.2809 2.80577L1.41421 21.6725Z" fill="white"/>
<path fill-rule="evenodd" clip-rule="evenodd" d="M40.1162 22.6747L2.73953 22.9629L2.98108 20.0165L40.3578 19.7283L40.1162 22.6747Z" fill="white"/>
<path fill-rule="evenodd" clip-rule="evenodd" d="M2.52191 19.522L40.8986 19.226L40.5753 23.1691L2.19866 23.4651L2.52191 19.522ZM3.44018 20.5109L3.28033 22.4607L39.6571 22.1802L39.8169 20.2304L3.44018 20.5109Z" fill="white"/>
</svg>
