<svg width="22" height="16" viewBox="0 0 22 16" fill="none" xmlns="http://www.w3.org/2000/svg">
<path d="M21.2667 10.9091V11.6364H22V10.9091H21.2667ZM0.733333 0.727273V0H0V0.727273H0.733333ZM0.733333 15.2727H0V16H0.733333V15.2727ZM11.7333 10.9091C11.7333 13.7207 14.0316 16 16.8667 16V14.5455C14.8416 14.5455 13.2 12.9174 13.2 10.9091H11.7333ZM16.8667 5.81818C14.0316 5.81818 11.7333 8.09745 11.7333 10.9091H13.2C13.2 8.90079 14.8416 7.27273 16.8667 7.27273V5.81818ZM22 10.9091C22 8.09745 19.7017 5.81818 16.8667 5.81818V7.27273C18.8917 7.27273 20.5333 8.90079 20.5333 10.9091H22ZM19.8393 13.0385C19.1718 13.953 18.089 14.5455 16.8667 14.5455V16C18.5793 16 20.096 15.1674 21.0273 13.8915L19.8393 13.0385ZM0.733333 1.45455H4.4V0H0.733333V1.45455ZM4.4 7.27273H0.733333V8.72727H4.4V7.27273ZM1.46667 8V0.727273H0V8H1.46667ZM7.33333 4.36364C7.33333 5.97028 6.02004 7.27273 4.4 7.27273V8.72727C6.83005 8.72727 8.8 6.7736 8.8 4.36364H7.33333ZM4.4 1.45455C6.02004 1.45455 7.33333 2.75699 7.33333 4.36364H8.8C8.8 1.95367 6.83005 0 4.4 0V1.45455ZM0.733333 8.72727H5.86667V7.27273H0.733333V8.72727ZM5.86667 14.5455H0.733333V16H5.86667V14.5455ZM1.46667 15.2727V8H0V15.2727H1.46667ZM8.8 11.6364C8.8 13.2431 7.4867 14.5455 5.86667 14.5455V16C8.29671 16 10.2667 14.0464 10.2667 11.6364H8.8ZM5.86667 8.72727C7.4867 8.72727 8.8 10.0297 8.8 11.6364H10.2667C10.2667 9.2264 8.29671 7.27273 5.86667 7.27273V8.72727ZM12.4667 11.6364H21.2667V10.1818H12.4667V11.6364ZM13.2 2.90909H20.5333V1.45455H13.2V2.90909Z" fill="white"/>
</svg>
