<svg width="1327" height="242" viewBox="0 0 1327 242" fill="none" xmlns="http://www.w3.org/2000/svg">
<path d="M45.712 103.536C70.16 103.536 90.64 82.6719 90.64 57.9679C90.64 33.2639 70.16 12.5279 45.712 12.5279C21.392 12.5279 0.656006 33.2639 0.656006 57.9679C0.656006 82.6719 21.392 103.536 45.712 103.536ZM45.712 94.3199C26.768 94.3199 10.768 77.6799 10.768 57.9679C10.768 38.3839 26.768 21.7439 45.712 21.7439C64.656 21.7439 80.528 38.3839 80.528 57.9679C80.528 77.6799 64.656 94.3199 45.712 94.3199Z" fill="#353535"/>
<path d="M144.994 103.536C166.498 103.536 181.73 87.7919 181.73 65.5199V14.0639H171.746V65.5199C171.746 82.4159 160.61 94.4479 144.994 94.4479C129.378 94.4479 118.242 82.4159 118.242 65.5199V14.0639H108.258V65.5199C108.258 87.7919 123.49 103.536 144.994 103.536Z" fill="#353535"/>
<path d="M270.958 42.2239C270.958 25.7119 256.75 14.0639 238.574 14.0639H202.862V102H212.846V70.3839H236.142L258.414 102H269.806L247.022 69.4879C260.974 66.5439 270.958 56.0479 270.958 42.2239ZM212.846 23.5359H236.782C251.118 23.5359 260.846 30.4479 260.846 42.2239C260.846 53.9999 251.118 60.9119 236.782 60.9119H212.846V23.5359Z" fill="#353535"/>
<path d="M385.061 14.0639V52.4639H333.221V14.0639H323.237V102H333.221V61.9359H385.061V102H395.045V14.0639H385.061Z" fill="#353535"/>
<path d="M415.237 102H425.221V14.0639H415.237V102Z" fill="#353535"/>
<path d="M475.951 103.408C496.431 103.408 506.927 92.0159 506.927 78.0639C506.927 62.5759 494.895 56.5599 478.127 52.5919C463.151 49.0079 454.447 45.8079 454.447 36.7199C454.447 28.6559 462.383 21.4879 473.263 21.4879C482.479 21.4879 491.183 25.7119 498.479 32.7519L504.623 24.9439C496.559 17.5199 486.831 12.3999 473.775 12.3999C456.879 12.3999 444.335 23.4079 444.335 37.4879C444.335 52.7199 455.471 58.2239 473.135 62.3199C488.495 65.9039 496.815 69.6159 496.815 78.9599C496.815 86.8959 489.903 94.3199 476.335 94.3199C464.047 94.3199 454.959 89.0719 447.535 81.6479L441.263 89.4559C450.095 98.1599 461.487 103.408 475.951 103.408Z" fill="#353535"/>
<path d="M549.203 102H559.187V23.5359H588.755V14.0639H519.635V23.5359H549.203V102Z" fill="#353535"/>
<path d="M640.712 103.536C665.16 103.536 685.64 82.6719 685.64 57.9679C685.64 33.2639 665.16 12.5279 640.712 12.5279C616.392 12.5279 595.656 33.2639 595.656 57.9679C595.656 82.6719 616.392 103.536 640.712 103.536ZM640.712 94.3199C621.768 94.3199 605.768 77.6799 605.768 57.9679C605.768 38.3839 621.768 21.7439 640.712 21.7439C659.656 21.7439 675.528 38.3839 675.528 57.9679C675.528 77.6799 659.656 94.3199 640.712 94.3199Z" fill="#353535"/>
<path d="M770.458 42.2239C770.458 25.7119 756.25 14.0639 738.074 14.0639H702.362V102H712.346V70.3839H735.642L757.914 102H769.306L746.522 69.4879C760.474 66.5439 770.458 56.0479 770.458 42.2239ZM712.346 23.5359H736.282C750.618 23.5359 760.346 30.4479 760.346 42.2239C760.346 53.9999 750.618 60.9119 736.282 60.9119H712.346V23.5359Z" fill="#353535"/>
<path d="M808.76 102H819.256V66.1599L854.584 14.0639H842.552L814.008 56.6879L785.72 14.0639H773.304L808.76 66.1599V102Z" fill="#353535"/>
<path d="M756.362 240H766.346V152.064H756.362V240Z" fill="#353535"/>
<path d="M788.532 240H798.516V168.448L853.044 240H863.028V152.064H853.044V223.616L798.516 152.064H788.532V240Z" fill="#353535"/>
<path d="M963.837 241.536C975.997 241.536 987.261 236.288 995.453 228.096L988.669 221.184C982.269 227.968 973.437 232.32 963.837 232.32C944.893 232.32 928.893 215.68 928.893 195.968C928.893 176.384 944.893 159.744 963.837 159.744C973.437 159.744 982.269 164.096 988.669 170.88L995.453 163.968C987.261 155.648 975.997 150.528 963.837 150.528C939.517 150.528 918.781 171.264 918.781 195.968C918.781 220.672 939.517 241.536 963.837 241.536Z" fill="#353535"/>
<path d="M1080.79 240H1091.67L1052.89 152.064H1042.01L1003.22 240H1014.1L1022.93 220.032H1071.96L1080.79 240ZM1027.03 210.56L1047.51 164.352L1067.86 210.56H1027.03Z" fill="#353535"/>
<path d="M1136.33 241.408C1156.81 241.408 1167.3 230.016 1167.3 216.064C1167.3 200.576 1155.27 194.56 1138.5 190.592C1123.53 187.008 1114.82 183.808 1114.82 174.72C1114.82 166.656 1122.76 159.488 1133.64 159.488C1142.85 159.488 1151.56 163.712 1158.85 170.752L1165 162.944C1156.93 155.52 1147.21 150.4 1134.15 150.4C1117.25 150.4 1104.71 161.408 1104.71 175.488C1104.71 190.72 1115.85 196.224 1133.51 200.32C1148.87 203.904 1157.19 207.616 1157.19 216.96C1157.19 224.896 1150.28 232.32 1136.71 232.32C1124.42 232.32 1115.33 227.072 1107.91 219.648L1101.64 227.456C1110.47 236.16 1121.86 241.408 1136.33 241.408Z" fill="#353535"/>
<path d="M1247.47 161.536V152.064H1184.36V240H1247.47V230.528H1194.47V199.936H1242.22V190.464H1194.47V161.536H1247.47Z" fill="#353535"/>
<path d="M1295.08 241.408C1315.56 241.408 1326.05 230.016 1326.05 216.064C1326.05 200.576 1314.02 194.56 1297.25 190.592C1282.28 187.008 1273.57 183.808 1273.57 174.72C1273.57 166.656 1281.51 159.488 1292.39 159.488C1301.6 159.488 1310.31 163.712 1317.6 170.752L1323.75 162.944C1315.68 155.52 1305.96 150.4 1292.9 150.4C1276 150.4 1263.46 161.408 1263.46 175.488C1263.46 190.72 1274.6 196.224 1292.26 200.32C1307.62 203.904 1315.94 207.616 1315.94 216.96C1315.94 224.896 1309.03 232.32 1295.46 232.32C1283.17 232.32 1274.08 227.072 1266.66 219.648L1260.39 227.456C1269.22 236.16 1280.61 241.408 1295.08 241.408Z" fill="#353535"/>
<path d="M928.5 0L929.597 16.1374C931.028 37.2018 947.798 53.9716 968.863 55.4032L985 56.5L968.863 57.5968C947.798 59.0284 931.028 75.7982 929.597 96.8626L928.5 113L927.403 96.8626C925.972 75.7982 909.202 59.0284 888.137 57.5968L872 56.5L888.137 55.4032C909.202 53.9716 925.972 37.2018 927.403 16.1374L928.5 0Z" fill="#8C64FF"/>
</svg>
