<svg width="666" height="95" viewBox="0 0 666 95" fill="none" xmlns="http://www.w3.org/2000/svg">
<path d="M25.9271 94.1467C20.1671 94.1531 15.9096 92.8138 13.1547 90.1289C10.4637 87.5079 9.11518 83.4134 9.10898 77.8454L9.08837 59.3174C9.08609 57.2694 8.54042 55.766 7.45135 54.8072C6.42621 53.7844 4.79364 53.2742 2.55364 53.2767L0.441646 53.279L0.429898 42.719L2.5419 42.7167C4.7819 42.7142 6.41332 42.2004 7.43618 41.1752C8.52304 40.15 9.06533 38.6134 9.06306 36.5654L9.0417 17.3654C9.0355 11.7974 10.3749 7.69994 13.06 5.07295C15.809 2.38189 20.0635 1.03316 25.8235 1.02675L30.8155 1.0212L30.8278 12.0612L26.9878 12.0655C23.0198 12.0699 21.0381 14.1521 21.0428 18.3121L21.063 36.5521C21.0673 40.3281 20.2063 43.113 18.4803 44.907C16.8183 46.6368 14.2272 47.5037 10.7072 47.5076L10.7083 48.4676C14.2283 48.4637 16.8213 49.3568 18.4873 51.1469C20.2172 52.873 21.0842 55.5921 21.0884 59.3041L21.1079 76.872C21.1125 81.032 23.0988 83.1098 27.0668 83.1054L30.9068 83.1011L30.9191 94.1411L25.9271 94.1467Z" fill="white"/>
<path d="M65.4581 75.8627L65.3993 23.0627L78.8393 23.0478L78.8648 45.9918L78.9608 45.9917L106.583 23.0169L124.439 22.9971L92.7878 48.6643L124.402 75.7971L106.642 75.8169L78.9668 51.3677L78.8708 51.3678L78.8981 75.8478L65.4581 75.8627Z" fill="white"/>
<path d="M159.289 76.7183C152.249 76.7262 146.167 75.5489 141.045 73.1866C135.986 70.7602 132.11 67.4685 129.418 63.3115C126.789 59.1545 125.472 54.5159 125.466 49.3959C125.46 44.2759 126.767 39.6345 129.387 35.4716C132.07 31.3086 135.938 28.0403 140.992 25.6666C146.109 23.2289 152.188 22.0062 159.228 21.9983C166.268 21.9905 172.317 23.1998 177.376 25.6262C182.498 27.9885 186.374 31.2482 189.003 35.4052C191.695 39.5622 193.044 44.2007 193.05 49.3207C193.056 54.4407 191.717 59.0822 189.034 63.2452C186.414 67.4081 182.546 70.7084 177.429 73.1461C172.375 75.5198 166.329 76.7105 159.289 76.7183ZM159.277 66.1583C163.501 66.1536 167.084 65.4456 170.026 64.0344C173.033 62.623 175.303 60.6365 176.836 58.0748C178.369 55.5131 179.134 52.6002 179.13 49.3362C179.126 46.0722 178.355 43.1611 176.816 40.6028C175.278 38.0445 173.003 36.063 169.994 34.6584C167.048 33.2537 163.463 32.5536 159.239 32.5583C155.015 32.563 151.4 33.2711 148.394 34.6824C145.451 36.0937 143.214 38.0802 141.68 40.6419C140.147 43.2036 139.383 46.1164 139.386 49.3804C139.39 52.6444 140.161 55.5556 141.7 58.1139C143.239 60.6722 145.481 62.6537 148.426 64.0584C151.436 65.4631 155.053 66.163 159.277 66.1583Z" fill="white"/>
<path d="M247.292 75.6604L247.233 22.8604L260.673 22.8455L260.732 75.6455L247.292 75.6604ZM203.132 75.7095L203.073 22.9096L216.513 22.8946L216.572 75.6946L203.132 75.7095ZM215.012 54.0963L214.999 43.0563L248.791 43.0187L248.804 54.0587L215.012 54.0963Z" fill="white"/>
<path d="M290.249 75.6126L290.202 33.8526L266.97 33.8785L266.958 22.8385L326.862 22.7718L326.874 33.8118L303.642 33.8377L303.689 75.5977L290.249 75.6126Z" fill="white"/>
<path d="M351.167 76.5048C344.575 76.5122 339.517 75.1098 335.994 72.2977C332.471 69.4216 330.707 65.7116 330.702 61.1676C330.696 56.1116 332.804 52.0773 337.024 49.0646C341.245 46.0519 347.931 44.5404 357.083 44.5302C362.459 44.5243 366.523 44.2957 369.275 43.8447C372.026 43.3936 373.849 42.8156 374.745 42.1106C375.64 41.3416 376.087 40.4131 376.086 39.3251C376.084 38.1731 375.571 37.1177 374.546 36.1588C373.585 35.1359 371.888 34.3378 369.455 33.7645C367.087 33.1271 363.854 32.8107 359.758 32.8153C354.958 32.8206 350.191 33.4979 345.457 34.8472C340.786 36.1324 337.076 37.6085 334.326 39.2756L334.313 27.5636C336.679 26.0889 340.261 24.7729 345.06 23.6156C349.859 22.3943 355.074 21.7805 360.706 21.7742C367.554 21.7666 373.123 22.5284 377.413 24.0596C381.702 25.5268 384.777 27.6034 386.636 30.2894C388.559 32.9752 389.522 36.2061 389.526 39.9821L389.566 75.5021L376.126 75.5171L376.117 67.3571L375.829 67.3574C374.55 68.7668 372.696 70.1769 370.266 71.5876C367.899 72.9982 365.052 74.1854 361.725 75.1491C358.462 76.0487 354.943 76.5006 351.167 76.5048ZM355.955 65.9395C359.219 65.9359 362.195 65.5806 364.882 64.8736C367.633 64.1665 369.936 63.268 371.791 62.1779C373.71 61.0878 375.149 59.9982 376.107 58.9091L376.096 48.7331C375.265 49.182 374.305 49.5991 373.217 49.9843C372.13 50.3695 370.37 50.7555 367.939 51.1422C365.507 51.4649 362.307 51.6604 358.339 51.7289C353.475 51.7983 349.956 52.5062 347.782 53.8526C345.671 55.1989 344.617 56.9281 344.62 59.0401C344.622 61.0241 345.552 62.6871 347.409 64.029C349.331 65.3069 352.179 65.9437 355.955 65.9395Z" fill="white"/>
<path d="M400.595 75.4899L400.537 22.6899L413.977 22.6749L414.002 45.6189L414.098 45.6188L441.721 22.6441L459.577 22.6242L427.925 48.2914L459.539 75.4243L441.779 75.444L414.104 50.9948L414.008 50.9949L414.035 75.4749L400.595 75.4899Z" fill="white"/>
<path d="M481.9 75.3994L481.853 33.6394L458.621 33.6653L458.609 22.6253L518.513 22.5586L518.525 33.5986L495.293 33.6245L495.34 75.3844L481.9 75.3994Z" fill="white"/>
<path d="M558.042 39.9867C565.53 39.9783 571.228 41.604 575.135 44.8637C579.107 48.0592 581.095 52.313 581.101 57.625C581.107 62.937 579.128 67.2272 575.164 70.4956C571.263 73.7 565.569 75.3063 558.081 75.3146L524.769 75.3517L524.71 22.5517L538.15 22.5368L538.179 48.7448L538.198 65.2568L556.63 65.2363C560.15 65.2323 562.773 64.5574 564.5 63.2115C566.29 61.8015 567.184 59.9445 567.181 57.6405C567.179 55.3365 566.281 53.5135 564.487 52.1715C562.758 50.7654 560.133 50.0643 556.613 50.0683L536.453 50.0907L536.442 40.0107L558.042 39.9867ZM587.361 75.2821L587.302 22.4821L600.742 22.4671L600.801 75.2671L587.361 75.2821Z" fill="white"/>
<path d="M635.351 93.4687L635.338 82.4287L639.178 82.4244C643.146 82.42 645.128 80.3378 645.123 76.1778L645.104 58.6098C645.1 54.8978 645.929 52.1769 647.591 50.447C649.317 48.6531 651.94 47.7542 655.46 47.7503L655.459 46.7903C651.939 46.7942 649.314 45.9331 647.584 44.207C645.918 42.4169 645.083 39.6338 645.078 35.8578L645.058 17.6178C645.054 13.4578 643.067 11.3801 639.099 11.3845L635.259 11.3887L635.247 0.348745L640.239 0.343191C645.999 0.336783 650.224 1.67608 652.915 4.36109C655.67 6.98203 657.051 11.0765 657.057 16.6445L657.078 35.8445C657.081 37.8925 657.594 39.4279 658.62 40.4508C659.709 41.4736 661.373 41.9837 663.613 41.9812L665.725 41.9789L665.737 52.5389L663.625 52.5412C661.385 52.5437 659.722 53.0576 658.635 54.0828C657.612 55.0439 657.101 56.5485 657.104 58.5965L657.124 77.1245C657.131 82.6925 655.759 86.79 653.01 89.417C650.325 92.108 646.103 93.4567 640.343 93.4631L635.351 93.4687Z" fill="white"/>
</svg>
