<svg width="1326" height="254" viewBox="0 0 1326 254" fill="none" xmlns="http://www.w3.org/2000/svg">
<path d="M10.6881 104.528V26.0639H0.704102V114H58.6881V104.528H10.6881Z" fill="#353535"/>
<path d="M136.216 35.5359V26.0639H73.1121V114H136.216V104.528H83.2241V73.9359H130.968V64.4639H83.2241V35.5359H136.216Z" fill="#353535"/>
<path d="M178.578 114H188.562V35.5359H218.13V26.0639H149.01V35.5359H178.578V114Z" fill="#353535"/>
<path d="M238.723 56.9119C246.403 47.3119 248.579 42.9599 248.579 37.8399C248.579 31.9519 245.635 27.5999 240.771 27.5999C236.675 27.5999 233.731 30.7999 233.731 34.3839C233.731 38.2239 236.803 41.4239 240.643 41.4239C239.619 45.3919 237.443 49.3599 233.987 53.3279L238.723 56.9119Z" fill="#353535"/>
<path d="M298.201 115.408C318.681 115.408 329.177 104.016 329.177 90.0639C329.177 74.5759 317.145 68.5599 300.377 64.5919C285.401 61.0079 276.697 57.8079 276.697 48.7199C276.697 40.6559 284.633 33.4879 295.513 33.4879C304.729 33.4879 313.433 37.7119 320.729 44.7519L326.873 36.9439C318.809 29.5199 309.081 24.3999 296.025 24.3999C279.129 24.3999 266.585 35.4079 266.585 49.4879C266.585 64.7199 277.721 70.2239 295.385 74.3199C310.745 77.9039 319.065 81.6159 319.065 90.9599C319.065 98.8959 312.153 106.32 298.585 106.32C286.297 106.32 277.209 101.072 269.785 93.6479L263.513 101.456C272.345 110.16 283.737 115.408 298.201 115.408Z" fill="#353535"/>
<path d="M408.066 114H417.922L442.498 39.1199L466.946 114H476.802L506.882 26.0639H495.618L471.298 97.2319L448.002 26.0639H436.866L413.57 97.2319L389.25 26.0639H377.986L408.066 114Z" fill="#353535"/>
<path d="M563.337 115.536C587.785 115.536 608.265 94.6719 608.265 69.9679C608.265 45.2639 587.785 24.5279 563.337 24.5279C539.017 24.5279 518.281 45.2639 518.281 69.9679C518.281 94.6719 539.017 115.536 563.337 115.536ZM563.337 106.32C544.393 106.32 528.393 89.6799 528.393 69.9679C528.393 50.3839 544.393 33.7439 563.337 33.7439C582.281 33.7439 598.153 50.3839 598.153 69.9679C598.153 89.6799 582.281 106.32 563.337 106.32Z" fill="#353535"/>
<path d="M693.083 54.2239C693.083 37.7119 678.875 26.0639 660.699 26.0639H624.987V114H634.971V82.3839H658.267L680.539 114H691.931L669.147 81.4879C683.099 78.5439 693.083 68.0479 693.083 54.2239ZM634.971 35.5359H658.907C673.243 35.5359 682.971 42.4479 682.971 54.2239C682.971 65.9999 673.243 72.9119 658.907 72.9119H634.971V35.5359Z" fill="#353535"/>
<path d="M709.901 114H719.885V87.6319L733.709 73.0399L767.117 114H780.045L740.621 66.2559L777.613 26.0639H764.429L719.885 74.7039V26.0639H709.901V114Z" fill="#353535"/>
<path d="M676.203 252H686.187V173.536H715.755V164.064H646.635V173.536H676.203V252Z" fill="#353535"/>
<path d="M767.712 253.536C792.16 253.536 812.64 232.672 812.64 207.968C812.64 183.264 792.16 162.528 767.712 162.528C743.392 162.528 722.656 183.264 722.656 207.968C722.656 232.672 743.392 253.536 767.712 253.536ZM767.712 244.32C748.768 244.32 732.768 227.68 732.768 207.968C732.768 188.384 748.768 171.744 767.712 171.744C786.656 171.744 802.528 188.384 802.528 207.968C802.528 227.68 786.656 244.32 767.712 244.32Z" fill="#353535"/>
<path d="M869.938 215.136H895.154V236.128C888.626 241.12 879.154 244.32 870.962 244.32C852.018 244.32 836.018 227.68 836.018 207.968C836.018 188.384 852.018 171.744 870.962 171.744C880.562 171.744 891.954 176.096 898.354 182.88L905.138 175.968C896.946 167.648 883.122 162.528 870.962 162.528C846.642 162.528 825.906 183.264 825.906 207.968C825.906 232.672 846.642 253.536 870.962 253.536C883.122 253.536 896.946 248.288 905.138 240.096V205.664H869.938V215.136Z" fill="#353535"/>
<path d="M987.841 173.536V164.064H924.737V252H987.841V242.528H934.849V211.936H982.593V202.464H934.849V173.536H987.841Z" fill="#353535"/>
<path d="M1030.2 252H1040.19V173.536H1069.76V164.064H1000.64V173.536H1030.2V252Z" fill="#353535"/>
<path d="M1147.44 164.064V202.464H1095.6V164.064H1085.61V252H1095.6V211.936H1147.44V252H1157.42V164.064H1147.44Z" fill="#353535"/>
<path d="M1240.72 173.536V164.064H1177.61V252H1240.72V242.528H1187.72V211.936H1235.47V202.464H1187.72V173.536H1240.72Z" fill="#353535"/>
<path d="M1325.96 192.224C1325.96 175.712 1311.75 164.064 1293.57 164.064H1257.86V252H1267.85V220.384H1291.14L1313.41 252H1324.81L1302.02 219.488C1315.97 216.544 1325.96 206.048 1325.96 192.224ZM1267.85 173.536H1291.78C1306.12 173.536 1315.85 180.448 1315.85 192.224C1315.85 204 1306.12 210.912 1291.78 210.912H1267.85V173.536Z" fill="#353535"/>
<path d="M864 0L865.339 19.7076C867.088 45.4323 887.568 65.9122 913.292 67.6606L933 69L913.292 70.3394C887.568 72.0878 867.088 92.5677 865.339 118.292L864 138L862.661 118.292C860.912 92.5677 840.432 72.0878 814.708 70.3394L795 69L814.708 67.6606C840.432 65.9122 860.912 45.4323 862.661 19.7076L864 0Z" fill="#8C64FF"/>
</svg>
