<svg width="1329" height="252" viewBox="0 0 1329 252" fill="none" xmlns="http://www.w3.org/2000/svg">
<path d="M30.8163 112H40.6723L65.2483 37.12L89.6963 112H99.5523L129.632 24.064H118.368L94.0483 95.232L70.7523 24.064H59.6163L36.3203 95.232L12.0003 24.064H0.736328L30.8163 112Z" fill="#353535"/>
<path d="M207.591 33.536V24.064H144.487V112H207.591V102.528H154.599V71.936H202.343V62.464H154.599V33.536H207.591Z" fill="#353535"/>
<path d="M333.414 112H344.294L305.51 24.064H294.63L255.846 112H266.726L275.558 92.032H324.582L333.414 112ZM279.654 82.56L300.134 36.352L320.486 82.56H279.654Z" fill="#353535"/>
<path d="M426.583 52.224C426.583 35.712 412.375 24.064 394.199 24.064H358.487V112H368.471V80.384H391.767L414.039 112H425.431L402.647 79.488C416.599 76.544 426.583 66.048 426.583 52.224ZM368.471 33.536H392.407C406.743 33.536 416.471 40.448 416.471 52.224C416.471 64 406.743 70.912 392.407 70.912H368.471V33.536Z" fill="#353535"/>
<path d="M504.841 33.536V24.064H441.737V112H504.841V102.528H451.849V71.936H499.593V62.464H451.849V33.536H504.841Z" fill="#353535"/>
<path d="M624.657 250H654.353C682.257 250 701.969 231.696 701.969 205.968C701.969 180.24 682.257 162.064 654.353 162.064H624.657V250ZM634.641 240.912V171.152H654.353C676.369 171.152 691.857 185.616 691.857 205.968C691.857 226.448 676.369 240.912 654.353 240.912H634.641Z" fill="#353535"/>
<path d="M783.341 171.536V162.064H720.237V250H783.341V240.528H730.349V209.936H778.093V200.464H730.349V171.536H783.341Z" fill="#353535"/>
<path d="M830.951 251.408C851.431 251.408 861.927 240.016 861.927 226.064C861.927 210.576 849.895 204.56 833.127 200.592C818.151 197.008 809.447 193.808 809.447 184.72C809.447 176.656 817.383 169.488 828.263 169.488C837.479 169.488 846.183 173.712 853.479 180.752L859.623 172.944C851.559 165.52 841.831 160.4 828.775 160.4C811.879 160.4 799.335 171.408 799.335 185.488C799.335 200.72 810.471 206.224 828.135 210.32C843.495 213.904 851.815 217.616 851.815 226.96C851.815 234.896 844.903 242.32 831.335 242.32C819.047 242.32 809.959 237.072 802.535 229.648L796.263 237.456C805.095 246.16 816.487 251.408 830.951 251.408Z" fill="#353535"/>
<path d="M878.987 250H888.971V162.064H878.987V250Z" fill="#353535"/>
<path d="M949.813 213.136H975.029V234.128C968.501 239.12 959.029 242.32 950.837 242.32C931.893 242.32 915.893 225.68 915.893 205.968C915.893 186.384 931.893 169.744 950.837 169.744C960.437 169.744 971.829 174.096 978.229 180.88L985.013 173.968C976.821 165.648 962.997 160.528 950.837 160.528C926.517 160.528 905.781 181.264 905.781 205.968C905.781 230.672 926.517 251.536 950.837 251.536C962.997 251.536 976.821 246.288 985.013 238.096V203.664H949.813V213.136Z" fill="#353535"/>
<path d="M1006.53 250H1016.52V178.448L1071.04 250H1081.03V162.064H1071.04V233.616L1016.52 162.064H1006.53V250Z" fill="#353535"/>
<path d="M1166.22 171.536V162.064H1103.11V250H1166.22V240.528H1113.22V209.936H1160.97V200.464H1113.22V171.536H1166.22Z" fill="#353535"/>
<path d="M1251.46 190.224C1251.46 173.712 1237.25 162.064 1219.07 162.064H1183.36V250H1193.35V218.384H1216.64L1238.91 250H1250.31L1227.52 217.488C1241.47 214.544 1251.46 204.048 1251.46 190.224ZM1193.35 171.536H1217.28C1231.62 171.536 1241.35 178.448 1241.35 190.224C1241.35 202 1231.62 208.912 1217.28 208.912H1193.35V171.536Z" fill="#353535"/>
<path d="M1297.08 251.408C1317.56 251.408 1328.05 240.016 1328.05 226.064C1328.05 210.576 1316.02 204.56 1299.25 200.592C1284.28 197.008 1275.57 193.808 1275.57 184.72C1275.57 176.656 1283.51 169.488 1294.39 169.488C1303.6 169.488 1312.31 173.712 1319.6 180.752L1325.75 172.944C1317.68 165.52 1307.96 160.4 1294.9 160.4C1278 160.4 1265.46 171.408 1265.46 185.488C1265.46 200.72 1276.6 206.224 1294.26 210.32C1309.62 213.904 1317.94 217.616 1317.94 226.96C1317.94 234.896 1311.03 242.32 1297.46 242.32C1285.17 242.32 1276.08 237.072 1268.66 229.648L1262.39 237.456C1271.22 246.16 1282.61 251.408 1297.08 251.408Z" fill="#353535"/>
<path d="M606 0L607.339 19.7076C609.088 45.4323 629.568 65.9122 655.292 67.6606L675 69L655.292 70.3394C629.568 72.0878 609.088 92.5677 607.339 118.292L606 138L604.661 118.292C602.912 92.5677 582.432 72.0878 556.708 70.3394L537 69L556.708 67.6606C582.432 65.9122 602.912 45.4323 604.661 19.7076L606 0Z" fill="#8C64FF"/>
</svg>
