<svg width="59" height="15" viewBox="0 0 59 15" fill="none" xmlns="http://www.w3.org/2000/svg">
<path d="M18.0265 5.7988C18.7018 5.7988 19.2491 5.25123 19.2491 4.5758C19.2491 3.90037 18.7018 3.3528 18.0265 3.3528C17.3512 3.3528 16.8038 3.90037 16.8038 4.5758C16.8038 5.25123 17.3512 5.7988 18.0265 5.7988ZM58.377 9.97735C58.191 9.84652 58.0474 9.8249 57.9283 10.0789C55.8748 14.5264 52.4143 12.3071 52.7582 12.5024C53.5257 12.1512 55.5444 10.5322 55.2393 8.29669C55.054 6.93044 53.8814 6.32443 52.6367 6.54144C50.4642 6.92017 49.6648 9.26352 50.0718 11.3383C50.143 11.6945 50.2702 11.9884 50.3973 12.2763C47.9421 14.2728 46.9672 10.4889 46.8565 10.0368C46.8521 10.0127 48.7522 8.42883 49.2807 4.65474C49.8346 0.699317 48.5728 -0.020814 47.2824 0.00163097C44.8948 0.0432424 44.2497 5.03182 45.1164 9.18944C45.0439 9.20835 44.706 9.39548 44.1631 9.41641C43.7724 8.1873 42.1034 7.10988 41.6664 7.52498C40.5731 8.56369 41.9316 10.5941 42.8874 10.7535C42.3132 14.2901 38.7222 13.4141 39.3907 8.98327C40.5601 6.81179 41.4495 3.5828 41.2907 1.63349C41.2346 0.943311 40.7243 0.0186538 39.5702 0.0643634C37.3508 0.152252 37.1095 5.14222 37.3697 8.6838C37.3567 8.5966 37.2333 9.1141 36.3238 9.37146C36.1086 8.17721 34.1858 6.97855 33.7331 7.55487C32.8858 8.63349 34.3542 10.5566 35.0498 10.6908C34.4756 14.2274 30.8847 13.3514 31.5531 8.92054C32.7225 6.74905 33.6118 3.52007 33.4531 1.57076C33.3969 0.880578 32.8867 -0.0440786 31.7326 0.00163097C29.5131 0.0895825 29.2718 5.07949 29.5321 8.62107C29.519 8.53255 29.3926 9.067 28.446 9.3202C28.4143 7.77087 26.4844 7.06051 26.0208 7.55487C25.1947 8.43596 26.21 10.244 27.1495 10.6908C26.5753 14.2274 22.9843 13.3514 23.6528 8.92054C24.8222 6.74905 25.7115 3.52007 25.5528 1.57076C25.4966 0.880578 24.9864 -0.0440786 23.8323 0.00163097C21.6128 0.0895825 21.4343 5.33036 21.6945 8.87193C20.9635 12.0041 18.5119 15.9156 18.8303 8.07999C18.8618 7.5304 18.8961 7.32159 18.6221 7.11587C18.4167 6.95585 17.9498 7.03277 17.6946 7.0392C17.3844 7.05162 17.3066 7.2332 17.2381 7.50752C17.0783 8.21598 17.0497 8.90276 17.0268 9.83984C17.0118 10.2782 16.9767 10.4827 16.8079 11.0804C16.6392 11.6781 15.6775 12.7704 15.1508 12.5878C14.4203 12.3365 14.6598 10.2741 14.7968 8.85705C14.9109 7.73714 14.5457 7.23433 13.6097 7.05143C13.0617 6.93719 12.7288 6.95478 12.1582 6.7749C11.6185 6.6048 11.4964 5.584 10.3456 5.9242C9.71596 6.11038 10.1207 7.44428 9.96941 8.43293C9.22558 13.2959 7.67782 13.4294 6.95977 11.0671C10.1936 3.14708 7.89527 0.0247064 6.55008 0.0247064C5.14879 0.0247064 3.547 0.98984 4.22526 7.16548C3.89546 7.06927 3.79408 7.01745 3.43307 7.01745C1.39121 7.01745 0 8.6681 0 10.7043C0 12.7405 1.39121 14.3911 3.43307 14.3911C4.63848 14.3911 5.48464 13.843 6.12565 12.9949C6.54378 13.5938 7.05302 14.4004 7.98423 14.3641C10.7598 14.256 11.5672 8.56237 11.6624 8.2448C11.9591 8.29051 12.2399 8.37707 12.5138 8.42278C12.9704 8.49138 13.0035 8.67207 12.9932 9.13131C12.8723 13.0036 13.5868 14.3594 15.2077 14.3594C16.1108 14.3594 16.9158 13.4722 17.4703 12.8377C17.8844 13.6925 18.5443 14.3333 19.4297 14.3594C21.575 14.4127 22.3964 10.9934 22.3215 11.4434C22.2628 11.7965 23.0175 14.3401 25.2261 14.3494C27.9619 14.3608 28.4704 11.3523 28.5311 10.8483C28.5419 10.7586 28.5386 10.748 28.5311 10.8483C28.5304 10.8577 28.5296 10.8676 28.5289 10.8789C29.3974 10.7174 29.8456 10.2517 29.8456 10.2517C29.8456 10.2517 30.543 14.3962 33.1264 14.3494C35.8089 14.3008 36.3148 11.5813 36.3813 11.051C36.3952 10.9399 36.39 10.9251 36.3813 11.051C36.3809 11.0562 36.3806 11.0608 36.3802 11.0666C37.4119 10.6912 37.6832 10.3145 37.6832 10.3145C37.6832 10.3145 38.2376 14.3765 40.964 14.4121C43.3936 14.4438 44.294 11.9558 44.2993 10.9144C44.7091 10.9188 45.4671 10.6714 45.4493 10.6572C45.4493 10.6572 46.3393 14.2087 48.8245 14.3911C49.9914 14.4767 50.8667 13.7346 51.3657 13.396C52.5384 14.3457 56.4431 15.5586 58.9086 11.3785C59.2565 10.7786 58.5084 10.0698 58.377 9.97735ZM3.33453 13.0121C2.14324 13.0121 1.37936 11.9106 1.37936 10.7229C1.37936 9.53526 2.08051 8.43375 3.2718 8.43375C3.80795 8.43375 4.10604 8.49276 4.52361 8.85592C4.59939 9.1542 4.81388 9.84242 4.91835 10.155C5.05819 10.5731 5.22457 10.9291 5.3924 11.3165C5.15263 12.3102 4.36693 13.0121 3.33453 13.0121ZM6.23749 8.89085C6.188 8.81191 6.19828 8.86039 6.14286 8.78581C5.92453 8.19184 5.50368 6.86588 5.45495 5.3598C5.39984 3.65625 5.68381 1.65941 6.52089 1.65941C7.08807 1.65941 7.69087 5.70637 6.23749 8.89085ZM23.0112 7.11587C22.8768 6.1049 22.8698 1.59806 23.9517 1.72214C24.5491 1.96412 23.573 6.21693 23.0112 7.11587ZM30.9115 7.11587C30.7771 6.1049 30.7701 1.59806 31.8521 1.72214C32.4494 1.96412 31.4733 6.21693 30.9115 7.11587ZM38.7492 7.1786C38.6147 6.16763 38.6077 1.66079 39.6896 1.78487C40.287 2.02685 39.3108 6.27966 38.7492 7.1786ZM47.4019 1.45835C48.3911 1.35583 48.3502 5.67554 46.3647 8.40261C46.1088 7.41698 45.7162 1.79685 47.4019 1.45835ZM51.5596 10.7535C51.2419 9.14858 52.0628 8.09449 52.9091 7.97892C53.2048 7.93164 53.6335 8.1233 53.719 8.48154C53.8596 9.15672 53.6986 10.1582 51.8045 11.4289C51.8073 11.4397 51.6304 11.1108 51.5596 10.7535Z" fill="white"/>
</svg>
