<svg width="885" height="849" viewBox="0 0 885 849" fill="none" xmlns="http://www.w3.org/2000/svg">
<path d="M864 339C875.685 526.415 758.322 687.406 536 719C313.678 750.594 123.685 612.415 112 425C100.315 237.585 221.379 88.7998 443.701 57.2059C666.023 25.612 852.315 151.585 864 339Z" fill="url(#paint0_linear_11_77)"/>
<g filter="url(#filter0_b_11_77)">
<path d="M843.321 376.113C855.859 577.207 748.459 748.544 506 783C263.541 817.456 34.5379 676.094 22 475C9.46214 273.906 139.148 108.843 381.608 74.3875C624.067 39.9318 830.783 175.019 843.321 376.113Z" fill="#96FFC0" fill-opacity="0.01"/>
</g>
<defs>
<filter id="filter0_b_11_77" x="-28.8315" y="19.0217" width="923.133" height="819.158" filterUnits="userSpaceOnUse" color-interpolation-filters="sRGB">
<feFlood flood-opacity="0" result="BackgroundImageFix"/>
<feGaussianBlur in="BackgroundImageFix" stdDeviation="25"/>
<feComposite in2="SourceAlpha" operator="in" result="effect1_backgroundBlur_11_77"/>
<feBlend mode="normal" in="SourceGraphic" in2="effect1_backgroundBlur_11_77" result="shape"/>
</filter>
<linearGradient id="paint0_linear_11_77" x1="828.852" y1="221.592" x2="157.325" y2="627.211" gradientUnits="userSpaceOnUse">
<stop offset="0.14061" stop-color="#96FFC0"/>
<stop offset="1" stop-color="#93F8BB" stop-opacity="0"/>
</linearGradient>
</defs>
</svg>
