<svg width="163" height="32" viewBox="0 0 163 32" fill="none" xmlns="http://www.w3.org/2000/svg">
<path d="M162.363 10.5639C162.415 11.3594 162.021 12.2387 161.055 13.2004C160.091 14.1595 158.613 15.1438 156.643 16.1318C152.708 18.106 146.924 20.0414 139.698 21.8253C125.255 25.3913 105.151 28.3291 82.8155 29.7874C60.4795 31.2457 40.1649 30.9468 25.3807 29.2892C17.9844 28.4599 11.997 27.2931 7.83875 25.8474C5.7575 25.1238 4.16361 24.3401 3.08356 23.5144C2.00062 22.6865 1.49558 21.8659 1.44364 21.0704C1.3917 20.2749 1.78576 19.3956 2.75185 18.4339C3.71536 17.4748 5.19383 16.4905 7.16332 15.5024C11.0983 13.5283 16.8831 11.5929 24.1088 9.80895C38.552 6.243 58.6552 3.30522 80.9912 1.84689C103.327 0.388555 123.642 0.687432 138.426 2.34511C145.822 3.17441 151.81 4.34119 155.968 5.7869C158.049 6.51048 159.643 7.29415 160.723 8.11986C161.806 8.94778 162.311 9.76835 162.363 10.5639Z" stroke="#8C64FF"/>
</svg>
