<svg width="1382" height="34" viewBox="0 0 1382 34" fill="none" xmlns="http://www.w3.org/2000/svg">
<path fill-rule="evenodd" clip-rule="evenodd" d="M11.6569 1.5C10.7286 1.5 9.83836 1.86875 9.18198 2.52513L2.52513 9.18198C1.86875 9.83836 1.5 10.7286 1.5 11.6569V34H0.5V11.6569C0.5 10.4634 0.974105 9.31879 1.81802 8.47487L8.47487 1.81802C9.31879 0.974106 10.4634 0.5 11.6569 0.5H1325V1.5H11.6569Z" fill="#D9D9D9" fill-opacity="0.5"/>
<path fill-rule="evenodd" clip-rule="evenodd" d="M1370.34 1.5C1371.27 1.5 1372.16 1.86875 1372.82 2.52513L1379.47 9.18198C1380.13 9.83836 1380.5 10.7286 1380.5 11.6569V34H1381.5V11.6569C1381.5 10.4634 1381.03 9.31879 1380.18 8.47487L1373.53 1.81802C1372.68 0.974106 1371.54 0.5 1370.34 0.5H1325V1.5H1370.34Z" fill="#D9D9D9" fill-opacity="0.5"/>
</svg>
