<svg width="165" height="34" viewBox="0 0 165 34" fill="none" xmlns="http://www.w3.org/2000/svg">
<path d="M0.129883 16.704V3.384H2.64988V4.68H2.75788C3.08188 4.332 3.58588 4.002 4.26988 3.69C4.96588 3.366 5.77588 3.204 6.69988 3.204C7.76788 3.204 8.70988 3.426 9.52588 3.87C10.3539 4.314 10.9959 4.926 11.4519 5.706C11.9079 6.474 12.1359 7.35 12.1359 8.334C12.1359 9.318 11.9079 10.2 11.4519 10.98C10.9959 11.748 10.3539 12.354 9.52588 12.798C8.70988 13.242 7.76788 13.464 6.69988 13.464C5.82388 13.464 5.03188 13.314 4.32388 13.014C3.61588 12.702 3.09388 12.36 2.75788 11.988H2.64988V16.704H0.129883ZM5.97988 11.484C6.69988 11.484 7.32388 11.352 7.85188 11.088C8.39188 10.812 8.80588 10.44 9.09388 9.972C9.38188 9.492 9.52588 8.946 9.52588 8.334C9.52588 7.722 9.38188 7.182 9.09388 6.714C8.80588 6.234 8.39188 5.862 7.85188 5.598C7.32388 5.322 6.69988 5.184 5.97988 5.184C5.45188 5.184 4.95988 5.256 4.50388 5.4C4.04788 5.532 3.66388 5.7 3.35188 5.904C3.03988 6.108 2.80588 6.318 2.64988 6.534V10.134C2.80588 10.35 3.03988 10.56 3.35188 10.764C3.66388 10.968 4.04788 11.142 4.50388 11.286C4.95988 11.418 5.45188 11.484 5.97988 11.484Z" fill="#363636"/>
<path d="M18.296 13.464C16.892 13.464 15.812 13.116 15.056 12.42C14.312 11.712 13.94 10.74 13.94 9.504V3.384H16.46V9.18C16.46 9.912 16.682 10.488 17.126 10.908C17.57 11.316 18.2 11.52 19.016 11.52C19.544 11.52 20.024 11.436 20.456 11.268C20.888 11.088 21.248 10.866 21.536 10.602C21.824 10.338 22.034 10.068 22.166 9.792V3.384H24.686V13.284H22.166V11.718H22.058C21.878 11.994 21.608 12.27 21.248 12.546C20.9 12.81 20.468 13.032 19.952 13.212C19.448 13.38 18.896 13.464 18.296 13.464Z" fill="#363636"/>
<path d="M26.8402 13.284V3.384H29.3602V4.95H29.4682C29.6362 4.674 29.8702 4.404 30.1702 4.14C30.4702 3.876 30.8242 3.654 31.2322 3.474C31.6522 3.294 32.0902 3.204 32.5462 3.204H33.5542V5.634H32.5462C31.9462 5.634 31.4182 5.712 30.9622 5.868C30.5182 6.012 30.1582 6.198 29.8822 6.426C29.6182 6.654 29.4442 6.882 29.3602 7.11V13.284H26.8402Z" fill="#363636"/>
<path d="M40.5133 13.464C39.1933 13.464 38.0533 13.242 37.0933 12.798C36.1453 12.342 35.4193 11.724 34.9153 10.944C34.4233 10.164 34.1773 9.294 34.1773 8.334C34.1773 7.374 34.4233 6.504 34.9153 5.724C35.4193 4.944 36.1453 4.332 37.0933 3.888C38.0533 3.432 39.1933 3.204 40.5133 3.204C41.8333 3.204 42.9673 3.432 43.9153 3.888C44.8753 4.332 45.6013 4.944 46.0933 5.724C46.5973 6.504 46.8493 7.374 46.8493 8.334C46.8493 9.294 46.5973 10.164 46.0933 10.944C45.6013 11.724 44.8753 12.342 43.9153 12.798C42.9673 13.242 41.8333 13.464 40.5133 13.464ZM40.5133 11.484C41.3053 11.484 41.9773 11.352 42.5293 11.088C43.0933 10.824 43.5193 10.452 43.8073 9.972C44.0953 9.492 44.2393 8.946 44.2393 8.334C44.2393 7.722 44.0953 7.176 43.8073 6.696C43.5193 6.216 43.0933 5.844 42.5293 5.58C41.9773 5.316 41.3053 5.184 40.5133 5.184C39.7213 5.184 39.0433 5.316 38.4793 5.58C37.9273 5.844 37.5073 6.216 37.2193 6.696C36.9313 7.176 36.7873 7.722 36.7873 8.334C36.7873 8.946 36.9313 9.492 37.2193 9.972C37.5073 10.452 37.9273 10.824 38.4793 11.088C39.0433 11.352 39.7213 11.484 40.5133 11.484Z" fill="#363636"/>
<path d="M48.7341 13.284V0.324H51.2541V13.284H48.7341Z" fill="#363636"/>
<path d="M59.4717 13.464C58.1517 13.464 57.0117 13.242 56.0517 12.798C55.1037 12.342 54.3777 11.724 53.8737 10.944C53.3817 10.164 53.1357 9.294 53.1357 8.334C53.1357 7.374 53.3817 6.504 53.8737 5.724C54.3777 4.944 55.1037 4.332 56.0517 3.888C57.0117 3.432 58.1517 3.204 59.4717 3.204C60.7917 3.204 61.9257 3.432 62.8737 3.888C63.8337 4.332 64.5597 4.944 65.0517 5.724C65.5557 6.504 65.8077 7.374 65.8077 8.334C65.8077 9.294 65.5557 10.164 65.0517 10.944C64.5597 11.724 63.8337 12.342 62.8737 12.798C61.9257 13.242 60.7917 13.464 59.4717 13.464ZM59.4717 11.484C60.2637 11.484 60.9357 11.352 61.4877 11.088C62.0517 10.824 62.4777 10.452 62.7657 9.972C63.0537 9.492 63.1977 8.946 63.1977 8.334C63.1977 7.722 63.0537 7.176 62.7657 6.696C62.4777 6.216 62.0517 5.844 61.4877 5.58C60.9357 5.316 60.2637 5.184 59.4717 5.184C58.6797 5.184 58.0017 5.316 57.4377 5.58C56.8857 5.844 56.4657 6.216 56.1777 6.696C55.8897 7.176 55.7457 7.722 55.7457 8.334C55.7457 8.946 55.8897 9.492 56.1777 9.972C56.4657 10.452 56.8857 10.824 57.4377 11.088C58.0017 11.352 58.6797 11.484 59.4717 11.484Z" fill="#363636"/>
<path d="M73.1285 16.884C72.1925 16.884 71.2985 16.776 70.4465 16.56C69.6065 16.344 68.9585 16.104 68.5025 15.84V13.626C68.9585 13.926 69.5825 14.196 70.3745 14.436C71.1665 14.688 71.9945 14.814 72.8585 14.814C73.7345 14.814 74.4665 14.682 75.0545 14.418C75.6545 14.166 76.0985 13.8 76.3865 13.32C76.6745 12.852 76.8185 12.3 76.8185 11.664V11.376H76.7105C76.3865 11.748 75.8645 12.084 75.1445 12.384C74.4365 12.684 73.6445 12.834 72.7685 12.834C71.7005 12.834 70.7585 12.624 69.9425 12.204C69.1385 11.784 68.5145 11.208 68.0705 10.476C67.6385 9.744 67.4225 8.928 67.4225 8.028C67.4225 7.116 67.6385 6.294 68.0705 5.562C68.5145 4.83 69.1385 4.254 69.9425 3.834C70.7585 3.414 71.7005 3.204 72.7685 3.204C73.6445 3.204 74.4365 3.36 75.1445 3.672C75.8525 3.972 76.3745 4.308 76.7105 4.68H76.8185V3.384H79.3385V11.664C79.3385 12.696 79.0985 13.602 78.6185 14.382C78.1505 15.174 77.4485 15.786 76.5125 16.218C75.5885 16.662 74.4605 16.884 73.1285 16.884ZM73.4525 10.854C73.9565 10.854 74.4305 10.788 74.8745 10.656C75.3305 10.524 75.7205 10.356 76.0445 10.152C76.3805 9.948 76.6385 9.738 76.8185 9.522V6.534C76.6385 6.318 76.3805 6.108 76.0445 5.904C75.7205 5.7 75.3305 5.532 74.8745 5.4C74.4305 5.256 73.9565 5.184 73.4525 5.184C72.7085 5.184 72.0785 5.304 71.5625 5.544C71.0585 5.772 70.6745 6.102 70.4105 6.534C70.1585 6.954 70.0325 7.452 70.0325 8.028C70.0325 8.592 70.1585 9.09 70.4105 9.522C70.6745 9.942 71.0585 10.272 71.5625 10.512C72.0785 10.74 72.7085 10.854 73.4525 10.854Z" fill="#363636"/>
<path d="M81.5046 13.284V3.384H81.6126C81.7206 3.384 81.8706 3.384 82.0626 3.384C82.2666 3.384 82.5006 3.384 82.7646 3.384C83.0286 3.384 83.2566 3.384 83.4486 3.384C83.6526 3.384 83.8027 3.384 83.8987 3.384H84.0247V13.284H81.5046ZM82.7646 2.664C82.2606 2.664 81.8646 2.544 81.5766 2.304C81.2886 2.064 81.1446 1.74 81.1446 1.332C81.1446 0.924 81.2886 0.6 81.5766 0.36C81.8646 0.12 82.2606 0 82.7646 0C83.2686 0 83.6647 0.12 83.9527 0.36C84.2407 0.6 84.3847 0.924 84.3847 1.332C84.3847 1.74 84.2407 2.064 83.9527 2.304C83.6647 2.544 83.2686 2.664 82.7646 2.664Z" fill="#363636"/>
<path d="M92.0262 13.464C90.7782 13.464 89.6922 13.242 88.7682 12.798C87.8442 12.342 87.1362 11.724 86.6442 10.944C86.1522 10.164 85.9062 9.294 85.9062 8.334C85.9062 7.374 86.1582 6.504 86.6622 5.724C87.1662 4.944 87.8922 4.332 88.8402 3.888C89.8002 3.432 90.9282 3.204 92.2242 3.204C93.1002 3.204 93.9162 3.318 94.6722 3.546C95.4282 3.762 96.0582 4.014 96.5622 4.302V6.426C96.0462 6.078 95.4222 5.784 94.6902 5.544C93.9582 5.304 93.1782 5.184 92.3502 5.184C91.5222 5.184 90.8202 5.316 90.2442 5.58C89.6682 5.844 89.2362 6.216 88.9482 6.696C88.6602 7.164 88.5162 7.71 88.5162 8.334C88.5162 8.946 88.6542 9.492 88.9302 9.972C89.2182 10.452 89.6382 10.824 90.1902 11.088C90.7422 11.352 91.4022 11.484 92.1702 11.484C92.9742 11.484 93.7362 11.37 94.4562 11.142C95.1882 10.914 95.7702 10.65 96.2022 10.35V12.474C95.7582 12.726 95.1642 12.954 94.4202 13.158C93.6762 13.362 92.8782 13.464 92.0262 13.464Z" fill="#363636"/>
<path d="M104.332 13.464C103.012 13.464 101.872 13.242 100.912 12.798C99.9637 12.342 99.2377 11.724 98.7337 10.944C98.2417 10.164 97.9957 9.294 97.9957 8.334C97.9957 7.374 98.2417 6.504 98.7337 5.724C99.2377 4.944 99.9637 4.332 100.912 3.888C101.872 3.432 103.012 3.204 104.332 3.204C105.652 3.204 106.786 3.432 107.734 3.888C108.694 4.332 109.42 4.944 109.912 5.724C110.416 6.504 110.668 7.374 110.668 8.334C110.668 9.294 110.416 10.164 109.912 10.944C109.42 11.724 108.694 12.342 107.734 12.798C106.786 13.242 105.652 13.464 104.332 13.464ZM104.332 11.484C105.124 11.484 105.796 11.352 106.348 11.088C106.912 10.824 107.338 10.452 107.626 9.972C107.914 9.492 108.058 8.946 108.058 8.334C108.058 7.722 107.914 7.176 107.626 6.696C107.338 6.216 106.912 5.844 106.348 5.58C105.796 5.316 105.124 5.184 104.332 5.184C103.54 5.184 102.862 5.316 102.298 5.58C101.746 5.844 101.326 6.216 101.038 6.696C100.75 7.176 100.606 7.722 100.606 8.334C100.606 8.946 100.75 9.492 101.038 9.972C101.326 10.452 101.746 10.824 102.298 11.088C102.862 11.352 103.54 11.484 104.332 11.484Z" fill="#363636"/>
<path d="M0 31.2839L0 24.1339H0.91L0.91 27.3839L5.395 24.1339H6.734L1.872 27.6439L6.734 31.2839H5.395L0.91 27.9039L0.91 31.2839H0Z" fill="#363636" fill-opacity="0.7"/>
<path d="M7.57605 33.7539L7.57605 24.1339H8.48605V25.2389H8.55105C8.81972 24.9269 9.22272 24.6452 9.76005 24.3939C10.2974 24.1339 10.8911 24.0039 11.5411 24.0039C12.3211 24.0039 13.0101 24.1642 13.6081 24.4849C14.2147 24.8056 14.6827 25.2476 15.0121 25.8109C15.3414 26.3656 15.5061 26.9982 15.5061 27.7089C15.5061 28.4196 15.3414 29.0566 15.0121 29.6199C14.6827 30.1746 14.2147 30.6122 13.6081 30.9329C13.0101 31.2536 12.3211 31.4139 11.5411 31.4139C10.8911 31.4139 10.2974 31.2882 9.76005 31.0369C9.22272 30.7769 8.81972 30.4909 8.55105 30.1789H8.48605V33.7539H7.57605ZM11.3721 30.6079C12.0307 30.6079 12.6027 30.4866 13.0881 30.2439C13.5734 29.9926 13.9461 29.6502 14.2061 29.2169C14.4661 28.7749 14.5961 28.2722 14.5961 27.7089C14.5961 27.1456 14.4661 26.6472 14.2061 26.2139C13.9461 25.7719 13.5734 25.4296 13.0881 25.1869C12.6027 24.9356 12.0307 24.8099 11.3721 24.8099C10.9301 24.8099 10.5141 24.8836 10.1241 25.0309C9.74272 25.1782 9.41339 25.3646 9.13605 25.5899C8.85872 25.8152 8.64205 26.0406 8.48605 26.2659V29.1519C8.64205 29.3772 8.85872 29.6026 9.13605 29.8279C9.41339 30.0532 9.74272 30.2396 10.1241 30.3869C10.5141 30.5342 10.9301 30.6079 11.3721 30.6079Z" fill="#363636" fill-opacity="0.7"/>
<path d="M21.0961 31.4139C20.2381 31.4139 19.4884 31.2536 18.8471 30.9329C18.2144 30.6122 17.7247 30.1746 17.3781 29.6199C17.0401 29.0566 16.8711 28.4196 16.8711 27.7089C16.8711 27.0069 17.0357 26.3742 17.3651 25.8109C17.6944 25.2476 18.1494 24.8056 18.7301 24.4849C19.3194 24.1642 19.9867 24.0039 20.7321 24.0039C21.4601 24.0039 22.1101 24.1642 22.6821 24.4849C23.2541 24.7969 23.6961 25.2346 24.0081 25.7979C24.3287 26.3526 24.4891 26.9896 24.4891 27.7089V28.1249H17.7811C17.8417 28.6189 18.0107 29.0522 18.2881 29.4249C18.5741 29.7976 18.9554 30.0879 19.4321 30.2959C19.9174 30.5039 20.4721 30.6079 21.0961 30.6079C21.6767 30.6079 22.2227 30.5212 22.7341 30.3479C23.2541 30.1746 23.6527 29.9796 23.9301 29.7629V30.6599C23.6527 30.8506 23.2541 31.0239 22.7341 31.1799C22.2227 31.3359 21.6767 31.4139 21.0961 31.4139ZM23.5791 27.2929C23.5357 26.8422 23.3971 26.4306 23.1631 26.0579C22.9291 25.6766 22.6041 25.3732 22.1881 25.1479C21.7807 24.9226 21.3084 24.8099 20.7711 24.8099C20.2077 24.8099 19.7051 24.9182 19.2631 25.1349C18.8297 25.3516 18.4831 25.6506 18.2231 26.0319C17.9631 26.4046 17.8157 26.8249 17.7811 27.2929H23.5791Z" fill="#363636" fill-opacity="0.7"/>
<path d="M28.5098 31.4139C27.5998 31.4139 26.9065 31.2276 26.4298 30.8549C25.9618 30.4736 25.7278 29.9622 25.7278 29.3209C25.7278 28.6449 26.0051 28.1076 26.5598 27.7089C27.1231 27.3016 28.0028 27.0979 29.1988 27.0979C29.9961 27.0979 30.6028 27.0589 31.0188 26.9809C31.4348 26.9029 31.7121 26.7946 31.8508 26.6559C31.9895 26.5086 32.0588 26.3136 32.0588 26.0709C32.0588 25.8369 31.9765 25.6289 31.8118 25.4469C31.6471 25.2562 31.3698 25.1046 30.9798 24.9919C30.5985 24.8706 30.1001 24.8099 29.4848 24.8099C28.8348 24.8099 28.2021 24.9009 27.5868 25.0829C26.9801 25.2562 26.4991 25.4556 26.1438 25.6809V24.7839C26.4385 24.5846 26.8935 24.4069 27.5088 24.2509C28.1241 24.0862 28.7958 24.0039 29.5238 24.0039C30.3385 24.0039 31.0015 24.0949 31.5128 24.2769C32.0241 24.4589 32.3925 24.7102 32.6178 25.0309C32.8518 25.3516 32.9688 25.7242 32.9688 26.1489V31.2839H32.0588V30.0749C31.8681 30.2829 31.5995 30.4909 31.2528 30.6989C30.9061 30.9069 30.4945 31.0802 30.0178 31.2189C29.5498 31.3489 29.0471 31.4139 28.5098 31.4139ZM28.7178 30.6079C29.2465 30.6079 29.7361 30.5386 30.1868 30.3999C30.6375 30.2526 31.0188 30.0749 31.3308 29.8669C31.6515 29.6502 31.8941 29.4336 32.0588 29.2169V27.2669C32.0155 27.3536 31.8768 27.4446 31.6428 27.5399C31.4175 27.6266 31.0925 27.7002 30.6678 27.7609C30.2518 27.8129 29.7491 27.8389 29.1598 27.8389C28.2845 27.8389 27.6431 27.9732 27.2358 28.2419C26.8371 28.5106 26.6378 28.8572 26.6378 29.2819C26.6378 29.6892 26.8068 30.0142 27.1448 30.2569C27.4915 30.4909 28.0158 30.6079 28.7178 30.6079Z" fill="#363636" fill-opacity="0.7"/>
<path d="M37.1761 31.2839V24.9659H33.8741V24.1339H41.3881V24.9659H38.0861V31.2839H37.1761Z" fill="#363636" fill-opacity="0.7"/>
<path d="M42.3617 31.2839V24.1339H43.2717V30.3219H43.3367L48.0427 24.1339H49.2777V31.2839H48.3677V25.0959H48.3027L43.5967 31.2839H42.3617Z" fill="#363636" fill-opacity="0.7"/>
<path d="M51.2327 31.2839V24.1339H55.2367C55.8694 24.1339 56.398 24.2206 56.8227 24.3939C57.256 24.5672 57.5767 24.8012 57.7847 25.0959C57.9927 25.3819 58.0967 25.7069 58.0967 26.0709C58.0967 26.3742 58.0187 26.6559 57.8627 26.9159C57.7154 27.1672 57.503 27.3752 57.2257 27.5399C56.9484 27.7046 56.6277 27.7999 56.2637 27.8259V27.8909C56.8704 27.9342 57.3254 28.1032 57.6287 28.3979C57.9407 28.6839 58.0967 29.0436 58.0967 29.4769C58.0967 30.0056 57.8757 30.4389 57.4337 30.7769C56.9917 31.1149 56.3417 31.2839 55.4837 31.2839H51.2327ZM55.4317 30.4519C56.0297 30.4519 56.4717 30.3522 56.7577 30.1529C57.0437 29.9536 57.1867 29.6936 57.1867 29.3729C57.1867 29.0436 57.0437 28.7792 56.7577 28.5799C56.4804 28.3806 56.0384 28.2809 55.4317 28.2809H51.9867V27.4489H55.1977C55.8824 27.4489 56.385 27.3362 56.7057 27.1109C57.0264 26.8856 57.1867 26.5822 57.1867 26.2009C57.1867 25.8282 57.0264 25.5292 56.7057 25.3039C56.385 25.0786 55.8824 24.9659 55.1977 24.9659H52.1427V30.4519H55.4317Z" fill="#363636" fill-opacity="0.7"/>
<path d="M65.8948 31.2839V24.1339H66.8048V31.2839H65.8948ZM59.8498 31.2839V24.1339H60.7598V31.2839H59.8498ZM60.6038 28.0079V27.1759H66.0508V28.0079H60.6038Z" fill="#363636" fill-opacity="0.7"/>
<path d="M72.7238 31.4139C71.8485 31.4139 71.0858 31.2536 70.4358 30.9329C69.7945 30.6122 69.3005 30.1702 68.9538 29.6069C68.6072 29.0436 68.4338 28.4109 68.4338 27.7089C68.4338 27.0069 68.6072 26.3742 68.9538 25.8109C69.3005 25.2476 69.7945 24.8056 70.4358 24.4849C71.0858 24.1642 71.8485 24.0039 72.7238 24.0039C73.5992 24.0039 74.3575 24.1642 74.9988 24.4849C75.6488 24.8056 76.1472 25.2476 76.4938 25.8109C76.8405 26.3742 77.0138 27.0069 77.0138 27.7089C77.0138 28.4109 76.8405 29.0436 76.4938 29.6069C76.1472 30.1702 75.6488 30.6122 74.9988 30.9329C74.3575 31.2536 73.5992 31.4139 72.7238 31.4139ZM72.7238 30.6079C73.4345 30.6079 74.0412 30.4866 74.5438 30.2439C75.0552 30.0012 75.4408 29.6632 75.7008 29.2299C75.9695 28.7879 76.1038 28.2809 76.1038 27.7089C76.1038 27.1369 75.9695 26.6342 75.7008 26.2009C75.4408 25.7589 75.0552 25.4166 74.5438 25.1739C74.0412 24.9312 73.4345 24.8099 72.7238 24.8099C72.0132 24.8099 71.4022 24.9312 70.8908 25.1739C70.3882 25.4166 70.0025 25.7589 69.7338 26.2009C69.4738 26.6342 69.3438 27.1369 69.3438 27.7089C69.3438 28.2809 69.4738 28.7879 69.7338 29.2299C70.0025 29.6632 70.3882 30.0012 70.8908 30.2439C71.4022 30.4866 72.0132 30.6079 72.7238 30.6079Z" fill="#363636" fill-opacity="0.7"/>
<path d="M82.5327 31.4139C81.6747 31.4139 80.9251 31.2536 80.2837 30.9329C79.6511 30.6122 79.1614 30.1746 78.8147 29.6199C78.4767 29.0566 78.3077 28.4196 78.3077 27.7089C78.3077 27.0069 78.4724 26.3742 78.8017 25.8109C79.1311 25.2476 79.5861 24.8056 80.1667 24.4849C80.7561 24.1642 81.4234 24.0039 82.1687 24.0039C82.8967 24.0039 83.5467 24.1642 84.1187 24.4849C84.6907 24.7969 85.1327 25.2346 85.4447 25.7979C85.7654 26.3526 85.9257 26.9896 85.9257 27.7089V28.1249H79.2177C79.2784 28.6189 79.4474 29.0522 79.7247 29.4249C80.0107 29.7976 80.3921 30.0879 80.8687 30.2959C81.3541 30.5039 81.9087 30.6079 82.5327 30.6079C83.1134 30.6079 83.6594 30.5212 84.1707 30.3479C84.6907 30.1746 85.0894 29.9796 85.3667 29.7629V30.6599C85.0894 30.8506 84.6907 31.0239 84.1707 31.1799C83.6594 31.3359 83.1134 31.4139 82.5327 31.4139ZM85.0157 27.2929C84.9724 26.8422 84.8337 26.4306 84.5997 26.0579C84.3657 25.6766 84.0407 25.3732 83.6247 25.1479C83.2174 24.9226 82.7451 24.8099 82.2077 24.8099C81.6444 24.8099 81.1417 24.9182 80.6997 25.1349C80.2664 25.3516 79.9197 25.6506 79.6597 26.0319C79.3997 26.4046 79.2524 26.8249 79.2177 27.2929H85.0157Z" fill="#363636" fill-opacity="0.7"/>
<path d="M93.714 31.4139C92.804 31.4139 92.1106 31.2276 91.6339 30.8549C91.1659 30.4736 90.932 29.9622 90.932 29.3209C90.932 28.6449 91.2093 28.1076 91.764 27.7089C92.3273 27.3016 93.207 27.0979 94.403 27.0979C95.2003 27.0979 95.807 27.0589 96.223 26.9809C96.639 26.9029 96.9163 26.7946 97.055 26.6559C97.1936 26.5086 97.263 26.3136 97.263 26.0709C97.263 25.8369 97.1806 25.6289 97.016 25.4469C96.8513 25.2562 96.574 25.1046 96.184 24.9919C95.8026 24.8706 95.3043 24.8099 94.6889 24.8099C94.0389 24.8099 93.4063 24.9009 92.791 25.0829C92.1843 25.2562 91.7033 25.4556 91.348 25.6809V24.7839C91.6426 24.5846 92.0976 24.4069 92.713 24.2509C93.3283 24.0862 94 24.0039 94.728 24.0039C95.5426 24.0039 96.2056 24.0949 96.7169 24.2769C97.2283 24.4589 97.5966 24.7102 97.822 25.0309C98.056 25.3516 98.173 25.7242 98.173 26.1489V31.2839H97.263V30.0749C97.0723 30.2829 96.8036 30.4909 96.457 30.6989C96.1103 30.9069 95.6986 31.0802 95.222 31.2189C94.754 31.3489 94.2513 31.4139 93.714 31.4139ZM93.922 30.6079C94.4506 30.6079 94.9403 30.5386 95.391 30.3999C95.8416 30.2526 96.223 30.0749 96.535 29.8669C96.8556 29.6502 97.0983 29.4336 97.263 29.2169V27.2669C97.2196 27.3536 97.081 27.4446 96.847 27.5399C96.6216 27.6266 96.2966 27.7002 95.8719 27.7609C95.4559 27.8129 94.9533 27.8389 94.364 27.8389C93.4886 27.8389 92.8473 27.9732 92.4399 28.2419C92.0413 28.5106 91.8419 28.8572 91.8419 29.2819C91.8419 29.6892 92.011 30.0142 92.349 30.2569C92.6956 30.4909 93.22 30.6079 93.922 30.6079Z" fill="#363636" fill-opacity="0.7"/>
<path d="M100.053 31.2839V24.1339H105.825V24.9659H100.963V31.2839H100.053Z" fill="#363636" fill-opacity="0.7"/>
<path d="M110.374 31.4139C109.516 31.4139 108.766 31.2536 108.125 30.9329C107.492 30.6122 107.003 30.1746 106.656 29.6199C106.318 29.0566 106.149 28.4196 106.149 27.7089C106.149 27.0069 106.314 26.3742 106.643 25.8109C106.972 25.2476 107.427 24.8056 108.008 24.4849C108.597 24.1642 109.265 24.0039 110.01 24.0039C110.738 24.0039 111.388 24.1642 111.96 24.4849C112.532 24.7969 112.974 25.2346 113.286 25.7979C113.607 26.3526 113.767 26.9896 113.767 27.7089V28.1249H107.059C107.12 28.6189 107.289 29.0522 107.566 29.4249C107.852 29.7976 108.233 30.0879 108.71 30.2959C109.195 30.5039 109.75 30.6079 110.374 30.6079C110.955 30.6079 111.501 30.5212 112.012 30.3479C112.532 30.1746 112.931 29.9796 113.208 29.7629V30.6599C112.931 30.8506 112.532 31.0239 112.012 31.1799C111.501 31.3359 110.955 31.4139 110.374 31.4139ZM112.857 27.2929C112.814 26.8422 112.675 26.4306 112.441 26.0579C112.207 25.6766 111.882 25.3732 111.466 25.1479C111.059 24.9226 110.586 24.8099 110.049 24.8099C109.486 24.8099 108.983 24.9182 108.541 25.1349C108.108 25.3516 107.761 25.6506 107.501 26.0319C107.241 26.4046 107.094 26.8249 107.059 27.2929H112.857Z" fill="#363636" fill-opacity="0.7"/>
<path d="M121.441 31.2839V24.1339H122.351V31.2839H121.441ZM115.396 31.2839V24.1339H116.306V31.2839H115.396ZM116.15 28.0079V27.1759L121.597 27.1759V28.0079L116.15 28.0079Z" fill="#363636" fill-opacity="0.7"/>
<path d="M126.632 31.2839V24.9659H123.33V24.1339H130.844V24.9659H127.542V31.2839H126.632Z" fill="#363636" fill-opacity="0.7"/>
<path d="M135.386 31.4139C134.58 31.4139 133.86 31.2536 133.228 30.9329C132.604 30.6122 132.114 30.1702 131.759 29.6069C131.412 29.0436 131.239 28.4109 131.239 27.7089C131.239 27.0069 131.412 26.3742 131.759 25.8109C132.114 25.2476 132.612 24.8056 133.254 24.4849C133.895 24.1642 134.64 24.0039 135.49 24.0039C136.105 24.0039 136.668 24.0776 137.18 24.2249C137.691 24.3722 138.129 24.5499 138.493 24.7579V25.6679C138.129 25.4339 137.691 25.2346 137.18 25.0699C136.668 24.8966 136.105 24.8099 135.49 24.8099C134.805 24.8099 134.211 24.9312 133.709 25.1739C133.206 25.4166 132.82 25.7589 132.552 26.2009C132.283 26.6342 132.149 27.1369 132.149 27.7089C132.149 28.2722 132.283 28.7749 132.552 29.2169C132.82 29.6502 133.197 29.9926 133.683 30.2439C134.177 30.4866 134.744 30.6079 135.386 30.6079C136.001 30.6079 136.564 30.5299 137.076 30.3739C137.596 30.2179 137.981 30.0446 138.233 29.8539V30.7249C137.973 30.9069 137.583 31.0672 137.063 31.2059C136.551 31.3446 135.992 31.4139 135.386 31.4139Z" fill="#363636" fill-opacity="0.7"/>
<path d="M142.381 31.2839V24.9659H139.079V24.1339L146.593 24.1339V24.9659L143.291 24.9659V31.2839H142.381Z" fill="#363636" fill-opacity="0.7"/>
<path d="M147.566 31.2839V24.1339H151.57C152.203 24.1339 152.732 24.2206 153.156 24.3939C153.59 24.5672 153.91 24.8012 154.118 25.0959C154.326 25.3819 154.43 25.7069 154.43 26.0709C154.43 26.3742 154.352 26.6559 154.196 26.9159C154.049 27.1672 153.837 27.3752 153.559 27.5399C153.282 27.7046 152.961 27.7999 152.597 27.8259V27.8909C153.204 27.9342 153.659 28.1032 153.962 28.3979C154.274 28.6839 154.43 29.0436 154.43 29.4769C154.43 30.0056 154.209 30.4389 153.767 30.7769C153.325 31.1149 152.675 31.2839 151.817 31.2839H147.566ZM151.765 30.4519C152.363 30.4519 152.805 30.3522 153.091 30.1529C153.377 29.9536 153.52 29.6936 153.52 29.3729C153.52 29.0436 153.377 28.7792 153.091 28.5799C152.814 28.3806 152.372 28.2809 151.765 28.2809H148.32V27.4489H151.531C152.216 27.4489 152.719 27.3362 153.039 27.1109C153.36 26.8856 153.52 26.5822 153.52 26.2009C153.52 25.8282 153.36 25.5292 153.039 25.3039C152.719 25.0786 152.216 24.9659 151.531 24.9659H148.476V30.4519H151.765Z" fill="#363636" fill-opacity="0.7"/>
<path d="M160.148 31.4139C159.273 31.4139 158.51 31.2536 157.86 30.9329C157.219 30.6122 156.725 30.1702 156.378 29.6069C156.032 29.0436 155.858 28.4109 155.858 27.7089C155.858 27.0069 156.032 26.3742 156.378 25.8109C156.725 25.2476 157.219 24.8056 157.86 24.4849C158.51 24.1642 159.273 24.0039 160.148 24.0039C161.024 24.0039 161.782 24.1642 162.423 24.4849C163.073 24.8056 163.572 25.2476 163.918 25.8109C164.265 26.3742 164.438 27.0069 164.438 27.7089C164.438 28.4109 164.265 29.0436 163.918 29.6069C163.572 30.1702 163.073 30.6122 162.423 30.9329C161.782 31.2536 161.024 31.4139 160.148 31.4139ZM160.148 30.6079C160.859 30.6079 161.466 30.4866 161.968 30.2439C162.48 30.0012 162.865 29.6632 163.125 29.2299C163.394 28.7879 163.528 28.2809 163.528 27.7089C163.528 27.1369 163.394 26.6342 163.125 26.2009C162.865 25.7589 162.48 25.4166 161.968 25.1739C161.466 24.9312 160.859 24.8099 160.148 24.8099C159.438 24.8099 158.827 24.9312 158.315 25.1739C157.813 25.4166 157.427 25.7589 157.158 26.2009C156.898 26.6342 156.768 27.1369 156.768 27.7089C156.768 28.2809 156.898 28.7879 157.158 29.2299C157.427 29.6632 157.813 30.0012 158.315 30.2439C158.827 30.4866 159.438 30.6079 160.148 30.6079Z" fill="#363636" fill-opacity="0.7"/>
</svg>
