<svg width="335" height="131" viewBox="0 0 335 131" fill="none" xmlns="http://www.w3.org/2000/svg">
<path fill-rule="evenodd" clip-rule="evenodd" d="M330.5 113.013C331.707 111.875 332.278 110.76 332.349 109.676C332.421 108.593 332.002 107.412 330.955 106.126C329.903 104.833 328.265 103.498 326.046 102.151C321.61 99.458 315.042 96.8332 306.785 94.4367C290.288 89.6484 267.265 85.8317 241.634 84.1391C216.004 82.4466 192.678 83.2026 175.695 85.7799C167.195 87.0699 160.339 88.8081 155.587 90.8941C153.21 91.9376 151.411 93.0464 150.199 94.1889C148.991 95.3267 148.42 96.4419 148.349 97.5256C148.277 98.6093 148.696 99.7898 149.744 101.076C150.796 102.369 152.433 103.704 154.652 105.051C159.088 107.744 165.657 110.369 173.913 112.765C190.41 117.554 213.433 121.37 239.064 123.063C264.695 124.755 288.02 123.999 305.003 121.422C313.503 120.132 320.36 118.394 325.111 116.308C327.488 115.264 329.287 114.156 330.5 113.013ZM238.998 124.061C290.359 127.452 332.601 121.042 333.347 109.742C334.093 98.4427 293.062 86.5331 241.7 83.1413C190.339 79.7496 148.097 86.1601 147.351 97.4597C146.605 108.759 187.637 120.669 238.998 124.061Z" fill="#8C64FF"/>
<path d="M0.345688 28H9.39369C17.8957 28 23.9017 22.423 23.9017 14.584C23.9017 6.74502 17.8957 1.20701 9.39369 1.20701H0.345688V28ZM3.38769 25.231V3.97601H9.39369C16.1017 3.97601 20.8207 8.38302 20.8207 14.584C20.8207 20.824 16.1017 25.231 9.39369 25.231H3.38769Z" fill="#353535"/>
<path d="M29.4677 28H32.5097V1.20701H29.4677V28Z" fill="#353535"/>
<path d="M51.0475 16.768H58.7305V23.164C56.7415 24.685 53.8555 25.66 51.3595 25.66C45.5875 25.66 40.7125 20.59 40.7125 14.584C40.7125 8.61702 45.5875 3.54701 51.3595 3.54701C54.2845 3.54701 57.7555 4.87301 59.7055 6.94002L61.7725 4.83401C59.2765 2.29901 55.0645 0.739014 51.3595 0.739014C43.9495 0.739014 37.6315 7.05702 37.6315 14.584C37.6315 22.111 43.9495 28.468 51.3595 28.468C55.0645 28.468 59.2765 26.869 61.7725 24.373V13.882H51.0475V16.768Z" fill="#353535"/>
<path d="M67.7441 28H70.7861V1.20701H67.7441V28Z" fill="#353535"/>
<path d="M84.6439 28H87.6859V4.09301H96.6949V1.20701H75.6349V4.09301H84.6439V28Z" fill="#353535"/>
<path d="M120.585 28H123.9L112.083 1.20701H108.768L96.9511 28H100.266L102.957 21.916H117.894L120.585 28ZM104.205 19.03L110.445 4.95102L116.646 19.03H104.205Z" fill="#353535"/>
<path d="M130.838 25.114V1.20701H127.796V28H145.463V25.114H130.838Z" fill="#353535"/>
<path d="M182.97 28H186.285L174.468 1.20701H171.153L159.336 28H162.651L165.342 21.916H180.279L182.97 28ZM166.59 19.03L172.83 4.95102L179.031 19.03H166.59Z" fill="#353535"/>
<path d="M202.249 16.768H209.932V23.164C207.943 24.685 205.057 25.66 202.561 25.66C196.789 25.66 191.914 20.59 191.914 14.584C191.914 8.61702 196.789 3.54701 202.561 3.54701C205.486 3.54701 208.957 4.87301 210.907 6.94002L212.974 4.83401C210.478 2.29901 206.266 0.739014 202.561 0.739014C195.151 0.739014 188.833 7.05702 188.833 14.584C188.833 22.111 195.151 28.468 202.561 28.468C206.266 28.468 210.478 26.869 212.974 24.373V13.882H202.249V16.768Z" fill="#353535"/>
<path d="M238.172 4.09301V1.20701H218.945V28H238.172V25.114H222.026V15.793H236.573V12.907H222.026V4.09301H238.172Z" fill="#353535"/>
<path d="M243.981 28H247.023V6.19902L263.637 28H266.679V1.20701H263.637V23.008L247.023 1.20701H243.981V28Z" fill="#353535"/>
<path d="M286.083 28.468C289.788 28.468 293.22 26.869 295.716 24.373L293.649 22.267C291.699 24.334 289.008 25.66 286.083 25.66C280.311 25.66 275.436 20.59 275.436 14.584C275.436 8.61702 280.311 3.54701 286.083 3.54701C289.008 3.54701 291.699 4.87301 293.649 6.94002L295.716 4.83401C293.22 2.29901 289.788 0.739014 286.083 0.739014C278.673 0.739014 272.355 7.05702 272.355 14.584C272.355 22.111 278.673 28.468 286.083 28.468Z" fill="#353535"/>
<path d="M308.34 28H311.538V17.08L322.302 1.20701H318.636L309.939 14.194L301.32 1.20701H297.537L308.34 17.08V28Z" fill="#353535"/>
<path d="M156.402 49.093V46.207H137.175V73H140.256V60.793H154.803V57.907H140.256V49.093H156.402Z" fill="#353535"/>
<path d="M173.615 73.468C181.064 73.468 187.304 67.111 187.304 59.584C187.304 52.057 181.064 45.739 173.615 45.739C166.205 45.739 159.887 52.057 159.887 59.584C159.887 67.111 166.205 73.468 173.615 73.468ZM173.615 70.66C167.843 70.66 162.968 65.59 162.968 59.584C162.968 53.617 167.843 48.547 173.615 48.547C179.387 48.547 184.223 53.617 184.223 59.584C184.223 65.59 179.387 70.66 173.615 70.66Z" fill="#353535"/>
<path d="M205.074 73.468C208.779 73.468 212.211 71.869 214.707 69.373L212.64 67.267C210.69 69.334 207.999 70.66 205.074 70.66C199.302 70.66 194.427 65.59 194.427 59.584C194.427 53.617 199.302 48.547 205.074 48.547C207.999 48.547 210.69 49.873 212.64 51.94L214.707 49.834C212.211 47.299 208.779 45.739 205.074 45.739C197.664 45.739 191.346 52.057 191.346 59.584C191.346 67.111 197.664 73.468 205.074 73.468Z" fill="#353535"/>
<path d="M230.373 73.468C236.925 73.468 241.566 68.671 241.566 61.885V46.207H238.524V61.885C238.524 67.033 235.131 70.699 230.373 70.699C225.615 70.699 222.222 67.033 222.222 61.885V46.207H219.18V61.885C219.18 68.671 223.821 73.468 230.373 73.468Z" fill="#353535"/>
<path d="M257.287 73.429C263.527 73.429 266.725 69.958 266.725 65.707C266.725 60.988 263.059 59.155 257.95 57.946C253.387 56.854 250.735 55.879 250.735 53.11C250.735 50.653 253.153 48.469 256.468 48.469C259.276 48.469 261.928 49.756 264.151 51.901L266.023 49.522C263.566 47.26 260.602 45.7 256.624 45.7C251.476 45.7 247.654 49.054 247.654 53.344C247.654 57.985 251.047 59.662 256.429 60.91C261.109 62.002 263.644 63.133 263.644 65.98C263.644 68.398 261.538 70.66 257.404 70.66C253.66 70.66 250.891 69.061 248.629 66.799L246.718 69.178C249.409 71.83 252.88 73.429 257.287 73.429Z" fill="#353535"/>
<path d="M291.15 49.093V46.207H271.923V73H291.15V70.114H275.004V60.793H289.551V57.907H275.004V49.093H291.15Z" fill="#353535"/>
<path d="M296.959 73H306.007C314.509 73 320.515 67.423 320.515 59.584C320.515 51.745 314.509 46.207 306.007 46.207H296.959V73ZM300.001 70.231V48.976H306.007C312.715 48.976 317.434 53.383 317.434 59.584C317.434 65.824 312.715 70.231 306.007 70.231H300.001Z" fill="#353535"/>
<path d="M172.777 116.468C180.226 116.468 186.466 110.111 186.466 102.584C186.466 95.057 180.226 88.739 172.777 88.739C165.367 88.739 159.049 95.057 159.049 102.584C159.049 110.111 165.367 116.468 172.777 116.468ZM172.777 113.66C167.005 113.66 162.13 108.59 162.13 102.584C162.13 96.617 167.005 91.547 172.777 91.547C178.549 91.547 183.385 96.617 183.385 102.584C183.385 108.59 178.549 113.66 172.777 113.66Z" fill="#353535"/>
<path d="M192.146 116H195.188V94.199L211.802 116H214.844V89.207H211.802V111.008L195.188 89.207H192.146V116Z" fill="#353535"/>
<path d="M240.412 116H243.415L250.903 93.185L258.352 116H261.355L270.52 89.207H267.088L259.678 110.891L252.58 89.207H249.187L242.089 110.891L234.679 89.207H231.247L240.412 116Z" fill="#353535"/>
<path d="M294.273 92.093V89.207H275.046V116H294.273V113.114H278.127V103.793H292.674V100.907H278.127V92.093H294.273Z" fill="#353535"/>
<path d="M300.082 116H312.835C317.476 116 320.791 112.958 320.791 108.668C320.791 105.743 318.997 103.325 315.916 101.765C318.334 100.361 319.738 98.723 319.738 95.876C319.738 91.976 316.696 89.207 312.367 89.207H300.082V116ZM303.124 100.556V91.976H311.587C314.551 91.976 316.657 93.77 316.657 96.266C316.657 98.762 314.551 100.556 311.587 100.556H303.124ZM303.124 113.231V103.325H312.055C315.37 103.325 317.71 105.392 317.71 108.278C317.71 111.164 315.37 113.231 312.055 113.231H303.124Z" fill="#353535"/>
<path d="M103.5 36L103.976 42.9976C104.596 52.1318 111.868 59.4036 121.002 60.0244L128 60.5L121.002 60.9756C111.868 61.5964 104.596 68.8682 103.976 78.0024L103.5 85L103.024 78.0024C102.404 68.8682 95.1318 61.5964 85.9976 60.9756L79 60.5L85.9976 60.0244C95.1318 59.4036 102.404 52.1318 103.024 42.9976L103.5 36Z" fill="#8C64FF"/>
</svg>
