<svg width="1330" height="209" viewBox="0 0 1330 209" fill="none" xmlns="http://www.w3.org/2000/svg">
<path d="M641.293 37.7338L655.293 44.2931L665 49.9154L661.64 56.0999L651.747 50.1028L639.24 41.482L640.547 56.8496V68.2816H633.453V56.8496L634.76 41.482L622.44 50.1028L612.36 56.0999L609 49.9154L618.707 44.2931L632.893 37.7338L618.707 31.1744L609 25.3647L612.36 19.3676L622.44 25.1773L634.76 33.9856L633.453 18.618V6.99856H640.547V18.618L639.24 33.9856L651.747 25.1773L661.64 19.3676L665 25.3647L655.293 31.1744L641.293 37.7338Z" fill="#363636"/>
<path d="M1290.45 4.86467L1301.03 4.8529L1301.1 66.0329L1290.52 66.0446L1290.45 4.86467ZM1262.39 1.33088L1329.09 1.25668L1329.1 9.88167L1262.4 9.95588L1262.39 1.33088Z" fill="#363636"/>
<path d="M1203.79 86.6111C1200.5 86.6148 1197.55 86.1964 1194.94 85.356C1192.33 84.5155 1189.76 83.2917 1187.23 81.6845L1187.22 73.2895C1189.75 74.8967 1192.21 76.0823 1194.58 76.8463C1196.96 77.6104 1199.68 77.9907 1202.75 77.9873C1206.05 77.9836 1208.88 77.2138 1211.26 75.6778C1213.63 74.2185 1215.62 71.8013 1217.23 68.4261L1249.47 1.34523L1260.74 1.33269L1225.4 72.3271C1223.79 75.6255 1221.88 78.311 1219.66 80.3834C1217.51 82.5325 1215.1 84.1069 1212.42 85.1065C1209.81 86.1061 1206.94 86.6076 1203.79 86.6111ZM1214.58 64.0591L1183.81 1.41829L1195.42 1.40536L1225.27 64.0472L1214.58 64.0591Z" fill="#363636"/>
<path d="M1143.28 5.02849L1153.86 5.01672L1153.92 66.1967L1143.34 66.2085L1143.28 5.02849ZM1115.21 1.4947L1181.91 1.4205L1181.92 10.0455L1115.22 10.1197L1115.21 1.4947Z" fill="#363636"/>
<path d="M1114.14 41.6307C1113.3 46.7683 1111.2 51.294 1107.83 55.2078C1104.54 59.1214 1100.33 62.1928 1095.19 64.4218C1090.06 66.6509 1084.39 67.7689 1078.18 67.7758C1070.97 67.7838 1064.6 66.3725 1059.08 63.542C1053.56 60.6348 1049.22 56.653 1046.07 51.5965C1043 46.4632 1041.46 40.5616 1041.45 33.8916C1041.45 27.2216 1042.97 21.3549 1046.03 16.2915C1049.17 11.1513 1053.5 7.15985 1059.02 4.31704C1064.53 1.47423 1070.89 0.0488213 1078.1 0.0408037C1084.31 0.0338948 1089.99 1.13925 1095.12 3.35687C1100.26 5.49782 1104.48 8.52146 1107.78 12.4278C1111.16 16.334 1113.28 20.8934 1114.12 26.1057L1103.2 26.1179C1102.04 20.7525 1099.16 16.539 1094.56 13.4775C1090.03 10.3392 1084.55 8.77364 1078.11 8.7808C1072.9 8.7866 1068.34 9.82668 1064.43 11.901C1060.6 13.9753 1057.61 16.892 1055.47 20.651C1053.33 24.3334 1052.26 28.7429 1052.26 33.8796C1052.27 39.0162 1053.35 43.4617 1055.5 47.216C1057.65 50.9703 1060.64 53.8803 1064.48 55.946C1068.39 57.935 1072.95 58.9266 1078.17 58.9208C1084.68 58.9135 1090.2 57.3357 1094.72 54.1874C1099.32 51.0389 1102.15 46.8574 1103.22 41.6429L1114.14 41.6307Z" fill="#363636"/>
<path d="M1019.92 66.3456L1017.59 41.8532L1020.45 33.915L1017.57 26.0982L1019.84 1.60063L1030.65 1.5886L1027.7 33.9069L1030.72 66.3336L1019.92 66.3456ZM1024.02 33.911C1022.34 40.6595 1019.74 46.6041 1016.22 51.7447C1012.77 56.8085 1008.56 60.7616 1003.58 63.6038C998.678 66.4459 993.237 67.8703 987.257 67.8769C980.893 67.884 975.257 66.4719 970.347 63.6407C965.437 60.7329 961.561 56.7505 958.719 51.6937C955.953 46.5601 954.566 40.6583 954.559 33.9883C954.551 27.2416 955.925 21.3368 958.679 16.2737C961.51 11.2105 965.378 7.25789 970.281 4.41577C975.185 1.57364 980.818 0.149041 987.181 0.141961C993.161 0.135308 998.606 1.54759 1003.52 4.37879C1008.5 7.20991 1012.76 11.1535 1016.29 16.2096C1019.83 21.2657 1022.4 27.1661 1024.02 33.911ZM965.369 33.9763C965.374 38.8829 966.376 43.2135 968.373 46.9679C970.448 50.7223 973.249 53.6708 976.778 55.8136C980.384 57.8796 984.448 58.91 988.972 58.905C993.572 58.8999 997.787 57.8602 1001.62 55.7859C1005.53 53.6349 1008.97 50.6794 1011.96 46.9194C1015.02 43.1594 1017.51 38.8249 1019.42 33.9161C1017.5 29.0116 1015 24.6827 1011.93 20.9294C1008.94 17.1761 1005.48 14.2666 1001.57 12.201C997.734 10.0586 993.516 8.98992 988.916 8.99504C984.393 9.00007 980.331 10.0779 976.73 12.2286C973.205 14.3025 970.41 17.219 968.344 20.9779C966.355 24.7368 965.363 29.0696 965.369 33.9763Z" fill="#363636"/>
<path d="M870.972 1.76632L881.552 1.75455L881.579 26.2495L881.007 28.3202L881.018 38.7852L881.597 42.1195L881.645 85.4745L871.065 85.4863L870.972 1.76632ZM876.643 34.075C878.322 27.3265 880.884 21.4203 884.328 16.3565C887.849 11.2925 892.062 7.33952 896.965 4.4974C901.945 1.65519 907.425 0.230757 913.405 0.224104C919.769 0.217024 925.405 1.62909 930.315 4.4603C935.225 7.2915 939.063 11.2356 941.828 16.2925C944.671 21.3493 946.095 27.2511 946.103 33.9978C946.11 40.6677 944.699 46.5727 941.868 51.7125C939.113 56.7755 935.284 60.7665 930.381 63.6853C925.477 66.5274 919.844 67.952 913.481 67.9591C907.501 67.9657 902.017 66.5535 897.031 63.7224C892.121 60.8912 887.9 56.9475 884.368 51.8914C880.912 46.7586 878.337 40.8198 876.643 34.075ZM935.293 34.0098C935.287 29.1031 934.248 24.7726 932.173 21.0182C930.176 17.2638 927.374 14.3536 923.769 12.2876C920.24 10.1448 916.214 9.07599 911.69 9.08102C907.09 9.08614 902.836 10.1642 898.929 12.3152C895.098 14.3895 891.689 17.3066 888.703 21.0666C885.718 24.8266 883.231 29.161 881.243 34.0699C883.242 38.9744 885.738 43.3032 888.732 47.0566C891.727 50.8099 895.142 53.7578 898.977 55.9002C902.89 57.9658 907.146 58.9961 911.746 58.991C916.269 58.986 920.293 57.9465 923.817 55.8726C927.418 53.7219 930.213 50.7671 932.202 47.0082C934.268 43.2493 935.298 38.9164 935.293 34.0098Z" fill="#363636"/>
<path d="M1257.25 122.348L1267.72 122.337L1267.79 187.082L1257.33 187.093L1257.25 122.348ZM1312.91 122.286L1323.49 122.275L1323.57 187.02L1312.99 187.031L1312.91 122.286ZM1263.15 150.057L1317.89 149.996L1317.9 158.621L1263.16 158.682L1263.15 150.057Z" fill="#363636"/>
<path d="M1212.56 188.638C1205.12 188.646 1198.53 187.235 1192.77 184.405C1187.1 181.498 1182.61 177.516 1179.31 172.46C1176.08 167.327 1174.46 161.426 1174.46 154.756C1174.45 148.009 1175.98 142.104 1179.04 137.04C1182.1 131.977 1186.35 128.024 1191.79 125.181C1197.23 122.338 1203.48 120.913 1210.53 120.905C1217.51 120.898 1223.6 122.424 1228.82 125.485C1234.04 128.546 1238.07 132.873 1240.91 138.467C1243.83 143.983 1245.29 150.422 1245.3 157.782L1182.51 157.852L1182.5 149.457L1240.81 149.392L1234.6 153.194C1234.36 148.364 1233.21 144.187 1231.14 140.662C1229.06 137.138 1226.26 134.42 1222.73 132.507C1219.2 130.594 1215.1 129.64 1210.42 129.645C1205.36 129.651 1200.96 130.691 1197.2 132.765C1193.45 134.763 1190.5 137.603 1188.36 141.285C1186.29 144.967 1185.26 149.3 1185.27 154.283C1185.27 159.497 1186.47 164.019 1188.85 167.85C1191.23 171.68 1194.57 174.628 1198.86 176.693C1203.16 178.759 1208.22 179.788 1214.04 179.781C1219.33 179.776 1224.51 178.888 1229.57 177.119C1234.7 175.35 1239.3 172.93 1243.36 169.859L1243.37 178.139C1239.38 181.363 1234.63 183.937 1229.12 185.86C1223.6 187.706 1218.08 188.632 1212.56 188.638Z" fill="#363636"/>
<path d="M1166.99 162.584C1166.15 167.721 1164.05 172.247 1160.68 176.161C1157.38 180.074 1153.17 183.146 1148.04 185.375C1142.9 187.604 1137.23 188.722 1131.02 188.729C1123.81 188.737 1117.45 187.326 1111.93 184.495C1106.4 181.588 1102.07 177.606 1098.92 172.549C1095.85 167.416 1094.31 161.515 1094.3 154.845C1094.29 148.175 1095.82 142.308 1098.88 137.245C1102.02 132.104 1106.34 128.113 1111.86 125.27C1117.38 122.427 1123.74 121.002 1130.95 120.994C1137.16 120.987 1142.83 122.092 1147.97 124.31C1153.11 126.451 1157.33 129.474 1160.63 133.381C1164.01 137.287 1166.12 141.846 1166.97 147.059L1156.04 147.071C1154.89 141.706 1152.01 137.492 1147.41 134.431C1142.88 131.292 1137.4 129.727 1130.96 129.734C1125.74 129.74 1121.18 130.78 1117.27 132.854C1113.44 134.928 1110.46 137.845 1108.31 141.604C1106.17 145.286 1105.1 149.696 1105.11 154.833C1105.11 159.969 1106.19 164.415 1108.34 168.169C1110.49 171.923 1113.49 174.833 1117.32 176.899C1121.23 178.888 1125.8 179.88 1131.01 179.874C1137.53 179.867 1143.05 178.289 1147.57 175.14C1152.16 171.992 1154.99 167.81 1156.06 162.596L1166.99 162.584Z" fill="#363636"/>
<path d="M1047.65 188.822C1040.06 188.83 1033.35 187.419 1027.52 184.589C1021.76 181.759 1017.27 177.777 1014.05 172.644C1010.82 167.511 1009.21 161.609 1009.2 154.939C1009.19 148.193 1010.79 142.288 1014.01 137.224C1017.22 132.16 1021.7 128.207 1027.45 125.364C1033.27 122.521 1039.98 121.095 1047.57 121.087C1055.24 121.078 1061.95 122.489 1067.7 125.319C1073.45 128.15 1077.94 132.093 1081.17 137.149C1084.47 142.206 1086.13 148.107 1086.13 154.854C1086.14 161.524 1084.5 167.429 1081.21 172.569C1077.99 177.71 1073.51 181.701 1067.77 184.544C1062.02 187.387 1055.31 188.813 1047.65 188.822ZM1047.64 179.967C1053.31 179.96 1058.21 178.958 1062.35 176.96C1066.49 174.886 1069.67 171.969 1071.89 168.21C1074.18 164.45 1075.33 160.002 1075.32 154.866C1075.32 149.806 1074.16 145.399 1071.86 141.645C1069.63 137.89 1066.45 134.981 1062.3 132.915C1058.16 130.85 1053.25 129.82 1047.58 129.827C1041.98 129.833 1037.08 130.873 1032.86 132.948C1028.73 135.023 1025.55 137.94 1023.33 141.699C1021.11 145.458 1020 149.867 1020.01 154.927C1020.01 160.064 1021.13 164.509 1023.36 168.264C1025.59 172.018 1028.77 174.928 1032.91 176.993C1037.13 178.982 1042.04 179.973 1047.64 179.967Z" fill="#363636"/>
<path d="M1001.73 162.768C1000.89 167.905 998.787 172.431 995.418 176.345C992.126 180.258 987.913 183.33 982.779 185.559C977.644 187.788 971.972 188.906 965.762 188.913C958.556 188.921 952.191 187.509 946.668 184.679C941.144 181.772 936.808 177.79 933.659 172.733C930.587 167.6 929.047 161.698 929.04 155.028C929.032 148.358 930.559 142.492 933.62 137.428C936.758 132.288 941.085 128.297 946.602 125.454C952.118 122.611 958.48 121.186 965.687 121.178C971.897 121.171 977.571 122.276 982.711 124.494C987.85 126.635 992.07 129.658 995.371 133.565C998.748 137.471 1000.86 142.03 1001.71 147.243L990.786 147.255C989.63 141.889 986.75 137.676 982.147 134.614C977.62 131.476 972.137 129.911 965.697 129.918C960.483 129.923 955.923 130.964 952.015 133.038C948.184 135.112 945.197 138.029 943.055 141.788C940.912 145.47 939.844 149.88 939.85 155.016C939.855 160.153 940.934 164.599 943.084 168.353C945.235 172.107 948.229 175.017 952.064 177.083C955.976 179.072 960.539 180.063 965.752 180.058C972.269 180.05 977.787 178.473 982.307 175.324C986.904 172.176 989.736 167.994 990.803 162.78L1001.73 162.768Z" fill="#363636"/>
<path d="M858.126 189.032C851.686 189.04 845.973 188.164 840.988 186.406C836.079 184.572 832.205 181.97 829.364 178.599C826.524 175.229 824.948 171.244 824.636 166.645L834.986 166.633C835.604 171.079 837.908 174.488 841.897 176.86C845.963 179.156 851.37 180.3 858.116 180.292C864.71 180.285 869.845 179.359 873.523 177.515C877.278 175.594 879.153 172.641 879.148 168.654C879.145 165.357 877.609 162.944 874.54 161.414C871.548 159.807 866.756 159.008 860.162 159.015L846.708 159.03L846.699 151.095L859.809 151.081C865.712 151.074 870.081 150.072 872.915 148.076C875.826 146.079 877.28 143.663 877.277 140.826C877.273 137.299 875.507 134.618 871.978 132.782C868.526 130.869 864.002 129.916 858.405 129.922C852.272 129.929 847.251 131.008 843.344 133.159C839.436 135.233 837.14 138.379 836.454 142.597L826.104 142.608C826.56 138.544 828.127 134.901 830.807 131.678C833.487 128.455 837.202 125.921 841.954 124.075C846.705 122.23 852.339 121.304 858.856 121.297C864.836 121.29 870.011 122.089 874.383 123.694C878.755 125.223 882.131 127.366 884.51 130.123C886.89 132.88 888.082 136.022 888.086 139.549C888.089 142.539 887.172 145.262 885.335 147.717C883.574 150.172 880.855 152.13 877.177 153.591C873.575 155.052 868.976 155.785 863.379 155.792L863.377 153.837C871.733 153.597 878.251 154.817 882.931 157.495C887.687 160.173 890.068 164.042 890.074 169.102C890.078 173.012 888.817 176.463 886.29 179.456C883.84 182.449 880.24 184.791 875.488 186.483C870.737 188.175 864.949 189.025 858.126 189.032Z" fill="#363636"/>
<path d="M743.945 187.664L743.873 122.919L754.339 122.908L754.405 182.823L750.38 182.252L799.878 122.857L813.563 122.842L813.635 187.587L803.17 187.598L803.103 127.109L807.244 127.794L757.401 187.649L743.945 187.664Z" fill="#363636"/>
<path d="M663.049 189.249C655.613 189.258 649.018 187.847 643.264 185.016C637.588 182.109 633.137 178.128 629.911 173.071C626.762 168.015 625.184 162.113 625.176 155.367C625.169 148.62 626.734 142.715 629.872 137.651C633.086 132.588 637.528 128.634 643.199 125.791C648.945 122.948 655.537 121.523 662.974 121.514C670.564 121.506 677.197 122.917 682.874 125.747C688.627 128.578 693.078 132.521 696.227 137.577C699.452 142.634 701.069 148.535 701.076 155.282C701.084 161.952 699.48 167.857 696.266 172.997C693.128 178.138 688.686 182.129 682.939 184.972C677.269 187.815 670.639 189.241 663.049 189.249ZM599.913 187.825L599.841 123.08L610.421 123.068L610.493 187.813L599.913 187.825ZM605.516 159.413L605.506 150.788L631.381 150.76L631.391 159.385L605.516 159.413ZM663.039 180.394C668.713 180.388 673.542 179.348 677.526 177.273C681.587 175.199 684.727 172.282 686.946 168.523C689.165 164.764 690.272 160.354 690.266 155.294C690.261 150.234 689.144 145.827 686.917 142.073C684.689 138.319 681.543 135.409 677.477 133.343C673.488 131.278 668.657 130.248 662.984 130.254C657.54 130.261 652.75 131.301 648.612 133.375C644.551 135.45 641.411 138.367 639.192 142.126C636.973 145.885 635.866 150.295 635.871 155.355C635.877 160.415 636.994 164.822 639.221 168.576C641.449 172.33 644.595 175.24 648.661 177.305C652.803 179.371 657.596 180.4 663.039 180.394Z" fill="#363636"/>
<path d="M534.117 208.368C530.82 208.372 527.868 207.953 525.26 207.113C522.653 206.272 520.083 205.048 517.551 203.441L517.542 195.046C520.074 196.653 522.528 197.839 524.906 198.603C527.283 199.367 530.005 199.747 533.072 199.744C536.369 199.74 539.205 198.971 541.58 197.435C543.955 195.975 545.945 193.558 547.552 190.183L579.792 123.102L591.062 123.089L555.721 194.084C554.114 197.382 552.201 200.068 549.98 202.14C547.836 204.289 545.422 205.864 542.74 206.863C540.134 207.863 537.26 208.364 534.117 208.368ZM544.902 185.816L514.127 123.175L525.742 123.162L555.597 185.804L544.902 185.816Z" fill="#363636"/>
<path d="M417.808 188.027L417.736 123.282L433.376 123.265L464.263 183.606L458.743 183.612L489.381 123.203L505.021 123.185L505.093 187.93L495.088 187.941L495.02 126.186L498.585 126.183L466.683 187.973L456.218 187.985L424.18 126.38L427.745 126.376L427.813 188.016L417.808 188.027Z" fill="#363636"/>
<path d="M394.342 154.588L394.351 162.638L360.656 162.676L360.54 162.446C355.94 162.451 351.914 161.651 348.463 160.044C345.088 158.438 342.44 156.179 340.52 153.268C338.6 150.28 337.638 146.831 337.634 142.921C337.629 139.088 338.584 135.714 340.497 132.798C342.411 129.806 345.053 127.503 348.425 125.889C351.873 124.199 355.897 123.351 360.497 123.346L401.667 123.3L401.739 188.045L391.159 188.057L391.091 126.647L395.121 131.473L362.116 131.509C357.823 131.514 354.45 132.553 351.999 134.626C349.548 136.698 348.325 139.498 348.329 143.025C348.333 146.475 349.562 149.272 352.018 151.415C354.474 153.559 357.848 154.629 362.142 154.624L394.342 154.588ZM374.91 157.715L349.299 188.104L336.534 188.118L362.49 157.729L374.91 157.715Z" fill="#363636"/>
<path d="M253.601 123.465L264.181 123.453L264.208 147.948L263.635 150.019L263.647 160.484L264.226 163.818L264.274 207.173L253.694 207.185L253.601 123.465ZM259.272 155.774C260.951 149.025 263.513 143.119 266.957 138.055C270.478 132.991 274.69 129.038 279.594 126.196C284.574 123.354 290.054 121.929 296.034 121.923C302.398 121.916 308.034 123.328 312.944 126.159C317.854 128.99 321.691 132.934 324.457 137.991C327.299 143.048 328.724 148.95 328.732 155.696C328.739 162.366 327.327 168.271 324.497 173.411C321.742 178.474 317.913 182.465 313.01 185.384C308.106 188.226 302.473 189.651 296.11 189.658C290.13 189.664 284.646 188.252 279.66 185.421C274.75 182.59 270.529 178.646 266.997 173.59C263.541 168.457 260.966 162.518 259.272 155.774ZM317.922 155.708C317.916 150.802 316.877 146.471 314.802 142.717C312.805 138.962 310.003 136.052 306.398 133.986C302.869 131.843 298.842 130.775 294.319 130.78C289.719 130.785 285.465 131.863 281.558 134.014C277.727 136.088 274.318 139.005 271.332 142.765C268.347 146.525 265.86 150.86 263.872 155.769C265.871 160.673 268.367 165.002 271.361 168.755C274.355 172.509 277.77 175.456 281.606 177.599C285.518 179.664 289.775 180.695 294.375 180.69C298.898 180.685 302.922 179.645 306.446 177.571C310.047 175.421 312.842 172.466 314.831 168.707C316.897 164.948 317.927 160.615 317.922 155.708Z" fill="#363636"/>
<path d="M237.65 123.483L237.722 188.228L227.142 188.239L227.074 127.174L231.909 131.999L177.515 132.06L182.454 127.224L182.522 188.289L171.942 188.301L171.87 123.556L237.65 123.483Z" fill="#363636"/>
<path d="M146.458 188.329L144.131 163.837L146.997 155.899L144.113 148.082L146.386 123.584L157.196 123.572L154.242 155.89L157.268 188.317L146.458 188.329ZM150.562 155.895C148.883 162.643 146.283 168.588 142.762 173.728C139.317 178.792 135.105 182.745 130.125 185.587C125.221 188.429 119.78 189.854 113.8 189.86C107.436 189.868 101.8 188.455 96.8899 185.624C91.98 182.716 88.1039 178.734 85.2616 173.677C82.4959 168.544 81.1093 162.642 81.1019 155.972C81.0944 149.225 82.4678 143.32 85.2222 138.257C88.0532 133.194 91.9205 129.241 96.824 126.399C101.727 123.557 107.361 122.133 113.724 122.126C119.704 122.119 125.149 123.531 130.059 126.362C135.045 129.193 139.305 133.137 142.837 138.193C146.369 143.249 148.944 149.15 150.562 155.895ZM91.9119 155.96C91.9173 160.866 92.9188 165.197 94.9163 168.951C96.9905 172.706 99.7921 175.654 103.321 177.797C106.927 179.863 110.991 180.894 115.515 180.889C120.115 180.883 124.33 179.844 128.161 177.769C132.069 175.618 135.515 172.663 138.501 168.903C141.564 165.143 144.051 160.808 145.962 155.9C144.04 150.995 141.543 146.666 138.472 142.913C135.478 139.16 132.025 136.25 128.113 134.185C124.277 132.042 120.059 130.973 115.459 130.979C110.936 130.984 106.874 132.061 103.273 134.212C99.7483 136.286 96.9532 139.203 94.8874 142.961C92.8983 146.72 91.9064 151.053 91.9119 155.96Z" fill="#363636"/>
<path d="M2.68091 123.744L13.1459 123.732L13.2179 188.477L2.75294 188.489L2.68091 123.744ZM58.3409 123.682L68.9209 123.67L68.9929 188.415L58.4129 188.427L58.3409 123.682ZM8.57674 151.453L63.3167 151.392L63.3263 160.017L8.58633 160.078L8.57674 151.453Z" fill="#363636"/>
<path d="M564.571 3.37046L575.151 3.35869L575.223 68.1037L564.643 68.1154L564.571 3.37046ZM493.918 68.1941L493.846 3.44914L504.426 3.43737L504.495 64.8473L500.234 59.7921L530.479 59.7584C535.079 59.7533 538.719 58.5993 541.4 56.2963C544.081 53.9166 545.419 50.7335 545.415 46.7468C545.41 42.6835 544.065 39.5033 541.379 37.2063C538.693 34.8326 535.05 33.6483 530.45 33.6534L501.01 33.6862L501.001 25.5212L531.361 25.4874C536.344 25.4819 540.677 26.3587 544.359 28.118C548.118 29.8771 551.034 32.3655 553.107 35.5832C555.181 38.8009 556.22 42.5181 556.225 46.7348C556.229 51.0281 555.199 54.7859 553.132 58.0082C551.066 61.2305 548.155 63.7254 544.4 65.4929C540.722 67.2604 536.392 68.1469 531.408 68.1524L493.918 68.1941Z" fill="#363636"/>
<path d="M484.017 59.5801L484.045 84.9951L474.615 85.0056L474.597 68.2156L405.597 68.2924L405.615 85.0824L396.3 85.0928L396.272 59.6778L410.417 59.662L413.522 59.7736L464.237 59.7171L467.342 59.5987L484.017 59.5801ZM411.16 3.54115L471.765 3.47373L471.833 65.1137L461.253 65.1255L461.189 7.1655L466.139 11.99L416.804 12.0449L421.285 8.58989C421.672 12.0395 421.945 15.4508 422.102 18.824C422.259 22.1205 422.339 25.2254 422.342 28.1387C422.355 39.6387 420.985 48.7253 418.232 55.3983C415.556 61.9946 411.842 65.2954 407.088 65.3007L402.714 61.5106C409.149 56.6734 412.356 44.9015 412.335 26.1949C412.331 22.5915 412.212 18.8733 411.977 15.0403C411.82 11.1304 411.547 7.29739 411.16 3.54115Z" fill="#363636"/>
<path d="M356.199 69.8423C348.609 69.8508 341.899 68.4399 336.069 65.6097C330.316 62.7794 325.826 58.7978 322.601 53.6647C319.375 48.5316 317.758 42.6301 317.751 35.9601C317.744 29.2134 319.347 23.3083 322.561 18.2447C325.776 13.1811 330.256 9.22779 336.003 6.38473C341.827 3.54158 348.533 2.11578 356.123 2.10734C363.79 2.09881 370.5 3.50968 376.253 6.33995C382.006 9.17022 386.496 13.1136 389.721 18.17C393.024 23.2263 394.678 29.1278 394.686 35.8745C394.693 42.5445 393.052 48.4496 389.761 53.59C386.546 58.7302 382.066 62.7219 376.319 65.5649C370.572 68.408 363.865 69.8338 356.199 69.8423ZM356.189 60.9873C361.862 60.981 366.768 59.9789 370.906 57.9809C375.043 55.9063 378.222 52.9895 380.441 49.2303C382.737 45.4711 383.882 41.0232 383.876 35.8865C383.87 30.8265 382.715 26.4194 380.411 22.6653C378.184 18.9111 374.999 16.0014 370.857 13.936C366.714 11.8706 361.806 10.841 356.133 10.8473C350.536 10.8536 345.631 11.894 341.417 13.9687C337.279 16.0433 334.1 18.9602 331.881 22.7193C329.662 26.4785 328.555 30.888 328.561 35.948C328.567 41.0847 329.683 45.5301 331.911 49.2843C334.138 53.0385 337.323 55.9483 341.466 58.0137C345.684 60.0023 350.592 60.9935 356.189 60.9873Z" fill="#363636"/>
<path d="M250.411 68.4649L250.339 3.7199L260.919 3.70813L260.98 58.9081L257.759 57.7617L302.549 3.66181L314.854 3.64812L260.186 68.454L250.411 68.4649ZM304.461 68.4047L283.035 36.1135L289.926 28.1709L317.111 68.3907L304.461 68.4047Z" fill="#363636"/>
<path d="M175.012 70.0439C167.575 70.0521 160.98 68.6411 155.227 65.8109C149.551 62.9038 145.061 58.9222 141.759 53.8658C138.533 48.7328 136.917 42.8312 136.909 36.1612C136.902 29.4146 138.428 23.5095 141.489 18.4461C144.55 13.3827 148.801 9.42964 154.241 6.58692C159.681 3.7442 165.928 2.31892 172.981 2.31107C179.958 2.30331 186.055 3.82986 191.272 6.89073C196.488 9.95159 200.518 14.2788 203.361 19.8723C206.28 25.389 207.744 31.8274 207.753 39.1874L144.963 39.2573L144.953 30.8623L203.258 30.7974L197.052 34.5993C196.817 29.7696 195.662 25.5925 193.588 22.0682C191.515 18.5438 188.713 15.8252 185.184 13.9125C181.656 11.9998 177.553 11.046 172.876 11.0512C167.816 11.0568 163.409 12.0967 159.655 14.1709C155.9 16.1684 152.952 19.0084 150.809 22.6908C148.743 26.3731 147.713 30.7059 147.719 35.6892C147.724 40.9025 148.918 45.4245 151.299 49.2552C153.68 53.0859 157.018 56.0339 161.314 58.0991C165.609 60.1643 170.67 61.1937 176.497 61.1872C181.787 61.1813 186.961 60.2939 192.019 58.5249C197.154 56.7559 201.751 54.3358 205.811 51.2646L205.82 59.5446C201.837 62.769 197.087 65.3426 191.569 67.2654C186.051 69.1116 180.532 70.0377 175.012 70.0439Z" fill="#363636"/>
<path d="M132.638 59.971L132.667 85.386L123.237 85.3965L123.218 68.6065L54.218 68.6833L54.2367 85.4733L44.9217 85.4836L44.8934 60.0686L59.0384 60.0529L62.1436 60.1644L112.859 60.108L115.963 59.9896L132.638 59.971ZM59.781 3.93202L120.386 3.8646L120.455 65.5046L109.875 65.5163L109.81 7.55637L114.76 12.3809L65.4255 12.4357L69.9066 8.98076C70.2938 12.4303 70.5659 15.8417 70.723 19.2149C70.88 22.5113 70.9601 25.6163 70.9634 28.5296C70.9762 40.0296 69.6063 49.1161 66.8537 55.7892C64.1777 62.3855 60.463 65.6863 55.7097 65.6916L51.3355 61.9015C57.7701 57.0643 60.977 45.2924 60.9562 26.5857C60.9522 22.9824 60.833 19.2642 60.5988 15.4311C60.4411 11.5213 60.1685 7.68826 59.781 3.93202Z" fill="#363636"/>
<path d="M49.2109 3.94374L49.2205 12.5687L6.3255 12.6165L11.2651 7.78095L11.3329 68.7309L0.752939 68.7427L0.680908 3.99773L49.2109 3.94374Z" fill="#363636"/>
</svg>
