<svg width="963" height="966" viewBox="0 0 963 966" fill="none" xmlns="http://www.w3.org/2000/svg">
<path d="M0.111382 100.897L0.0798159 72.5241L7.63163 72.5157C8.70879 71.0042 9.74921 68.8094 10.7529 65.9314C11.7566 62.9815 12.6156 59.3844 13.3301 55.1402C14.0445 50.8241 14.3989 46.1128 14.3932 41.0063L14.3755 25.0396L68.5328 24.9794L68.5856 72.4479L77.9714 72.4375L78.003 100.811L62.8994 100.828L62.881 84.3214L15.1967 84.3745L15.215 100.881L0.111382 100.897ZM22.951 72.4987L53.482 72.4647L53.4424 36.8633L29.3844 36.8901L29.3893 41.3133C29.3967 47.9301 28.7202 53.9723 27.3597 59.4399C26.0712 64.9074 24.6014 69.0446 22.9503 71.8514L22.951 72.4987Z" fill="#363636"/>
<path d="M85.0425 84.2968L84.9765 24.9611L100.08 24.9443L100.132 71.4419L100.671 71.4413L130.072 24.9109L149.383 24.8894L149.449 84.2251L134.345 84.2419L134.293 37.7443L133.754 37.7449L104.354 84.2753L85.0425 84.2968Z" fill="#363636"/>
<path d="M189.535 85.2594C184.069 85.2654 178.818 84.66 173.782 83.4429C168.818 82.2257 165.005 80.8994 162.342 79.4639L162.329 67.1652C164.92 68.7446 168.481 70.1791 173.014 71.4687C177.546 72.7582 182.15 73.4004 186.825 73.3952C192.938 73.3884 197.217 72.7723 199.661 71.5469C202.105 70.3215 203.326 68.5221 203.323 66.1487C203.321 63.8472 202.024 62.0506 199.433 60.7588C196.843 59.4671 192.275 58.8249 185.73 58.8322L174.402 58.8448L174.393 50.2141L185.505 50.2018C189.676 50.1971 193.056 49.9057 195.645 49.3274C198.233 48.6773 200.066 47.8122 201.144 46.7321C202.221 45.6521 202.759 44.3929 202.758 42.9544C202.756 41.516 202.215 40.2579 201.135 39.1803C200.127 38.1026 198.4 37.2414 195.954 36.5969C193.58 35.9522 190.451 35.632 186.567 35.6364C181.389 35.6421 176.463 36.223 171.789 37.3789C167.187 38.4629 163.485 39.6897 160.681 41.0593L160.668 29.0843C163.687 27.7863 167.642 26.5952 172.531 25.5109C177.421 24.3548 182.706 23.7735 188.388 23.7672C195.077 23.7597 200.616 24.5447 205.005 26.1221C209.466 27.6275 212.704 29.6377 214.721 32.1528C216.809 34.6677 217.855 37.3636 217.858 40.2405C217.861 42.6859 217.037 44.9523 215.385 47.0399C213.805 49.1274 211.505 50.8202 208.486 52.1181C205.539 53.416 202.087 54.1391 198.131 54.2873L198.132 54.9346C204.533 54.9994 209.497 56.3244 213.025 58.9097C216.623 61.423 218.425 64.6215 218.429 68.5053C218.433 71.526 217.429 74.2962 215.418 76.8157C213.407 79.3352 210.245 81.3885 205.931 82.9756C201.617 84.4907 196.152 85.252 189.535 85.2594Z" fill="#363636"/>
<path d="M250.032 85.1921C242.624 85.2003 236.941 83.6243 232.982 80.4642C229.022 77.2321 227.04 73.0628 227.034 67.9563C227.028 62.2745 229.396 57.7407 234.139 54.3551C238.882 50.9695 246.396 49.271 256.681 49.2595C262.723 49.2528 267.289 48.996 270.382 48.4891C273.474 47.9822 275.523 47.3326 276.529 46.5404C277.535 45.6762 278.037 44.6328 278.036 43.4101C278.034 42.1155 277.457 40.9294 276.306 39.8519C275.225 38.7023 273.318 37.8054 270.585 37.1611C267.923 36.4449 264.29 36.0893 259.687 36.0944C254.293 36.1004 248.936 36.8616 243.615 38.3779C238.367 39.8221 234.197 41.481 231.106 43.3544L231.092 30.1927C233.751 28.5355 237.777 27.0566 243.17 25.756C248.562 24.3835 254.423 23.6937 260.752 23.6867C268.448 23.6781 274.706 24.5342 279.527 26.255C284.347 27.9038 287.802 30.2375 289.891 33.2559C292.052 36.2742 293.135 39.9051 293.14 44.1485L293.184 84.0652L278.081 84.082L278.071 74.912L277.747 74.9123C276.31 76.4962 274.226 78.0808 271.495 79.6661C268.836 81.2514 265.637 82.5855 261.898 83.6685C258.231 84.6795 254.276 85.1873 250.032 85.1921ZM255.413 73.3189C259.081 73.3148 262.425 72.9155 265.445 72.121C268.537 71.3265 271.125 70.3167 273.209 69.0917C275.366 67.8666 276.983 66.6421 278.06 65.4182L278.047 53.9826C277.113 54.4871 276.035 54.9558 274.812 55.3887C273.59 55.8216 271.613 56.2553 268.88 56.6899C266.148 57.0526 262.552 57.2723 258.093 57.3492C252.627 57.4272 248.672 58.2228 246.228 59.7358C243.856 61.2488 242.672 63.1921 242.675 65.5655C242.677 67.7951 243.722 69.6639 245.809 71.1719C247.969 72.608 251.17 73.3236 255.413 73.3189Z" fill="#363636"/>
<path d="M305.579 84.0514L305.513 24.7157L320.617 24.6989L320.669 71.1965L321.208 71.1959L350.608 24.6655L369.919 24.644L369.985 83.9798L354.882 83.9966L354.83 37.4989L354.291 37.4995L324.89 84.0299L305.579 84.0514ZM337.329 16.0496C330.856 16.0568 325.964 14.6598 322.652 11.8585C319.341 9.05725 317.682 5.24722 317.677 0.428433L328.465 0.416431C328.468 2.57409 329.189 4.26346 330.629 5.48454C332.068 6.63369 334.299 7.20659 337.319 7.20323C340.34 7.19987 342.569 6.62201 344.006 5.46965C345.443 4.24538 346.161 2.55441 346.158 0.396747L356.946 0.384744C356.952 5.20353 355.302 9.01724 351.997 11.8259C348.691 14.6345 343.802 16.0424 337.329 16.0496Z" fill="#363636"/>
<path d="M432.51 83.9102L432.444 24.5745L447.548 24.5577L447.614 83.8934L432.51 83.9102ZM382.884 83.9654L382.818 24.6297L397.922 24.6129L397.988 83.9486L382.884 83.9654ZM396.235 59.6768L396.221 47.2703L434.196 47.228L434.21 59.6346L396.235 59.6768Z" fill="#363636"/>
<path d="M42.2909 195.304C34.811 195.313 28.3006 193.989 22.7596 191.334C17.2186 188.607 12.971 184.908 10.017 180.237C7.06302 175.565 5.58282 170.352 5.57641 164.598C5.57001 158.845 7.07458 153.629 10.0901 148.95C13.1056 144.272 17.4528 140.599 23.1317 137.932C28.8824 135.192 35.6416 133.818 43.4092 133.81C48.6595 133.804 53.551 134.482 58.0836 135.843C62.6161 137.133 66.3937 138.639 69.4163 140.362L69.4305 153.092C66.3355 151.009 62.5936 149.251 58.2048 147.818C53.8159 146.384 49.1402 145.67 44.1776 145.676C39.2149 145.681 35.0084 146.477 31.5579 148.063C28.1074 149.649 25.5207 151.882 23.7977 154.761C22.0747 157.568 21.2153 160.841 21.2195 164.581C21.2235 168.249 22.0543 171.521 23.7117 174.396C25.441 177.271 27.9608 179.497 31.271 181.076C34.5811 182.655 38.5377 183.441 43.1407 183.436C47.9595 183.431 52.5258 182.742 56.8396 181.371C61.2253 180 64.7118 178.414 67.299 176.613L67.3132 189.343C64.6537 190.856 61.0951 192.227 56.6373 193.454C52.1795 194.682 47.3974 195.299 42.2909 195.304Z" fill="#363636"/>
<path d="M103.938 193.402C106.165 190.666 108.245 185.809 110.179 178.83C112.185 171.78 113.327 163.472 113.604 153.906L114.122 134.81L168.603 134.749L168.669 194.085L153.565 194.102L153.513 147.172L129.131 147.2L128.709 154.968C128.144 164.75 126.967 173.094 125.176 180.001C123.458 186.907 121.629 191.62 119.69 194.139L103.939 194.157L103.938 193.402Z" fill="#363636"/>
<path d="M240.417 195.084C233.009 195.092 226.57 193.769 221.101 191.114C215.632 188.459 211.456 184.831 208.574 180.231C205.692 175.56 204.248 170.275 204.241 164.377C204.235 158.48 205.668 153.228 208.539 148.622C211.411 143.943 215.578 140.271 221.041 137.604C226.505 134.936 232.94 133.599 240.348 133.59C247.756 133.582 254.195 134.906 259.664 137.561C265.133 140.216 269.308 143.879 272.19 148.551C275.072 153.151 276.517 158.399 276.523 164.297C276.53 170.195 275.097 175.482 272.225 180.161C269.354 184.767 265.186 188.403 259.723 191.071C254.26 193.738 247.825 195.076 240.417 195.084ZM181.619 194.07L181.553 134.735L196.657 134.718L196.723 194.054L181.619 194.07ZM194.321 168.704L194.311 160.073L206.826 160.059L206.835 168.69L194.321 168.704ZM240.403 183.217C244.791 183.212 248.494 182.417 251.513 180.831C254.604 179.245 256.939 177.049 258.518 174.242C260.097 171.364 260.884 168.054 260.88 164.314C260.876 160.574 260.081 157.303 258.496 154.5C256.91 151.625 254.57 149.398 251.476 147.819C248.453 146.24 244.749 145.453 240.361 145.458C235.974 145.462 232.235 146.258 229.144 147.844C226.125 149.429 223.826 151.661 222.247 154.54C220.668 157.347 219.88 160.62 219.885 164.36C219.889 168.1 220.684 171.407 222.269 174.283C223.854 177.086 226.158 179.277 229.181 180.856C232.275 182.435 236.016 183.222 240.403 183.217Z" fill="#363636"/>
<path d="M323.823 194.991C315.408 195 308.394 193.714 302.781 191.131C297.24 188.548 293.101 184.812 290.362 179.925C287.624 175.037 286.251 169.069 286.243 162.021L286.239 158.784C286.225 146.413 289.164 136.809 295.054 129.969C301.015 123.13 309.822 119.704 321.474 119.691L334.419 119.677C338.447 119.672 342.151 119.668 345.531 119.664C348.984 119.661 352.328 119.657 355.565 119.653L357.506 119.651L357.52 132.058L354.715 132.061C351.838 132.064 348.89 132.067 345.869 132.071C342.848 132.074 339.684 132.077 336.375 132.081L321.056 132.098C316.309 132.103 312.426 133.007 309.407 134.808C306.389 136.538 304.126 138.95 302.619 142.044C301.184 145.066 300.361 148.663 300.149 152.835L300.257 152.835L300.797 152.834C301.156 152.834 301.911 152.366 303.061 151.429C305.72 149.341 308.81 147.575 312.333 146.133C315.855 144.69 320.566 143.966 326.463 143.959C334.087 143.951 340.489 145.059 345.67 147.282C350.923 149.434 354.81 152.415 357.331 156.224C359.925 159.961 361.224 164.239 361.229 169.057C361.235 174.02 359.873 178.445 357.145 182.332C354.488 186.218 350.356 189.316 344.748 191.623C339.141 193.859 332.166 194.982 323.823 194.991ZM323.701 182.585C328.376 182.579 332.331 181.964 335.566 180.737C338.873 179.511 341.353 177.782 343.004 175.551C344.728 173.319 345.588 170.729 345.585 167.78C345.582 164.903 344.716 162.351 342.987 160.123C341.331 157.896 338.847 156.172 335.538 154.953C332.3 153.734 328.343 153.127 323.668 153.133C319.065 153.138 315.11 153.753 311.803 154.98C308.568 156.206 306.089 157.935 304.365 160.166C302.713 162.398 301.889 164.952 301.892 167.829C301.896 170.778 302.726 173.366 304.382 175.594C306.111 177.821 308.594 179.545 311.832 180.764C315.142 181.983 319.098 182.59 323.701 182.585Z" fill="#363636"/>
<path d="M408.407 194.897C400.496 194.906 393.662 193.583 387.905 190.928C382.22 188.201 377.865 184.502 374.839 179.831C371.885 175.159 370.405 169.946 370.398 164.193C370.392 158.439 371.861 153.223 374.804 148.545C377.82 143.866 382.167 140.193 387.846 137.526C393.596 134.786 400.428 133.412 408.339 133.404C416.25 133.395 423.049 134.754 428.733 137.48C434.49 140.135 438.846 143.798 441.8 148.47C444.825 153.142 446.342 158.354 446.348 164.108C446.354 169.862 444.85 175.078 441.834 179.756C438.891 184.434 434.544 188.143 428.793 190.883C423.114 193.55 416.319 194.888 408.407 194.897ZM408.394 183.03C413.141 183.025 417.168 182.229 420.474 180.643C423.853 179.057 426.404 176.824 428.127 173.946C429.85 171.067 430.709 167.793 430.705 164.125C430.701 160.457 429.834 157.186 428.105 154.311C426.376 151.436 423.82 149.209 420.438 147.631C417.128 146.052 413.099 145.265 408.352 145.271C403.605 145.276 399.543 146.072 396.164 147.658C392.857 149.244 390.343 151.476 388.62 154.355C386.897 157.234 386.037 160.507 386.041 164.175C386.045 167.843 386.912 171.115 388.642 173.99C390.371 176.865 392.891 179.091 396.201 180.67C399.583 182.248 403.647 183.035 408.394 183.03Z" fill="#363636"/>
<path d="M457.678 193.763L457.612 134.428L496.126 134.385C501.88 134.378 506.663 135.092 510.477 136.526C514.29 137.961 517.061 139.899 518.79 142.343C520.591 144.714 521.493 147.446 521.496 150.539C521.499 153.128 520.747 155.502 519.239 157.662C517.731 159.821 515.539 161.586 512.664 162.955C509.86 164.253 506.517 164.94 502.633 165.016L502.634 165.664C508.819 165.729 513.495 166.982 516.663 169.424C519.902 171.794 521.523 174.813 521.528 178.481C521.532 182.868 519.559 186.502 515.606 189.384C511.725 192.265 505.901 193.71 498.134 193.718L457.678 193.763ZM495.64 182.393C499.308 182.389 501.968 181.811 503.621 180.658C505.346 179.506 506.207 177.958 506.205 176.016C506.203 174.075 505.338 172.529 503.611 171.38C501.955 170.231 499.294 169.659 495.626 169.663L471.136 169.69L471.127 161.06L493.782 161.035C498.097 161.03 501.225 160.343 503.166 158.974C505.178 157.534 506.183 155.663 506.18 153.361C506.178 151.059 505.169 149.227 503.153 147.862C501.21 146.426 498.08 145.71 493.765 145.715L472.728 145.739L472.769 182.419L495.64 182.393Z" fill="#363636"/>
<path d="M571.885 153.935C580.3 153.926 586.703 155.753 591.094 159.416C595.558 163.007 597.792 167.787 597.799 173.757C597.806 179.726 595.582 184.548 591.126 188.221C586.743 191.822 580.344 193.627 571.929 193.636L532.876 193.68L532.81 134.344L547.913 134.327L547.946 164.103L547.967 182.335L570.298 182.31C574.254 182.306 577.202 181.547 579.142 180.035C581.154 178.45 582.159 176.363 582.156 173.774C582.153 171.185 581.144 169.136 579.128 167.628C577.185 166.048 574.235 165.26 570.279 165.265L546.006 165.292L545.993 153.964L571.885 153.935Z" fill="#363636"/>
<path d="M666.871 194.609C659.463 194.618 653.024 193.294 647.555 190.639C642.086 187.984 637.911 184.357 635.029 179.757C632.147 175.085 630.702 169.801 630.696 163.903C630.689 158.005 632.122 152.753 634.994 148.147C637.865 143.469 642.033 139.796 647.496 137.129C652.959 134.462 659.395 133.124 666.802 133.116C674.21 133.108 680.649 134.431 686.118 137.086C691.587 139.741 695.763 143.405 698.645 148.076C701.527 152.676 702.971 157.925 702.978 163.823C702.984 169.72 701.552 175.008 698.68 179.686C695.808 184.292 691.641 187.929 686.178 190.596C680.714 193.263 674.279 194.601 666.871 194.609ZM608.073 193.596L608.007 134.26L623.111 134.243L623.177 193.579L608.073 193.596ZM620.775 168.229L620.766 159.599L633.28 159.585L633.29 168.215L620.775 168.229ZM666.858 182.742C671.245 182.737 674.948 181.942 677.967 180.356C681.058 178.771 683.393 176.575 684.972 173.768C686.551 170.889 687.339 167.58 687.335 163.84C687.33 160.1 686.536 156.828 684.95 154.025C683.365 151.15 681.025 148.923 677.93 147.344C674.908 145.765 671.203 144.978 666.816 144.983C662.428 144.988 658.689 145.783 655.599 147.369C652.58 148.955 650.281 151.187 648.701 154.066C647.122 156.872 646.335 160.146 646.339 163.886C646.343 167.625 647.138 170.933 648.723 173.808C650.309 176.611 652.613 178.802 655.635 180.381C658.73 181.96 662.47 182.747 666.858 182.742Z" fill="#363636"/>
<path d="M28.7365 965.797C22.2565 965.804 17.4669 964.297 14.3675 961.277C11.3402 958.328 9.82309 953.722 9.81612 947.458L9.79293 926.614C9.79037 924.31 9.17648 922.619 7.95128 921.54C6.798 920.389 4.96137 919.815 2.44137 919.818L0.0653637 919.821L0.0521468 907.941L2.42815 907.938C4.94815 907.935 6.7835 907.357 7.93422 906.204C9.15694 905.051 9.76702 903.322 9.76445 901.018L9.74042 879.418C9.73345 873.154 11.2403 868.544 14.261 865.589C17.3537 862.562 22.14 861.044 28.62 861.037L34.236 861.031L34.2498 873.451L29.9298 873.456C25.4658 873.461 23.2364 875.803 23.2416 880.483L23.2644 901.003C23.2692 905.251 22.3007 908.384 20.3589 910.402C18.4891 912.348 15.5741 913.324 11.6141 913.328L11.6153 914.408C15.5753 914.404 18.4925 915.408 20.3667 917.422C22.3129 919.364 23.2883 922.423 23.2929 926.599L23.3149 946.363C23.3201 951.043 25.5547 953.38 30.0187 953.376L34.3387 953.371L34.3525 965.791L28.7365 965.797Z" fill="#363636"/>
<path d="M41.9099 945.262L41.8438 885.862L56.9639 885.845L56.9926 911.657L57.1006 911.657L88.1758 885.811L108.264 885.788L72.6559 914.664L108.222 945.189L88.2419 945.211L57.1073 917.705L56.9993 917.705L57.0299 945.245L41.9099 945.262Z" fill="#363636"/>
<path d="M161.516 946.209C154.1 946.217 148.41 944.64 144.447 941.476C140.483 938.241 138.499 934.067 138.493 928.955C138.486 923.267 140.857 918.728 145.606 915.339C150.354 911.95 157.876 910.249 168.172 910.238C174.22 910.231 178.792 909.974 181.887 909.467C184.983 908.959 187.034 908.309 188.041 907.516C189.048 906.651 189.551 905.606 189.549 904.382C189.548 903.086 188.971 901.899 187.818 900.82C186.736 899.669 184.827 898.771 182.091 898.126C179.426 897.409 175.789 897.053 171.181 897.058C165.781 897.064 160.418 897.826 155.092 899.344C149.837 900.79 145.663 902.451 142.569 904.326L142.555 891.15C145.217 889.491 149.247 888.011 154.646 886.709C160.044 885.335 165.912 884.644 172.248 884.637C179.952 884.629 186.216 885.486 191.042 887.208C195.868 888.859 199.327 891.195 201.418 894.217C203.582 897.238 204.666 900.873 204.67 905.121L204.715 945.081L189.595 945.098L189.585 935.918L189.261 935.918C187.822 937.504 185.736 939.09 183.002 940.677C180.34 942.264 177.137 943.6 173.394 944.684C169.723 945.696 165.764 946.204 161.516 946.209ZM166.903 934.323C170.575 934.319 173.922 933.919 176.945 933.124C180.041 932.329 182.631 931.318 184.718 930.091C186.877 928.865 188.495 927.639 189.574 926.414L189.561 914.966C188.626 915.471 187.546 915.94 186.323 916.374C185.099 916.807 183.12 917.241 180.384 917.676C177.649 918.039 174.049 918.259 169.585 918.336C164.113 918.414 160.154 919.211 157.708 920.725C155.333 922.24 154.148 924.185 154.15 926.561C154.153 928.793 155.199 930.664 157.288 932.174C159.45 933.612 162.655 934.328 166.903 934.323Z" fill="#363636"/>
<path d="M210.102 944.319C212.331 941.581 214.414 936.718 216.35 929.732C218.358 922.674 219.501 914.357 219.778 904.78L220.297 885.664L274.837 885.603L274.903 945.003L259.783 945.02L259.731 898.04L235.323 898.067L234.899 905.844C234.334 915.636 233.156 923.989 231.363 930.903C229.643 937.817 227.812 942.535 225.871 945.058L210.103 945.075L210.102 944.319Z" fill="#363636"/>
<path d="M287.867 944.989L287.801 885.589L340.937 885.53L340.951 897.95L302.935 897.992L302.987 944.972L287.867 944.989Z" fill="#363636"/>
<path d="M381.719 945.964C373.799 945.973 366.958 944.649 361.195 941.991C355.504 939.261 351.144 935.558 348.115 930.882C345.157 926.205 343.676 920.987 343.669 915.227C343.663 909.467 345.133 904.245 348.08 899.562C351.099 894.878 355.45 891.201 361.135 888.531C366.892 885.789 373.731 884.413 381.651 884.404C389.571 884.395 396.376 885.756 402.067 888.486C407.83 891.143 412.191 894.81 415.148 899.487C418.177 904.164 419.695 909.382 419.701 915.142C419.708 920.902 418.201 926.124 415.183 930.807C412.236 935.49 407.884 939.203 402.127 941.946C396.442 944.616 389.639 945.955 381.719 945.964ZM381.706 934.084C386.458 934.079 390.489 933.282 393.8 931.695C397.182 930.107 399.735 927.872 401.46 924.99C403.185 922.108 404.045 918.831 404.041 915.159C404.037 911.487 403.169 908.212 401.438 905.334C399.707 902.456 397.149 900.227 393.763 898.647C390.449 897.066 386.416 896.279 381.664 896.284C376.912 896.29 372.845 897.086 369.463 898.674C366.153 900.262 363.635 902.496 361.91 905.378C360.185 908.26 359.325 911.537 359.329 915.209C359.333 918.881 360.201 922.156 361.932 925.034C363.663 927.912 366.186 930.142 369.5 931.722C372.885 933.302 376.954 934.09 381.706 934.084Z" fill="#363636"/>
<path d="M431.066 965.349L430.977 885.429L446.097 885.413L446.106 893.189L446.754 893.188C448.695 891.098 451.717 889.114 455.819 887.238C459.993 885.289 464.852 884.312 470.396 884.306C476.804 884.298 482.457 885.624 487.356 888.283C492.327 890.941 496.183 894.609 498.924 899.286C501.666 903.891 503.039 909.145 503.046 915.049C503.053 920.953 501.69 926.247 498.96 930.93C496.229 935.541 492.381 939.181 487.416 941.851C482.523 944.52 476.872 945.858 470.464 945.866C465.208 945.871 460.455 944.977 456.205 943.181C451.955 941.314 448.821 939.266 446.802 937.036L446.154 937.037L446.186 965.333L431.066 965.349ZM466.131 933.99C470.451 933.986 474.194 933.189 477.36 931.602C480.598 929.942 483.08 927.707 484.805 924.898C486.53 922.016 487.39 918.739 487.386 915.067C487.382 911.395 486.514 908.156 484.783 905.35C483.052 902.471 480.565 900.242 477.324 898.662C474.154 897.009 470.409 896.186 466.089 896.19C462.921 896.194 459.969 896.629 457.234 897.496C454.499 898.291 452.196 899.302 450.326 900.528C448.455 901.754 447.053 903.016 446.118 904.313L446.142 925.913C447.079 927.208 448.485 928.466 450.358 929.688C452.232 930.91 454.537 931.951 457.274 932.812C460.011 933.601 462.963 933.994 466.131 933.99Z" fill="#363636"/>
<path d="M514.443 944.737L514.377 885.337L529.497 885.32L529.549 931.868L530.089 931.867L559.521 885.286L578.853 885.265L578.919 944.665L563.799 944.682L563.748 898.134L563.208 898.134L533.775 944.715L514.443 944.737Z" fill="#363636"/>
<path d="M612.028 944.628L611.976 897.648L585.84 897.677L585.826 885.257L653.218 885.182L653.232 897.602L627.096 897.631L627.148 944.611L612.028 944.628Z" fill="#363636"/>
<path d="M703.459 947.334L675.866 899.305L675.326 899.306L675.376 944.558L660.256 944.574L660.19 885.174L682.762 885.149L703.322 921.522L703.862 921.522L723.91 885.103L746.05 885.079L746.116 944.479L730.996 944.496L730.946 899.244L730.406 899.244L703.459 947.334Z" fill="#363636"/>
<path d="M779.36 945.522C771.944 945.53 766.254 943.952 762.291 940.789C758.327 937.553 756.342 933.379 756.337 928.267C756.33 922.579 758.701 918.041 763.45 914.652C768.198 911.262 775.72 909.562 786.016 909.55C792.064 909.544 796.636 909.287 799.731 908.779C802.827 908.272 804.878 907.621 805.885 906.828C806.892 905.963 807.395 904.919 807.394 903.695C807.392 902.399 806.815 901.211 805.662 900.133C804.58 898.982 802.671 898.084 799.935 897.439C797.27 896.722 793.633 896.366 789.025 896.371C783.625 896.377 778.262 897.139 772.936 898.657C767.681 900.103 763.507 901.763 760.413 903.639L760.399 890.463C763.061 888.804 767.091 887.323 772.49 886.021C777.888 884.647 783.756 883.957 790.092 883.95C797.796 883.941 804.06 884.798 808.886 886.521C813.712 888.172 817.171 890.508 819.262 893.529C821.426 896.551 822.51 900.186 822.514 904.434L822.559 944.394L807.439 944.411L807.429 935.231L807.105 935.231C805.666 936.817 803.58 938.403 800.846 939.99C798.184 941.577 794.981 942.912 791.238 943.997C787.567 945.009 783.608 945.517 779.36 945.522ZM784.747 933.636C788.419 933.632 791.766 933.232 794.789 932.437C797.884 931.641 800.475 930.63 802.562 929.404C804.721 928.178 806.339 926.952 807.418 925.727L807.405 914.279C806.47 914.784 805.39 915.253 804.167 915.686C802.943 916.12 800.964 916.554 798.228 916.989C795.493 917.352 791.893 917.572 787.429 917.649C781.957 917.727 777.998 918.523 775.552 920.038C773.177 921.553 771.991 923.498 771.994 925.874C771.997 928.106 773.043 929.977 775.132 931.487C777.294 932.924 780.499 933.641 784.747 933.636Z" fill="#363636"/>
<path d="M878.17 947.14L850.577 899.111L850.037 899.111L850.087 944.363L834.967 944.38L834.901 884.98L857.473 884.955L878.033 921.328L878.573 921.327L898.621 884.909L920.761 884.884L920.827 944.284L905.707 944.301L905.657 899.049L905.117 899.05L878.17 947.14Z" fill="#363636"/>
<path d="M928.389 964.796L928.375 952.376L932.695 952.371C937.159 952.366 939.388 950.024 939.383 945.344L939.361 925.58C939.356 921.404 940.289 918.343 942.159 916.397C944.101 914.379 947.052 913.367 951.012 913.363L951.01 912.283C947.05 912.287 944.097 911.319 942.151 909.377C940.277 907.363 939.337 904.232 939.333 899.984L939.31 879.464C939.305 874.784 937.07 872.446 932.606 872.451L928.286 872.456L928.272 860.036L933.888 860.03C940.368 860.023 945.122 861.529 948.149 864.55C951.248 867.499 952.802 872.105 952.809 878.369L952.833 899.969C952.835 902.273 953.413 904 954.566 905.151C955.792 906.302 957.664 906.875 960.184 906.873L962.56 906.87L962.573 918.75L960.197 918.753C957.677 918.755 955.806 919.334 954.583 920.487C953.433 921.568 952.858 923.261 952.861 925.565L952.884 946.409C952.891 952.673 951.348 957.283 948.256 960.238C945.235 963.265 940.485 964.783 934.005 964.79L928.389 964.796Z" fill="#363636"/>
</svg>
