<svg width="850" height="251" viewBox="0 0 850 251" fill="none" xmlns="http://www.w3.org/2000/svg">
<path d="M514.486 222.885L526.986 228.659L535.653 233.608L532.653 239.052L523.819 233.773L512.652 226.184L513.819 239.712V249.775H507.485V239.712L508.652 226.184L497.651 233.773L488.651 239.052L485.651 233.608L494.318 228.659L506.985 222.885L494.318 217.11L485.651 211.996L488.651 206.717L497.651 211.831L508.652 219.585L507.485 206.057V195.829H513.819V206.057L512.652 219.585L523.819 211.831L532.653 206.717L535.653 211.996L526.986 217.11L514.486 222.885Z" fill="#363636"/>
<path d="M404.543 198.315L412.785 198.306L412.842 249.459L404.6 249.468L404.543 198.315ZM448.379 198.266L456.712 198.257L456.768 249.41L448.436 249.419L448.379 198.266ZM409.186 220.207L452.298 220.159L452.306 226.973L409.194 227.021L409.186 220.207Z" fill="#363636"/>
<path d="M369.343 250.688C363.486 250.695 358.292 249.58 353.761 247.344C349.29 245.047 345.754 241.902 343.153 237.907C340.613 233.851 339.34 229.189 339.334 223.919C339.328 218.589 340.53 213.923 342.941 209.923C345.352 205.922 348.7 202.799 352.984 200.553C357.269 198.307 362.189 197.181 367.744 197.175C373.238 197.169 378.04 198.375 382.148 200.793C386.257 203.212 389.431 206.63 391.67 211.05C393.969 215.408 395.122 220.495 395.128 226.31L345.677 226.365L345.669 219.732L391.589 219.681L386.701 222.685C386.516 218.869 385.606 215.569 383.973 212.785C382.34 210 380.133 207.852 377.354 206.341C374.575 204.83 371.344 204.076 367.661 204.08C363.676 204.085 360.205 204.906 357.248 206.545C354.291 208.123 351.969 210.367 350.281 213.276C348.654 216.186 347.843 219.609 347.847 223.546C347.852 227.665 348.792 231.238 350.667 234.264C352.542 237.291 355.171 239.62 358.554 241.251C361.937 242.883 365.923 243.696 370.512 243.691C374.679 243.686 378.753 242.985 382.737 241.588C386.781 240.19 390.402 238.278 393.599 235.852L393.606 242.393C390.469 244.941 386.728 246.974 382.382 248.493C378.037 249.952 373.69 250.683 369.343 250.688Z" fill="#363636"/>
<path d="M333.451 230.104C332.791 234.163 331.135 237.738 328.481 240.831C325.888 243.923 322.57 246.349 318.527 248.11C314.483 249.871 310.016 250.755 305.125 250.76C299.449 250.766 294.436 249.651 290.087 247.415C285.737 245.118 282.322 241.972 279.842 237.977C277.422 233.922 276.209 229.259 276.203 223.989C276.197 218.72 277.4 214.085 279.811 210.084C282.282 206.023 285.69 202.87 290.035 200.624C294.38 198.378 299.39 197.251 305.066 197.245C309.956 197.24 314.426 198.113 318.473 199.865C322.52 201.557 325.844 203.945 328.444 207.032C331.104 210.118 332.768 213.72 333.437 217.838L324.833 217.848C323.923 213.609 321.655 210.28 318.029 207.861C314.464 205.382 310.145 204.145 305.073 204.15C300.967 204.155 297.376 204.977 294.298 206.615C291.281 208.254 288.929 210.559 287.241 213.529C285.554 216.438 284.712 219.922 284.717 223.98C284.721 228.038 285.571 231.55 287.265 234.517C288.958 237.483 291.316 239.782 294.337 241.414C297.418 242.985 301.011 243.769 305.117 243.764C310.25 243.758 314.596 242.512 318.155 240.024C321.775 237.537 324.006 234.233 324.847 230.113L333.451 230.104Z" fill="#363636"/>
<path d="M239.461 250.833C233.484 250.84 228.199 249.725 223.608 247.489C219.077 245.253 215.541 242.108 213 238.052C210.46 233.997 209.187 229.334 209.181 224.064C209.175 218.734 210.438 214.069 212.969 210.068C215.501 206.067 219.03 202.944 223.556 200.698C228.142 198.452 233.424 197.325 239.402 197.319C245.44 197.312 250.725 198.426 255.256 200.663C259.787 202.899 263.322 206.014 265.863 210.009C268.464 214.004 269.767 218.666 269.773 223.997C269.779 229.266 268.486 233.932 265.894 237.993C263.362 242.054 259.834 245.208 255.307 247.454C250.781 249.7 245.499 250.827 239.461 250.833ZM239.454 243.837C243.922 243.832 247.785 243.041 251.044 241.462C254.303 239.823 256.806 237.519 258.554 234.549C260.362 231.579 261.264 228.064 261.259 224.006C261.255 220.008 260.345 216.527 258.53 213.561C256.776 210.595 254.268 208.296 251.005 206.664C247.743 205.032 243.878 204.219 239.41 204.224C235.002 204.229 231.138 205.051 227.819 206.69C224.561 208.329 222.057 210.633 220.31 213.603C218.562 216.573 217.69 220.057 217.695 224.055C217.699 228.113 218.578 231.625 220.333 234.591C222.087 237.557 224.595 239.856 227.858 241.488C231.181 243.059 235.046 243.842 239.454 243.837Z" fill="#363636"/>
<path d="M203.298 230.249C202.638 234.308 200.982 237.884 198.328 240.976C195.735 244.068 192.417 246.494 188.374 248.256C184.33 250.017 179.863 250.9 174.972 250.905C169.296 250.912 164.283 249.797 159.933 247.56C155.584 245.264 152.169 242.118 149.688 238.123C147.269 234.067 146.056 229.404 146.05 224.135C146.044 218.865 147.247 214.23 149.658 210.23C152.129 206.169 155.537 203.015 159.882 200.769C164.226 198.523 169.237 197.397 174.913 197.39C179.803 197.385 184.273 198.258 188.32 200.01C192.367 201.702 195.691 204.091 198.291 207.177C200.951 210.263 202.615 213.865 203.284 217.983L194.68 217.993C193.77 213.754 191.502 210.425 187.876 208.006C184.311 205.527 179.992 204.29 174.92 204.296C170.814 204.3 167.223 205.122 164.145 206.761C161.128 208.4 158.776 210.704 157.088 213.674C155.401 216.583 154.559 220.067 154.564 224.125C154.568 228.184 155.418 231.696 157.111 234.662C158.805 237.628 161.163 239.927 164.184 241.559C167.265 243.131 170.858 243.914 174.964 243.909C180.097 243.904 184.443 242.657 188.002 240.17C191.622 237.682 193.853 234.379 194.694 230.259L203.298 230.249Z" fill="#363636"/>
<path d="M90.2004 251C85.1284 251.006 80.6293 250.314 76.703 248.925C72.8371 247.476 69.7856 245.42 67.5485 242.757C65.3115 240.095 64.0702 236.946 63.8246 233.312L71.976 233.303C72.4629 236.816 74.2774 239.509 77.4192 241.383C80.6214 243.197 84.8792 244.101 90.1927 244.095C95.3855 244.089 99.4302 243.358 102.327 241.901C105.284 240.383 106.761 238.049 106.757 234.9C106.754 232.295 105.544 230.389 103.128 229.18C100.772 227.91 96.9971 227.279 91.8044 227.284L81.2076 227.296L81.2006 221.027L91.5257 221.016C96.175 221.01 99.6158 220.219 101.848 218.642C104.141 217.064 105.286 215.155 105.284 212.914C105.28 210.128 103.889 208.009 101.11 206.559C98.3914 205.047 94.8281 204.294 90.4203 204.299C85.5899 204.304 81.6359 205.157 78.5584 206.856C75.4808 208.495 73.6721 210.981 73.1324 214.313L64.981 214.322C65.3397 211.111 66.5743 208.233 68.6848 205.686C70.7953 203.14 73.7216 201.138 77.4635 199.68C81.2055 198.222 85.6427 197.49 90.775 197.484C95.4847 197.479 99.5611 198.111 103.004 199.379C106.447 200.586 109.106 202.279 110.98 204.458C112.854 206.636 113.793 209.119 113.796 211.905C113.799 214.267 113.076 216.418 111.63 218.358C110.243 220.298 108.101 221.845 105.204 222.999C102.368 224.153 98.7453 224.733 94.3375 224.738L94.3358 223.193C100.917 223.004 106.051 223.967 109.736 226.083C113.482 228.199 115.357 231.256 115.362 235.254C115.365 238.343 114.372 241.07 112.382 243.434C110.452 245.798 107.616 247.649 103.874 248.986C100.132 250.323 95.5743 250.994 90.2004 251Z" fill="#363636"/>
<path d="M0.275086 249.919L0.218356 198.767L8.4603 198.757L8.5128 246.094L5.34232 245.643L44.3264 198.717L55.1043 198.705L55.161 249.858L46.9191 249.867L46.8661 202.076L50.1272 202.618L10.8719 249.907L0.275086 249.919Z" fill="#363636"/>
<path d="M520.197 152.091C514.341 152.098 509.146 150.983 504.615 148.747C500.145 146.45 496.639 143.305 494.099 139.31C491.619 135.315 490.376 130.652 490.37 125.322C490.364 119.991 491.597 115.326 494.068 111.326C496.599 107.325 500.098 104.202 504.564 101.956C509.09 99.7094 514.281 98.583 520.138 98.5765C526.116 98.5698 531.34 99.6845 535.811 101.921C540.342 104.157 543.847 107.272 546.327 111.267C548.868 115.262 550.141 119.925 550.147 125.255C550.152 130.525 548.89 135.19 546.358 139.251C543.887 143.312 540.388 146.466 535.862 148.712C531.397 150.958 526.175 152.085 520.197 152.091ZM470.473 150.966L470.416 99.8131L478.748 99.8038L478.805 150.956L470.473 150.966ZM474.886 128.519L474.878 121.705L495.257 121.682L495.264 128.496L474.886 128.519ZM520.19 145.095C524.658 145.09 528.461 144.268 531.599 142.629C534.797 140.99 537.27 138.686 539.018 135.716C540.766 132.746 541.637 129.262 541.633 125.265C541.629 121.267 540.749 117.785 538.995 114.819C537.24 111.853 534.762 109.554 531.56 107.922C528.419 106.29 524.614 105.477 520.146 105.482C515.859 105.486 512.086 106.308 508.827 107.947C505.629 109.586 503.156 111.891 501.408 114.861C499.66 117.831 498.789 121.315 498.793 125.312C498.797 129.31 499.677 132.792 501.431 135.758C503.185 138.724 505.664 141.023 508.866 142.655C512.128 144.287 515.903 145.1 520.19 145.095Z" fill="#363636"/>
<path d="M418.654 167.196C416.057 167.199 413.732 166.869 411.679 166.205C409.625 165.541 407.601 164.574 405.607 163.304L405.6 156.671C407.594 157.941 409.527 158.878 411.4 159.481C413.272 160.085 415.416 160.385 417.831 160.383C420.427 160.38 422.661 159.772 424.531 158.558C426.402 157.405 427.97 155.495 429.235 152.829L454.626 99.8308L463.502 99.8209L435.669 155.911C434.403 158.517 432.896 160.639 431.147 162.276C429.458 163.974 427.558 165.218 425.445 166.007C423.393 166.797 421.129 167.193 418.654 167.196ZM427.148 149.379L402.91 99.8885L412.058 99.8783L435.571 149.369L427.148 149.379Z" fill="#363636"/>
<path d="M327.052 151.126L326.996 99.973L339.313 99.9593L363.639 147.632L359.292 147.637L383.421 99.9101L395.739 99.8963L395.796 151.049L387.916 151.058L387.862 102.267L390.669 102.264L365.545 151.083L357.303 151.092L332.07 102.421L334.878 102.417L334.932 151.117L327.052 151.126Z" fill="#363636"/>
<path d="M308.571 124.707L308.578 131.067L282.04 131.097L281.95 130.915C278.327 130.919 275.156 130.287 272.438 129.018C269.779 127.749 267.694 125.964 266.182 123.664C264.67 121.303 263.912 118.579 263.909 115.489C263.906 112.461 264.657 109.795 266.164 107.491C267.671 105.127 269.752 103.308 272.408 102.033C275.123 100.697 278.293 100.028 281.915 100.024L314.34 99.9874L314.396 151.14L306.064 151.149L306.01 102.632L309.184 106.444L283.19 106.473C279.809 106.477 277.153 107.297 275.223 108.935C273.293 110.573 272.329 112.785 272.332 115.571C272.335 118.297 273.304 120.506 275.238 122.2C277.172 123.894 279.829 124.739 283.211 124.735L308.571 124.707ZM293.267 127.177L273.096 151.186L263.043 151.197L283.485 127.188L293.267 127.177Z" fill="#363636"/>
<path d="M197.727 100.117L206.059 100.108L206.081 119.461L205.63 121.097L205.639 129.365L206.095 131.999L206.133 166.252L197.8 166.261L197.727 100.117ZM202.193 125.643C203.516 120.312 205.533 115.645 208.246 111.645C211.019 107.644 214.336 104.521 218.198 102.275C222.121 100.03 226.437 98.9042 231.146 98.899C236.158 98.8934 240.597 100.009 244.464 102.246C248.331 104.483 251.353 107.599 253.531 111.594C255.77 115.589 256.892 120.252 256.898 125.582C256.904 130.852 255.792 135.517 253.562 139.578C251.393 143.578 248.378 146.731 244.516 149.037C240.654 151.283 236.217 152.408 231.206 152.414C226.496 152.419 222.177 151.303 218.25 149.067C214.383 146.83 211.059 143.714 208.277 139.719C205.555 135.664 203.527 130.972 202.193 125.643ZM248.384 125.592C248.38 121.715 247.561 118.294 245.928 115.328C244.354 112.361 242.148 110.062 239.308 108.43C236.529 106.737 233.358 105.893 229.795 105.896C226.173 105.901 222.822 106.752 219.745 108.452C216.728 110.091 214.043 112.395 211.692 115.366C209.34 118.336 207.382 121.761 205.816 125.639C207.39 129.514 209.356 132.934 211.715 135.9C214.073 138.865 216.762 141.194 219.783 142.887C222.864 144.519 226.216 145.333 229.839 145.329C233.402 145.325 236.571 144.503 239.346 142.865C242.182 141.166 244.384 138.831 245.95 135.861C247.577 132.892 248.389 129.468 248.384 125.592Z" fill="#363636"/>
<path d="M185.164 100.131L185.221 151.284L176.889 151.293L176.835 103.048L180.643 106.86L137.803 106.908L141.694 103.087L141.747 151.333L133.415 151.342L133.358 100.189L185.164 100.131Z" fill="#363636"/>
<path d="M113.344 151.364L111.511 132.014L113.769 125.742L111.497 119.566L113.287 100.212L121.801 100.202L119.475 125.736L121.858 151.355L113.344 151.364ZM116.576 125.739C115.254 131.071 113.206 135.767 110.433 139.829C107.72 143.829 104.403 146.952 100.481 149.198C96.6188 151.443 92.333 152.569 87.6233 152.574C82.6117 152.58 78.1725 151.464 74.3057 149.227C70.4387 146.93 67.386 143.783 65.1475 139.788C62.9693 135.732 61.8773 131.07 61.8715 125.8C61.8655 120.47 62.9472 115.804 65.1165 111.804C67.3461 107.804 70.3919 104.681 74.2538 102.436C78.1156 100.19 82.5524 99.0647 87.564 99.0591C92.2736 99.0539 96.5619 100.17 100.429 102.407C104.356 104.643 107.711 107.759 110.492 111.754C113.274 115.748 115.302 120.41 116.576 125.739ZM70.3851 125.79C70.3894 129.667 71.1782 133.088 72.7514 136.055C74.3849 139.021 76.5914 141.35 79.3708 143.043C82.2105 144.675 85.4116 145.49 88.974 145.486C92.5968 145.482 95.9169 144.66 98.9341 143.021C102.012 141.322 104.726 138.987 107.078 136.016C109.49 133.046 111.448 129.621 112.953 125.743C111.44 121.868 109.473 118.448 107.055 115.483C104.697 112.517 101.977 110.218 98.8959 108.587C95.875 106.894 92.5531 106.05 88.9303 106.054C85.3678 106.058 82.1686 106.909 79.3326 108.608C76.5569 110.247 74.3556 112.551 72.7286 115.521C71.162 118.491 70.3808 121.914 70.3851 125.79Z" fill="#363636"/>
<path d="M0.109178 100.338L8.35113 100.329L8.40785 151.481L0.165908 151.49L0.109178 100.338ZM43.9455 100.289L52.278 100.28L52.3347 151.432L44.0022 151.442L43.9455 100.289ZM4.75258 122.229L47.8643 122.181L47.8719 128.996L4.76013 129.044L4.75258 122.229Z" fill="#363636"/>
<path d="M819.564 3.81128L827.896 3.80198L827.95 52.138L819.617 52.1473L819.564 3.81128ZM797.461 1.01937L849.992 0.96074L850 7.77503L797.469 7.83366L797.461 1.01937Z" fill="#363636"/>
<path d="M751.315 68.3962C748.718 68.3991 746.393 68.0685 744.339 67.4045C742.286 66.7405 740.262 65.7736 738.268 64.5039L738.261 57.8713C740.255 59.1411 742.188 60.0778 744.06 60.6814C745.933 61.285 748.077 61.5855 750.492 61.5828C753.088 61.5799 755.322 60.9717 757.192 59.7582C759.063 58.6052 760.63 56.6955 761.895 54.0289L787.287 1.03074L796.163 1.02083L768.329 57.1109C767.064 59.7169 765.557 61.8385 763.808 63.4759C762.119 65.1738 760.218 66.4177 758.106 67.2074C756.054 67.9972 753.79 68.3934 751.315 68.3962ZM759.808 50.5787L735.571 1.08845L744.719 1.07825L768.232 50.5693L759.808 50.5787Z" fill="#363636"/>
<path d="M703.651 3.94068L711.983 3.93138L712.037 52.2674L703.704 52.2767L703.651 3.94068ZM681.548 1.14876L734.079 1.09013L734.087 7.90443L681.556 7.96305L681.548 1.14876Z" fill="#363636"/>
<path d="M680.706 32.8587C680.046 36.9177 678.39 40.4933 675.737 43.5854C673.144 46.6775 669.825 49.104 665.782 50.8651C661.738 52.6262 657.271 53.5095 652.38 53.5149C646.704 53.5213 641.692 52.4063 637.342 50.17C632.992 47.8731 629.577 44.7272 627.097 40.7323C624.677 36.6767 623.464 32.014 623.458 26.7443C623.453 21.4746 624.655 16.8395 627.066 12.8391C629.537 8.77804 632.945 5.62452 637.29 3.37852C641.635 1.13253 646.645 0.0063599 652.321 2.54288e-05C657.212 -0.005433 661.681 0.867868 665.728 2.61992C669.776 4.31141 673.099 6.70028 675.699 9.78653C678.359 12.8727 680.024 16.4749 680.693 20.593L672.088 20.6026C671.178 16.3636 668.91 13.0347 665.284 10.6159C661.719 8.13641 657.401 6.89952 652.329 6.90518C648.223 6.90976 644.631 7.73149 641.553 9.37035C638.536 11.0092 636.184 13.3135 634.496 16.2834C632.809 19.1927 631.968 22.6765 631.972 26.7348C631.977 30.7931 632.826 34.3053 634.52 37.2714C636.214 40.2375 638.571 42.5366 641.592 44.1687C644.673 45.7401 648.267 46.5235 652.373 46.5189C657.505 46.5132 661.851 45.2666 665.411 42.7792C669.031 40.2917 671.261 36.9881 672.102 32.8683L680.706 32.8587Z" fill="#363636"/>
<path d="M606.496 52.3851L604.663 33.0345L606.92 26.7629L604.649 20.5871L606.439 1.23248L614.953 1.22298L612.626 26.7565L615.009 52.3756L606.496 52.3851ZM609.728 26.7597C608.405 32.0915 606.358 36.7881 603.585 40.8495C600.872 44.8502 597.554 47.9734 593.632 50.2189C589.77 52.4643 585.485 53.5897 580.775 53.5949C575.763 53.6005 571.324 52.4849 567.457 50.2481C563.59 47.9507 560.538 44.8044 558.299 40.8091C556.121 36.7533 555.029 32.0905 555.023 26.8208C555.017 21.4905 556.099 16.8253 558.268 12.8251C560.498 8.82491 563.544 5.70208 567.405 3.45662C571.267 1.21117 575.704 0.085638 580.716 0.0800448C585.425 0.0747885 589.713 1.19058 593.58 3.42741C597.508 5.66417 600.862 8.77986 603.644 12.7745C606.426 16.7691 608.454 21.4308 609.728 26.7597ZM563.537 26.8113C563.541 30.6879 564.33 34.1093 565.903 37.0755C567.537 40.0417 569.743 42.3712 572.522 44.0641C575.362 45.6964 578.563 46.5105 582.126 46.5066C585.748 46.5025 589.069 45.6811 592.086 44.0423C595.163 42.3429 597.878 40.0078 600.229 37.0372C602.641 34.0665 604.6 30.642 606.105 26.7638C604.591 22.8889 602.625 19.4688 600.206 16.5035C597.848 13.5381 595.129 11.2394 592.047 9.60742C589.027 7.91479 585.705 7.0705 582.082 7.07454C578.519 7.07852 575.32 7.93008 572.484 9.62925C569.709 11.2678 567.507 13.572 565.88 16.5418C564.314 19.5115 563.532 22.9347 563.537 26.8113Z" fill="#363636"/>
<path d="M489.192 1.36337L497.525 1.35408L497.546 20.7067L497.095 22.3426L497.104 30.6106L497.56 33.245L497.598 67.4981L489.265 67.5074L489.192 1.36337ZM493.658 26.8893C494.981 21.5575 496.998 16.8913 499.711 12.8905C502.484 8.8897 505.802 5.76656 509.664 3.5211C513.586 1.27558 517.902 0.150187 522.611 0.144931C527.623 0.139337 532.062 1.25496 535.929 3.49179C539.796 5.72862 542.818 8.84468 544.996 12.84C547.235 16.8352 548.357 21.498 548.363 26.8283C548.369 32.098 547.257 36.7632 545.028 40.824C542.858 44.8241 539.843 47.9772 535.981 50.2833C532.119 52.5287 527.682 53.6542 522.671 53.6598C517.961 53.6651 513.643 52.5493 509.715 50.3126C505.849 48.0757 502.524 44.96 499.742 40.9654C497.021 36.9101 494.993 32.2181 493.658 26.8893ZM539.849 26.8378C539.845 22.9612 539.026 19.5398 537.393 16.5736C535.82 13.6074 533.613 11.3081 530.773 9.67584C527.994 7.98294 524.823 7.13848 521.261 7.14246C517.638 7.1465 514.288 7.99824 511.21 9.69768C508.193 11.3365 505.508 13.6412 503.157 16.6118C500.805 19.5825 498.847 23.0069 497.281 26.8853C498.855 30.7601 500.822 34.1802 503.18 37.1456C505.538 40.1109 508.227 42.4399 511.248 44.1326C514.329 45.7646 517.682 46.5785 521.304 46.5745C524.867 46.5705 528.036 45.7493 530.812 44.1107C533.648 42.4116 535.849 40.0771 537.415 37.1073C539.042 34.1375 539.854 30.7143 539.849 26.8378Z" fill="#363636"/>
<path d="M444.105 1.41355L452.437 1.40425L452.494 52.5569L444.162 52.5662L444.105 1.41355ZM388.461 52.6283L388.404 1.47571L396.736 1.46642L396.79 49.9842L393.435 45.9902L417.255 45.9636C420.878 45.9596 423.745 45.0478 425.856 43.2283C427.967 41.3482 429.021 38.8333 429.018 35.6836C429.014 32.4733 427.955 29.9608 425.839 28.146C423.724 26.2706 420.855 25.335 417.232 25.339L394.046 25.3649L394.039 18.914L417.949 18.8873C421.874 18.883 425.286 19.5757 428.186 20.9656C431.146 22.3555 433.443 24.3215 435.076 26.8637C436.709 29.4059 437.528 32.3427 437.531 35.6741C437.535 39.0661 436.723 42.035 435.096 44.5808C433.468 47.1267 431.176 49.0978 428.219 50.4942C425.322 51.8906 421.911 52.591 417.987 52.5954L388.461 52.6283Z" fill="#363636"/>
<path d="M380.662 45.8229L380.685 65.9023L373.258 65.9106L373.243 52.6454L318.901 52.7061L318.915 65.9712L311.579 65.9794L311.557 45.9L322.697 45.8876L325.143 45.9757L365.084 45.9311L367.53 45.8375L380.662 45.8229ZM323.282 1.54853L371.013 1.49526L371.067 50.1947L362.734 50.204L362.683 4.41199L366.582 8.22365L327.727 8.26701L331.257 5.53735C331.561 8.26273 331.776 10.9579 331.9 13.6229C332.023 16.2274 332.086 18.6805 332.089 20.9822C332.099 30.0679 331.02 37.2468 328.852 42.519C326.745 47.7305 323.819 50.3383 320.075 50.3425L316.63 47.348C321.698 43.5264 324.224 34.2258 324.207 19.4464C324.204 16.5995 324.11 13.6619 323.926 10.6335C323.802 7.54454 323.587 4.5162 323.282 1.54853Z" fill="#363636"/>
<path d="M279.996 53.9307C274.018 53.9374 268.734 52.8227 264.143 50.5867C259.611 48.3506 256.076 45.2048 253.535 41.1494C250.995 37.0939 249.722 32.4313 249.716 27.1616C249.71 21.8313 250.973 17.1659 253.504 13.1653C256.036 9.16479 259.565 6.04141 264.091 3.79522C268.677 1.54895 273.959 0.422479 279.937 0.415807C285.975 0.409068 291.259 1.52375 295.79 3.75984C300.321 5.99593 303.857 9.11141 306.398 13.1063C308.998 17.1011 310.302 21.7637 310.308 27.094C310.313 32.3637 309.02 37.0291 306.429 41.0903C303.897 45.1514 300.368 48.3051 295.842 50.5513C291.316 52.7975 286.034 53.924 279.996 53.9307ZM279.988 46.9347C284.457 46.9297 288.32 46.138 291.579 44.5595C294.838 42.9204 297.341 40.6159 299.089 37.6459C300.897 34.6759 301.798 31.1618 301.794 27.1035C301.79 23.1058 300.88 19.6239 299.065 16.6579C297.311 13.6919 294.803 11.393 291.54 9.76117C288.278 8.12938 284.413 7.31597 279.944 7.32096C275.537 7.32588 271.673 8.14791 268.354 9.78704C265.095 11.4261 262.592 13.7306 260.844 16.7006C259.097 19.6705 258.225 23.1544 258.229 27.1521C258.234 31.2104 259.113 34.7225 260.868 37.6886C262.622 40.6546 265.13 42.9536 268.393 44.5854C271.715 46.1565 275.581 46.9396 279.988 46.9347Z" fill="#363636"/>
<path d="M196.68 52.8425L196.624 1.68991L204.956 1.68061L205.005 45.2921L202.468 44.3863L237.743 1.64402L247.434 1.6332L204.379 52.8339L196.68 52.8425ZM239.249 52.795L222.374 27.2829L227.802 21.0077L249.211 52.7839L239.249 52.795Z" fill="#363636"/>
<path d="M137.298 54.09C131.441 54.0965 126.247 52.9817 121.716 50.7457C117.246 48.4489 113.71 45.3031 111.109 41.3083C108.569 37.2529 107.295 32.5903 107.29 27.3206C107.284 21.9903 108.486 17.3249 110.897 13.3245C113.308 9.32409 116.655 6.20092 120.94 3.95499C125.224 1.70907 130.144 0.582999 135.699 0.576799C141.194 0.570667 145.995 1.77674 150.104 4.19502C154.213 6.6133 157.386 10.032 159.625 14.4513C161.925 18.8099 163.077 23.8966 163.084 29.7114L113.632 29.7666L113.625 23.1341L159.544 23.0828L154.657 26.0866C154.471 22.2708 153.562 18.9706 151.929 16.1862C150.295 13.4017 148.089 11.2539 145.31 9.74267C142.531 8.23148 139.299 7.47794 135.616 7.48205C131.631 7.4865 128.16 8.30809 125.203 9.94682C122.246 11.525 119.924 13.7687 118.237 16.678C116.61 19.5873 115.798 23.0105 115.803 26.9476C115.807 31.0665 116.747 34.6392 118.622 37.6657C120.498 40.6921 123.127 43.0212 126.51 44.6529C129.893 46.2845 133.879 47.0978 138.468 47.0927C142.634 47.088 146.709 46.3869 150.693 44.9893C154.737 43.5916 158.357 41.6796 161.555 39.2532L161.562 45.7949C158.425 48.3424 154.684 50.3757 150.338 51.8949C145.992 53.3534 141.646 54.0851 137.298 54.09Z" fill="#363636"/>
<path d="M103.926 46.1318L103.948 66.2112L96.5216 66.2195L96.5069 52.9544L42.1644 53.015L42.1791 66.2802L34.8428 66.2884L34.8206 46.2089L45.9608 46.1965L48.4063 46.2846L88.3481 46.24L90.7934 46.1465L103.926 46.1318ZM46.5456 1.85746L94.2765 1.80419L94.3305 50.5037L85.9979 50.513L85.9472 4.72092L89.8459 8.53258L50.991 8.57594L54.5203 5.84628C54.8252 8.57166 55.0395 11.2669 55.1632 13.9319C55.2869 16.5363 55.35 18.9894 55.3526 21.2911C55.3626 30.3768 54.2837 37.5558 52.1159 42.8279C50.0083 48.0394 47.0828 50.6472 43.3392 50.6514L39.8942 47.657C44.9619 43.8353 47.4876 34.5348 47.4712 19.7553C47.468 16.9085 47.3742 13.9708 47.1897 10.9425C47.0655 7.85347 46.8508 4.82513 46.5456 1.85746Z" fill="#363636"/>
<path d="M38.2209 1.86653L38.2285 8.68082L4.44553 8.71853L8.33584 4.89817L8.38925 53.0525L0.0567298 53.0618L0 1.90919L38.2209 1.86653Z" fill="#363636"/>
</svg>
