<svg width="1335" height="456" viewBox="0 0 1335 456" fill="none" xmlns="http://www.w3.org/2000/svg">
<path d="M0.118339 101.841L0.0867383 73.4367L7.64673 73.4283C8.72505 71.9151 9.76661 69.7179 10.7714 66.8368C11.7761 63.8836 12.6361 60.2827 13.3514 56.0339C14.0666 51.7131 14.4213 46.9967 14.4156 41.8847L14.3979 25.9007L68.6138 25.8404L68.6667 73.3604L78.0627 73.3499L78.0943 101.754L62.9743 101.771L62.9559 85.2467L15.2199 85.2998L15.2383 101.824L0.118339 101.841ZM22.9827 73.4112L53.5467 73.3772L53.5071 37.7372L29.4231 37.764L29.428 42.192C29.4354 48.816 28.7581 54.8648 27.3962 60.3383C26.1063 65.8117 24.6349 69.9533 22.982 72.7632L22.9827 73.4112Z" fill="white"/>
<path d="M85.1415 85.222L85.0754 25.8221L100.195 25.8053L100.247 72.3532L100.787 72.3526L130.219 25.7719L149.551 25.7503L149.617 85.1503L134.497 85.1671L134.446 38.6192L133.906 38.6198L104.473 85.2005L85.1415 85.222Z" fill="white"/>
<path d="M189.747 86.1857C184.275 86.1918 179.019 85.5856 173.977 84.3672C169.008 83.1487 165.19 81.821 162.525 80.3839L162.511 68.072C165.105 69.6531 168.671 71.0891 173.208 72.3801C177.745 73.671 182.354 74.3139 187.034 74.3087C193.154 74.3019 197.437 73.6851 199.884 72.4584C202.331 71.2317 203.553 69.4303 203.55 67.0543C203.548 64.7503 202.25 62.9517 199.656 61.6586C197.063 60.3655 192.49 59.7226 185.938 59.7299L174.598 59.7425L174.588 51.1025L185.712 51.0901C189.888 51.0855 193.272 50.7937 195.863 50.2148C198.455 49.564 200.29 48.6979 201.368 47.6167C202.447 46.5355 202.986 45.2749 202.984 43.8349C202.983 42.3949 202.441 41.1355 201.36 40.0567C200.351 38.9778 198.622 38.1158 196.173 37.4705C193.796 36.8251 190.664 36.5046 186.776 36.5089C181.592 36.5147 176.661 37.0962 171.982 38.2534C167.375 39.3385 163.669 40.5666 160.862 41.9378L160.849 29.9498C163.871 28.6504 167.83 27.458 172.725 26.3726C177.62 25.2151 182.911 24.6332 188.599 24.6269C195.295 24.6195 200.84 25.4053 205.234 26.9844C209.699 28.4914 212.941 30.5038 214.96 33.0216C217.051 35.5393 218.098 38.2381 218.101 41.1181C218.104 43.5661 217.278 45.835 215.625 47.9249C214.043 50.0146 211.741 51.7092 208.718 53.0085C205.768 54.3078 202.313 55.0317 198.353 55.1801L198.354 55.8281C204.762 55.8929 209.731 57.2194 213.262 59.8075C216.865 62.3235 218.668 65.5255 218.673 69.4135C218.676 72.4375 217.671 75.2106 215.658 77.7328C213.645 80.2551 210.479 82.3106 206.161 83.8994C201.843 85.4162 196.371 86.1783 189.747 86.1857Z" fill="white"/>
<path d="M250.31 86.1183C242.894 86.1265 237.204 84.5489 233.241 81.3853C229.277 78.1497 227.292 73.9759 227.287 68.8639C227.28 63.1759 229.651 58.6373 234.4 55.248C239.148 51.8587 246.67 50.1583 256.966 50.1469C263.014 50.1401 267.586 49.883 270.681 49.3756C273.777 48.8682 275.828 48.2179 276.835 47.4247C277.842 46.5596 278.345 45.5151 278.343 44.2911C278.342 42.9951 277.765 41.8077 276.612 40.729C275.53 39.5782 273.621 38.6803 270.885 38.0354C268.22 37.3183 264.583 36.9624 259.975 36.9675C254.575 36.9735 249.212 37.7355 243.886 39.2534C238.631 40.6992 234.457 42.3599 231.363 44.2353L231.349 31.0593C234.011 29.4004 238.041 27.9199 243.44 26.6179C248.838 25.2439 254.706 24.5534 261.042 24.5463C268.746 24.5377 275.01 25.3948 279.836 27.1174C284.662 28.768 288.121 31.1042 290.212 34.1259C292.376 37.1475 293.46 40.7823 293.464 45.0303L293.509 84.9902L278.389 85.007L278.379 75.8271L278.055 75.8274C276.616 77.413 274.53 78.9993 271.796 80.5864C269.134 82.1733 265.931 83.5089 262.188 84.5931C258.517 85.6052 254.558 86.1136 250.31 86.1183ZM255.697 74.2323C259.369 74.2282 262.716 73.8285 265.739 73.0331C268.835 72.2377 271.425 71.2268 273.512 70.0005C275.671 68.7741 277.289 67.5483 278.368 66.3231L278.355 54.8751C277.42 55.3801 276.34 55.8493 275.117 56.2827C273.893 56.716 271.914 57.1502 269.178 57.5853C266.443 57.9483 262.843 58.1683 258.379 58.2453C252.907 58.3234 248.948 59.1198 246.502 60.6345C244.127 62.1491 242.941 64.0945 242.944 66.4705C242.947 68.7025 243.993 70.5733 246.082 72.083C248.244 73.5206 251.449 74.237 255.697 74.2323Z" fill="white"/>
<path d="M305.917 84.9764L305.851 25.5765L320.971 25.5596L321.023 72.1076L321.563 72.107L350.995 25.5262L370.327 25.5047L370.393 84.9047L355.273 84.9215L355.221 38.3735L354.681 38.3741L325.249 84.9549L305.917 84.9764ZM337.701 16.901C331.221 16.9082 326.324 15.5097 323.009 12.7054C319.693 9.90104 318.033 6.08689 318.028 1.26289L328.828 1.25087C328.83 3.41087 329.552 5.10207 330.993 6.32447C332.435 7.47487 334.667 8.04838 337.691 8.04502C340.715 8.04165 342.947 7.46317 344.385 6.30957C345.824 5.08397 346.542 3.39117 346.54 1.23117L357.34 1.21915C357.345 6.04315 355.693 9.86099 352.385 12.6727C349.076 15.4844 344.181 16.8938 337.701 16.901Z" fill="white"/>
<path d="M432.986 84.8351L432.92 25.4351L448.04 25.4183L448.106 84.8182L432.986 84.8351ZM383.306 84.8903L383.24 25.4904L398.36 25.4735L398.426 84.8735L383.306 84.8903ZM396.671 60.5754L396.657 48.1554L434.673 48.1132L434.687 60.5331L396.671 60.5754Z" fill="white"/>
<path d="M42.3435 196.35C34.8555 196.358 28.338 195.033 22.7911 192.375C17.244 189.646 12.9919 185.942 10.0347 181.266C7.0775 176.589 5.5957 171.371 5.58929 165.611C5.58288 159.851 7.08907 154.629 10.1079 149.946C13.1267 145.262 17.4786 141.585 23.1636 138.915C28.9206 136.173 35.687 134.797 43.463 134.788C48.719 134.783 53.6158 135.461 58.1533 136.824C62.6907 138.115 66.4724 139.623 69.4983 141.347L69.5125 154.091C66.4142 152.007 62.6682 150.247 58.2746 148.812C53.881 147.377 49.2002 146.662 44.2322 146.668C39.2642 146.673 35.0531 147.47 31.5989 149.058C28.1447 150.645 25.5551 152.88 23.8303 155.762C22.1055 158.572 21.2451 161.849 21.2493 165.593C21.2534 169.265 22.085 172.54 23.7442 175.418C25.4754 178.296 27.9979 180.526 31.3117 182.106C34.6254 183.686 38.5863 184.474 43.1943 184.469C48.0183 184.463 52.5895 183.774 56.908 182.402C61.2985 181.029 64.7887 179.441 67.3787 177.638L67.3929 190.382C64.7306 191.897 61.1681 193.269 56.7055 194.498C52.2428 195.727 47.4555 196.344 42.3435 196.35Z" fill="white"/>
<path d="M104.058 194.445C106.286 191.707 108.369 186.844 110.305 179.858C112.313 172.8 113.456 164.483 113.734 154.906L114.252 135.79L168.792 135.729L168.858 195.129L153.738 195.146L153.686 148.166L129.278 148.193L128.855 155.969C128.29 165.762 127.111 174.115 125.319 181.029C123.598 187.943 121.768 192.661 119.826 195.184L104.058 195.201L104.058 194.445Z" fill="white"/>
<path d="M240.684 196.129C233.268 196.137 226.822 194.812 221.347 192.155C215.872 189.497 211.692 185.865 208.807 181.261C205.922 176.584 204.476 171.293 204.469 165.389C204.463 159.485 205.897 154.228 208.772 149.617C211.647 144.933 215.819 141.257 221.288 138.587C226.757 135.917 233.199 134.577 240.615 134.569C248.031 134.561 254.477 135.886 259.952 138.544C265.427 141.202 269.607 144.869 272.492 149.546C275.377 154.15 276.823 159.405 276.829 165.309C276.836 171.213 275.402 176.506 272.527 181.19C269.652 185.801 265.48 189.441 260.011 192.112C254.542 194.782 248.1 196.121 240.684 196.129ZM181.823 195.115L181.756 135.715L196.876 135.698L196.943 195.098L181.823 195.115ZM194.538 169.72L194.529 161.08L207.057 161.066L207.066 169.706L194.538 169.72ZM240.67 184.249C245.062 184.244 248.77 183.448 251.792 181.861C254.886 180.273 257.224 178.075 258.805 175.265C260.385 172.383 261.174 169.07 261.169 165.326C261.165 161.582 260.37 158.307 258.783 155.501C257.195 152.623 254.853 150.393 251.755 148.813C248.729 147.232 245.02 146.444 240.628 146.449C236.236 146.454 232.493 147.25 229.399 148.838C226.377 150.425 224.075 152.66 222.495 155.541C220.914 158.351 220.125 161.628 220.129 165.372C220.134 169.116 220.929 172.427 222.517 175.305C224.104 178.111 226.41 180.305 229.436 181.886C232.534 183.466 236.278 184.254 240.67 184.249Z" fill="white"/>
<path d="M324.18 196.036C315.756 196.046 308.735 194.757 303.116 192.172C297.569 189.586 293.425 185.846 290.684 180.953C287.942 176.06 286.567 170.086 286.56 163.03L286.556 159.79C286.542 147.406 289.483 137.791 295.38 130.944C301.348 124.098 310.164 120.668 321.828 120.655L334.788 120.64C338.82 120.636 342.528 120.632 345.912 120.628C349.368 120.624 352.716 120.62 355.956 120.617L357.9 120.615L357.914 133.035L355.106 133.038C352.226 133.041 349.274 133.044 346.25 133.048C343.226 133.051 340.058 133.054 336.746 133.058L321.41 133.075C316.658 133.08 312.771 133.985 309.749 135.788C306.727 137.52 304.462 139.934 302.953 143.032C301.517 146.057 300.693 149.658 300.481 153.835L300.589 153.834L301.129 153.834C301.489 153.833 302.245 153.365 303.396 152.427C306.057 150.336 309.151 148.569 312.678 147.125C316.204 145.681 320.919 144.956 326.823 144.949C334.455 144.941 340.865 146.05 346.051 148.276C351.31 150.43 355.201 153.414 357.725 157.227C360.321 160.968 361.622 165.25 361.627 170.074C361.633 175.042 360.27 179.472 357.538 183.363C354.879 187.254 350.742 190.355 345.129 192.665C339.515 194.903 332.532 196.027 324.18 196.036ZM324.058 183.616C328.738 183.611 332.698 182.995 335.936 181.767C339.247 180.539 341.729 178.809 343.383 176.575C345.108 174.341 345.969 171.748 345.966 168.796C345.963 165.916 345.096 163.361 343.365 161.131C341.707 158.901 339.221 157.175 335.908 155.955C332.666 154.735 328.706 154.127 324.026 154.132C319.418 154.137 315.458 154.754 312.148 155.982C308.909 157.209 306.427 158.94 304.702 161.174C303.048 163.408 302.223 165.965 302.226 168.845C302.229 171.797 303.06 174.388 304.719 176.618C306.449 178.848 308.935 180.573 312.176 181.794C315.49 183.014 319.45 183.621 324.058 183.616Z" fill="white"/>
<path d="M408.857 195.942C400.937 195.951 394.095 194.626 388.332 191.969C382.641 189.239 378.281 185.536 375.252 180.859C372.294 176.183 370.813 170.964 370.806 165.204C370.8 159.444 372.27 154.223 375.217 149.539C378.236 144.856 382.588 141.179 388.273 138.509C394.03 135.766 400.868 134.391 408.788 134.382C416.708 134.373 423.514 135.734 429.205 138.463C434.968 141.121 439.328 144.788 442.285 149.465C445.314 154.141 446.832 159.36 446.838 165.12C446.845 170.88 445.338 176.101 442.32 180.785C439.373 185.468 435.021 189.181 429.264 191.923C423.579 194.594 416.776 195.933 408.857 195.942ZM408.843 184.062C413.595 184.057 417.626 183.26 420.937 181.673C424.319 180.085 426.872 177.85 428.597 174.968C430.322 172.086 431.182 168.809 431.178 165.137C431.174 161.465 430.306 158.19 428.575 155.312C426.844 152.434 424.286 150.205 420.9 148.625C417.586 147.044 413.553 146.257 408.801 146.262C404.049 146.267 399.982 147.064 396.6 148.652C393.29 150.239 390.772 152.474 389.047 155.356C387.323 158.238 386.462 161.515 386.466 165.187C386.47 168.859 387.338 172.134 389.069 175.012C390.8 177.89 393.323 180.119 396.637 181.7C400.022 183.28 404.091 184.067 408.843 184.062Z" fill="white"/>
<path d="M458.18 194.807L458.114 135.407L496.67 135.364C502.43 135.358 507.219 136.072 511.036 137.508C514.854 138.944 517.628 140.885 519.359 143.331C521.161 145.705 522.064 148.44 522.068 151.536C522.071 154.128 521.317 156.505 519.808 158.666C518.298 160.828 516.104 162.595 513.226 163.966C510.419 165.265 507.072 165.953 503.184 166.029L503.185 166.677C509.377 166.742 514.058 167.997 517.229 170.441C520.472 172.814 522.095 175.836 522.099 179.508C522.104 183.9 520.128 187.538 516.171 190.423C512.286 193.307 506.456 194.753 498.68 194.762L458.18 194.807ZM496.183 183.425C499.855 183.421 502.519 182.842 504.173 181.688C505.9 180.534 506.762 178.985 506.76 177.041C506.758 175.097 505.892 173.55 504.163 172.4C502.506 171.25 499.841 170.677 496.169 170.681L471.653 170.708L471.644 162.068L494.324 162.043C498.644 162.038 501.775 161.351 503.717 159.98C505.732 158.538 506.738 156.665 506.735 154.361C506.732 152.057 505.722 150.222 503.705 148.856C501.759 147.419 498.627 146.702 494.307 146.707L473.247 146.73L473.287 183.45L496.183 183.425Z" fill="white"/>
<path d="M572.511 154.936C580.935 154.926 587.345 156.755 591.741 160.422C596.209 164.017 598.447 168.803 598.453 174.779C598.46 180.755 596.233 185.581 591.773 189.258C587.385 192.863 580.979 194.67 572.555 194.68L533.459 194.723L533.393 135.323L548.513 135.307L548.546 165.115L548.567 183.367L570.923 183.342C574.883 183.337 577.834 182.578 579.776 181.064C581.79 179.478 582.796 177.388 582.793 174.796C582.79 172.204 581.78 170.154 579.762 168.644C577.817 167.062 574.864 166.273 570.904 166.278L546.604 166.305L546.591 154.965L572.511 154.936Z" fill="white"/>
<path d="M667.6 195.654C660.184 195.662 653.738 194.338 648.263 191.68C642.788 189.022 638.608 185.39 635.723 180.786C632.838 176.109 631.392 170.818 631.386 164.914C631.379 159.01 632.813 153.753 635.688 149.142C638.563 144.458 642.735 140.782 648.204 138.112C653.673 135.442 660.115 134.102 667.531 134.094C674.947 134.086 681.393 135.411 686.868 138.069C692.343 140.727 696.523 144.394 699.408 149.071C702.293 153.675 703.739 158.93 703.746 164.834C703.752 170.738 702.318 176.031 699.443 180.715C696.568 185.326 692.396 188.967 686.927 191.637C681.458 194.307 675.016 195.646 667.6 195.654ZM608.739 194.64L608.673 135.24L623.793 135.223L623.859 194.623L608.739 194.64ZM621.454 169.245L621.445 160.605L633.973 160.591L633.982 169.231L621.454 169.245ZM667.587 183.774C671.979 183.769 675.686 182.973 678.708 181.386C681.802 179.798 684.14 177.6 685.721 174.79C687.301 171.908 688.09 168.595 688.086 164.851C688.081 161.107 687.286 157.832 685.699 155.026C684.111 152.148 681.769 149.918 678.671 148.338C675.645 146.757 671.937 145.969 667.545 145.974C663.153 145.979 659.409 146.775 656.315 148.363C653.293 149.95 650.991 152.185 649.411 155.066C647.83 157.876 647.041 161.153 647.046 164.897C647.05 168.641 647.845 171.952 649.433 174.83C651.02 177.637 653.326 179.83 656.352 181.411C659.45 182.991 663.195 183.779 667.587 183.774Z" fill="white"/>
<path d="M400.817 455.563C394.337 455.57 389.547 454.064 386.448 451.043C383.42 448.094 381.903 443.488 381.896 437.224L381.873 416.38C381.87 414.076 381.257 412.385 380.031 411.306C378.878 410.155 377.041 409.581 374.521 409.584L372.145 409.587L372.132 397.707L374.508 397.704C377.028 397.701 378.864 397.123 380.014 395.97C381.237 394.817 381.847 393.088 381.845 390.784L381.82 369.184C381.814 362.92 383.32 358.31 386.341 355.355C389.434 352.328 394.22 350.81 400.7 350.803L406.316 350.797L406.33 363.217L402.01 363.222C397.546 363.227 395.316 365.569 395.322 370.249L395.345 390.769C395.349 395.017 394.381 398.15 392.439 400.168C390.569 402.114 387.654 403.09 383.694 403.094L383.695 404.174C387.655 404.17 390.573 405.174 392.447 407.188C394.393 409.13 395.368 412.189 395.373 416.365L395.395 436.129C395.4 440.809 397.635 443.147 402.099 443.142L406.419 443.137L406.433 455.557L400.817 455.563Z" fill="white"/>
<path d="M413.99 435.028L413.924 375.628L429.044 375.612L429.073 401.424L429.181 401.423L460.256 375.577L480.344 375.555L444.736 404.43L480.302 434.955L460.322 434.977L429.187 407.471L429.079 407.472L429.11 435.012L413.99 435.028Z" fill="white"/>
<path d="M533.596 435.975C526.18 435.984 520.49 434.406 516.527 431.242C512.563 428.007 510.579 423.833 510.573 418.721C510.567 413.033 512.938 408.494 517.686 405.105C522.434 401.716 529.956 400.015 540.252 400.004C546.3 399.997 550.872 399.74 553.967 399.233C557.063 398.725 559.114 398.075 560.121 397.282C561.128 396.417 561.631 395.372 561.63 394.148C561.628 392.852 561.051 391.665 559.898 390.586C558.816 389.435 556.907 388.537 554.171 387.892C551.506 387.175 547.869 386.819 543.261 386.825C537.861 386.831 532.498 387.593 527.172 389.11C521.918 390.556 517.743 392.217 514.65 394.092L514.635 380.916C517.297 379.257 521.327 377.777 526.726 376.475C532.124 375.101 537.992 374.41 544.328 374.403C552.032 374.395 558.297 375.252 563.122 376.974C567.948 378.625 571.407 380.961 573.498 383.983C575.662 387.004 576.746 390.639 576.75 394.887L576.795 434.847L561.675 434.864L561.665 425.684L561.341 425.684C559.902 427.27 557.816 428.856 555.082 430.443C552.42 432.03 549.217 433.366 545.474 434.45C541.804 435.462 537.844 435.971 533.596 435.975ZM538.983 424.089C542.655 424.085 546.002 423.686 549.026 422.89C552.121 422.095 554.712 421.084 556.798 419.858C558.957 418.631 560.575 417.405 561.654 416.18L561.641 404.732C560.706 405.237 559.626 405.706 558.403 406.14C557.179 406.573 555.2 407.007 552.464 407.442C549.729 407.805 546.129 408.025 541.665 408.102C536.193 408.18 532.234 408.977 529.788 410.492C527.413 412.006 526.228 413.952 526.23 416.328C526.233 418.56 527.279 420.43 529.368 421.94C531.53 423.378 534.735 424.094 538.983 424.089Z" fill="white"/>
<path d="M582.182 434.085C584.411 431.347 586.494 426.484 588.43 419.498C590.438 412.44 591.581 404.123 591.858 394.546L592.377 375.43L646.917 375.369L646.983 434.769L631.863 434.786L631.811 387.806L607.403 387.833L606.979 395.61C606.414 405.402 605.236 413.756 603.443 420.67C601.723 427.584 599.892 432.302 597.951 434.824L582.183 434.841L582.182 434.085Z" fill="white"/>
<path d="M659.947 434.755L659.881 375.355L713.017 375.296L713.031 387.716L675.015 387.758L675.067 434.738L659.947 434.755Z" fill="white"/>
<path d="M753.799 435.73C745.88 435.739 739.038 434.415 733.275 431.757C727.584 429.028 723.224 425.324 720.195 420.648C717.237 415.971 715.756 410.753 715.749 404.993C715.743 399.233 717.213 394.011 720.16 389.328C723.179 384.644 727.531 380.968 733.216 378.297C738.973 375.555 745.811 374.179 753.731 374.17C761.651 374.162 768.457 375.522 774.148 378.252C779.911 380.909 784.271 384.576 787.228 389.253C790.257 393.93 791.775 399.148 791.781 404.908C791.788 410.668 790.281 415.89 787.263 420.573C784.316 425.256 779.964 428.969 774.207 431.712C768.522 434.382 761.719 435.722 753.799 435.73ZM753.786 423.85C758.538 423.845 762.569 423.049 765.88 421.461C769.262 419.873 771.815 417.638 773.54 414.756C775.265 411.874 776.125 408.597 776.121 404.925C776.117 401.253 775.249 397.978 773.518 395.1C771.787 392.222 769.229 389.993 765.843 388.413C762.529 386.833 758.496 386.045 753.744 386.05C748.992 386.056 744.925 386.852 741.543 388.44C738.233 390.028 735.715 392.262 733.99 395.144C732.265 398.026 731.405 401.303 731.409 404.975C731.413 408.647 732.281 411.922 734.012 414.8C735.743 417.678 738.266 419.908 741.58 421.488C744.965 423.068 749.034 423.856 753.786 423.85Z" fill="white"/>
<path d="M803.146 455.115L803.057 375.196L818.177 375.179L818.186 382.955L818.834 382.954C820.775 380.864 823.797 378.88 827.899 377.004C832.073 375.055 836.932 374.078 842.476 374.072C848.884 374.065 854.537 375.39 859.436 378.049C864.407 380.707 868.263 384.375 871.004 389.052C873.746 393.657 875.119 398.911 875.126 404.815C875.133 410.719 873.77 416.013 871.04 420.696C868.309 425.307 864.461 428.947 859.496 431.617C854.603 434.286 848.952 435.624 842.544 435.632C837.288 435.637 832.535 434.743 828.285 432.947C824.035 431.08 820.901 429.032 818.882 426.802L818.234 426.803L818.266 455.099L803.146 455.115ZM838.211 423.756C842.531 423.752 846.274 422.955 849.44 421.368C852.679 419.708 855.16 417.474 856.885 414.664C858.61 411.782 859.47 408.505 859.466 404.833C859.462 401.161 858.594 397.922 856.863 395.116C855.132 392.238 852.645 390.008 849.404 388.428C846.234 386.775 842.489 385.952 838.169 385.956C835.001 385.96 832.049 386.395 829.314 387.262C826.579 388.057 824.276 389.068 822.406 390.294C820.535 391.52 819.133 392.782 818.198 394.079L818.222 415.679C819.159 416.974 820.565 418.232 822.438 419.454C824.312 420.676 826.617 421.717 829.354 422.578C832.091 423.367 835.043 423.76 838.211 423.756Z" fill="white"/>
<path d="M886.523 434.503L886.457 375.103L901.577 375.086L901.629 421.634L902.169 421.633L931.601 375.052L950.933 375.031L951 434.431L935.879 434.448L935.828 387.9L935.288 387.9L905.855 434.481L886.523 434.503Z" fill="white"/>
<path d="M984.108 434.394L984.056 387.414L957.92 387.443L957.906 375.023L1025.3 374.948L1025.31 387.368L999.176 387.397L999.228 434.377L984.108 434.394Z" fill="white"/>
<path d="M1075.54 437.1L1047.95 389.071L1047.41 389.072L1047.46 434.324L1032.34 434.34L1032.27 374.94L1054.84 374.915L1075.4 411.289L1075.94 411.288L1095.99 374.87L1118.13 374.845L1118.2 434.245L1103.08 434.262L1103.03 389.01L1102.49 389.01L1075.54 437.1Z" fill="white"/>
<path d="M1151.44 435.288C1144.02 435.296 1138.33 433.719 1134.37 430.555C1130.41 427.319 1128.42 423.146 1128.42 418.034C1128.41 412.346 1130.78 407.807 1135.53 404.418C1140.28 401.028 1147.8 399.328 1158.1 399.317C1164.14 399.31 1168.72 399.053 1171.81 398.545C1174.91 398.038 1176.96 397.388 1177.97 396.594C1178.97 395.729 1179.47 394.685 1179.47 393.461C1179.47 392.165 1178.89 390.977 1177.74 389.899C1176.66 388.748 1174.75 387.85 1172.01 387.205C1169.35 386.488 1165.71 386.132 1161.11 386.137C1155.71 386.143 1150.34 386.905 1145.02 388.423C1139.76 389.869 1135.59 391.53 1132.49 393.405L1132.48 380.229C1135.14 378.57 1139.17 377.09 1144.57 375.788C1149.97 374.414 1155.84 373.723 1162.17 373.716C1169.88 373.707 1176.14 374.564 1180.97 376.287C1185.79 377.938 1189.25 380.274 1191.34 383.296C1193.51 386.317 1194.59 389.952 1194.59 394.2L1194.64 434.16L1179.52 434.177L1179.51 424.997L1179.18 424.997C1177.75 426.583 1175.66 428.169 1172.93 429.756C1170.26 431.343 1167.06 432.679 1163.32 433.763C1159.65 434.775 1155.69 435.283 1151.44 435.288ZM1156.83 423.402C1160.5 423.398 1163.85 422.998 1166.87 422.203C1169.96 421.407 1172.56 420.396 1174.64 419.17C1176.8 417.944 1178.42 416.718 1179.5 415.493L1179.49 404.045C1178.55 404.55 1177.47 405.019 1176.25 405.452C1175.02 405.886 1173.04 406.32 1170.31 406.755C1167.57 407.118 1163.97 407.338 1159.51 407.415C1154.04 407.493 1150.08 408.289 1147.63 409.804C1145.26 411.319 1144.07 413.264 1144.07 415.64C1144.08 417.872 1145.12 419.743 1147.21 421.253C1149.37 422.69 1152.58 423.407 1156.83 423.402Z" fill="white"/>
<path d="M1250.25 436.906L1222.66 388.877L1222.12 388.877L1222.17 434.129L1207.05 434.146L1206.98 374.746L1229.55 374.721L1250.11 411.094L1250.65 411.094L1270.7 374.675L1292.84 374.651L1292.91 434.051L1277.79 434.067L1277.74 388.815L1277.2 388.816L1250.25 436.906Z" fill="white"/>
<path d="M1300.47 454.562L1300.45 442.142L1304.77 442.137C1309.24 442.132 1311.47 439.79 1311.46 435.11L1311.44 415.346C1311.44 411.17 1312.37 408.109 1314.24 406.163C1316.18 404.145 1319.13 403.133 1323.09 403.129L1323.09 402.049C1319.13 402.053 1316.18 401.085 1314.23 399.143C1312.36 397.129 1311.42 393.998 1311.41 389.75L1311.39 369.23C1311.38 364.55 1309.15 362.212 1304.69 362.217L1300.37 362.222L1300.35 349.802L1305.97 349.796C1312.45 349.789 1317.2 351.295 1320.23 354.316C1323.33 357.265 1324.88 361.871 1324.89 368.135L1324.91 389.735C1324.92 392.039 1325.49 393.766 1326.65 394.917C1327.87 396.068 1329.74 396.642 1332.26 396.639L1334.64 396.636L1334.65 408.516L1332.28 408.519C1329.76 408.522 1327.89 409.1 1326.66 410.253C1325.51 411.334 1324.94 413.027 1324.94 415.331L1324.96 436.175C1324.97 442.439 1323.43 447.049 1320.34 450.004C1317.32 453.031 1312.56 454.549 1306.08 454.556L1300.47 454.562Z" fill="white"/>
</svg>
