<svg width="1326" height="305" viewBox="0 0 1326 305" fill="none" xmlns="http://www.w3.org/2000/svg">
<path d="M159.447 253.832L173.947 260.625L184 266.448L180.52 272.854L170.273 266.642L157.32 257.714L158.673 273.63V285.47H151.327V273.63L152.68 257.714L139.92 266.642L129.48 272.854L126 266.448L136.053 260.625L150.747 253.832L136.053 247.038L126 241.021L129.48 234.81L139.92 240.827L152.68 249.95L151.327 234.033V221.999H158.673V234.033L157.32 249.95L170.273 240.827L180.52 234.81L184 241.021L173.947 247.038L159.447 253.832Z" fill="#363636"/>
<path d="M1293.92 286.47C1286.8 286.478 1280.5 285.128 1274.99 282.421C1269.56 279.64 1265.27 275.832 1262.11 270.995C1259.03 266.085 1257.48 260.44 1257.47 254.06C1257.46 247.607 1258.92 241.959 1261.85 237.115C1264.78 232.272 1268.85 228.491 1274.05 225.772C1279.25 223.053 1285.23 221.689 1291.98 221.682C1298.65 221.674 1304.48 223.135 1309.47 226.062C1314.46 228.99 1318.32 233.129 1321.03 238.479C1323.83 243.756 1325.23 249.915 1325.24 256.955L1265.18 257.022L1265.17 248.992L1320.94 248.93L1315 252.566C1314.78 247.946 1313.67 243.951 1311.69 240.58C1309.7 237.209 1307.02 234.608 1303.65 232.779C1300.27 230.949 1296.35 230.037 1291.88 230.042C1287.04 230.047 1282.82 231.042 1279.23 233.026C1275.64 234.937 1272.82 237.653 1270.77 241.175C1268.79 244.698 1267.81 248.842 1267.81 253.609C1267.82 258.595 1268.96 262.921 1271.24 266.585C1273.51 270.249 1276.71 273.069 1280.82 275.044C1284.92 277.02 1289.77 278.004 1295.34 277.998C1300.4 277.992 1305.35 277.144 1310.19 275.452C1315.1 273.759 1319.49 271.445 1323.38 268.507L1323.39 276.427C1319.58 279.511 1315.03 281.973 1309.75 283.812C1304.48 285.578 1299.2 286.464 1293.92 286.47Z" fill="#363636"/>
<path d="M1293.92 286.47C1286.8 286.478 1280.5 285.128 1274.99 282.421C1269.56 279.64 1265.27 275.832 1262.11 270.995C1259.03 266.085 1257.48 260.44 1257.47 254.06C1257.46 247.607 1258.92 241.959 1261.85 237.115C1264.78 232.272 1268.85 228.491 1274.05 225.772C1279.25 223.053 1285.23 221.689 1291.98 221.682C1298.65 221.674 1304.48 223.135 1309.47 226.062C1314.46 228.99 1318.32 233.129 1321.03 238.479C1323.83 243.756 1325.23 249.915 1325.24 256.955L1265.18 257.022L1265.17 248.992L1320.94 248.93L1315 252.566C1314.78 247.946 1313.67 243.951 1311.69 240.58C1309.7 237.209 1307.02 234.608 1303.65 232.779C1300.27 230.949 1296.35 230.037 1291.88 230.042C1287.04 230.047 1282.82 231.042 1279.23 233.026C1275.64 234.937 1272.82 237.653 1270.77 241.175C1268.79 244.698 1267.81 248.842 1267.81 253.609C1267.82 258.595 1268.96 262.921 1271.24 266.585C1273.51 270.249 1276.71 273.069 1280.82 275.044C1284.92 277.02 1289.77 278.004 1295.34 277.998C1300.4 277.992 1305.35 277.144 1310.19 275.452C1315.1 273.759 1319.49 271.445 1323.38 268.507L1323.39 276.427C1319.58 279.511 1315.03 281.973 1309.75 283.812C1304.48 285.578 1299.2 286.464 1293.92 286.47Z" fill="url(#paint0_linear_79_134)" fill-opacity="0.8"/>
<path d="M1179.2 285.167L1179.13 223.237L1189.14 223.226L1189.21 280.536L1185.36 279.99L1232.7 223.178L1245.79 223.163L1245.86 285.093L1235.85 285.104L1235.79 227.244L1239.75 227.9L1192.07 285.153L1179.2 285.167Z" fill="#363636"/>
<path d="M1179.2 285.167L1179.13 223.237L1189.14 223.226L1189.21 280.536L1185.36 279.99L1232.7 223.178L1245.79 223.163L1245.86 285.093L1235.85 285.104L1235.79 227.244L1239.75 227.9L1192.07 285.153L1179.2 285.167Z" fill="url(#paint1_linear_79_134)" fill-opacity="0.8"/>
<path d="M1100.53 223.325L1110.54 223.314L1110.6 285.244L1100.59 285.255L1100.53 223.325ZM1153.77 223.265L1163.89 223.254L1163.95 285.184L1153.83 285.195L1153.77 223.265ZM1106.17 249.828L1158.53 249.77L1158.53 258.02L1106.17 258.078L1106.17 249.828Z" fill="#363636"/>
<path d="M1100.53 223.325L1110.54 223.314L1110.6 285.244L1100.59 285.255L1100.53 223.325ZM1153.77 223.265L1163.89 223.254L1163.95 285.184L1153.83 285.195L1153.77 223.265ZM1106.17 249.828L1158.53 249.77L1158.53 258.02L1106.17 258.078L1106.17 249.828Z" fill="url(#paint2_linear_79_134)" fill-opacity="0.8"/>
<path d="M1078.15 253.27L1078.16 260.97L1045.93 261.005L1045.82 260.786C1041.42 260.79 1037.57 260.025 1034.26 258.488C1031.04 256.952 1028.5 254.791 1026.67 252.007C1024.83 249.149 1023.91 245.85 1023.91 242.11C1023.9 238.443 1024.82 235.216 1026.65 232.427C1028.48 229.565 1031 227.362 1034.23 225.818C1037.53 224.201 1041.38 223.39 1045.78 223.386L1085.16 223.342L1085.22 285.272L1075.1 285.283L1075.04 226.543L1078.89 231.159L1047.32 231.194C1043.22 231.198 1039.99 232.192 1037.65 234.175C1035.3 236.157 1034.13 238.835 1034.14 242.209C1034.14 245.509 1035.32 248.184 1037.67 250.235C1040.01 252.285 1043.24 253.308 1047.35 253.304L1078.15 253.27ZM1059.56 256.26L1035.06 285.328L1022.85 285.341L1047.68 256.273L1059.56 256.26Z" fill="#363636"/>
<path d="M1078.15 253.27L1078.16 260.97L1045.93 261.005L1045.82 260.786C1041.42 260.79 1037.57 260.025 1034.26 258.488C1031.04 256.952 1028.5 254.791 1026.67 252.007C1024.83 249.149 1023.91 245.85 1023.91 242.11C1023.9 238.443 1024.82 235.216 1026.65 232.427C1028.48 229.565 1031 227.362 1034.23 225.818C1037.53 224.201 1041.38 223.39 1045.78 223.386L1085.16 223.342L1085.22 285.272L1075.1 285.283L1075.04 226.543L1078.89 231.159L1047.32 231.194C1043.22 231.198 1039.99 232.192 1037.65 234.175C1035.3 236.157 1034.13 238.835 1034.14 242.209C1034.14 245.509 1035.32 248.184 1037.67 250.235C1040.01 252.285 1043.24 253.308 1047.35 253.304L1078.15 253.27ZM1059.56 256.26L1035.06 285.328L1022.85 285.341L1047.68 256.273L1059.56 256.26Z" fill="url(#paint3_linear_79_134)" fill-opacity="0.8"/>
<path d="M945.1 285.428L945.031 223.498L955.041 223.487L955.105 280.797L951.254 280.251L998.601 223.438L1011.69 223.424L1011.76 285.354L1001.75 285.365L1001.69 227.505L1005.65 228.16L957.97 285.413L945.1 285.428Z" fill="#363636"/>
<path d="M945.1 285.428L945.031 223.498L955.041 223.487L955.105 280.797L951.254 280.251L998.601 223.438L1011.69 223.424L1011.76 285.354L1001.75 285.365L1001.69 227.505L1005.65 228.16L957.97 285.413L945.1 285.428Z" fill="url(#paint4_linear_79_134)" fill-opacity="0.8"/>
<path d="M934.18 261.9C933.379 266.814 931.367 271.143 928.144 274.887C924.995 278.63 920.965 281.568 916.054 283.7C911.143 285.832 905.718 286.902 899.778 286.908C892.884 286.916 886.796 285.566 881.513 282.858C876.23 280.078 872.083 276.269 869.071 271.432C866.132 266.522 864.659 260.877 864.652 254.497C864.645 248.117 866.105 242.506 869.033 237.662C872.034 232.746 876.173 228.928 881.45 226.208C886.727 223.489 892.812 222.126 899.706 222.118C905.646 222.112 911.074 223.169 915.989 225.29C920.905 227.338 924.941 230.23 928.099 233.967C931.33 237.703 933.351 242.064 934.163 247.05L923.713 247.061C922.608 241.929 919.853 237.899 915.45 234.971C911.12 231.969 905.875 230.471 899.715 230.478C894.728 230.484 890.366 231.479 886.628 233.463C882.964 235.447 880.107 238.237 878.058 241.832C876.008 245.355 874.986 249.572 874.992 254.486C874.997 259.399 876.029 263.651 878.086 267.242C880.143 270.833 883.006 273.617 886.675 275.593C890.417 277.495 894.782 278.444 899.768 278.438C906.002 278.431 911.28 276.922 915.603 273.911C920 270.899 922.709 266.899 923.73 261.911L934.18 261.9Z" fill="#363636"/>
<path d="M934.18 261.9C933.379 266.814 931.367 271.143 928.144 274.887C924.995 278.63 920.965 281.568 916.054 283.7C911.143 285.832 905.718 286.902 899.778 286.908C892.884 286.916 886.796 285.566 881.513 282.858C876.23 280.078 872.083 276.269 869.071 271.432C866.132 266.522 864.659 260.877 864.652 254.497C864.645 248.117 866.105 242.506 869.033 237.662C872.034 232.746 876.173 228.928 881.45 226.208C886.727 223.489 892.812 222.126 899.706 222.118C905.646 222.112 911.074 223.169 915.989 225.29C920.905 227.338 924.941 230.23 928.099 233.967C931.33 237.703 933.351 242.064 934.163 247.05L923.713 247.061C922.608 241.929 919.853 237.899 915.45 234.971C911.12 231.969 905.875 230.471 899.715 230.478C894.728 230.484 890.366 231.479 886.628 233.463C882.964 235.447 880.107 238.237 878.058 241.832C876.008 245.355 874.986 249.572 874.992 254.486C874.997 259.399 876.029 263.651 878.086 267.242C880.143 270.833 883.006 273.617 886.675 275.593C890.417 277.495 894.782 278.444 899.768 278.438C906.002 278.431 911.28 276.922 915.603 273.911C920 270.899 922.709 266.899 923.73 261.911L934.18 261.9Z" fill="url(#paint5_linear_79_134)" fill-opacity="0.8"/>
<path d="M796.306 287.023C789.192 287.031 782.884 285.681 777.381 282.974C771.951 280.194 767.657 276.385 764.498 271.549C761.413 266.639 759.867 260.994 759.86 254.614C759.852 248.16 761.313 242.512 764.241 237.669C767.169 232.826 771.234 229.044 776.438 226.325C781.642 223.606 787.617 222.243 794.364 222.235C801.037 222.228 806.869 223.688 811.858 226.616C816.848 229.544 820.703 233.683 823.422 239.033C826.215 244.31 827.615 250.468 827.623 257.508L767.563 257.575L767.554 249.545L823.324 249.483L817.388 253.12C817.163 248.5 816.058 244.504 814.075 241.133C812.091 237.762 809.411 235.162 806.036 233.332C802.661 231.503 798.736 230.59 794.263 230.595C789.423 230.601 785.207 231.595 781.616 233.579C778.025 235.49 775.205 238.207 773.155 241.729C771.179 245.251 770.194 249.396 770.199 254.162C770.205 259.149 771.346 263.474 773.624 267.138C775.901 270.802 779.094 273.622 783.203 275.598C787.312 277.573 792.153 278.558 797.726 278.552C802.786 278.546 807.735 277.697 812.573 276.005C817.485 274.313 821.882 271.998 825.766 269.06L825.775 276.98C821.965 280.065 817.421 282.526 812.143 284.366C806.865 286.131 801.586 287.017 796.306 287.023Z" fill="#363636"/>
<path d="M796.306 287.023C789.192 287.031 782.884 285.681 777.381 282.974C771.951 280.194 767.657 276.385 764.498 271.549C761.413 266.639 759.867 260.994 759.86 254.614C759.852 248.16 761.313 242.512 764.241 237.669C767.169 232.826 771.234 229.044 776.438 226.325C781.642 223.606 787.617 222.243 794.364 222.235C801.037 222.228 806.869 223.688 811.858 226.616C816.848 229.544 820.703 233.683 823.422 239.033C826.215 244.31 827.615 250.468 827.623 257.508L767.563 257.575L767.554 249.545L823.324 249.483L817.388 253.12C817.163 248.5 816.058 244.504 814.075 241.133C812.091 237.762 809.411 235.162 806.036 233.332C802.661 231.503 798.736 230.59 794.263 230.595C789.423 230.601 785.207 231.595 781.616 233.579C778.025 235.49 775.205 238.207 773.155 241.729C771.179 245.251 770.194 249.396 770.199 254.162C770.205 259.149 771.346 263.474 773.624 267.138C775.901 270.802 779.094 273.622 783.203 275.598C787.312 277.573 792.153 278.558 797.726 278.552C802.786 278.546 807.735 277.697 812.573 276.005C817.485 274.313 821.882 271.998 825.766 269.06L825.775 276.98C821.965 280.065 817.421 282.526 812.143 284.366C806.865 286.131 801.586 287.017 796.306 287.023Z" fill="url(#paint6_linear_79_134)" fill-opacity="0.8"/>
<path d="M715.236 287.113C707.976 287.121 701.558 285.772 695.981 283.065C690.478 280.358 686.184 276.549 683.099 271.639C680.013 266.729 678.467 261.084 678.46 254.704C678.453 248.251 679.986 242.603 683.061 237.759C686.135 232.916 690.421 229.134 695.918 226.415C701.489 223.695 707.904 222.331 715.164 222.323C722.497 222.315 728.915 223.665 734.418 226.372C739.921 229.079 744.215 232.851 747.301 237.688C750.459 242.524 752.042 248.169 752.05 254.622C752.057 261.002 750.486 266.651 747.338 271.568C744.264 276.484 739.978 280.302 734.481 283.022C728.984 285.741 722.569 287.105 715.236 287.113ZM715.226 278.643C720.653 278.637 725.345 277.679 729.303 275.768C733.261 273.783 736.301 270.993 738.424 267.398C740.62 263.802 741.715 259.547 741.71 254.634C741.704 249.794 740.6 245.578 738.396 241.988C736.265 238.397 733.218 235.613 729.256 233.638C725.294 231.662 720.6 230.677 715.173 230.683C709.82 230.689 705.127 231.685 701.096 233.669C697.138 235.653 694.098 238.444 691.976 242.039C689.853 245.635 688.794 249.853 688.8 254.693C688.805 259.606 689.873 263.858 692.004 267.449C694.135 271.04 697.181 273.823 701.143 275.799C705.179 277.701 709.873 278.649 715.226 278.643Z" fill="#363636"/>
<path d="M715.236 287.113C707.976 287.121 701.558 285.772 695.981 283.065C690.478 280.358 686.184 276.549 683.099 271.639C680.013 266.729 678.467 261.084 678.46 254.704C678.453 248.251 679.986 242.603 683.061 237.759C686.135 232.916 690.421 229.134 695.918 226.415C701.489 223.695 707.904 222.331 715.164 222.323C722.497 222.315 728.915 223.665 734.418 226.372C739.921 229.079 744.215 232.851 747.301 237.688C750.459 242.524 752.042 248.169 752.05 254.622C752.057 261.002 750.486 266.651 747.338 271.568C744.264 276.484 739.978 280.302 734.481 283.022C728.984 285.741 722.569 287.105 715.236 287.113ZM715.226 278.643C720.653 278.637 725.345 277.679 729.303 275.768C733.261 273.783 736.301 270.993 738.424 267.398C740.62 263.802 741.715 259.547 741.71 254.634C741.704 249.794 740.6 245.578 738.396 241.988C736.265 238.397 733.218 235.613 729.256 233.638C725.294 231.662 720.6 230.677 715.173 230.683C709.82 230.689 705.127 231.685 701.096 233.669C697.138 235.653 694.098 238.444 691.976 242.039C689.853 245.635 688.794 249.853 688.8 254.693C688.805 259.606 689.873 263.858 692.004 267.449C694.135 271.04 697.181 273.823 701.143 275.799C705.179 277.701 709.873 278.649 715.226 278.643Z" fill="url(#paint7_linear_79_134)" fill-opacity="0.8"/>
<path d="M603.558 223.878L613.568 223.867L613.637 285.797L603.627 285.808L603.558 223.878ZM656.798 223.818L666.918 223.807L666.987 285.737L656.867 285.748L656.798 223.818ZM609.198 250.381L661.558 250.323L661.567 258.573L609.207 258.631L609.198 250.381Z" fill="#363636"/>
<path d="M603.558 223.878L613.568 223.867L613.637 285.797L603.627 285.808L603.558 223.878ZM656.798 223.818L666.918 223.807L666.987 285.737L656.867 285.748L656.798 223.818ZM609.198 250.381L661.558 250.323L661.567 258.573L609.207 258.631L609.198 250.381Z" fill="url(#paint8_linear_79_134)" fill-opacity="0.8"/>
<path d="M520.01 223.971L530.13 223.959L530.156 247.389L529.608 249.37L529.619 259.38L530.173 262.569L530.219 304.039L520.099 304.05L520.01 223.971ZM525.434 254.875C527.04 248.419 529.491 242.77 532.785 237.926C536.153 233.083 540.182 229.301 544.873 226.583C549.636 223.864 554.878 222.502 560.598 222.495C566.685 222.489 572.076 223.839 576.773 226.547C581.469 229.255 585.14 233.028 587.785 237.865C590.504 242.702 591.867 248.347 591.874 254.801C591.881 261.181 590.531 266.829 587.823 271.745C585.188 276.588 581.526 280.405 576.836 283.197C572.146 285.916 566.757 287.279 560.67 287.285C554.95 287.292 549.706 285.941 544.936 283.233C540.239 280.525 536.202 276.753 532.823 271.916C529.518 267.007 527.055 261.326 525.434 254.875ZM581.534 254.812C581.529 250.119 580.534 245.977 578.55 242.385C576.64 238.794 573.96 236.011 570.511 234.034C567.135 231.985 563.284 230.962 558.958 230.967C554.558 230.972 550.489 232.003 546.751 234.061C543.087 236.045 539.826 238.835 536.97 242.432C534.114 246.028 531.736 250.174 529.834 254.87C531.746 259.561 534.134 263.702 536.998 267.292C539.862 270.882 543.129 273.702 546.797 275.751C550.54 277.727 554.611 278.712 559.011 278.707C563.337 278.702 567.186 277.708 570.557 275.724C574.002 273.667 576.675 270.841 578.578 267.245C580.554 263.65 581.539 259.505 581.534 254.812Z" fill="#363636"/>
<path d="M520.01 223.971L530.13 223.959L530.156 247.389L529.608 249.37L529.619 259.38L530.173 262.569L530.219 304.039L520.099 304.05L520.01 223.971ZM525.434 254.875C527.04 248.419 529.491 242.77 532.785 237.926C536.153 233.083 540.182 229.301 544.873 226.583C549.636 223.864 554.878 222.502 560.598 222.495C566.685 222.489 572.076 223.839 576.773 226.547C581.469 229.255 585.14 233.028 587.785 237.865C590.504 242.702 591.867 248.347 591.874 254.801C591.881 261.181 590.531 266.829 587.823 271.745C585.188 276.588 581.526 280.405 576.836 283.197C572.146 285.916 566.757 287.279 560.67 287.285C554.95 287.292 549.706 285.941 544.936 283.233C540.239 280.525 536.202 276.753 532.823 271.916C529.518 267.007 527.055 261.326 525.434 254.875ZM581.534 254.812C581.529 250.119 580.534 245.977 578.55 242.385C576.64 238.794 573.96 236.011 570.511 234.034C567.135 231.985 563.284 230.962 558.958 230.967C554.558 230.972 550.489 232.003 546.751 234.061C543.087 236.045 539.826 238.835 536.97 242.432C534.114 246.028 531.736 250.174 529.834 254.87C531.746 259.561 534.134 263.702 536.998 267.292C539.862 270.882 543.129 273.702 546.797 275.751C550.54 277.727 554.611 278.712 559.011 278.707C563.337 278.702 567.186 277.708 570.557 275.724C574.002 273.667 576.675 270.841 578.578 267.245C580.554 263.65 581.539 259.505 581.534 254.812Z" fill="url(#paint9_linear_79_134)" fill-opacity="0.8"/>
<path d="M477.259 287.378C470.145 287.386 463.837 286.036 458.334 283.329C452.904 280.549 448.61 276.74 445.451 271.903C442.366 266.994 440.82 261.349 440.813 254.969C440.805 248.515 442.266 242.867 445.194 238.024C448.122 233.18 452.187 229.399 457.391 226.68C462.595 223.961 468.57 222.598 475.317 222.59C481.99 222.583 487.822 224.043 492.811 226.971C497.801 229.899 501.656 234.038 504.375 239.388C507.168 244.665 508.568 250.823 508.576 257.863L448.516 257.93L448.507 249.9L504.277 249.838L498.341 253.475C498.116 248.855 497.011 244.859 495.028 241.488C493.044 238.117 490.364 235.517 486.989 233.687C483.614 231.858 479.689 230.945 475.216 230.95C470.376 230.956 466.16 231.95 462.569 233.934C458.978 235.845 456.158 238.562 454.108 242.084C452.132 245.606 451.147 249.75 451.152 254.517C451.158 259.504 452.299 263.829 454.577 267.493C456.854 271.157 460.047 273.977 464.156 275.953C468.265 277.928 473.106 278.913 478.679 278.907C483.739 278.901 488.688 278.052 493.526 276.36C498.438 274.668 502.835 272.353 506.719 269.415L506.728 277.335C502.918 280.42 498.374 282.881 493.096 284.721C487.818 286.486 482.539 287.372 477.259 287.378Z" fill="#363636"/>
<path d="M477.259 287.378C470.145 287.386 463.837 286.036 458.334 283.329C452.904 280.549 448.61 276.74 445.451 271.903C442.366 266.994 440.82 261.349 440.813 254.969C440.805 248.515 442.266 242.867 445.194 238.024C448.122 233.18 452.187 229.399 457.391 226.68C462.595 223.961 468.57 222.598 475.317 222.59C481.99 222.583 487.822 224.043 492.811 226.971C497.801 229.899 501.656 234.038 504.375 239.388C507.168 244.665 508.568 250.823 508.576 257.863L448.516 257.93L448.507 249.9L504.277 249.838L498.341 253.475C498.116 248.855 497.011 244.859 495.028 241.488C493.044 238.117 490.364 235.517 486.989 233.687C483.614 231.858 479.689 230.945 475.216 230.95C470.376 230.956 466.16 231.95 462.569 233.934C458.978 235.845 456.158 238.562 454.108 242.084C452.132 245.606 451.147 249.75 451.152 254.517C451.158 259.504 452.299 263.829 454.577 267.493C456.854 271.157 460.047 273.977 464.156 275.953C468.265 277.928 473.106 278.913 478.679 278.907C483.739 278.901 488.688 278.052 493.526 276.36C498.438 274.668 502.835 272.353 506.719 269.415L506.728 277.335C502.918 280.42 498.374 282.881 493.096 284.721C487.818 286.486 482.539 287.372 477.259 287.378Z" fill="url(#paint10_linear_79_134)" fill-opacity="0.8"/>
<path d="M367.99 286.07L370.816 255.047L367.921 224.14L409.941 224.093C415.954 224.086 420.613 225.475 423.916 228.258C427.292 230.967 428.983 234.815 428.989 239.802C428.994 244.349 427.311 247.981 423.941 250.698C420.644 253.341 416.062 254.886 410.196 255.333L411.184 253.242C418.224 253.307 423.615 254.731 427.358 257.514C431.101 260.223 432.976 264.108 432.981 269.168C432.987 274.448 431.085 278.593 427.275 281.604C423.538 284.541 418.297 286.014 411.55 286.021L367.99 286.07ZM377.887 283.089L374.031 278.363L409.891 278.323C414.218 278.318 417.407 277.472 419.459 275.783C421.583 274.094 422.644 271.672 422.641 268.519C422.637 265.292 421.351 262.764 418.782 260.933C416.287 259.103 412.362 258.19 407.009 258.196L376.429 258.23L376.421 250.97L406.341 250.937C410.374 250.933 413.417 250.013 415.468 248.177C417.593 246.341 418.653 243.92 418.65 240.913C418.647 238.053 417.691 235.818 415.782 234.207C413.947 232.522 411.086 231.682 407.2 231.686L374.09 231.723L377.824 227.099L380.606 255.036L377.887 283.089Z" fill="#363636"/>
<path d="M367.99 286.07L370.816 255.047L367.921 224.14L409.941 224.093C415.954 224.086 420.613 225.475 423.916 228.258C427.292 230.967 428.983 234.815 428.989 239.802C428.994 244.349 427.311 247.981 423.941 250.698C420.644 253.341 416.062 254.886 410.196 255.333L411.184 253.242C418.224 253.307 423.615 254.731 427.358 257.514C431.101 260.223 432.976 264.108 432.981 269.168C432.987 274.448 431.085 278.593 427.275 281.604C423.538 284.541 418.297 286.014 411.55 286.021L367.99 286.07ZM377.887 283.089L374.031 278.363L409.891 278.323C414.218 278.318 417.407 277.472 419.459 275.783C421.583 274.094 422.644 271.672 422.641 268.519C422.637 265.292 421.351 262.764 418.782 260.933C416.287 259.103 412.362 258.19 407.009 258.196L376.429 258.23L376.421 250.97L406.341 250.937C410.374 250.933 413.417 250.013 415.468 248.177C417.593 246.341 418.653 243.92 418.65 240.913C418.647 238.053 417.691 235.818 415.782 234.207C413.947 232.522 411.086 231.682 407.2 231.686L374.09 231.723L377.824 227.099L380.606 255.036L377.887 283.089Z" fill="url(#paint11_linear_79_134)" fill-opacity="0.8"/>
<path d="M326.49 287.546C319.377 287.554 313.068 286.204 307.565 283.497C302.136 280.716 297.841 276.908 294.683 272.071C291.597 267.161 290.051 261.516 290.044 255.136C290.037 248.683 291.497 243.035 294.425 238.191C297.353 233.348 301.419 229.567 306.622 226.848C311.826 224.129 317.801 222.765 324.548 222.758C331.221 222.751 337.053 224.211 342.043 227.139C347.033 230.066 350.887 234.205 353.606 239.556C356.399 244.833 357.799 250.991 357.807 258.031L297.747 258.098L297.738 250.068L353.508 250.006L347.572 253.642C347.347 249.023 346.243 245.027 344.259 241.656C342.275 238.285 339.595 235.685 336.22 233.855C332.845 232.025 328.92 231.113 324.447 231.118C319.607 231.123 315.392 232.118 311.8 234.102C308.209 236.013 305.389 238.729 303.339 242.252C301.363 245.774 300.378 249.918 300.383 254.685C300.389 259.672 301.53 263.997 303.808 267.661C306.085 271.325 309.278 274.145 313.387 276.12C317.496 278.096 322.337 279.08 327.91 279.074C332.97 279.069 337.92 278.22 342.758 276.528C347.669 274.836 352.066 272.521 355.95 269.583L355.959 277.503C352.149 280.587 347.605 283.049 342.327 284.888C337.049 286.654 331.77 287.54 326.49 287.546Z" fill="#363636"/>
<path d="M326.49 287.546C319.377 287.554 313.068 286.204 307.565 283.497C302.136 280.716 297.841 276.908 294.683 272.071C291.597 267.161 290.051 261.516 290.044 255.136C290.037 248.683 291.497 243.035 294.425 238.191C297.353 233.348 301.419 229.567 306.622 226.848C311.826 224.129 317.801 222.765 324.548 222.758C331.221 222.751 337.053 224.211 342.043 227.139C347.033 230.066 350.887 234.205 353.606 239.556C356.399 244.833 357.799 250.991 357.807 258.031L297.747 258.098L297.738 250.068L353.508 250.006L347.572 253.642C347.347 249.023 346.243 245.027 344.259 241.656C342.275 238.285 339.595 235.685 336.22 233.855C332.845 232.025 328.92 231.113 324.447 231.118C319.607 231.123 315.392 232.118 311.8 234.102C308.209 236.013 305.389 238.729 303.339 242.252C301.363 245.774 300.378 249.918 300.383 254.685C300.389 259.672 301.53 263.997 303.808 267.661C306.085 271.325 309.278 274.145 313.387 276.12C317.496 278.096 322.337 279.08 327.91 279.074C332.97 279.069 337.92 278.22 342.758 276.528C347.669 274.836 352.066 272.521 355.95 269.583L355.959 277.503C352.149 280.587 347.605 283.049 342.327 284.888C337.049 286.654 331.77 287.54 326.49 287.546Z" fill="url(#paint12_linear_79_134)" fill-opacity="0.8"/>
<path d="M282.899 262.624C282.098 267.539 280.086 271.868 276.863 275.611C273.714 279.355 269.684 282.293 264.773 284.425C259.862 286.557 254.437 287.626 248.497 287.633C241.603 287.64 235.515 286.291 230.232 283.583C224.949 280.802 220.801 276.994 217.789 272.157C214.851 267.247 213.378 261.602 213.37 255.222C213.363 248.842 214.824 243.23 217.752 238.387C220.753 233.47 224.892 229.652 230.169 226.933C235.446 224.214 241.531 222.85 248.424 222.843C254.364 222.836 259.792 223.893 264.708 226.015C269.624 228.063 273.66 230.955 276.818 234.691C280.048 238.428 282.07 242.789 282.882 247.774L272.432 247.786C271.327 242.654 268.572 238.624 264.169 235.695C259.839 232.693 254.594 231.196 248.434 231.203C243.447 231.208 239.085 232.203 235.347 234.187C231.683 236.171 228.826 238.961 226.776 242.557C224.727 246.079 223.705 250.297 223.71 255.21C223.716 260.124 224.747 264.376 226.805 267.967C228.862 271.558 231.725 274.341 235.394 276.317C239.136 278.22 243.5 279.168 248.487 279.163C254.72 279.156 259.999 277.647 264.322 274.635C268.719 271.624 271.428 267.624 272.449 262.636L282.899 262.624Z" fill="#363636"/>
<path d="M282.899 262.624C282.098 267.539 280.086 271.868 276.863 275.611C273.714 279.355 269.684 282.293 264.773 284.425C259.862 286.557 254.437 287.626 248.497 287.633C241.603 287.64 235.515 286.291 230.232 283.583C224.949 280.802 220.801 276.994 217.789 272.157C214.851 267.247 213.378 261.602 213.37 255.222C213.363 248.842 214.824 243.23 217.752 238.387C220.753 233.47 224.892 229.652 230.169 226.933C235.446 224.214 241.531 222.85 248.424 222.843C254.364 222.836 259.792 223.893 264.708 226.015C269.624 228.063 273.66 230.955 276.818 234.691C280.048 238.428 282.07 242.789 282.882 247.774L272.432 247.786C271.327 242.654 268.572 238.624 264.169 235.695C259.839 232.693 254.594 231.196 248.434 231.203C243.447 231.208 239.085 232.203 235.347 234.187C231.683 236.171 228.826 238.961 226.776 242.557C224.727 246.079 223.705 250.297 223.71 255.21C223.716 260.124 224.747 264.376 226.805 267.967C228.862 271.558 231.725 274.341 235.394 276.317C239.136 278.22 243.5 279.168 248.487 279.163C254.72 279.156 259.999 277.647 264.322 274.635C268.719 271.624 271.428 267.624 272.449 262.636L282.899 262.624Z" fill="url(#paint13_linear_79_134)" fill-opacity="0.8"/>
<path d="M848.848 60.5481L848.783 1.99609L858.247 1.98556L858.307 56.1695L854.667 55.6536L899.431 1.93975L911.807 1.92598L911.872 60.4779L902.408 60.4885L902.347 5.7845L906.092 6.40433L861.016 60.5345L848.848 60.5481Z" fill="#363636"/>
<path d="M771.279 60.6344L771.214 2.0824L780.678 2.07187L780.738 56.2558L777.098 55.7399L821.862 2.02605L834.238 2.01228L834.303 60.5642L824.839 60.5748L824.778 5.87081L828.523 6.49064L783.447 60.6208L771.279 60.6344Z" fill="#363636"/>
<path d="M763.228 2.09131L763.236 9.8913L724.445 9.93446L728.912 5.56149L728.973 60.6815L719.405 60.6921L719.34 2.14014L763.228 2.09131Z" fill="#363636"/>
<path d="M673.646 62.095C666.782 62.1026 660.714 60.8267 655.442 58.2673C650.239 55.7077 646.179 52.1069 643.262 47.4648C640.345 42.8227 638.883 37.4857 638.876 31.4537C638.87 25.3523 640.32 20.0121 643.227 15.4328C646.133 10.8536 650.185 7.2784 655.383 4.70729C660.649 2.13609 666.714 0.846677 673.578 0.83904C680.512 0.831327 686.58 2.10724 691.783 4.66679C696.985 7.22634 701.045 10.7925 703.962 15.3652C706.949 19.9379 708.446 25.2749 708.452 31.3763C708.459 37.4083 706.974 42.7486 703.998 47.3972C701.091 52.0458 697.039 55.6556 691.842 58.2268C686.645 60.7979 680.58 62.0873 673.646 62.095ZM673.638 54.087C678.768 54.0813 683.205 53.175 686.947 51.3682C690.688 49.492 693.563 46.8542 695.57 43.4546C697.646 40.055 698.681 36.0325 698.676 31.3871C698.671 26.8111 697.627 22.8256 695.543 19.4306C693.529 16.0355 690.648 13.4041 686.902 11.5362C683.156 9.66839 678.718 8.73733 673.587 8.74304C668.526 8.74867 664.089 9.68961 660.278 11.5658C656.536 13.442 653.662 16.0799 651.655 19.4794C649.648 22.879 648.647 26.8668 648.652 31.4428C648.657 36.0881 649.667 40.1083 651.682 43.5034C653.696 46.8985 656.576 49.53 660.323 51.3978C664.138 53.1962 668.576 54.0926 673.638 54.087Z" fill="#363636"/>
<path d="M573.177 2.30281L627.881 2.24195L627.946 60.7939L618.378 60.8046L618.317 5.58059L622.689 9.94373L578.177 9.99325L582.23 6.66074C582.651 11.0283 582.967 15.3266 583.18 19.5557C583.462 23.7154 583.605 27.4246 583.608 30.6832C583.621 41.5685 582.173 49.5088 579.267 54.5041C576.36 59.43 571.718 61.8965 565.339 61.9036C563.675 61.9054 562.046 61.6992 560.45 61.285C558.925 60.94 557.468 60.387 556.081 59.6259L556.072 52.0339C557.321 52.5178 558.535 52.9325 559.714 53.2778C560.962 53.5538 562.141 53.6911 563.25 53.6899C567.271 53.6854 570.181 51.7755 571.98 47.9602C573.847 44.1448 574.777 37.9384 574.767 29.3411C574.763 25.8051 574.62 21.7492 574.337 17.1735C574.124 12.5284 573.737 7.57152 573.177 2.30281Z" fill="#363636"/>
<path d="M519.726 62.2663C512.862 62.2739 506.794 60.998 501.522 58.4385C496.319 55.879 492.259 52.2782 489.342 47.6361C486.425 42.994 484.963 37.6569 484.956 31.6249C484.95 25.5236 486.4 20.1833 489.307 15.6041C492.213 11.0248 496.265 7.44967 501.463 4.87855C506.729 2.30736 512.794 1.01794 519.658 1.01031C526.592 1.00259 532.66 2.27851 537.863 4.83805C543.065 7.3976 547.125 10.9638 550.042 15.5365C553.029 20.1092 554.526 25.4462 554.532 31.5475C554.539 37.5795 553.054 42.9198 550.078 47.5685C547.171 52.2171 543.119 55.8269 537.922 58.398C532.725 60.9691 526.66 62.2586 519.726 62.2663ZM519.718 54.2583C524.848 54.2526 529.285 53.3463 533.027 51.5395C536.768 49.6633 539.643 47.0254 541.65 43.6259C543.726 40.2262 544.762 36.2037 544.756 31.5584C544.751 26.9824 543.707 22.9969 541.623 19.6019C539.609 16.2068 536.728 13.5753 532.982 11.7075C529.236 9.83966 524.798 8.9086 519.667 8.9143C514.606 8.91993 510.169 9.86087 506.358 11.7371C502.616 13.6133 499.742 16.2511 497.735 19.6507C495.728 23.0503 494.727 27.0381 494.732 31.6141C494.738 36.2594 495.747 40.2796 497.762 43.6747C499.776 47.0698 502.656 49.7013 506.403 51.5691C510.218 53.3675 514.656 54.2639 519.718 54.2583Z" fill="#363636"/>
<path d="M414.141 2.47974L423.605 2.46921L423.67 61.0212L414.206 61.0317L414.141 2.47974ZM464.477 2.42374L474.045 2.41309L474.11 60.9651L464.542 60.9757L464.477 2.42374ZM419.473 27.5378L468.976 27.4827L468.985 35.2827L419.481 35.3378L419.473 27.5378Z" fill="#363636"/>
<path d="M343.662 61.1102L372.432 27.2782L372.336 34.2463L345.261 2.55638L356.597 2.54376L378.569 28.1033L372.953 28.1096L394.973 2.50107L405.893 2.48892L378.576 34.3433L378.36 26.8556L407.622 61.039L396.494 61.0514L372.543 33.31L378.263 33.3037L354.478 61.0982L343.662 61.1102Z" fill="#363636"/>
<path d="M313.113 62.4961C306.387 62.5036 300.423 61.2276 295.22 58.668C290.087 56.0391 286.027 52.4382 283.04 47.8656C280.123 43.2235 278.661 37.8864 278.655 31.8544C278.648 25.7531 280.029 20.4129 282.797 15.8338C285.565 11.2547 289.409 7.67978 294.329 5.10897C299.249 2.53816 304.898 1.24921 311.277 1.24211C317.586 1.23509 323.099 2.61562 327.817 5.38371C332.535 8.1518 336.179 12.0651 338.75 17.1236C341.39 22.1126 342.714 27.9352 342.722 34.5911L285.938 34.6543L285.929 27.0623L338.657 27.0037L333.045 30.4419C332.832 26.0741 331.788 22.2966 329.912 19.1094C328.037 15.9221 325.504 13.4636 322.312 11.7338C319.121 10.0041 315.411 9.14152 311.181 9.14623C306.605 9.15132 302.62 10.0918 299.224 11.9675C295.829 13.774 293.163 16.3423 291.225 19.6724C289.357 23.0025 288.425 26.9209 288.43 31.4275C288.435 36.1422 289.515 40.2317 291.668 43.696C293.821 47.1602 296.84 49.8262 300.725 51.6939C304.609 53.5616 309.186 54.4925 314.456 54.4866C319.24 54.4813 323.919 53.6787 328.493 52.079C333.137 50.4792 337.294 48.2905 340.966 45.5131L340.974 53.0011C337.372 55.9171 333.076 58.2446 328.086 59.9835C323.096 61.653 318.105 62.4906 313.113 62.4961Z" fill="#363636"/>
<path d="M242.411 5.89474L251.979 5.8841L252.041 61.2121L242.473 61.2227L242.411 5.89474ZM217.031 2.69897L277.351 2.63187L277.36 10.4319L217.04 10.499L217.031 2.69897Z" fill="#363636"/>
<path d="M158.506 62.6681C151.781 62.6756 145.817 61.3996 140.614 58.84C135.48 56.2111 131.42 52.6102 128.434 48.0376C125.517 43.3955 124.055 38.0584 124.048 32.0264C124.041 25.9251 125.422 20.5849 128.19 16.0058C130.959 11.4267 134.803 7.85177 139.722 5.28097C144.642 2.71016 150.291 1.4212 156.67 1.41411C162.979 1.40709 168.493 2.78762 173.211 5.55571C177.928 8.32379 181.573 12.2371 184.144 17.2956C186.784 22.2846 188.108 28.1071 188.115 34.7631L131.331 34.8263L131.323 27.2343L184.051 27.1757L178.439 30.6139C178.226 26.2461 177.182 22.4686 175.306 19.2814C173.43 16.0941 170.897 13.6356 167.706 11.9058C164.515 10.1761 160.804 9.31352 156.575 9.31822C151.999 9.32331 148.013 10.2637 144.618 12.1395C141.223 13.946 138.556 16.5143 136.619 19.8444C134.75 23.1745 133.819 27.0929 133.824 31.5995C133.829 36.3142 134.908 40.4037 137.061 43.868C139.215 47.3322 142.234 49.9982 146.118 51.8659C150.003 53.7336 154.58 54.6645 159.849 54.6586C164.633 54.6533 169.312 53.8507 173.887 52.251C178.53 50.6512 182.688 48.4625 186.359 45.6851L186.368 53.1731C182.766 56.0891 178.47 58.4166 173.479 60.1555C168.489 61.825 163.498 62.6626 158.506 62.6681Z" fill="#363636"/>
<path d="M120.186 53.5587L120.212 76.5427L111.684 76.5522L111.667 61.3682L49.2667 61.4376L49.2836 76.6216L40.8596 76.631L40.8341 53.647L53.626 53.6328L56.4342 53.7336L102.298 53.6826L105.106 53.5755L120.186 53.5587ZM54.2976 2.87998L109.106 2.819L109.168 58.563L99.5996 58.5736L99.5413 6.15764L104.018 10.5207L59.4021 10.5703L63.4547 7.44579C63.8048 10.5654 64.0509 13.6505 64.193 16.701C64.3349 19.6822 64.4074 22.4901 64.4103 25.1247C64.4219 35.5247 63.183 43.7421 60.6938 49.7769C58.2737 55.7423 54.9144 58.7273 50.6157 58.7321L46.6599 55.3045C52.479 50.93 55.3792 40.2841 55.3604 23.3668C55.3567 20.1081 55.249 16.7456 55.0372 13.2792C54.8946 9.74332 54.648 6.27693 54.2976 2.87998Z" fill="#363636"/>
<path d="M44.7386 2.89063L44.7472 10.6906L5.95526 10.7338L10.4224 6.36081L10.4837 61.4808L0.915727 61.4914L0.850586 2.93945L44.7386 2.89063Z" fill="#363636"/>
<path d="M658.586 115.223L668.706 115.212L668.772 173.731L658.652 173.743L658.586 115.223ZM631.743 111.843L695.543 111.772L695.552 120.022L631.752 120.093L631.743 111.843Z" fill="#363636"/>
<path d="M593.99 175.245C586.877 175.253 580.569 173.903 575.066 171.196C569.636 168.415 565.379 164.606 562.293 159.77C559.281 154.933 557.771 149.288 557.764 142.835C557.757 136.382 559.254 130.733 562.255 125.89C565.33 121.046 569.579 117.265 575.003 114.546C580.5 111.826 586.805 110.463 593.918 110.455C601.178 110.447 607.523 111.796 612.953 114.503C618.456 117.211 622.713 120.983 625.725 125.819C628.811 130.656 630.357 136.301 630.364 142.754C630.371 149.134 628.838 154.783 625.763 159.699C622.762 164.616 618.513 168.434 613.016 171.153C607.592 173.873 601.25 175.237 593.99 175.245ZM533.599 173.882L533.53 111.952L543.65 111.941L543.719 173.871L533.599 173.882ZM538.959 146.706L538.949 138.456L563.699 138.428L563.709 146.678L538.959 146.706ZM593.981 166.775C599.408 166.769 604.026 165.773 607.838 163.789C611.722 161.805 614.726 159.015 616.848 155.419C618.971 151.823 620.03 147.606 620.024 142.766C620.019 137.926 618.951 133.71 616.82 130.119C614.69 126.528 611.68 123.745 607.791 121.769C603.975 119.793 599.354 118.809 593.928 118.815C588.721 118.82 584.139 119.816 580.181 121.8C576.296 123.784 573.293 126.574 571.17 130.17C569.048 133.766 567.989 137.984 567.994 142.824C568 147.664 569.068 151.879 571.198 155.47C573.329 159.061 576.339 161.844 580.228 163.82C584.19 165.796 588.774 166.78 593.981 166.775Z" fill="#363636"/>
<path d="M509.223 173.909L506.997 150.481L509.738 142.888L506.98 135.411L509.154 111.979L519.494 111.968L516.668 142.881L519.563 173.897L509.223 173.909ZM513.148 142.885C511.542 149.34 509.055 155.026 505.687 159.943C502.392 164.787 498.363 168.568 493.6 171.286C488.909 174.005 483.704 175.367 477.984 175.374C471.898 175.381 466.506 174.03 461.81 171.322C457.113 168.54 453.406 164.731 450.687 159.894C448.041 154.984 446.715 149.339 446.708 142.959C446.701 136.505 448.015 130.857 450.649 126.014C453.357 121.171 457.056 117.39 461.747 114.672C466.437 111.953 471.825 110.591 477.912 110.584C483.632 110.577 488.84 111.928 493.537 114.636C498.306 117.344 502.381 121.117 505.759 125.953C509.138 130.789 511.601 136.433 513.148 142.885ZM457.048 142.947C457.053 147.64 458.011 151.783 459.922 155.374C461.906 158.965 464.586 161.785 467.961 163.835C471.41 165.811 475.298 166.797 479.625 166.792C484.025 166.787 488.057 165.793 491.721 163.808C495.459 161.751 498.756 158.924 501.612 155.327C504.541 151.731 506.92 147.585 508.748 142.889C506.91 138.198 504.522 134.058 501.584 130.467C498.72 126.877 495.417 124.094 491.675 122.118C488.006 120.069 483.972 119.047 479.572 119.052C475.245 119.057 471.359 120.088 467.915 122.145C464.544 124.129 461.87 126.918 459.894 130.514C457.992 134.109 457.043 138.254 457.048 142.947Z" fill="#363636"/>
<path d="M399.746 153.681C391.386 153.69 385.04 151.46 380.708 146.992C376.377 142.45 374.206 135.779 374.196 126.979L374.179 112.129L384.299 112.118L384.316 126.638C384.329 138.958 390.093 145.111 401.606 145.099C406.299 145.093 410.662 144.099 414.693 142.114C418.797 140.056 422.644 136.972 426.233 132.861L427.011 140.89C424.083 144.927 420.236 148.085 415.472 150.363C410.708 152.569 405.466 153.674 399.746 153.681ZM424.848 174.003L424.779 112.073L434.899 112.062L434.968 173.992L424.848 174.003Z" fill="#363636"/>
<path d="M336.035 175.532C328.922 175.54 322.614 174.19 317.111 171.483C311.681 168.702 307.387 164.894 304.228 160.057C301.143 155.147 299.596 149.502 299.589 143.122C299.582 136.669 301.042 131.021 303.97 126.177C306.898 121.334 310.964 117.553 316.168 114.834C321.371 112.115 327.347 110.751 334.093 110.744C340.767 110.736 346.598 112.197 351.588 115.124C356.578 118.052 360.433 122.191 363.152 127.541C365.944 132.818 367.345 138.977 367.352 146.017L307.292 146.084L307.284 138.054L363.054 137.992L357.118 141.628C356.892 137.008 355.788 133.013 353.804 129.642C351.82 126.271 349.141 123.67 345.766 121.841C342.39 120.011 338.466 119.099 333.992 119.104C329.152 119.109 324.937 120.104 321.346 122.088C317.755 123.999 314.934 126.715 312.885 130.237C310.909 133.76 309.923 137.904 309.929 142.671C309.934 147.657 311.076 151.983 313.353 155.647C315.631 159.311 318.824 162.131 322.933 164.106C327.041 166.082 331.883 167.066 337.456 167.06C342.516 167.054 347.465 166.206 352.303 164.514C357.214 162.821 361.612 160.507 365.495 157.569L365.504 165.489C361.694 168.573 357.15 171.035 351.872 172.874C346.594 174.64 341.315 175.526 336.035 175.532Z" fill="#363636"/>
<path d="M219.746 112.301L229.866 112.29L229.893 135.72L229.345 137.7L229.356 147.71L229.909 150.9L229.956 192.37L219.836 192.381L219.746 112.301ZM225.171 143.205C226.777 136.75 229.227 131.1 232.522 126.257C235.89 121.413 239.919 117.632 244.609 114.913C249.373 112.195 254.615 110.832 260.335 110.826C266.422 110.819 271.813 112.17 276.509 114.878C281.206 117.586 284.877 121.359 287.522 126.196C290.241 131.033 291.604 136.678 291.611 143.131C291.618 149.511 290.268 155.159 287.56 160.076C284.925 164.918 281.263 168.736 276.572 171.528C271.882 174.246 266.494 175.609 260.407 175.616C254.687 175.622 249.442 174.271 244.672 171.563C239.976 168.855 235.939 165.083 232.56 160.247C229.254 155.337 226.791 149.656 225.171 143.205ZM281.271 143.143C281.266 138.449 280.271 134.307 278.287 130.716C276.376 127.125 273.697 124.341 270.248 122.365C266.872 120.315 263.021 119.293 258.694 119.298C254.294 119.303 250.225 120.334 246.488 122.391C242.823 124.375 239.563 127.166 236.707 130.762C233.851 134.359 231.472 138.505 229.571 143.2C231.483 147.891 233.871 152.032 236.735 155.622C239.599 159.212 242.865 162.032 246.534 164.081C250.276 166.057 254.347 167.043 258.747 167.038C263.074 167.033 266.923 166.039 270.294 164.055C273.738 161.998 276.412 159.171 278.315 155.576C280.291 151.98 281.276 147.836 281.271 143.143Z" fill="#363636"/>
<path d="M174.269 115.762L184.389 115.75L184.454 174.27L174.334 174.282L174.269 115.762ZM147.425 112.381L211.225 112.31L211.234 120.56L147.434 120.631L147.425 112.381Z" fill="#363636"/>
<path d="M146.402 150.773C145.601 155.687 143.589 160.016 140.366 163.759C137.217 167.503 133.187 170.441 128.276 172.573C123.365 174.705 117.94 175.774 112 175.781C105.106 175.789 99.0182 174.439 93.7352 171.731C88.4521 168.95 84.3045 165.142 81.2925 160.305C78.3537 155.395 76.8807 149.75 76.8736 143.37C76.8665 136.99 78.327 131.378 81.2549 126.535C84.2561 121.618 88.3952 117.8 93.6722 115.081C98.9491 112.362 105.034 110.999 111.928 110.991C117.868 110.984 123.295 112.042 128.211 114.163C133.127 116.211 137.163 119.103 140.321 122.839C143.552 126.576 145.573 130.937 146.385 135.923L135.935 135.934C134.83 130.802 132.075 126.772 127.672 123.843C123.342 120.842 118.097 119.344 111.937 119.351C106.95 119.356 102.588 120.351 98.8502 122.335C95.1858 124.32 92.3289 127.109 90.2795 130.705C88.2301 134.227 87.2081 138.445 87.2136 143.358C87.2191 148.272 88.2505 152.524 90.3078 156.115C92.3651 159.706 95.2282 162.489 98.8971 164.465C102.639 166.368 107.004 167.316 111.99 167.311C118.224 167.304 123.502 165.795 127.825 162.783C132.222 159.772 134.931 155.772 135.952 150.784L146.402 150.773Z" fill="#363636"/>
<path d="M4.05132 174.471L6.87681 143.448L3.98242 112.541L46.0024 112.494C52.0157 112.488 56.6739 113.876 59.977 116.659C63.3534 119.368 65.0443 123.216 65.0499 128.203C65.0549 132.75 63.3723 136.382 60.002 139.099C56.7049 141.742 52.1233 143.287 46.2572 143.734L47.2448 141.643C54.2849 141.708 59.6765 143.132 63.4196 145.915C67.1626 148.624 69.0369 152.509 69.0426 157.569C69.0484 162.849 67.1464 166.994 63.3364 170.005C59.5997 172.943 54.358 174.415 47.6113 174.423L4.05132 174.471ZM13.948 171.49L10.0928 166.764L45.9527 166.724C50.2794 166.72 53.4685 165.873 55.5199 164.184C57.6447 162.495 58.7053 160.074 58.7018 156.92C58.6982 153.694 57.4121 151.165 54.8434 149.334C52.348 147.504 48.4237 146.592 43.0703 146.598L12.4904 146.632L12.4823 139.372L42.4023 139.338C46.4356 139.334 49.4779 138.414 51.5292 136.578C53.6538 134.742 54.7145 132.321 54.7111 129.315C54.7079 126.455 53.7521 124.219 51.8437 122.608C50.0084 120.923 47.1475 120.083 43.2608 120.087L10.1509 120.124L13.8857 115.5L16.6668 143.437L13.948 171.49Z" fill="#363636"/>
<defs>
<linearGradient id="paint0_linear_79_134" x1="1330" y1="245" x2="242" y2="279" gradientUnits="userSpaceOnUse">
<stop offset="0.241506" stop-color="#83F5D9"/>
<stop offset="1" stop-color="#8C64FF" stop-opacity="0.39"/>
</linearGradient>
<linearGradient id="paint1_linear_79_134" x1="1330" y1="245" x2="242" y2="279" gradientUnits="userSpaceOnUse">
<stop offset="0.241506" stop-color="#83F5D9"/>
<stop offset="1" stop-color="#8C64FF" stop-opacity="0.39"/>
</linearGradient>
<linearGradient id="paint2_linear_79_134" x1="1330" y1="245" x2="242" y2="279" gradientUnits="userSpaceOnUse">
<stop offset="0.241506" stop-color="#83F5D9"/>
<stop offset="1" stop-color="#8C64FF" stop-opacity="0.39"/>
</linearGradient>
<linearGradient id="paint3_linear_79_134" x1="1330" y1="245" x2="242" y2="279" gradientUnits="userSpaceOnUse">
<stop offset="0.241506" stop-color="#83F5D9"/>
<stop offset="1" stop-color="#8C64FF" stop-opacity="0.39"/>
</linearGradient>
<linearGradient id="paint4_linear_79_134" x1="1330" y1="245.001" x2="242" y2="279" gradientUnits="userSpaceOnUse">
<stop offset="0.241506" stop-color="#83F5D9"/>
<stop offset="1" stop-color="#8C64FF" stop-opacity="0.39"/>
</linearGradient>
<linearGradient id="paint5_linear_79_134" x1="1330" y1="245" x2="242" y2="279" gradientUnits="userSpaceOnUse">
<stop offset="0.241506" stop-color="#83F5D9"/>
<stop offset="1" stop-color="#8C64FF" stop-opacity="0.39"/>
</linearGradient>
<linearGradient id="paint6_linear_79_134" x1="1330" y1="245" x2="242" y2="279" gradientUnits="userSpaceOnUse">
<stop offset="0.241506" stop-color="#83F5D9"/>
<stop offset="1" stop-color="#8C64FF" stop-opacity="0.39"/>
</linearGradient>
<linearGradient id="paint7_linear_79_134" x1="1330" y1="245" x2="242" y2="279" gradientUnits="userSpaceOnUse">
<stop offset="0.241506" stop-color="#83F5D9"/>
<stop offset="1" stop-color="#8C64FF" stop-opacity="0.39"/>
</linearGradient>
<linearGradient id="paint8_linear_79_134" x1="1330" y1="245" x2="242" y2="279" gradientUnits="userSpaceOnUse">
<stop offset="0.241506" stop-color="#83F5D9"/>
<stop offset="1" stop-color="#8C64FF" stop-opacity="0.39"/>
</linearGradient>
<linearGradient id="paint9_linear_79_134" x1="1330" y1="245" x2="242" y2="279" gradientUnits="userSpaceOnUse">
<stop offset="0.241506" stop-color="#83F5D9"/>
<stop offset="1" stop-color="#8C64FF" stop-opacity="0.39"/>
</linearGradient>
<linearGradient id="paint10_linear_79_134" x1="1330" y1="245" x2="242" y2="279" gradientUnits="userSpaceOnUse">
<stop offset="0.241506" stop-color="#83F5D9"/>
<stop offset="1" stop-color="#8C64FF" stop-opacity="0.39"/>
</linearGradient>
<linearGradient id="paint11_linear_79_134" x1="1330" y1="245" x2="242" y2="279" gradientUnits="userSpaceOnUse">
<stop offset="0.241506" stop-color="#83F5D9"/>
<stop offset="1" stop-color="#8C64FF" stop-opacity="0.39"/>
</linearGradient>
<linearGradient id="paint12_linear_79_134" x1="1330" y1="245" x2="242" y2="279" gradientUnits="userSpaceOnUse">
<stop offset="0.241506" stop-color="#83F5D9"/>
<stop offset="1" stop-color="#8C64FF" stop-opacity="0.39"/>
</linearGradient>
<linearGradient id="paint13_linear_79_134" x1="1330" y1="245" x2="242" y2="279" gradientUnits="userSpaceOnUse">
<stop offset="0.241506" stop-color="#83F5D9"/>
<stop offset="1" stop-color="#8C64FF" stop-opacity="0.39"/>
</linearGradient>
</defs>
</svg>
