<svg width="946" height="344" viewBox="0 0 946 344" fill="none" xmlns="http://www.w3.org/2000/svg">
<path d="M526.563 297.089L539.813 303.297L549 308.618L545.82 314.471L536.457 308.795L524.62 300.636L525.857 315.18V326H519.143V315.18L520.38 300.636L508.72 308.795L499.18 314.471L496 308.618L505.187 303.297L518.613 297.089L505.187 290.881L496 285.382L499.18 279.706L508.72 285.205L520.38 293.541L519.143 278.997V268H525.857V278.997L524.62 293.541L536.457 285.205L545.82 279.706L549 285.382L539.813 290.881L526.563 297.089Z" fill="#363636"/>
<path d="M0.00439453 86.1834L29.8813 51.0502L29.7814 58.2863L1.66475 25.3776L13.4367 25.3645L36.2543 51.9071L30.4223 51.9136L53.2887 25.3201L64.6287 25.3075L36.2615 58.3871L36.0368 50.6113L66.4244 86.1096L54.8684 86.1224L29.9963 57.3141L35.9363 57.3075L11.2364 86.171L0.00439453 86.1834Z" fill="#363636"/>
<path d="M101.866 87.4741C94.7379 87.4821 88.4365 86.1571 82.9615 83.4992C77.5585 80.8412 73.3424 77.1019 70.313 72.2812C67.2836 67.4606 65.7655 61.9183 65.7585 55.6543C65.7515 49.3183 67.2573 43.7726 70.276 39.0172C73.2947 34.2619 77.5026 30.5492 82.8996 27.8792C88.3686 25.2091 94.6672 23.8701 101.795 23.8622C108.995 23.8541 115.297 25.1791 120.7 27.8371C126.103 30.4951 130.319 34.1984 133.348 38.9471C136.449 43.6956 138.003 49.2379 138.01 55.5739C138.017 61.8379 136.476 67.3836 133.385 72.211C130.366 77.0384 126.158 80.7871 120.761 83.4571C115.364 86.1271 109.066 87.4661 101.866 87.4741ZM101.857 79.1581C107.185 79.1522 111.792 78.2111 115.678 76.3347C119.563 74.3864 122.548 71.6471 124.632 68.1168C126.788 64.5864 127.864 60.4092 127.858 55.5852C127.853 50.8332 126.769 46.6944 124.605 43.1688C122.513 39.6431 119.522 36.9104 115.632 34.9708C111.741 33.0311 107.132 32.0642 101.804 32.0702C96.5483 32.076 91.9414 33.0531 87.9835 35.0015C84.0977 36.9499 81.1128 39.6892 79.0287 43.2195C76.9446 46.7498 75.9052 50.891 75.9105 55.643C75.9159 60.467 76.9645 64.6418 79.0564 68.1675C81.1484 71.6932 84.1394 74.4258 88.0296 76.3655C91.9916 78.2331 96.6007 79.164 101.857 79.1581Z" fill="#363636"/>
<path d="M149.317 25.2133L159.253 25.2022L159.278 48.2062L158.74 50.1508L158.751 59.9788L159.295 63.1102L159.34 103.826L149.404 103.837L149.317 25.2133ZM154.642 55.5554C156.219 49.2176 158.625 43.6709 161.86 38.9153C165.167 34.1597 169.123 30.4473 173.728 27.7781C178.405 25.1089 183.551 23.7712 189.167 23.765C195.143 23.7583 200.437 25.0844 205.048 27.7433C209.659 30.4022 213.263 34.1062 215.86 38.8553C218.529 43.6043 219.867 49.1468 219.874 55.4828C219.881 61.7468 218.556 67.2923 215.897 72.1192C213.31 76.8741 209.714 80.6221 205.109 83.3633C200.504 86.0324 195.214 87.3703 189.238 87.3769C183.622 87.3832 178.472 86.0569 173.789 83.3981C169.178 80.7392 165.214 77.0356 161.897 72.2873C158.652 67.4669 156.233 61.8896 154.642 55.5554ZM209.722 55.4941C209.717 50.8861 208.741 46.8192 206.793 43.2934C204.917 39.7674 202.286 37.0344 198.9 35.0941C195.585 33.0818 191.804 32.078 187.556 32.0828C183.236 32.0876 179.241 33.1 175.572 35.1201C171.974 37.0681 168.773 39.8077 165.969 43.3388C163.165 46.8699 160.829 50.9405 158.962 55.5506C160.84 60.1565 163.184 64.2219 165.996 67.7468C168.808 71.2716 172.015 74.0401 175.617 76.0521C179.291 77.992 183.289 78.9595 187.609 78.9547C191.857 78.95 195.635 77.9738 198.945 76.0261C202.327 74.0063 204.952 71.2314 206.82 67.7013C208.76 64.1712 209.728 60.1021 209.722 55.4941Z" fill="#363636"/>
<path d="M263.815 87.294C256.687 87.3019 250.386 85.9769 244.911 83.319C239.508 80.661 235.292 76.9217 232.262 72.101C229.233 67.2804 227.715 61.7381 227.708 55.4741C227.701 49.1381 229.207 43.5924 232.225 38.8371C235.244 34.0817 239.452 30.369 244.849 27.699C250.318 25.0289 256.616 23.6899 263.744 23.682C270.944 23.674 277.246 24.999 282.649 27.657C288.052 30.3149 292.268 34.0183 295.297 38.7669C298.399 43.5154 299.953 49.0577 299.96 55.3937C299.967 61.6577 298.425 67.2034 295.334 72.0309C292.316 76.8582 288.108 80.6069 282.711 83.2769C277.314 85.9469 271.015 87.2859 263.815 87.294ZM263.806 78.978C269.134 78.972 273.741 78.0309 277.627 76.1546C281.513 74.2063 284.498 71.4669 286.582 67.9366C288.738 64.4062 289.813 60.229 289.808 55.405C289.802 50.653 288.718 46.5142 286.554 42.9886C284.462 39.4629 281.471 36.7303 277.581 34.7906C273.691 32.8509 269.082 31.8841 263.754 31.89C258.498 31.8958 253.891 32.873 249.933 34.8214C246.047 36.7697 243.062 39.509 240.978 43.0393C238.894 46.5696 237.854 50.7108 237.86 55.4628C237.865 60.2868 238.914 64.4616 241.006 67.9873C243.098 71.513 246.089 74.2457 249.979 76.1853C253.941 78.0529 258.55 78.9838 263.806 78.978Z" fill="#363636"/>
<path d="M311.334 85.8371L311.266 25.0331L321.202 25.0221L321.264 80.858L317.697 77.73L359.493 77.6835L357.552 80.8177L357.49 24.9817L367.426 24.9706L367.488 80.8066L365.001 77.6774L407.229 77.6304L403.776 80.7662L403.714 24.9303L413.65 24.9192L413.718 85.7232L311.334 85.8371Z" fill="#363636"/>
<path d="M428.695 85.7065L428.627 24.9025L438.455 24.8916L438.518 81.1596L434.737 80.6238L481.223 24.844L494.075 24.8297L494.143 85.6337L484.315 85.6446L484.252 28.8367L488.14 29.4803L441.331 85.6925L428.695 85.7065Z" fill="#363636"/>
<path d="M509.248 85.6169L509.18 24.8129L519.008 24.802L519.071 81.07L515.29 80.5342L561.776 24.7544L574.628 24.7401L574.696 85.5441L564.868 85.555L564.805 28.747L568.693 29.3907L521.884 85.6028L509.248 85.6169ZM541.249 18.0813C535.345 18.0878 530.555 16.5811 526.88 13.5612C523.276 10.4692 521.075 6.07968 520.277 0.392567L528.701 0.383195C529.353 3.91047 530.76 6.64491 532.922 8.5865C535.156 10.456 537.929 11.3889 541.241 11.3853C544.625 11.3815 547.396 10.4424 549.554 8.568C551.712 6.6216 553.113 3.88404 553.757 0.355319L562.181 0.345947C561.467 6.03474 559.276 10.4292 555.608 13.5293C551.939 16.5574 547.153 18.0747 541.249 18.0813Z" fill="#363636"/>
<path d="M634.891 28.0211L644.827 28.01L644.891 85.466L634.955 85.477L634.891 28.0211ZM608.535 24.7024L671.175 24.6327L671.184 32.7327L608.544 32.8024L608.535 24.7024Z" fill="#363636"/>
<path d="M708.312 86.7994C701.328 86.8072 695.134 85.4821 689.731 82.8241C684.4 80.094 680.184 76.3547 677.083 71.6062C674.053 66.7855 672.535 61.2432 672.528 54.9792C672.521 48.6432 673.955 43.0976 676.83 38.3424C679.705 33.5872 683.696 29.8748 688.805 27.2051C693.914 24.5354 699.781 23.1969 706.405 23.1895C712.957 23.1822 718.683 24.6158 723.582 27.4904C728.481 30.365 732.266 34.4287 734.935 39.6818C737.677 44.8627 739.052 50.9092 739.06 57.8212L680.092 57.8868L680.083 50.0028L734.839 49.9419L729.011 53.5124C728.79 48.9766 727.705 45.0538 725.758 41.744C723.81 38.4342 721.179 35.8811 717.865 34.0848C714.551 32.2885 710.698 31.3927 706.306 31.3976C701.554 31.4029 697.415 32.3795 693.889 34.3274C690.363 36.2034 687.594 38.8704 685.582 42.3287C683.642 45.7868 682.675 49.8559 682.68 54.5359C682.685 59.4319 683.806 63.6787 686.042 67.2762C688.278 70.8737 691.413 73.6422 695.447 75.5817C699.481 77.5212 704.234 78.488 709.706 78.4819C714.674 78.4763 719.534 77.6429 724.284 75.9817C729.106 74.3203 733.423 72.0475 737.236 69.1632L737.245 76.9392C733.504 79.9674 729.043 82.3844 723.861 84.1901C718.679 85.9239 713.496 86.7937 708.312 86.7994Z" fill="#363636"/>
<path d="M750.353 85.3487L750.286 24.5447L760.222 24.5336L760.279 76.3736L757.254 75.297L799.318 24.4901L810.874 24.4773L759.533 85.3384L750.353 85.3487ZM801.113 85.2922L780.992 54.9665L787.463 47.5073L812.993 85.279L801.113 85.2922Z" fill="#363636"/>
<path d="M881.859 62.0903C881.072 66.9152 879.097 71.1654 875.933 74.8409C872.841 78.5164 868.884 81.4008 864.063 83.4941C859.241 85.5875 853.914 86.6374 848.082 86.6439C841.314 86.6515 835.337 85.3261 830.15 82.6679C824.963 79.9376 820.891 76.1982 817.933 71.4495C815.048 66.6287 813.602 61.0863 813.595 54.8223C813.588 48.5583 815.022 43.0487 817.896 38.2935C820.843 33.4662 824.907 29.7177 830.088 27.0479C835.269 24.3781 841.243 23.0395 848.011 23.032C853.843 23.0255 859.173 24.0635 863.999 26.1462C868.825 28.1568 872.788 30.9964 875.888 34.665C879.06 38.3334 881.045 42.6152 881.843 47.5103L871.583 47.5218C870.497 42.483 867.793 38.526 863.469 35.6508C859.218 32.7035 854.069 31.2332 848.021 31.24C843.125 31.2454 838.842 32.2222 835.172 34.1703C831.574 36.1183 828.769 38.8574 826.757 42.3876C824.745 45.8459 823.741 49.987 823.747 54.811C823.752 59.635 824.765 63.8099 826.785 67.3356C828.805 70.8614 831.616 73.5942 835.218 75.5342C838.892 77.4021 843.177 78.3334 848.073 78.3279C854.193 78.3211 859.375 76.8394 863.62 73.8826C867.937 70.9258 870.596 66.9989 871.599 62.1017L881.859 62.0903Z" fill="#363636"/>
<path d="M909.219 27.7159L919.155 27.7048L919.219 85.1608L909.283 85.1718L909.219 27.7159ZM882.863 24.3972L945.503 24.3275L945.512 32.4275L882.872 32.4972L882.863 24.3972Z" fill="#363636"/>
<path d="M83.3968 197.991L83.4234 221.859L74.5674 221.869L74.5499 206.101L9.74989 206.173L9.76744 221.941L1.01944 221.95L0.992887 198.082L14.2769 198.068L17.193 198.172L64.821 198.119L67.7368 198.008L83.3968 197.991ZM14.9742 145.363L71.8902 145.3L71.9546 203.187L62.0186 203.199L61.9581 148.767L66.6071 153.297L20.2751 153.349L24.4835 150.104C24.8471 153.344 25.1027 156.548 25.2502 159.715C25.3977 162.811 25.4729 165.727 25.476 168.463C25.488 179.263 24.2015 187.797 21.6164 194.063C19.1033 200.258 15.6148 203.358 11.1508 203.363L7.04281 199.804C13.0858 195.261 16.0975 184.206 16.0779 166.638C16.0741 163.254 15.9623 159.762 15.7423 156.162C15.5942 152.49 15.3382 148.89 14.9742 145.363Z" fill="#363636"/>
<path d="M103.32 145.265L160.128 145.201L160.195 206.005L150.26 206.016L150.196 148.668L154.737 153.199L108.513 153.251L112.721 149.79C113.158 154.326 113.487 158.789 113.708 163.181C114.001 167.501 114.149 171.353 114.153 174.737C114.165 186.041 112.662 194.286 109.644 199.474C106.626 204.589 101.805 207.15 95.1807 207.158C93.4527 207.16 91.7605 206.945 90.104 206.515C88.5196 206.157 87.007 205.583 85.5661 204.792L85.5573 196.908C86.8539 197.411 88.1144 197.841 89.3388 198.2C90.6351 198.487 91.8592 198.629 93.0112 198.628C97.1872 198.623 100.209 196.64 102.077 192.678C104.016 188.716 104.981 182.271 104.971 173.343C104.967 169.671 104.818 165.459 104.525 160.707C104.304 155.883 103.902 150.736 103.32 145.265Z" fill="#363636"/>
<path d="M225.329 174.505L225.338 182.065L193.694 182.1L193.585 181.884C189.265 181.889 185.485 181.137 182.243 179.629C179.073 178.12 176.587 175.999 174.784 173.265C172.981 170.459 172.077 167.22 172.073 163.548C172.069 159.948 172.965 156.779 174.762 154.041C176.559 151.231 179.041 149.068 182.207 147.553C185.445 145.965 189.225 145.169 193.545 145.164L232.209 145.121L232.276 205.925L222.34 205.936L222.276 148.264L226.061 152.796L195.065 152.83C191.033 152.835 187.866 153.81 185.564 155.757C183.262 157.704 182.113 160.333 182.117 163.645C182.121 166.885 183.276 169.512 185.582 171.525C187.888 173.538 191.057 174.543 195.089 174.538L225.329 174.505ZM207.08 177.441L183.028 205.98L171.04 205.993L195.416 177.454L207.08 177.441Z" fill="#363636"/>
<path d="M321.643 145.022L321.652 153.122L281.368 153.166L286.007 148.625L286.071 205.865L276.135 205.876L276.067 145.072L321.643 145.022Z" fill="#363636"/>
<path d="M331.136 145.011L387.944 144.948L388.012 205.752L378.076 205.763L378.012 148.415L382.553 152.946L336.329 152.997L340.538 149.537C340.975 154.072 341.304 158.536 341.524 162.928C341.817 167.247 341.966 171.099 341.969 174.483C341.982 185.787 340.479 194.033 337.461 199.22C334.442 204.335 329.621 206.897 322.997 206.904C321.269 206.906 319.577 206.692 317.921 206.262C316.336 205.904 314.824 205.329 313.383 204.539L313.374 196.655C314.67 197.157 315.931 197.588 317.155 197.947C318.452 198.233 319.676 198.376 320.828 198.375C325.004 198.37 328.026 196.387 329.893 192.424C331.833 188.462 332.798 182.017 332.788 173.089C332.784 169.417 332.635 165.205 332.342 160.454C332.12 155.63 331.719 150.482 331.136 145.011Z" fill="#363636"/>
<path d="M460.849 205.671L458.663 182.669L461.355 175.214L458.647 167.873L460.781 144.867L470.933 144.856L468.159 175.207L471.001 205.66L460.849 205.671ZM464.703 175.211C463.126 181.548 460.684 187.131 457.377 191.959C454.143 196.714 450.187 200.427 445.51 203.096C440.905 205.765 435.794 207.103 430.178 207.109C424.202 207.116 418.909 205.789 414.298 203.131C409.687 200.4 406.047 196.66 403.377 191.911C400.78 187.09 399.478 181.547 399.471 175.283C399.464 168.947 400.754 163.402 403.34 158.647C405.999 153.892 409.631 150.18 414.236 147.511C418.841 144.842 424.132 143.504 430.108 143.497C435.724 143.491 440.837 144.817 445.448 147.476C450.131 150.135 454.131 153.838 457.448 158.587C460.766 163.335 463.184 168.876 464.703 175.211ZM409.623 175.272C409.628 179.88 410.569 183.947 412.444 187.473C414.392 190.998 417.023 193.768 420.338 195.78C423.724 197.72 427.541 198.688 431.789 198.683C436.109 198.678 440.068 197.702 443.666 195.754C447.335 193.734 450.572 190.958 453.376 187.427C456.253 183.896 458.588 179.825 460.383 175.215C458.578 170.609 456.233 166.544 453.349 163.019C450.537 159.494 447.294 156.762 443.62 154.822C440.018 152.81 436.057 151.806 431.737 151.811C427.489 151.816 423.674 152.828 420.292 154.848C416.982 156.796 414.357 159.535 412.417 163.065C410.549 166.595 409.618 170.664 409.623 175.272Z" fill="#363636"/>
<path d="M483.486 205.646L486.26 175.187L483.418 144.842L524.674 144.796C530.578 144.789 535.152 146.152 538.395 148.885C541.71 151.545 543.37 155.323 543.375 160.219C543.38 164.683 541.728 168.249 538.419 170.916C535.182 173.512 530.684 175.029 524.924 175.468L525.894 173.414C532.806 173.479 538.099 174.877 541.775 177.609C545.449 180.269 547.29 184.083 547.295 189.051C547.301 194.235 545.434 198.305 541.693 201.261C538.024 204.145 532.878 205.591 526.254 205.598L483.486 205.646ZM493.202 202.719L489.417 198.079L524.625 198.04C528.873 198.035 532.004 197.204 534.018 195.545C536.105 193.887 537.146 191.51 537.143 188.414C537.139 185.246 535.876 182.763 533.354 180.966C530.904 179.169 527.051 178.273 521.795 178.279L491.771 178.312L491.763 171.184L521.139 171.152C525.099 171.147 528.086 170.244 530.1 168.442C532.186 166.639 533.228 164.262 533.224 161.31C533.221 158.502 532.283 156.307 530.409 154.725C528.607 153.071 525.798 152.247 521.982 152.251L489.474 152.287L493.141 147.747L495.872 175.176L493.202 202.719Z" fill="#363636"/>
<path d="M558.622 144.758L568.45 144.747L568.518 205.551L558.69 205.562L558.622 144.758ZM610.894 144.7L620.83 144.689L620.898 205.493L610.962 205.504L610.894 144.7ZM564.159 170.78L615.567 170.723L615.576 178.823L564.168 178.88L564.159 170.78Z" fill="#363636"/>
<path d="M668.269 206.844C661.141 206.852 654.84 205.527 649.365 202.869C643.962 200.211 639.746 196.472 636.716 191.651C633.687 186.831 632.169 181.288 632.162 175.024C632.155 168.688 633.661 163.143 636.679 158.387C639.698 153.632 643.906 149.919 649.303 147.249C654.772 144.579 661.07 143.24 668.198 143.232C675.398 143.224 681.7 144.549 687.103 147.207C692.506 149.865 696.722 153.568 699.751 158.317C702.853 163.066 704.407 168.608 704.414 174.944C704.421 181.208 702.879 186.754 699.788 191.581C696.77 196.408 692.562 200.157 687.165 202.827C681.768 205.497 675.469 206.836 668.269 206.844ZM668.26 198.528C673.588 198.522 678.195 197.581 682.081 195.705C685.967 193.756 688.952 191.017 691.036 187.487C693.192 183.956 694.267 179.779 694.262 174.955C694.257 170.203 693.172 166.064 691.008 162.539C688.916 159.013 685.925 156.28 682.035 154.341C678.145 152.401 673.536 151.434 668.208 151.44C662.952 151.446 658.345 152.423 654.387 154.371C650.501 156.32 647.516 159.059 645.432 162.589C643.348 166.12 642.309 170.261 642.314 175.013C642.319 179.837 643.368 184.012 645.46 187.537C647.552 191.063 650.543 193.796 654.433 195.735C658.395 197.603 663.004 198.534 668.26 198.528Z" fill="#363636"/>
<path d="M761.296 144.533L761.305 152.633L721.021 152.677L725.66 148.136L725.724 205.376L715.788 205.387L715.72 144.583L761.296 144.533Z" fill="#363636"/>
<path d="M798.367 206.699C791.239 206.707 784.937 205.382 779.463 202.724C774.06 200.066 769.843 196.327 766.814 191.506C763.785 186.686 762.267 181.143 762.26 174.879C762.253 168.543 763.758 162.998 766.777 158.242C769.796 153.487 774.004 149.774 779.401 147.104C784.87 144.434 791.168 143.095 798.296 143.087C805.496 143.079 811.798 144.404 817.201 147.062C822.604 149.72 826.82 153.424 829.849 158.172C832.95 162.921 834.504 168.463 834.512 174.799C834.519 181.063 832.977 186.609 829.886 191.436C826.867 196.264 822.66 200.012 817.263 202.682C811.865 205.352 805.567 206.691 798.367 206.699ZM798.358 198.383C803.686 198.377 808.293 197.436 812.179 195.56C816.064 193.612 819.049 190.872 821.133 187.342C823.29 183.812 824.365 179.634 824.359 174.81C824.354 170.058 823.27 165.92 821.106 162.394C819.014 158.868 816.023 156.136 812.133 154.196C808.242 152.256 803.633 151.289 798.305 151.295C793.049 151.301 788.442 152.278 784.485 154.227C780.599 156.175 777.614 158.914 775.53 162.445C773.446 165.975 772.406 170.116 772.412 174.868C772.417 179.692 773.466 183.867 775.557 187.393C777.649 190.918 780.64 193.651 784.531 195.591C788.493 197.458 793.102 198.389 798.358 198.383Z" fill="#363636"/>
<path d="M37.8569 327.546C32.0249 327.552 26.7318 326.55 21.9776 324.539C17.2233 322.528 13.2603 319.761 10.0883 316.236C6.98834 312.64 4.93182 308.574 3.91877 304.039L14.1788 304.028C15.4799 308.634 18.2201 312.375 22.3993 315.251C26.6504 318.054 31.7999 319.452 37.8479 319.445C42.8159 319.44 47.1348 318.463 50.8047 316.515C54.5465 314.567 57.4235 311.828 59.4355 308.297C61.4475 304.695 62.4509 300.482 62.4455 295.658C62.4401 290.834 61.4275 286.659 59.4076 283.133C57.3875 279.536 54.5045 276.767 50.7583 274.827C47.0841 272.887 42.7631 271.92 37.7951 271.926C31.8191 271.932 26.7087 273.378 22.4639 276.263C18.2191 279.147 15.4512 282.858 14.1603 287.396L3.90027 287.407C4.90314 282.798 6.95065 278.764 10.0428 275.304C13.2069 271.773 17.1638 268.996 21.9135 266.975C26.6633 264.954 31.9542 263.94 37.7862 263.934C44.6262 263.926 50.6396 265.251 55.8266 267.909C61.0136 270.568 65.0497 274.307 67.9351 279.128C70.8924 283.877 72.3745 289.383 72.3815 295.647C72.3885 301.911 70.9186 307.457 67.972 312.284C65.0973 317.039 61.0694 320.788 55.8885 323.529C50.7075 326.199 44.6969 327.538 37.8569 327.546ZM67.0938 299.541L27.6738 299.585L27.6653 291.917L67.0853 291.873L67.0938 299.541Z" fill="#363636"/>
<path d="M83.8642 326.09L83.7965 265.286L93.7325 265.275L93.7902 317.115L90.765 316.039L132.829 265.232L144.385 265.219L93.0442 326.08L83.8642 326.09ZM134.624 326.034L114.502 295.708L120.974 288.249L146.504 326.021L134.624 326.034Z" fill="#363636"/>
<path d="M153.486 265.209L163.422 265.198L163.448 288.202L162.91 290.146L162.921 299.974L163.464 303.106L163.51 343.822L153.574 343.833L153.486 265.209ZM158.812 295.551C160.389 289.213 162.795 283.666 166.029 278.911C169.336 274.155 173.292 270.443 177.897 267.774C182.574 265.104 187.72 263.767 193.336 263.76C199.312 263.754 204.606 265.08 209.217 267.739C213.828 270.398 217.432 274.102 220.029 278.851C222.699 283.6 224.037 289.142 224.044 295.478C224.051 301.742 222.725 307.288 220.066 312.115C217.48 316.87 213.884 320.618 209.279 323.359C204.674 326.028 199.383 327.366 193.407 327.372C187.791 327.379 182.642 326.052 177.959 323.394C173.348 320.735 169.384 317.031 166.066 312.283C162.821 307.462 160.403 301.885 158.812 295.551ZM213.892 295.49C213.887 290.882 212.91 286.815 210.962 283.289C209.086 279.763 206.455 277.03 203.069 275.09C199.755 273.077 195.974 272.074 191.726 272.078C187.406 272.083 183.411 273.096 179.741 275.116C176.143 277.064 172.942 279.803 170.138 283.334C167.334 286.865 164.999 290.936 163.132 295.546C165.009 300.152 167.353 304.217 170.165 307.742C172.977 311.267 176.184 314.036 179.787 316.048C183.461 317.987 187.458 318.955 191.778 318.95C196.026 318.946 199.805 317.969 203.115 316.022C206.496 314.002 209.121 311.227 210.989 307.697C212.929 304.167 213.897 300.098 213.892 295.49Z" fill="#363636"/>
<path d="M293.363 325.857L291.177 302.856L293.869 295.401L291.161 288.06L293.295 265.053L303.447 265.042L300.673 295.393L303.515 325.846L293.363 325.857ZM297.217 295.397C295.64 301.735 293.198 307.317 289.892 312.145C286.657 316.901 282.701 320.613 278.024 323.282C273.419 325.951 268.309 327.289 262.693 327.295C256.717 327.302 251.423 325.976 246.812 323.317C242.201 320.586 238.561 316.846 235.892 312.097C233.294 307.276 231.992 301.733 231.985 295.469C231.978 289.133 233.268 283.588 235.855 278.833C238.513 274.078 242.145 270.366 246.75 267.697C251.355 265.028 256.646 263.69 262.622 263.683C268.238 263.677 273.351 265.003 277.962 267.662C282.645 270.321 286.645 274.025 289.963 278.773C293.28 283.521 295.698 289.063 297.217 295.397ZM242.137 295.458C242.142 300.066 243.083 304.133 244.959 307.659C246.907 311.185 249.538 313.954 252.852 315.966C256.238 317.907 260.055 318.874 264.303 318.87C268.623 318.865 272.582 317.888 276.18 315.94C279.85 313.92 283.087 311.145 285.891 307.614C288.767 304.082 291.102 300.012 292.897 295.402C291.092 290.796 288.747 286.73 285.864 283.206C283.052 279.681 279.809 276.948 276.134 275.008C272.532 272.996 268.571 271.993 264.251 271.998C260.003 272.002 256.188 273.015 252.806 275.034C249.497 276.982 246.872 279.721 244.932 283.251C243.063 286.781 242.132 290.85 242.137 295.458Z" fill="#363636"/>
<path d="M317.228 265.027L327.056 265.016L327.124 325.82L317.296 325.831L317.228 265.027ZM369.5 264.968L379.436 264.957L379.504 325.761L369.568 325.772L369.5 264.968ZM322.765 291.048L374.173 290.991L374.182 299.091L322.774 299.148L322.765 291.048Z" fill="#363636"/>
<path d="M452.254 325.68L450.068 302.679L452.76 295.224L450.052 287.883L452.186 264.876L462.338 264.865L459.564 295.216L462.406 325.669L452.254 325.68ZM456.108 295.22C454.531 301.558 452.089 307.141 448.782 311.968C445.548 316.724 441.592 320.436 436.915 323.106C432.31 325.775 427.199 327.112 421.583 327.119C415.607 327.125 410.314 325.799 405.703 323.14C401.092 320.409 397.452 316.669 394.782 311.92C392.185 307.099 390.883 301.557 390.876 295.293C390.869 288.957 392.159 283.411 394.745 278.656C397.404 273.901 401.036 270.189 405.641 267.52C410.246 264.851 415.536 263.513 421.512 263.507C427.128 263.5 432.242 264.827 436.853 267.486C441.536 270.144 445.536 273.848 448.853 278.596C452.171 283.345 454.589 288.886 456.108 295.22ZM401.028 295.281C401.033 299.889 401.973 303.956 403.849 307.482C405.797 311.008 408.428 313.777 411.743 315.79C415.129 317.73 418.946 318.698 423.194 318.693C427.514 318.688 431.473 317.712 435.071 315.764C438.74 313.743 441.977 310.968 444.781 307.437C447.657 303.906 449.993 299.835 451.788 295.225C449.983 290.619 447.638 286.554 444.754 283.029C441.942 279.504 438.699 276.772 435.025 274.832C431.423 272.82 427.462 271.816 423.142 271.821C418.894 271.826 415.079 272.838 411.697 274.858C408.387 276.805 405.762 279.544 403.822 283.074C401.954 286.604 401.023 290.673 401.028 295.281Z" fill="#363636"/>
</svg>
