<svg width="1349" height="212" viewBox="0 0 1349 212" fill="none" xmlns="http://www.w3.org/2000/svg">
<path d="M646.563 55.0887L659.813 61.2966L669 66.6177L665.82 72.4709L656.457 66.7951L644.62 58.6361L645.857 73.1804V84H639.143V73.1804L640.38 58.6361L628.72 66.7951L619.18 72.4709L616 66.6177L625.187 61.2966L638.613 55.0887L625.187 48.8807L616 43.3823L619.18 37.7064L628.72 43.2049L640.38 51.5413L639.143 36.9969V26H645.857V36.9969L644.62 51.5413L656.457 43.2049L665.82 37.7064L669 43.3823L659.813 48.8807L646.563 55.0887Z" fill="#363636"/>
<path d="M1311.8 27.802L1321.82 27.7908L1321.89 85.7788L1311.86 85.79L1311.8 27.802ZM1285.2 24.4526L1348.42 24.3823L1348.43 32.5572L1285.21 32.6276L1285.2 24.4526Z" fill="#363636"/>
<path d="M1284.18 62.4948C1283.39 67.3643 1281.4 71.6539 1278.2 75.3634C1275.08 79.0729 1271.09 81.984 1266.22 84.0967C1261.36 86.2095 1255.98 87.2691 1250.09 87.2757C1243.26 87.2833 1237.23 85.9457 1231.99 83.2628C1226.76 80.5073 1222.65 76.7332 1219.67 71.9405C1216.75 67.0751 1215.29 61.4814 1215.29 55.1594C1215.28 48.8374 1216.73 43.2768 1219.63 38.4776C1222.6 33.6056 1226.7 29.8223 1231.93 27.1279C1237.16 24.4334 1243.19 23.0823 1250.02 23.0747C1255.91 23.0682 1261.29 24.1159 1266.16 26.2178C1271.03 28.247 1275.03 31.1129 1278.16 34.8154C1281.36 38.5179 1283.36 42.8393 1284.17 47.7798L1273.81 47.7913C1272.72 42.7058 1269.99 38.7122 1265.62 35.8104C1261.33 32.8358 1256.14 31.3519 1250.03 31.3587C1245.09 31.3642 1240.77 32.35 1237.06 34.3162C1233.43 36.2822 1230.6 39.0467 1228.57 42.6096C1226.54 46.0999 1225.53 50.2793 1225.53 55.148C1225.54 60.0167 1226.56 64.2302 1228.6 67.7886C1230.64 71.347 1233.47 74.1052 1237.11 76.0631C1240.82 77.9483 1245.14 78.8882 1250.08 78.8827C1256.26 78.8758 1261.49 77.3803 1265.78 74.3962C1270.13 71.4121 1272.82 67.4487 1273.83 62.5063L1284.18 62.4948Z" fill="#363636"/>
<path d="M1151.46 85.9684L1151.39 24.6015L1161.42 24.5903L1161.48 76.9103L1158.42 75.8237L1200.88 24.5464L1212.54 24.5334L1160.72 85.9581L1151.46 85.9684ZM1202.69 85.9114L1182.38 55.305L1188.91 47.7767L1214.68 85.8981L1202.69 85.9114Z" fill="#363636"/>
<path d="M1109.03 87.4326C1101.98 87.4405 1095.73 86.1031 1090.28 83.4205C1084.9 80.6651 1080.64 76.8912 1077.51 72.0987C1074.45 67.2334 1072.92 61.6398 1072.91 55.3178C1072.91 48.9231 1074.35 43.3262 1077.26 38.5269C1080.16 33.7277 1084.19 29.9809 1089.34 27.2865C1094.5 24.5921 1100.42 23.2412 1107.1 23.2337C1113.72 23.2264 1119.5 24.6733 1124.44 27.5744C1129.38 30.4756 1133.2 34.577 1135.9 39.8787C1138.67 45.1076 1140.05 51.2101 1140.06 58.1861L1080.55 58.2523L1080.54 50.2953L1135.8 50.2338L1129.92 53.8374C1129.7 49.2596 1128.6 45.3005 1126.64 41.96C1124.67 38.6195 1122.02 36.0428 1118.67 34.2299C1115.33 32.4169 1111.44 31.5129 1107 31.5178C1102.21 31.5232 1098.03 32.5088 1094.47 34.4748C1090.91 36.3681 1088.12 39.0599 1086.09 42.5501C1084.13 46.0403 1083.15 50.1471 1083.16 54.8704C1083.17 59.8117 1084.3 64.0978 1086.55 67.7286C1088.81 71.3594 1091.97 74.1536 1096.05 76.1111C1100.12 78.0685 1104.91 79.0442 1110.44 79.0381C1115.45 79.0325 1120.35 78.1914 1125.15 76.5147C1130.02 74.8379 1134.37 72.5441 1138.22 69.6331L1138.23 77.4811C1134.45 80.5373 1129.95 82.9767 1124.72 84.7992C1119.49 86.549 1114.26 87.4268 1109.03 87.4326Z" fill="#363636"/>
<path d="M1034.93 28.11L1044.96 28.0989L1045.02 86.0869L1034.99 86.098L1034.93 28.11ZM1008.33 24.7606L1071.55 24.6903L1071.56 32.8653L1008.34 32.9356L1008.33 24.7606Z" fill="#363636"/>
<path d="M515.227 86.6763L515.158 25.3093L525.077 25.2982L525.141 82.0872L521.325 81.5465L568.241 25.2502L581.212 25.2358L581.281 86.6028L571.362 86.6138L571.298 29.2798L575.223 29.9295L527.98 86.6621L515.227 86.6763ZM547.524 18.5153C541.565 18.5219 536.731 17.0013 533.022 13.9534C529.385 10.8328 527.164 6.40258 526.358 0.662805L534.86 0.653346C535.518 4.21328 536.938 6.97304 539.12 8.93261C541.375 10.8194 544.174 11.761 547.516 11.7573C550.932 11.7535 553.728 10.8057 555.906 8.91393C558.084 6.94951 559.498 4.18661 560.148 0.625212L568.65 0.615753C567.93 6.35722 565.718 10.7924 562.016 13.9211C558.313 16.9773 553.483 18.5086 547.524 18.5153Z" fill="#363636"/>
<path d="M433.928 86.7667L433.86 25.3997L443.779 25.3887L443.842 82.1777L440.026 81.6369L486.943 25.3407L499.914 25.3262L499.982 86.6932L490.063 86.7042L489.999 29.3703L493.924 30.0199L446.681 86.7525L433.928 86.7667Z" fill="#363636"/>
<path d="M315.48 86.8985L315.412 25.5315L325.44 25.5203L325.502 81.8733L321.902 78.7163L364.085 78.6694L362.126 81.8326L362.064 25.4796L372.092 25.4684L372.154 81.8214L369.644 78.6632L412.263 78.6158L408.778 81.7807L408.716 25.4277L418.744 25.4165L418.812 86.7835L315.48 86.8985Z" fill="#363636"/>
<path d="M267.522 88.3688C260.328 88.3768 253.968 87.0396 248.442 84.3571C242.989 81.6745 238.734 77.9005 235.677 73.0353C232.619 68.17 231.087 62.5764 231.08 56.2544C231.073 49.8597 232.593 44.2627 235.639 39.4633C238.686 34.6639 242.933 30.9168 248.38 28.2221C253.899 25.5273 260.256 24.1759 267.45 24.1679C274.717 24.1598 281.077 25.497 286.53 28.1797C291.983 30.8623 296.238 34.5999 299.295 39.3925C302.425 44.185 303.994 49.7786 304.001 56.1732C304.008 62.4952 302.452 68.0923 299.333 72.9644C296.286 77.8365 292.039 81.6199 286.592 84.3146C281.145 87.0093 274.788 88.3608 267.522 88.3688ZM267.512 79.9758C272.89 79.9699 277.539 79.02 281.461 77.1263C285.383 75.16 288.396 72.3953 290.499 68.8323C292.675 65.2692 293.76 61.0533 293.755 56.1846C293.749 51.3886 292.655 47.2115 290.471 43.6533C288.36 40.095 285.341 37.337 281.415 35.3793C277.488 33.4217 272.837 32.4459 267.459 32.4519C262.155 32.4578 257.505 33.4439 253.511 35.4104C249.589 37.3768 246.576 40.1414 244.473 43.7045C242.37 47.2675 241.321 51.447 241.326 56.243C241.331 61.1116 242.39 65.3251 244.501 68.8834C246.612 72.4418 249.631 75.1997 253.557 77.1574C257.556 79.0423 262.208 79.9817 267.512 79.9758Z" fill="#363636"/>
<path d="M151.963 25.7134L161.991 25.7022L162.017 48.9192L161.474 50.8818L161.485 60.8008L162.034 63.9612L162.079 105.054L152.051 105.065L151.963 25.7134ZM157.338 56.3364C158.93 49.94 161.358 44.3419 164.622 39.5423C167.96 34.7426 171.952 30.9958 176.6 28.302C181.32 25.608 186.514 24.2579 192.182 24.2516C198.214 24.2449 203.556 25.5833 208.21 28.2668C212.863 30.9503 216.501 34.6886 219.122 39.4817C221.816 44.2747 223.167 49.8685 223.174 56.2632C223.181 62.5852 221.843 68.182 219.16 73.0536C216.549 77.8525 212.92 81.6353 208.272 84.4018C203.625 87.0956 198.285 88.4459 192.254 88.4526C186.586 88.4589 181.389 87.1203 176.662 84.4369C172.009 81.7534 168.008 78.0155 164.66 73.2233C161.384 68.3582 158.944 62.7293 157.338 56.3364ZM212.928 56.2746C212.923 51.6239 211.937 47.5193 209.971 43.9608C208.078 40.4023 205.423 37.6439 202.005 35.6857C198.66 33.6547 194.844 32.6417 190.557 32.6464C186.197 32.6513 182.165 33.6731 178.461 35.7119C174.83 37.6779 171.599 40.4429 168.769 44.0067C165.939 47.5705 163.582 51.6788 161.698 56.3316C163.593 60.9801 165.959 65.0831 168.797 68.6407C171.635 72.1982 174.871 74.9922 178.507 77.0229C182.215 78.9807 186.249 79.9573 190.609 79.9524C194.897 79.9476 198.711 78.9624 202.051 76.9967C205.464 74.9582 208.113 72.1576 209.999 68.5948C211.957 65.032 212.933 60.9252 212.928 56.2746Z" fill="#363636"/>
<path d="M104.073 88.5507C96.8788 88.5587 90.519 87.2214 84.9933 84.5389C79.5404 81.8563 75.2852 78.0823 72.2277 73.2171C69.1703 68.3518 67.6381 62.7582 67.6311 56.4362C67.6239 50.0415 69.1437 44.4445 72.1904 39.6451C75.237 34.8457 79.4839 31.0986 84.9309 28.4039C90.4506 25.7091 96.8074 24.3577 104.001 24.3497C111.268 24.3416 117.628 25.6789 123.081 28.3615C128.534 31.0441 132.789 34.7817 135.846 39.5743C138.976 44.3668 140.545 49.9604 140.552 56.3551C140.559 62.6771 139.003 68.2741 135.884 73.1463C132.837 78.0183 128.59 81.8017 123.143 84.4964C117.696 87.1912 111.339 88.5426 104.073 88.5507ZM104.063 80.1577C109.441 80.1517 114.09 79.2018 118.012 77.3082C121.934 75.3418 124.947 72.5771 127.05 69.0141C129.226 65.451 130.311 61.2351 130.306 56.3665C130.301 51.5705 129.206 47.3933 127.022 43.8351C124.911 40.2768 121.892 37.5188 117.966 35.5612C114.04 33.6035 109.388 32.6277 104.011 32.6337C98.7059 32.6396 94.0564 33.6258 90.0619 35.5922C86.1401 37.5586 83.1275 40.3233 81.0241 43.8863C78.9207 47.4493 77.8717 51.6288 77.8771 56.4248C77.8825 61.2935 78.9408 65.5069 81.0521 69.0653C83.1634 72.6236 86.1821 75.3816 90.1083 77.3392C94.1071 79.2241 98.7588 80.1636 104.063 80.1577Z" fill="#363636"/>
<path d="M1.26813 87.248L31.4217 51.7895L31.3208 59.0926L2.94385 25.8791L14.8248 25.8659L37.8537 52.6543L31.9677 52.6609L55.0458 25.8212L66.4908 25.8084L37.8609 59.1943L37.6342 51.3466L68.3031 87.1735L56.6401 87.1864L31.5377 58.1113L37.5327 58.1047L12.6041 87.2354L1.26813 87.248Z" fill="#363636"/>
<path d="M1330.51 193.02L1328.3 169.805L1331.02 162.281L1328.28 154.872L1330.44 131.653L1340.68 131.642L1337.88 162.274L1340.75 193.009L1330.51 193.02ZM1334.4 162.278C1332.81 168.674 1330.34 174.309 1327 179.181C1323.74 183.981 1319.75 187.727 1315.03 190.421C1310.38 193.115 1305.22 194.465 1299.55 194.471C1293.52 194.478 1288.18 193.14 1283.53 190.456C1278.87 187.7 1275.2 183.926 1272.5 179.133C1269.88 174.267 1268.57 168.673 1268.56 162.351C1268.55 155.956 1269.86 150.359 1272.47 145.561C1275.15 140.762 1278.81 137.015 1283.46 134.321C1288.11 131.627 1293.45 130.277 1299.48 130.271C1305.15 130.264 1310.31 131.603 1314.96 134.286C1319.69 136.97 1323.73 140.708 1327.07 145.5C1330.42 150.292 1332.86 155.885 1334.4 162.278ZM1278.81 162.34C1278.81 166.99 1279.76 171.095 1281.65 174.653C1283.62 178.212 1286.28 181.007 1289.62 183.038C1293.04 184.996 1296.89 185.972 1301.18 185.968C1305.54 185.963 1309.53 184.977 1313.16 183.011C1316.87 180.973 1320.14 178.171 1322.97 174.607C1325.87 171.044 1328.23 166.935 1330.04 162.283C1328.21 157.634 1325.85 153.531 1322.94 149.973C1320.1 146.416 1316.83 143.658 1313.12 141.7C1309.48 139.67 1305.49 138.657 1301.13 138.662C1296.84 138.666 1292.99 139.688 1289.57 141.727C1286.23 143.692 1283.58 146.457 1281.63 150.019C1279.74 153.582 1278.8 157.689 1278.81 162.34Z" fill="#363636"/>
<path d="M1194.23 131.805L1204.15 131.794L1204.22 193.161L1194.3 193.172L1194.23 131.805ZM1246.99 131.746L1257.02 131.735L1257.08 193.102L1247.06 193.113L1246.99 131.746ZM1199.82 158.067L1251.7 158.01L1251.71 166.185L1199.83 166.242L1199.82 158.067Z" fill="#363636"/>
<path d="M1170.15 193.198L1167.94 169.984L1170.66 162.46L1167.92 155.051L1170.08 131.831L1180.32 131.82L1177.52 162.452L1180.39 193.187L1170.15 193.198ZM1174.03 162.456C1172.44 168.853 1169.98 174.487 1166.64 179.359C1163.38 184.159 1159.38 187.906 1154.66 190.6C1150.02 193.294 1144.86 194.644 1139.19 194.65C1133.16 194.657 1127.82 193.318 1123.16 190.635C1118.51 187.879 1114.84 184.104 1112.14 179.311C1109.52 174.445 1108.21 168.851 1108.2 162.529C1108.19 156.135 1109.49 150.538 1112.1 145.739C1114.79 140.94 1118.45 137.194 1123.1 134.5C1127.75 131.806 1133.09 130.456 1139.12 130.449C1144.79 130.443 1149.95 131.781 1154.6 134.465C1159.33 137.148 1163.37 140.886 1166.71 145.678C1170.06 150.471 1172.5 156.063 1174.03 162.456ZM1118.44 162.518C1118.45 167.169 1119.4 171.273 1121.29 174.832C1123.26 178.39 1125.91 181.185 1129.26 183.216C1132.68 185.174 1136.53 186.151 1140.82 186.146C1145.18 186.141 1149.17 185.156 1152.8 183.19C1156.51 181.151 1159.77 178.35 1162.6 174.786C1165.51 171.222 1167.86 167.114 1169.67 162.461C1167.85 157.812 1165.49 153.709 1162.58 150.152C1159.74 146.594 1156.47 143.837 1152.76 141.879C1149.12 139.848 1145.12 138.835 1140.76 138.84C1136.48 138.845 1132.63 139.866 1129.21 141.905C1125.87 143.871 1123.22 146.635 1121.27 150.198C1119.38 153.761 1118.44 157.867 1118.44 162.518Z" fill="#363636"/>
<path d="M1028.97 131.988L1039 131.977L1039.03 155.194L1038.48 157.157L1038.49 167.076L1039.04 170.236L1039.09 211.329L1029.06 211.34L1028.97 131.988ZM1034.35 162.612C1035.94 156.215 1038.37 150.617 1041.63 145.817C1044.97 141.018 1048.96 137.271 1053.61 134.577C1058.33 131.883 1063.52 130.533 1069.19 130.527C1075.22 130.52 1080.57 131.858 1085.22 134.542C1089.87 137.225 1093.51 140.964 1096.13 145.757C1098.83 150.55 1100.18 156.144 1100.18 162.538C1100.19 168.86 1098.85 174.457 1096.17 179.329C1093.56 184.128 1089.93 187.91 1085.28 190.677C1080.63 193.371 1075.29 194.721 1069.26 194.728C1063.6 194.734 1058.4 193.395 1053.67 190.712C1049.02 188.029 1045.02 184.291 1041.67 179.498C1038.39 174.633 1035.95 169.004 1034.35 162.612ZM1089.94 162.55C1089.93 157.899 1088.95 153.794 1086.98 150.236C1085.09 146.677 1082.43 143.919 1079.02 141.961C1075.67 139.93 1071.85 138.917 1067.57 138.922C1063.21 138.926 1059.17 139.948 1055.47 141.987C1051.84 143.953 1048.61 146.718 1045.78 150.282C1042.95 153.846 1040.59 157.954 1038.71 162.607C1040.6 167.255 1042.97 171.358 1045.81 174.916C1048.64 178.473 1051.88 181.267 1055.52 183.298C1059.23 185.256 1063.26 186.232 1067.62 186.228C1071.91 186.223 1075.72 185.237 1079.06 183.272C1082.47 181.233 1085.12 178.433 1087.01 174.87C1088.97 171.307 1089.94 167.2 1089.94 162.55Z" fill="#363636"/>
<path d="M958.706 193.434L958.638 132.067L968.666 132.056L968.724 184.376L965.671 183.289L1008.12 132.012L1019.79 131.999L967.971 193.423L958.706 193.434ZM1009.94 193.377L989.628 162.77L996.16 155.242L1021.93 193.363L1009.94 193.377Z" fill="#363636"/>
<path d="M912.273 194.902C906.387 194.909 901.045 193.898 896.247 191.868C891.449 189.839 887.449 187.046 884.247 183.489C881.119 179.859 879.043 175.755 878.021 171.178L888.376 171.167C889.689 175.816 892.455 179.592 896.672 182.494C900.963 185.323 906.16 186.734 912.264 186.727C917.278 186.722 921.637 185.736 925.341 183.77C929.117 181.804 932.021 179.039 934.052 175.476C936.082 171.841 937.095 167.588 937.089 162.72C937.084 157.851 936.062 153.638 934.023 150.079C931.985 146.448 929.075 143.654 925.294 141.696C921.586 139.738 917.225 138.762 912.211 138.767C906.179 138.774 901.022 140.233 896.738 143.145C892.454 146.056 889.66 149.801 888.357 154.381L878.002 154.392C879.014 149.741 881.081 145.669 884.202 142.178C887.395 138.613 891.388 135.811 896.182 133.771C900.976 131.731 906.316 130.708 912.202 130.701C919.105 130.694 925.174 132.031 930.409 134.714C935.644 137.397 939.718 141.171 942.63 146.037C945.615 150.829 947.11 156.387 947.117 162.709C947.124 169.031 945.641 174.628 942.667 179.5C939.766 184.299 935.701 188.082 930.472 190.849C925.243 193.544 919.177 194.895 912.273 194.902ZM941.781 166.639L901.996 166.683L901.987 158.944L941.772 158.9L941.781 166.639Z" fill="#363636"/>
<path d="M805.631 195.021C798.437 195.029 792.077 193.692 786.552 191.009C781.099 188.327 776.844 184.553 773.786 179.687C770.729 174.822 769.197 169.229 769.19 162.907C769.182 156.512 770.702 150.915 773.749 146.115C776.796 141.316 781.042 137.569 786.489 134.874C792.009 132.179 798.366 130.828 805.56 130.82C812.826 130.812 819.186 132.149 824.639 134.832C830.092 137.514 834.347 141.252 837.405 146.045C840.535 150.837 842.103 156.431 842.11 162.825C842.118 169.147 840.561 174.744 837.442 179.617C834.396 184.489 830.149 188.272 824.702 190.967C819.255 193.661 812.898 195.013 805.631 195.021ZM805.622 186.628C810.999 186.622 815.649 185.672 819.571 183.778C823.493 181.812 826.505 179.047 828.609 175.484C830.785 171.921 831.87 167.705 831.864 162.837C831.859 158.041 830.764 153.864 828.581 150.305C826.469 146.747 823.451 143.989 819.524 142.031C815.598 140.074 810.946 139.098 805.569 139.104C800.264 139.11 795.615 140.096 791.62 142.063C787.698 144.029 784.686 146.794 782.583 150.357C780.479 153.92 779.43 158.099 779.435 162.895C779.441 167.764 780.499 171.977 782.611 175.536C784.722 179.094 787.741 181.852 791.667 183.81C795.666 185.694 800.317 186.634 805.622 186.628Z" fill="#363636"/>
<path d="M768.217 132.279L768.226 140.454L727.569 140.499L732.251 135.916L732.315 193.686L722.287 193.697L722.219 132.33L768.217 132.279Z" fill="#363636"/>
<path d="M674.329 195.167C667.135 195.175 660.775 193.838 655.249 191.155C649.796 188.473 645.541 184.699 642.484 179.833C639.426 174.968 637.894 169.375 637.887 163.053C637.88 156.658 639.4 151.061 642.446 146.261C645.493 141.462 649.74 137.715 655.187 135.02C660.707 132.325 667.063 130.974 674.257 130.966C681.524 130.958 687.884 132.295 693.337 134.978C698.79 137.66 703.045 141.398 706.102 146.191C709.232 150.983 710.801 156.577 710.808 162.971C710.815 169.293 709.259 174.89 706.14 179.763C703.093 184.635 698.846 188.418 693.399 191.113C687.952 193.808 681.596 195.159 674.329 195.167ZM674.32 186.774C679.697 186.768 684.347 185.818 688.268 183.925C692.19 181.958 695.203 179.193 697.306 175.63C699.482 172.067 700.567 167.851 700.562 162.983C700.557 158.187 699.462 154.01 697.278 150.451C695.167 146.893 692.148 144.135 688.222 142.178C684.296 140.22 679.644 139.244 674.267 139.25C668.962 139.256 664.312 140.242 660.318 142.209C656.396 144.175 653.384 146.94 651.28 150.503C649.177 154.066 648.128 158.245 648.133 163.041C648.139 167.91 649.197 172.123 651.308 175.682C653.419 179.24 656.438 181.998 660.364 183.956C664.363 185.84 669.015 186.78 674.32 186.774Z" fill="#363636"/>
<path d="M563.667 132.506L573.586 132.495L573.654 193.862L563.735 193.873L563.667 132.506ZM616.423 132.447L626.451 132.436L626.519 193.803L616.491 193.814L616.423 132.447ZM569.255 158.769L621.139 158.711L621.148 166.886L569.264 166.944L569.255 158.769Z" fill="#363636"/>
<path d="M487.834 193.958L490.634 163.216L487.766 132.591L529.404 132.544C535.363 132.538 539.979 133.913 543.252 136.671C546.597 139.356 548.273 143.169 548.278 148.11C548.283 152.616 546.616 156.214 543.276 158.907C540.009 161.526 535.469 163.058 529.656 163.5L530.635 161.428C537.611 161.493 542.954 162.904 546.663 165.661C550.372 168.346 552.229 172.195 552.235 177.209C552.241 182.441 550.356 186.549 546.58 189.532C542.878 192.443 537.684 193.902 530.998 193.91L487.834 193.958ZM497.641 191.004L493.821 186.321L529.355 186.281C533.642 186.277 536.802 185.437 538.835 183.764C540.941 182.09 541.992 179.691 541.988 176.566C541.984 173.369 540.71 170.863 538.165 169.05C535.692 167.236 531.803 166.332 526.499 166.337L496.197 166.371L496.189 159.177L525.837 159.144C529.833 159.14 532.848 158.228 534.881 156.409C536.986 154.59 538.037 152.191 538.034 149.212C538.03 146.378 537.083 144.162 535.192 142.566C533.374 140.896 530.539 140.064 526.687 140.068L493.878 140.105L497.579 135.523L500.335 163.206L497.641 191.004Z" fill="#363636"/>
<path d="M464.988 193.983L462.782 170.768L465.499 163.244L462.765 155.835L464.92 132.616L475.166 132.605L472.366 163.237L475.234 193.972L464.988 193.983ZM468.878 163.241C467.286 169.637 464.822 175.271 461.484 180.144C458.22 184.943 454.227 188.69 449.507 191.384C444.859 194.078 439.701 195.428 434.033 195.434C428.002 195.441 422.66 194.103 418.006 191.419C413.352 188.663 409.678 184.888 406.984 180.095C404.363 175.23 403.049 169.636 403.042 163.314C403.035 156.919 404.336 151.322 406.947 146.523C409.63 141.725 413.296 137.978 417.943 135.284C422.591 132.59 427.931 131.24 433.962 131.233C439.63 131.227 444.791 132.566 449.444 135.249C454.171 137.933 458.208 141.67 461.556 146.463C464.904 151.255 467.345 156.848 468.878 163.241ZM413.288 163.302C413.293 167.953 414.242 172.058 416.135 175.616C418.101 179.175 420.757 181.969 424.102 184C427.519 185.959 431.372 186.935 435.659 186.931C440.019 186.926 444.015 185.94 447.646 183.974C451.349 181.935 454.616 179.134 457.446 175.57C460.349 172.006 462.706 167.898 464.518 163.245C462.696 158.597 460.33 154.494 457.419 150.936C454.581 147.379 451.308 144.621 447.6 142.663C443.964 140.633 439.966 139.62 435.606 139.625C431.319 139.629 427.469 140.651 424.056 142.689C420.715 144.655 418.066 147.419 416.108 150.982C414.223 154.545 413.282 158.652 413.288 163.302Z" fill="#363636"/>
<path d="M334.074 132.762L391.408 132.698L391.477 194.065L381.449 194.076L381.384 136.197L385.967 140.77L339.315 140.822L343.563 137.329C344.004 141.907 344.336 146.411 344.559 150.844C344.854 155.204 345.004 159.091 345.008 162.506C345.02 173.915 343.504 182.237 340.457 187.473C337.411 192.635 332.545 195.22 325.86 195.228C324.116 195.23 322.408 195.014 320.736 194.579C319.137 194.218 317.611 193.638 316.156 192.841L316.147 184.884C317.456 185.391 318.728 185.825 319.964 186.187C321.272 186.477 322.508 186.62 323.67 186.619C327.885 186.614 330.935 184.613 332.82 180.614C334.777 176.615 335.751 170.11 335.741 161.1C335.737 157.394 335.587 153.143 335.291 148.347C335.067 143.479 334.662 138.284 334.074 132.762Z" fill="#363636"/>
<path d="M324.494 132.772L324.503 140.947L283.846 140.992L288.528 136.409L288.592 194.179L278.564 194.19L278.496 132.823L324.494 132.772Z" fill="#363636"/>
<path d="M227.288 162.528L227.296 170.158L195.359 170.194L195.25 169.976C190.89 169.981 187.074 169.222 183.802 167.7C180.603 166.177 178.094 164.036 176.274 161.277C174.454 158.445 173.542 155.176 173.538 151.47C173.534 147.837 174.439 144.638 176.253 141.875C178.066 139.039 180.571 136.856 183.766 135.327C187.034 133.724 190.849 132.921 195.209 132.916L234.231 132.873L234.299 194.24L224.271 194.251L224.206 136.045L228.026 140.619L196.743 140.653C192.674 140.658 189.478 141.642 187.154 143.607C184.831 145.572 183.672 148.225 183.675 151.568C183.679 154.838 184.845 157.489 187.172 159.521C189.5 161.553 192.698 162.567 196.768 162.562L227.288 162.528ZM208.87 165.492L184.595 194.295L172.496 194.308L197.098 165.505L208.87 165.492Z" fill="#363636"/>
<path d="M104.148 133.017L161.482 132.954L161.551 194.321L151.523 194.332L151.458 136.453L156.041 141.026L109.389 141.078L113.637 137.585C114.078 142.162 114.41 146.667 114.633 151.1C114.928 155.459 115.078 159.347 115.082 162.762C115.094 174.171 113.578 182.493 110.531 187.728C107.485 192.891 102.619 195.476 95.934 195.484C94.19 195.485 92.4821 195.269 90.8103 194.835C89.2112 194.474 87.6845 193.894 86.2303 193.096L86.2215 185.139C87.53 185.647 88.8022 186.081 90.0379 186.443C91.3462 186.732 92.5817 186.876 93.7444 186.875C97.9591 186.87 101.009 184.869 102.894 180.87C104.851 176.871 105.825 170.366 105.815 161.356C105.811 157.65 105.661 153.399 105.365 148.603C105.141 143.735 104.736 138.539 104.148 133.017Z" fill="#363636"/>
<path d="M84.041 186.232L84.0678 210.321L75.1298 210.331L75.1121 194.417L9.71211 194.489L9.72982 210.403L0.900823 210.413L0.874023 186.324L14.281 186.309L17.2241 186.415L65.2931 186.362L68.236 186.249L84.041 186.232ZM14.9848 133.117L72.4278 133.053L72.4928 191.477L62.4648 191.488L62.4037 136.552L67.0958 141.125L20.3348 141.177L24.5822 137.902C24.9491 141.171 25.2071 144.405 25.356 147.602C25.5048 150.727 25.5807 153.669 25.5838 156.431C25.5959 167.331 24.2975 175.943 21.6885 182.268C19.1521 188.52 15.6313 191.649 11.126 191.654L6.97996 188.061C13.0789 183.477 16.1185 172.319 16.0987 154.588C16.0949 151.173 15.982 147.649 15.76 144.016C15.6105 140.31 15.3521 136.677 14.9848 133.117Z" fill="#363636"/>
</svg>
