<svg width="24" height="24" viewBox="0 0 24 24" fill="none" xmlns="http://www.w3.org/2000/svg">
<path fill-rule="evenodd" clip-rule="evenodd" d="M8.9956 8.68761C9.58982 8.68761 10.0715 8.20591 10.0715 7.61169C10.0715 7.01747 9.58982 6.53577 8.9956 6.53577C8.40138 6.53577 7.91968 7.01747 7.91968 7.61169C7.91968 8.20591 8.40138 8.68761 8.9956 8.68761ZM8.9956 9.68761C10.1421 9.68761 11.0715 8.75819 11.0715 7.61169C11.0715 6.46519 10.1421 5.53577 8.9956 5.53577C7.8491 5.53577 6.91968 6.46519 6.91968 7.61169C6.91968 8.75819 7.8491 9.68761 8.9956 9.68761Z" fill="#363636"/>
<path fill-rule="evenodd" clip-rule="evenodd" d="M8.9956 18.3753C9.58982 18.3753 10.0715 17.8935 10.0715 17.2993C10.0715 16.7051 9.58982 16.2234 8.9956 16.2234C8.40138 16.2234 7.91968 16.7051 7.91968 17.2993C7.91968 17.8935 8.40138 18.3753 8.9956 18.3753ZM8.9956 19.3753C10.1421 19.3753 11.0715 18.4458 11.0715 17.2993C11.0715 16.1528 10.1421 15.2234 8.9956 15.2234C7.8491 15.2234 6.91968 16.1528 6.91968 17.2993C6.91968 18.4458 7.8491 19.3753 8.9956 19.3753Z" fill="#363636"/>
<path fill-rule="evenodd" clip-rule="evenodd" d="M15.2236 12.8395C16.2 12.8395 16.9915 12.048 16.9915 11.0716C16.9915 10.0952 16.2 9.30369 15.2236 9.30369C14.2472 9.30369 13.4557 10.0952 13.4557 11.0716C13.4557 12.048 14.2472 12.8395 15.2236 12.8395ZM15.2236 13.8395C16.7522 13.8395 17.9915 12.6003 17.9915 11.0716C17.9915 9.54292 16.7522 8.30369 15.2236 8.30369C13.6949 8.30369 12.4557 9.54292 12.4557 11.0716C12.4557 12.6003 13.6949 13.8395 15.2236 13.8395Z" fill="#363636"/>
<path fill-rule="evenodd" clip-rule="evenodd" d="M12 23C18.0751 23 23 18.0751 23 12C23 5.92487 18.0751 1 12 1C5.92487 1 1 5.92487 1 12C1 18.0751 5.92487 23 12 23ZM12 24C18.6274 24 24 18.6274 24 12C24 5.37258 18.6274 0 12 0C5.37258 0 0 5.37258 0 12C0 18.6274 5.37258 24 12 24Z" fill="#363636"/>
</svg>
