<svg width="76" height="76" viewBox="0 0 76 76" fill="none" xmlns="http://www.w3.org/2000/svg">
<path d="M20.5882 10.3907C17.4711 10.7766 14.4726 12.3946 11.8453 15.111C8.00075 19.0743 5.47731 24.7891 4.34918 32.0625C4.02262 34.2 3.97809 41.3102 4.27497 43.418C5.35856 50.8844 7.89684 56.7774 11.8156 60.8594C14.9031 64.0805 18.2132 65.6243 22.0429 65.6391C24.2547 65.6539 25.9172 65.2828 27.8617 64.3477C34.0218 61.3493 38.4156 53.9719 39.9593 44.0118C40.4195 40.9985 40.4195 35.0016 39.9593 31.9883C38.8461 24.7891 36.382 19.193 32.5672 15.1407C29.2718 11.6524 24.789 9.87113 20.5882 10.3907ZM24.5664 15.4524C25.9765 15.8828 27.2828 16.7438 28.7375 18.1836C30.7859 20.2024 32.3445 22.7703 33.5914 26.125C34.3929 28.2922 35.432 32.7899 35.0906 32.6266C33.3836 31.825 32.1961 31.5578 30.9937 31.7063C27.7281 32.1219 25.3828 34.7493 25.3828 38C25.3828 41.2508 27.7281 43.8782 30.9937 44.2938C32.1961 44.4422 33.3836 44.175 35.0906 43.3735C35.432 43.2102 34.3929 47.7078 33.5914 49.875C32.3445 53.2297 30.7859 55.7977 28.7375 57.8164C26.6 59.9391 24.5664 60.9039 22.2656 60.9188C20.8257 60.9188 19.7867 60.6664 18.4062 59.9539C15.7343 58.5735 13.6117 56.1243 11.7859 52.3391C9.76715 48.1383 8.75778 43.3735 8.75778 38C8.75778 32.6118 9.76715 27.8618 11.8156 23.6164C13.9976 19.0594 17.189 15.9422 20.3359 15.3039C20.7812 15.2149 21.2859 15.111 21.4492 15.0813C21.9687 14.9625 23.6461 15.1555 24.5664 15.4524Z" fill="white"/>
<path d="M52.4726 10.4054C50.2015 10.7023 48.0195 11.5336 46.0304 12.8398C44.8726 13.6117 42.5422 15.8234 42.3789 16.3133C42.3195 16.5062 42.5718 17.1594 43.0914 18.2133C43.5367 19.089 44.0117 20.1429 44.1601 20.5289C44.3086 20.9148 44.4718 21.2711 44.5461 21.3008C44.6054 21.3453 44.8726 21.0039 45.1398 20.5437C45.8078 19.3711 47.3812 17.7383 48.6429 16.9219C49.9492 16.0609 51.2406 15.5265 52.8289 15.2148C53.9273 14.9922 54.1351 14.9773 55.189 15.2C57.4156 15.6453 59.7758 17.1594 61.3937 19.1633C63.5312 21.8203 65.0601 24.9375 66.0398 28.6484C66.4554 30.2367 66.9601 32.6562 66.8711 32.6562C66.8562 32.6562 66.4703 32.4929 66.0398 32.3C63.6054 31.2015 60.9929 31.6023 59.0336 33.3984C56.3172 35.8773 56.3468 40.1969 59.0781 42.6461C61.0226 44.3976 63.6351 44.7984 66.0398 43.7C66.4703 43.507 66.8562 43.3437 66.8711 43.3437C66.9601 43.3437 66.4554 45.7633 66.0398 47.3515C64.0953 54.6992 59.9539 59.8351 55.189 60.8C54.1203 61.0226 53.9273 61.0078 52.814 60.7851C49.6375 60.1468 46.6093 58.039 45.125 55.4414C44.8578 54.9812 44.5906 54.6547 44.5312 54.7289C44.457 54.7883 44.2343 55.2781 44.0117 55.8125C43.789 56.3469 43.314 57.3711 42.9429 58.0836C42.5273 58.9297 42.3195 59.4937 42.3789 59.6867C42.5422 60.1765 44.8726 62.3883 46.0304 63.1601C47.2476 63.9617 49.1625 64.8375 50.5429 65.2086C55.4414 66.5297 60.1914 65.0156 64.1843 60.8593C68.1031 56.7773 70.6414 50.8844 71.725 43.4179C71.9773 41.6219 71.9773 34.3781 71.725 32.582C70.6414 25.1156 68.1031 19.2226 64.1843 15.1406C60.7554 11.5781 56.5547 9.87107 52.4726 10.4054Z" fill="white"/>
</svg>
