<svg width="774" height="95" viewBox="0 0 774 95" fill="none" xmlns="http://www.w3.org/2000/svg">
<path d="M25.9271 94.1467C20.1671 94.1531 15.9096 92.8138 13.1547 90.1289C10.4637 87.5079 9.11518 83.4134 9.10898 77.8454L9.08837 59.3174C9.08609 57.2694 8.54042 55.766 7.45135 54.8072C6.42621 53.7844 4.79364 53.2742 2.55364 53.2767L0.441646 53.279L0.429898 42.719L2.5419 42.7167C4.7819 42.7142 6.41332 42.2004 7.43618 41.1752C8.52304 40.15 9.06533 38.6134 9.06306 36.5654L9.0417 17.3654C9.0355 11.7974 10.3749 7.69994 13.06 5.07295C15.809 2.38189 20.0635 1.03316 25.8235 1.02675L30.8155 1.0212L30.8278 12.0612L26.9878 12.0655C23.0198 12.0699 21.0381 14.1521 21.0428 18.3121L21.063 36.5521C21.0673 40.3281 20.2063 43.113 18.4803 44.907C16.8183 46.6368 14.2272 47.5037 10.7072 47.5076L10.7083 48.4676C14.2283 48.4637 16.8213 49.3568 18.4873 51.1469C20.2172 52.873 21.0842 55.5921 21.0884 59.3041L21.1079 76.872C21.1125 81.032 23.0988 83.1098 27.0668 83.1054L30.9068 83.1011L30.9191 94.1411L25.9271 94.1467Z" fill="white"/>
<path d="M65.4581 75.8627L65.3993 23.0627L122.711 22.999L122.77 75.7989L109.33 75.8139L109.284 34.0539L78.8516 34.0878L78.8981 75.8478L65.4581 75.8627Z" fill="white"/>
<path d="M166.601 76.7102C159.561 76.718 153.48 75.5408 148.357 73.1785C143.298 70.7521 139.423 67.4604 136.73 63.3034C134.102 59.1463 132.784 54.5078 132.779 49.3878C132.773 44.2678 134.08 39.6263 136.699 35.4634C139.383 31.3004 143.251 28.0321 148.304 25.6585C153.422 23.2208 159.5 21.998 166.54 21.9902C173.58 21.9824 179.63 23.1917 184.688 25.618C189.811 27.9803 193.686 31.24 196.315 35.3971C199.008 39.5541 200.357 44.1926 200.363 49.3126C200.368 54.4326 199.029 59.0741 196.346 63.2371C193.727 67.4 189.858 70.7003 184.741 73.138C179.688 75.5116 173.641 76.7024 166.601 76.7102ZM166.589 66.1502C170.813 66.1455 174.397 65.4375 177.339 64.0262C180.345 62.6149 182.615 60.6284 184.148 58.0666C185.681 55.5049 186.446 52.5921 186.443 49.3281C186.439 46.0641 185.668 43.153 184.129 40.5947C182.59 38.0364 180.316 36.0549 177.306 34.6502C174.361 33.2455 170.776 32.5455 166.552 32.5502C162.328 32.5549 158.713 33.2629 155.706 34.6743C152.764 36.0855 150.526 38.072 148.993 40.6337C147.46 43.1955 146.695 46.1083 146.699 49.3723C146.702 52.6363 147.474 55.5474 149.012 58.1057C150.551 60.664 152.793 62.6455 155.739 64.0503C158.749 65.4549 162.365 66.1549 166.589 66.1502Z" fill="white"/>
<path d="M210.465 93.9414L210.385 22.9014L223.825 22.8865L223.833 29.7985L224.409 29.7978C226.135 27.9399 228.821 26.1769 232.467 24.5089C236.177 22.7767 240.496 21.9079 245.424 21.9025C251.12 21.8961 256.146 23.0745 260.5 25.4377C264.919 27.8008 268.347 31.061 270.783 35.2182C273.22 39.3115 274.441 43.9822 274.447 49.2302C274.453 54.4782 273.242 59.1835 270.815 63.3462C268.387 67.4449 264.967 70.6807 260.553 73.0537C256.204 75.4265 251.181 76.6161 245.485 76.6224C240.813 76.6276 236.588 75.8323 232.811 74.2365C229.033 72.5767 226.247 70.7558 224.453 68.7738L223.877 68.7745L223.905 93.9264L210.465 93.9414ZM241.634 66.0667C245.474 66.0624 248.801 65.3547 251.615 63.9436C254.494 62.4684 256.699 60.4819 258.233 57.9842C259.766 55.4225 260.53 52.5097 260.527 49.2457C260.523 45.9817 259.752 43.1025 258.213 40.6082C256.674 38.0499 254.464 36.0684 251.583 34.6636C248.765 33.1947 245.436 32.4624 241.596 32.4667C238.78 32.4699 236.157 32.8568 233.725 33.6275C231.294 34.3342 229.247 35.2325 227.584 36.3223C225.922 37.4122 224.675 38.5335 223.844 39.6865L223.866 58.8865C224.699 60.0375 225.948 61.1561 227.613 62.2423C229.278 63.3284 231.328 64.2542 233.76 65.0195C236.193 65.7208 238.818 66.0698 241.634 66.0667Z" fill="white"/>
<path d="M300.655 75.601L300.608 33.8411L277.376 33.8669L277.364 22.8269L337.268 22.7603L337.28 33.8003L314.048 33.8261L314.095 75.5861L300.655 75.601Z" fill="white"/>
<path d="M388.017 75.5039L388.005 64.9439L395.685 64.9353C400.933 64.9295 404.996 63.485 407.873 60.6018C410.813 57.7185 412.281 53.7168 412.275 48.5968C412.27 43.4768 410.793 39.4785 407.846 36.6018C404.963 33.725 400.897 32.2895 395.649 32.2953L387.969 32.3039L387.957 21.7439L396.597 21.7343C402.741 21.7274 408.023 22.8416 412.441 25.0766C416.924 27.3117 420.319 30.4439 422.628 34.4733C425 38.5027 426.189 43.2054 426.195 48.5814C426.201 53.9574 425.022 58.6627 422.659 62.6973C420.359 66.7319 416.971 69.8716 412.493 72.1166C408.08 74.3615 402.801 75.4874 396.657 75.4942L388.017 75.5039ZM369.777 75.5241C363.633 75.531 358.32 74.4169 353.837 72.1819C349.419 69.9468 346.023 66.8146 343.651 62.7852C341.342 58.7558 340.185 54.0531 340.179 48.6771C340.173 43.3011 341.32 38.5958 343.62 34.5612C345.983 30.5266 349.372 27.3868 353.785 25.1419C358.263 22.8969 363.573 21.771 369.717 21.7642L378.357 21.7546L378.369 32.3146L370.689 32.3231C365.441 32.3289 361.347 33.7735 358.406 36.6568C355.529 39.54 354.094 43.5416 354.099 48.6616C354.105 53.7816 355.549 57.78 358.433 60.6568C361.38 63.5335 365.477 64.9689 370.725 64.9631L378.405 64.9545L378.417 75.5145L369.777 75.5241ZM376.517 93.7567L376.485 64.9567L376.449 32.3167L376.42 6.3967L389.86 6.38175L389.889 32.3017L389.925 64.9417L389.957 93.7417L376.517 93.7567Z" fill="white"/>
<path d="M468.573 76.3742C461.533 76.3821 455.452 75.2048 450.329 72.8425C445.271 70.4161 441.395 67.1245 438.702 62.9674C436.074 58.8104 434.757 54.1718 434.751 49.0518C434.745 43.9318 436.052 39.2904 438.671 35.1275C441.355 30.9645 445.223 27.6962 450.277 25.3226C455.394 22.8849 461.473 21.6621 468.513 21.6543C475.553 21.6464 481.602 22.8557 486.661 25.2821C491.783 27.6444 495.659 30.9041 498.287 35.0611C500.98 39.2182 502.329 43.8567 502.335 48.9766C502.341 54.0966 501.002 58.7381 498.318 62.9011C495.699 67.064 491.831 70.3643 486.713 72.802C481.66 75.1757 475.613 76.3664 468.573 76.3742ZM468.562 65.8142C472.786 65.8095 476.369 65.1016 479.311 63.6903C482.318 62.2789 484.588 60.2924 486.121 57.7307C487.654 55.169 488.419 52.2561 488.415 48.9921C488.411 45.7281 487.64 42.817 486.101 40.2587C484.562 37.7004 482.288 35.7189 479.279 34.3143C476.333 32.9096 472.748 32.2096 468.524 32.2143C464.3 32.219 460.685 32.927 457.679 34.3383C454.736 35.7496 452.498 37.7361 450.965 40.2978C449.432 42.8595 448.667 45.7724 448.671 49.0364C448.675 52.3003 449.446 55.2115 450.985 57.7698C452.524 60.3281 454.766 62.3096 457.711 63.7143C460.721 65.119 464.338 65.8189 468.562 65.8142Z" fill="white"/>
<path d="M506.176 74.7004C508.157 72.2662 510.008 67.9441 511.729 61.7342C513.514 55.4602 514.53 48.0671 514.777 39.5548L515.238 22.5623L563.718 22.5083L563.777 75.3083L550.337 75.3233L550.29 33.5633L528.594 33.5874L528.218 40.4998C527.715 49.2044 526.668 56.6296 525.075 62.7754C523.545 68.9211 521.918 73.1149 520.193 75.3568L506.177 75.3724L506.176 74.7004Z" fill="white"/>
<path d="M575.3 75.2955L575.242 22.4955L588.682 22.4806L588.728 63.8565L589.208 63.856L615.369 22.4509L632.553 22.4318L632.612 75.2317L619.172 75.2467L619.126 33.8707L618.646 33.8712L592.484 75.2764L575.3 75.2955Z" fill="white"/>
<path d="M676.443 76.143C669.403 76.1508 663.322 74.9736 658.199 72.6113C653.141 70.1849 649.265 66.8932 646.572 62.7362C643.944 58.5791 642.627 53.9406 642.621 48.8206C642.615 43.7006 643.922 39.0591 646.541 34.8962C649.225 30.7332 653.093 27.4649 658.146 25.0913C663.264 22.6536 669.342 21.4308 676.382 21.423C683.422 21.4152 689.472 22.6244 694.53 25.0508C699.653 27.4131 703.529 30.6728 706.157 34.8299C708.85 38.9869 710.199 43.6254 710.205 48.7454C710.211 53.8654 708.872 58.5069 706.188 62.6699C703.569 66.8328 699.701 70.1331 694.583 72.5708C689.53 74.9444 683.483 76.1351 676.443 76.143ZM676.432 65.583C680.656 65.5783 684.239 64.8703 687.181 63.459C690.188 62.0477 692.457 60.0611 693.991 57.4994C695.524 54.9377 696.288 52.0249 696.285 48.7609C696.281 45.4969 695.51 42.5857 693.971 40.0274C692.432 37.4692 690.158 35.4877 687.149 34.083C684.203 32.6783 680.618 31.9783 676.394 31.983C672.17 31.9877 668.555 32.6957 665.549 34.1071C662.606 35.5183 660.368 37.5048 658.835 40.0665C657.302 42.6282 656.537 45.5411 656.541 48.8051C656.544 52.0691 657.316 54.9802 658.855 57.5385C660.393 60.0968 662.636 62.0783 665.581 63.483C668.591 64.8877 672.208 65.5877 676.432 65.583Z" fill="white"/>
<path d="M743.328 93.3486L743.316 82.3086L747.156 82.3043C751.124 82.2999 753.105 80.2177 753.101 76.0577L753.081 58.4897C753.077 54.7777 753.906 52.0568 755.568 50.3269C757.294 48.533 759.917 47.6341 763.437 47.6302L763.436 46.6702C759.916 46.6741 757.291 45.813 755.561 44.0869C753.895 42.2968 753.06 39.5137 753.056 35.7377L753.036 17.4977C753.031 13.3377 751.045 11.2599 747.077 11.2643L743.237 11.2686L743.224 0.228616L748.216 0.223062C753.976 0.216654 758.202 1.55595 760.893 4.24096C763.648 6.8619 765.028 10.9564 765.034 16.5244L765.056 35.7244C765.058 37.7724 765.572 39.3078 766.597 40.3306C767.686 41.3534 769.351 41.8636 771.591 41.8611L773.703 41.8587L773.714 52.4187L771.602 52.4211C769.362 52.4236 767.699 52.9374 766.612 53.9626C765.589 54.9238 765.079 56.4283 765.081 58.4763L765.102 77.0043C765.108 82.5723 763.737 86.6699 760.987 89.2969C758.302 91.9879 754.08 93.3366 748.32 93.343L743.328 93.3486Z" fill="white"/>
</svg>
