<svg width="111" height="18" viewBox="0 0 111 18" fill="none" xmlns="http://www.w3.org/2000/svg">
<path d="M0.169922 17.4201V4.10006H2.68992V5.39606H2.79792C3.12192 5.04806 3.62592 4.71806 4.30992 4.40606C5.00592 4.08206 5.81592 3.92006 6.73992 3.92006C7.80792 3.92006 8.74992 4.14207 9.56592 4.58607C10.3939 5.03006 11.0359 5.64206 11.4919 6.42206C11.9479 7.19006 12.1759 8.06606 12.1759 9.05007C12.1759 10.0341 11.9479 10.9161 11.4919 11.6961C11.0359 12.4641 10.3939 13.0701 9.56592 13.5141C8.74992 13.9581 7.80792 14.1801 6.73992 14.1801C5.86392 14.1801 5.07192 14.0301 4.36392 13.7301C3.65592 13.4181 3.13392 13.0761 2.79792 12.7041H2.68992V17.4201H0.169922ZM6.01992 12.2001C6.73992 12.2001 7.36392 12.0681 7.89192 11.8041C8.43192 11.5281 8.84592 11.1561 9.13392 10.6881C9.42192 10.2081 9.56592 9.66207 9.56592 9.05007C9.56592 8.43807 9.42192 7.89807 9.13392 7.43007C8.84592 6.95006 8.43192 6.57806 7.89192 6.31406C7.36392 6.03806 6.73992 5.90006 6.01992 5.90006C5.49192 5.90006 4.99992 5.97206 4.54392 6.11606C4.08792 6.24806 3.70392 6.41606 3.39192 6.62006C3.07992 6.82406 2.84592 7.03406 2.68992 7.25006V10.8501C2.84592 11.0661 3.07992 11.2761 3.39192 11.4801C3.70392 11.6841 4.08792 11.8581 4.54392 12.0021C4.99992 12.1341 5.49192 12.2001 6.01992 12.2001Z" fill="#363636"/>
<path d="M18.336 14.1801C16.932 14.1801 15.852 13.8321 15.096 13.1361C14.352 12.4281 13.98 11.4561 13.98 10.2201V4.10006H16.5V9.89606C16.5 10.6281 16.722 11.2041 17.166 11.6241C17.61 12.0321 18.24 12.2361 19.056 12.2361C19.584 12.2361 20.064 12.1521 20.496 11.9841C20.928 11.8041 21.288 11.5821 21.576 11.3181C21.864 11.0541 22.074 10.7841 22.206 10.5081V4.10006H24.726V14.0001H22.206V12.4341H22.098C21.918 12.7101 21.648 12.9861 21.288 13.2621C20.94 13.5261 20.508 13.7481 19.992 13.9281C19.488 14.0961 18.936 14.1801 18.336 14.1801Z" fill="#363636"/>
<path d="M26.8802 14.0001V4.10006H29.4002V5.66606H29.5082C29.6762 5.39006 29.9102 5.12006 30.2102 4.85606C30.5102 4.59206 30.8642 4.37006 31.2722 4.19006C31.6922 4.01006 32.1302 3.92006 32.5862 3.92006H33.5942V6.35006H32.5862C31.9862 6.35006 31.4582 6.42806 31.0022 6.58406C30.5582 6.72806 30.1982 6.91407 29.9222 7.14207C29.6582 7.37006 29.4842 7.59806 29.4002 7.82606V14.0001H26.8802Z" fill="#363636"/>
<path d="M40.5533 14.1801C39.2333 14.1801 38.0933 13.9581 37.1333 13.5141C36.1853 13.0581 35.4593 12.4401 34.9553 11.6601C34.4633 10.8801 34.2173 10.0101 34.2173 9.05007C34.2173 8.09006 34.4633 7.22006 34.9553 6.44006C35.4593 5.66006 36.1853 5.04806 37.1333 4.60406C38.0933 4.14807 39.2333 3.92006 40.5533 3.92006C41.8733 3.92006 43.0073 4.14807 43.9553 4.60406C44.9153 5.04806 45.6413 5.66006 46.1333 6.44006C46.6373 7.22006 46.8893 8.09006 46.8893 9.05007C46.8893 10.0101 46.6373 10.8801 46.1333 11.6601C45.6413 12.4401 44.9153 13.0581 43.9553 13.5141C43.0073 13.9581 41.8733 14.1801 40.5533 14.1801ZM40.5533 12.2001C41.3453 12.2001 42.0173 12.0681 42.5693 11.8041C43.1333 11.5401 43.5593 11.1681 43.8473 10.6881C44.1353 10.2081 44.2793 9.66207 44.2793 9.05007C44.2793 8.43807 44.1353 7.89206 43.8473 7.41206C43.5593 6.93206 43.1333 6.56006 42.5693 6.29606C42.0173 6.03206 41.3453 5.90006 40.5533 5.90006C39.7613 5.90006 39.0833 6.03206 38.5193 6.29606C37.9673 6.56006 37.5473 6.93206 37.2593 7.41206C36.9713 7.89206 36.8273 8.43807 36.8273 9.05007C36.8273 9.66207 36.9713 10.2081 37.2593 10.6881C37.5473 11.1681 37.9673 11.5401 38.5193 11.8041C39.0833 12.0681 39.7613 12.2001 40.5533 12.2001Z" fill="#363636"/>
<path d="M48.7741 14.0001V1.04006H51.2941V14.0001H48.7741Z" fill="#363636"/>
<path d="M59.5117 14.1801C58.1917 14.1801 57.0517 13.9581 56.0917 13.5141C55.1437 13.0581 54.4177 12.4401 53.9137 11.6601C53.4217 10.8801 53.1757 10.0101 53.1757 9.05007C53.1757 8.09006 53.4217 7.22006 53.9137 6.44006C54.4177 5.66006 55.1437 5.04806 56.0917 4.60406C57.0517 4.14807 58.1917 3.92006 59.5117 3.92006C60.8317 3.92006 61.9657 4.14807 62.9137 4.60406C63.8737 5.04806 64.5997 5.66006 65.0917 6.44006C65.5957 7.22006 65.8477 8.09006 65.8477 9.05007C65.8477 10.0101 65.5957 10.8801 65.0917 11.6601C64.5997 12.4401 63.8737 13.0581 62.9137 13.5141C61.9657 13.9581 60.8317 14.1801 59.5117 14.1801ZM59.5117 12.2001C60.3037 12.2001 60.9757 12.0681 61.5277 11.8041C62.0917 11.5401 62.5177 11.1681 62.8057 10.6881C63.0937 10.2081 63.2377 9.66207 63.2377 9.05007C63.2377 8.43807 63.0937 7.89206 62.8057 7.41206C62.5177 6.93206 62.0917 6.56006 61.5277 6.29606C60.9757 6.03206 60.3037 5.90006 59.5117 5.90006C58.7197 5.90006 58.0417 6.03206 57.4777 6.29606C56.9257 6.56006 56.5057 6.93206 56.2177 7.41206C55.9297 7.89206 55.7857 8.43807 55.7857 9.05007C55.7857 9.66207 55.9297 10.2081 56.2177 10.6881C56.5057 11.1681 56.9257 11.5401 57.4777 11.8041C58.0417 12.0681 58.7197 12.2001 59.5117 12.2001Z" fill="#363636"/>
<path d="M73.1685 17.6001C72.2325 17.6001 71.3385 17.4921 70.4865 17.2761C69.6465 17.0601 68.9985 16.8201 68.5425 16.5561V14.3421C68.9985 14.6421 69.6225 14.9121 70.4145 15.1521C71.2065 15.4041 72.0345 15.5301 72.8985 15.5301C73.7745 15.5301 74.5065 15.3981 75.0945 15.1341C75.6945 14.8821 76.1385 14.5161 76.4265 14.0361C76.7145 13.5681 76.8585 13.0161 76.8585 12.3801V12.0921H76.7505C76.4265 12.4641 75.9045 12.8001 75.1845 13.1001C74.4765 13.4001 73.6845 13.5501 72.8085 13.5501C71.7405 13.5501 70.7985 13.3401 69.9825 12.9201C69.1785 12.5001 68.5545 11.9241 68.1105 11.1921C67.6785 10.4601 67.4625 9.64406 67.4625 8.74406C67.4625 7.83206 67.6785 7.01006 68.1105 6.27806C68.5545 5.54606 69.1785 4.97006 69.9825 4.55006C70.7985 4.13006 71.7405 3.92006 72.8085 3.92006C73.6845 3.92006 74.4765 4.07606 75.1845 4.38806C75.8925 4.68806 76.4145 5.02406 76.7505 5.39606H76.8585V4.10006H79.3785V12.3801C79.3785 13.4121 79.1385 14.3181 78.6585 15.0981C78.1905 15.8901 77.4885 16.5021 76.5525 16.9341C75.6285 17.3781 74.5005 17.6001 73.1685 17.6001ZM73.4925 11.5701C73.9965 11.5701 74.4705 11.5041 74.9145 11.3721C75.3705 11.2401 75.7605 11.0721 76.0845 10.8681C76.4205 10.6641 76.6785 10.4541 76.8585 10.2381V7.25006C76.6785 7.03406 76.4205 6.82406 76.0845 6.62006C75.7605 6.41606 75.3705 6.24806 74.9145 6.11606C74.4705 5.97206 73.9965 5.90006 73.4925 5.90006C72.7485 5.90006 72.1185 6.02006 71.6025 6.26007C71.0985 6.48807 70.7145 6.81806 70.4505 7.25006C70.1985 7.67006 70.0725 8.16806 70.0725 8.74406C70.0725 9.30806 70.1985 9.80606 70.4505 10.2381C70.7145 10.6581 71.0985 10.9881 71.6025 11.2281C72.1185 11.4561 72.7485 11.5701 73.4925 11.5701Z" fill="#363636"/>
<path d="M81.5447 14.0001V4.10006H81.6527C81.7607 4.10006 81.9107 4.10006 82.1027 4.10006C82.3067 4.10006 82.5407 4.10006 82.8047 4.10006C83.0687 4.10006 83.2967 4.10006 83.4887 4.10006C83.6927 4.10006 83.8427 4.10006 83.9387 4.10006H84.0647V14.0001H81.5447ZM82.8047 3.38006C82.3007 3.38006 81.9047 3.26006 81.6167 3.02006C81.3287 2.78006 81.1847 2.45606 81.1847 2.04806C81.1847 1.64006 81.3287 1.31606 81.6167 1.07606C81.9047 0.836064 82.3007 0.716064 82.8047 0.716064C83.3087 0.716064 83.7047 0.836064 83.9927 1.07606C84.2807 1.31606 84.4247 1.64006 84.4247 2.04806C84.4247 2.45606 84.2807 2.78006 83.9927 3.02006C83.7047 3.26006 83.3087 3.38006 82.8047 3.38006Z" fill="#363636"/>
<path d="M92.0662 14.1801C90.8182 14.1801 89.7323 13.9581 88.8083 13.5141C87.8843 13.0581 87.1762 12.4401 86.6842 11.6601C86.1922 10.8801 85.9463 10.0101 85.9463 9.05007C85.9463 8.09006 86.1982 7.22006 86.7022 6.44006C87.2062 5.66006 87.9322 5.04806 88.8802 4.60406C89.8402 4.14807 90.9683 3.92006 92.2643 3.92006C93.1403 3.92006 93.9563 4.03407 94.7122 4.26206C95.4683 4.47807 96.0982 4.73006 96.6022 5.01806V7.14207C96.0862 6.79406 95.4622 6.50006 94.7302 6.26007C93.9982 6.02006 93.2183 5.90006 92.3903 5.90006C91.5623 5.90006 90.8602 6.03206 90.2842 6.29606C89.7082 6.56006 89.2763 6.93206 88.9883 7.41206C88.7003 7.88006 88.5563 8.42606 88.5563 9.05007C88.5563 9.66207 88.6943 10.2081 88.9703 10.6881C89.2583 11.1681 89.6782 11.5401 90.2302 11.8041C90.7822 12.0681 91.4423 12.2001 92.2103 12.2001C93.0143 12.2001 93.7762 12.0861 94.4962 11.8581C95.2282 11.6301 95.8102 11.3661 96.2422 11.0661V13.1901C95.7982 13.4421 95.2043 13.6701 94.4603 13.8741C93.7163 14.0781 92.9182 14.1801 92.0662 14.1801Z" fill="#363636"/>
<path d="M104.372 14.1801C103.052 14.1801 101.912 13.9581 100.952 13.5141C100.004 13.0581 99.2778 12.4401 98.7738 11.6601C98.2818 10.8801 98.0358 10.0101 98.0358 9.05007C98.0358 8.09006 98.2818 7.22006 98.7738 6.44006C99.2778 5.66006 100.004 5.04806 100.952 4.60406C101.912 4.14807 103.052 3.92006 104.372 3.92006C105.692 3.92006 106.826 4.14807 107.774 4.60406C108.734 5.04806 109.46 5.66006 109.952 6.44006C110.456 7.22006 110.708 8.09006 110.708 9.05007C110.708 10.0101 110.456 10.8801 109.952 11.6601C109.46 12.4401 108.734 13.0581 107.774 13.5141C106.826 13.9581 105.692 14.1801 104.372 14.1801ZM104.372 12.2001C105.164 12.2001 105.836 12.0681 106.388 11.8041C106.952 11.5401 107.378 11.1681 107.666 10.6881C107.954 10.2081 108.098 9.66207 108.098 9.05007C108.098 8.43807 107.954 7.89206 107.666 7.41206C107.378 6.93206 106.952 6.56006 106.388 6.29606C105.836 6.03206 105.164 5.90006 104.372 5.90006C103.58 5.90006 102.902 6.03206 102.338 6.29606C101.786 6.56006 101.366 6.93206 101.078 7.41206C100.79 7.89206 100.646 8.43807 100.646 9.05007C100.646 9.66207 100.79 10.2081 101.078 10.6881C101.366 11.1681 101.786 11.5401 102.338 11.8041C102.902 12.0681 103.58 12.2001 104.372 12.2001Z" fill="#363636"/>
</svg>
