<svg width="29" height="23" viewBox="0 0 29 23" fill="none" xmlns="http://www.w3.org/2000/svg">
<path d="M12.08 6.12006C10.3306 6.29072 9.0293 6.88806 8.17597 7.91206C7.3653 8.89339 6.95997 10.0667 6.95997 11.4321H12.528V22.5041H0.94397V12.3281C0.94397 8.87206 1.96797 6.07739 4.01597 3.94405C6.06397 1.76805 8.75197 0.530721 12.08 0.232056V6.12006ZM27.696 6.12006C25.9466 6.29072 24.6666 6.88806 23.856 7.91206C23.0453 8.89339 22.64 10.0667 22.64 11.4321H28.208V22.5041H16.56V12.3281C16.56 10.5787 16.816 9.00006 17.328 7.59206C17.8826 6.18406 18.6506 4.96806 19.632 3.94405C20.6133 2.87739 21.7866 2.02406 23.152 1.38406C24.5173 0.744054 26.032 0.360054 27.696 0.232056V6.12006Z" fill="white"/>
</svg>
