<svg width="912" height="95" viewBox="0 0 912 95" fill="none" xmlns="http://www.w3.org/2000/svg">
<path d="M25.9271 94.1467C20.1671 94.1531 15.9096 92.8138 13.1547 90.1289C10.4637 87.5079 9.11518 83.4134 9.10898 77.8454L9.08837 59.3174C9.08609 57.2694 8.54042 55.766 7.45135 54.8072C6.42621 53.7844 4.79364 53.2742 2.55364 53.2767L0.441646 53.279L0.429898 42.719L2.5419 42.7167C4.7819 42.7142 6.41332 42.2004 7.43618 41.1752C8.52304 40.15 9.06533 38.6134 9.06306 36.5654L9.0417 17.3654C9.0355 11.7974 10.3749 7.69994 13.06 5.07295C15.809 2.38189 20.0635 1.03316 25.8235 1.02675L30.8155 1.0212L30.8278 12.0612L26.9878 12.0655C23.0198 12.0699 21.0381 14.1521 21.0428 18.3121L21.063 36.5521C21.0673 40.3281 20.2063 43.113 18.4803 44.907C16.8183 46.6368 14.2272 47.5037 10.7072 47.5076L10.7083 48.4676C14.2283 48.4637 16.8213 49.3568 18.4873 51.1469C20.2172 52.873 21.0842 55.5921 21.0884 59.3041L21.1079 76.872C21.1125 81.032 23.0988 83.1098 27.0668 83.1054L30.9068 83.1011L30.9191 94.1411L25.9271 94.1467Z" fill="white"/>
<path d="M74.1183 94.0931L85.4205 70.8485L58.6793 23.0702L73.3673 23.0539L91.6447 56.6336L92.1247 56.633L108.407 23.0149L122.327 22.9994L87.8463 94.0778L74.1183 94.0931Z" fill="white"/>
<path d="M156.543 76.7214C149.887 76.7288 144.094 75.5512 139.163 73.1887C134.232 70.7622 130.453 67.4704 127.824 63.3133C125.195 59.1562 123.878 54.5177 123.872 49.3977C123.867 44.2777 125.206 39.6362 127.889 35.4732C130.572 31.3102 134.441 28.0419 139.494 25.6683C144.611 23.2306 150.626 22.0079 157.538 22.0002C162.21 21.995 166.563 22.5982 170.596 23.8097C174.629 24.9572 177.991 26.2975 180.68 27.8305L180.693 39.1585C177.939 37.3055 174.609 35.7412 170.704 34.4656C166.798 33.1899 162.638 32.5546 158.222 32.5595C153.806 32.5644 150.062 33.2726 146.992 34.684C143.922 36.0954 141.62 38.082 140.087 40.6437C138.553 43.1414 137.789 46.0542 137.792 49.3822C137.796 52.6462 138.535 55.5574 140.01 58.1158C141.549 60.674 143.791 62.6556 146.737 64.0603C149.682 65.465 153.203 66.1651 157.299 66.1605C161.587 66.1558 165.65 65.5432 169.489 64.323C173.392 63.1026 176.494 61.6912 178.796 60.0886L178.809 71.4166C176.442 72.7632 173.276 73.9828 169.309 75.0752C165.342 76.1676 161.087 76.7163 156.543 76.7214Z" fill="white"/>
<path d="M183.578 75.0593C185.56 72.6251 187.411 68.303 189.132 62.0931C190.917 55.8191 191.933 48.426 192.179 39.9137L192.64 22.9212L241.12 22.8672L241.179 75.6672L227.739 75.6822L227.693 33.9222L205.997 33.9463L205.62 40.8588C205.118 49.5633 204.07 56.9885 202.477 63.1343C200.948 69.28 199.321 73.4738 197.595 75.7157L183.579 75.7313L183.578 75.0593Z" fill="white"/>
<path d="M261.363 93.8848L272.665 70.6402L245.924 22.8619L260.612 22.8456L278.89 56.4252L279.37 56.4247L295.652 22.8066L309.572 22.7911L275.091 93.8695L261.363 93.8848Z" fill="white"/>
<path d="M314.462 75.5857L314.403 22.7857L361.635 22.7332L361.647 33.7732L327.855 33.8108L327.902 75.5707L314.462 75.5857Z" fill="white"/>
<path d="M368.439 75.5256L368.38 22.7257L381.82 22.7107L381.866 64.0867L382.346 64.0861L408.508 22.681L425.692 22.6619L425.751 75.4619L412.311 75.4768L412.265 34.1008L411.785 34.1014L385.623 75.5065L368.439 75.5256Z" fill="white"/>
<path d="M465.05 75.4181L464.992 22.6182L478.432 22.6032L478.478 63.9792L478.958 63.9787L505.12 22.5735L522.304 22.5544L522.362 75.3544L508.922 75.3693L508.876 33.9934L508.396 33.9939L482.234 75.399L465.05 75.4181Z" fill="white"/>
<path d="M611.982 89.9427L611.966 75.2547L561.662 75.3107L561.603 22.5107L575.043 22.4957L575.089 64.2557L603.601 64.224L603.555 22.464L616.995 22.4491L617.041 64.209L625.393 64.1998L625.422 89.9277L611.982 89.9427Z" fill="white"/>
<path d="M663.831 76.157C656.855 76.1648 650.838 74.9554 645.779 72.5291C640.721 70.1027 636.845 66.843 634.152 62.75C631.524 58.5929 630.207 53.9544 630.201 48.8344C630.195 43.7144 631.438 39.073 633.929 34.9102C636.485 30.7474 640.097 27.4794 644.766 25.1062C649.436 22.669 654.81 21.447 660.89 21.4402C666.842 21.4336 672.092 22.6118 676.638 24.9747C681.185 27.3377 684.677 30.5978 687.113 34.7551C689.614 38.9123 690.867 43.5829 690.873 48.7669L690.876 52.0309L643.74 52.0833C644.319 54.6427 645.506 56.9134 647.3 58.8954C649.158 60.8773 651.592 62.4106 654.601 63.4953C657.674 64.5798 661.227 65.1199 665.259 65.1154C669.419 65.1108 673.418 64.4663 677.257 63.1821C681.095 61.8978 684.038 60.4865 686.084 58.9482L686.097 70.5642C683.987 71.9746 680.916 73.258 676.885 74.4145C672.855 75.571 668.503 76.1518 663.831 76.157ZM677.14 44.3662C676.817 42.1265 675.983 40.0155 674.637 38.033C673.355 36.0504 671.561 34.4524 669.256 33.2389C666.95 31.9615 664.229 31.3245 661.093 31.328C658.021 31.3314 655.238 31.9105 652.743 33.0653C650.249 34.1561 648.234 35.6943 646.7 37.68C645.167 39.6657 644.177 41.9068 643.732 44.4033L677.14 44.3662Z" fill="white"/>
<path d="M745.183 75.1065L745.124 22.3065L758.564 22.2916L758.623 75.0915L745.183 75.1065ZM701.023 75.1556L700.964 22.3556L714.404 22.3407L714.463 75.1407L701.023 75.1556ZM712.903 53.5424L712.89 42.5024L746.682 42.4648L746.695 53.5048L712.903 53.5424Z" fill="white"/>
<path d="M803.46 39.7136C810.948 39.7053 816.646 41.331 820.554 44.5906C824.525 47.7862 826.514 52.04 826.52 57.352C826.526 62.664 824.547 66.9542 820.582 70.2226C816.682 73.4269 810.988 75.0333 803.5 75.0416L770.188 75.0787L770.129 22.2787L783.569 22.2637L783.598 48.4717L783.616 64.9837L802.048 64.9632C805.568 64.9593 808.192 64.2844 809.918 62.9385C811.709 61.5285 812.603 59.6715 812.6 57.3675C812.597 55.0635 811.699 53.2405 809.906 51.8985C808.176 50.4924 805.552 49.7913 802.032 49.7952L781.872 49.8177L781.86 39.7377L803.46 39.7136ZM832.78 75.009L832.721 22.2091L846.161 22.1941L846.22 74.9941L832.78 75.009Z" fill="white"/>
<path d="M880.769 93.1957L880.757 82.1557L884.597 82.1514C888.565 82.147 890.547 80.0648 890.542 75.9048L890.522 58.3368C890.518 54.6248 891.347 51.9039 893.009 50.174C894.735 48.3801 897.358 47.4812 900.878 47.4773L900.877 46.5173C897.357 46.5212 894.732 45.6601 893.002 43.934C891.336 42.1439 890.501 39.3608 890.497 35.5848L890.477 17.3448C890.472 13.1848 888.486 11.107 884.518 11.1114L880.678 11.1157L880.666 0.0757075L885.658 0.0701538C891.418 0.0637456 895.643 1.40305 898.334 4.08805C901.089 6.70899 902.469 10.8035 902.476 16.3715L902.497 35.5714C902.499 37.6194 903.013 39.1549 904.038 40.1777C905.127 41.2005 906.792 41.7107 909.032 41.7082L911.144 41.7058L911.156 52.2658L909.044 52.2682C906.804 52.2707 905.14 52.7845 904.053 53.8097C903.03 54.7709 902.52 56.2754 902.522 58.3234L902.543 76.8514C902.549 82.4194 901.178 86.5169 898.429 89.144C895.744 91.835 891.521 93.1837 885.761 93.1901L880.769 93.1957Z" fill="white"/>
</svg>
