<svg width="28" height="28" viewBox="0 0 28 28" fill="none" xmlns="http://www.w3.org/2000/svg">
<path d="M13.7297 0.0663513C13.4671 0.208598 13.4562 0.301606 13.4507 1.81161C13.4507 2.966 13.4671 3.2505 13.5328 3.3818C13.6312 3.57329 13.768 3.65535 13.9978 3.65535C14.2276 3.65535 14.3644 3.57329 14.4629 3.3818C14.5285 3.2505 14.5449 2.966 14.5449 1.82803C14.5449 0.865123 14.523 0.389143 14.4793 0.290664C14.3589 0.028054 13.9978 -0.0813668 13.7297 0.0663513Z" fill="#363636"/>
<path d="M6.98912 1.87727C6.81951 1.97028 6.69915 2.23289 6.73197 2.4189C6.74839 2.49003 7.07119 3.09184 7.45965 3.76478C8.04507 4.77692 8.18732 4.99029 8.34052 5.06141C8.69068 5.23102 9.10102 4.96294 9.09555 4.56902C9.09008 4.31735 7.73868 1.98122 7.53078 1.8718C7.34475 1.77332 7.16967 1.77879 6.98912 1.87727Z" fill="#363636"/>
<path d="M20.4594 1.87179C20.3718 1.92103 20.0599 2.39701 19.6113 3.16843C19.0314 4.16963 18.9055 4.43224 18.9055 4.60184C18.911 4.99575 19.3213 5.23648 19.677 5.05593C19.8028 4.99028 19.9998 4.69485 20.5414 3.7593C20.9244 3.09183 21.2472 2.49002 21.2636 2.41889C21.3457 1.99215 20.8478 1.65842 20.4594 1.87179Z" fill="#363636"/>
<path d="M13.0129 5.32955C9.63716 5.75629 6.79212 8.06507 5.73617 11.2437C5.39695 12.2668 5.3313 12.7045 5.3313 13.9957C5.3313 15.0023 5.34771 15.2485 5.45167 15.7081C5.95502 17.9841 7.18058 19.8387 9.0408 21.1518C9.93808 21.7864 11.2019 22.3171 12.4111 22.5688C13.1278 22.7165 14.9826 22.7056 15.7102 22.5414C19.272 21.7536 21.8763 19.1056 22.5712 15.5549C22.7189 14.8054 22.7025 13.0164 22.5438 12.2832C21.7669 8.75989 19.1352 6.1502 15.6391 5.4335C15.2397 5.34596 13.4233 5.28031 13.0129 5.32955ZM15.1741 6.47299C16.717 6.71919 18.1121 7.41401 19.2337 8.48634C19.9286 9.1538 20.3827 9.77203 20.8094 10.631C21.362 11.7471 21.6028 12.7592 21.6028 13.9957C21.6028 15.2321 21.362 16.2443 20.8094 17.3604C20.3827 18.2193 19.9286 18.8375 19.2337 19.505C16.2957 22.3117 11.6998 22.3062 8.7563 19.4995C8.06692 18.843 7.60734 18.2138 7.18605 17.3604C6.62798 16.2388 6.39272 15.2376 6.39272 13.9957C6.39272 12.7537 6.62798 11.7525 7.18605 10.631C7.60734 9.7775 8.06692 9.14833 8.7563 8.49181C9.86696 7.43043 11.2731 6.72466 12.7886 6.47299C13.3631 6.37451 14.5777 6.37451 15.1741 6.47299Z" fill="#363636"/>
<path d="M2.0758 6.79577C1.81866 6.93802 1.73112 7.25534 1.87337 7.52889C1.98279 7.73679 4.31901 9.08814 4.57069 9.09361C4.81142 9.09361 5.04122 8.91307 5.1014 8.67781C5.19441 8.31125 5.07404 8.2073 3.71171 7.42494C3.00592 7.02009 2.42596 6.71918 2.3439 6.71918C2.2673 6.72465 2.14693 6.75748 2.0758 6.79577Z" fill="#363636"/>
<path d="M24.2672 7.43585C23.3043 7.9939 23.0033 8.19085 22.9377 8.31669C22.7571 8.67231 22.9979 9.08263 23.3918 9.0881C23.5614 9.0881 23.8295 8.9568 24.8198 8.38234C26.0508 7.67111 26.1986 7.55621 26.1986 7.27172C26.1986 6.98175 25.9305 6.71914 25.6405 6.71914C25.5694 6.71914 24.9511 7.04194 24.2672 7.43585Z" fill="#363636"/>
<path d="M0.270384 13.5251C0.0132362 13.6674 -0.0743036 13.9847 0.0679486 14.2637C0.20473 14.5263 0.325097 14.5428 1.82969 14.5428C3.30692 14.5428 3.47106 14.5209 3.60237 14.2747C3.70085 14.0832 3.66802 13.7932 3.52577 13.6291L3.39446 13.4759L1.89534 13.465C0.724497 13.454 0.374338 13.465 0.270384 13.5251Z" fill="#363636"/>
<path d="M24.6337 13.5033C24.3766 13.6072 24.2562 14.0066 24.393 14.2747C24.5243 14.5209 24.6885 14.5428 26.1712 14.5428C27.6922 14.5428 27.8125 14.5209 27.9384 14.2419C28.0204 14.0613 28.0204 13.93 27.9384 13.7495C27.8125 13.465 27.6922 13.4486 26.1602 13.454C25.3833 13.454 24.6939 13.4759 24.6337 13.5033Z" fill="#363636"/>
<path d="M4.341 18.9524C4.25346 18.9962 3.67351 19.3244 3.0662 19.6746C1.9446 20.3147 1.79688 20.4405 1.79688 20.7196C1.79688 21.0095 2.06497 21.2721 2.35494 21.2721C2.42607 21.2721 3.03885 20.9548 3.71181 20.5664C5.05226 19.8004 5.1781 19.6855 5.11245 19.3354C5.04679 18.9852 4.65286 18.7883 4.341 18.9524Z" fill="#363636"/>
<path d="M23.2714 18.9032C23.0963 18.9469 22.9212 19.1439 22.8829 19.3299C22.8173 19.6855 22.9267 19.784 24.2343 20.539C24.9018 20.922 25.5036 21.2448 25.5748 21.2612C25.8702 21.3159 26.1985 21.0369 26.1985 20.725C26.1985 20.4733 26.0453 20.3147 25.5036 20.0083C25.2082 19.8332 24.6665 19.5214 24.2945 19.308C23.6106 18.9141 23.4629 18.8539 23.2714 18.9032Z" fill="#363636"/>
<path d="M8.30225 22.9408C8.20376 22.9955 7.9302 23.4113 7.4542 24.2319C7.07122 24.8994 6.74841 25.5012 6.732 25.5723C6.67729 25.8678 6.95632 26.196 7.26818 26.196C7.55269 26.196 7.67305 26.0483 8.31866 24.9268C9.18312 23.4277 9.15029 23.4988 9.07369 23.2745C9.04086 23.176 8.96974 23.0502 8.91502 23.001C8.77277 22.8697 8.47185 22.8423 8.30225 22.9408Z" fill="#363636"/>
<path d="M19.2228 22.9079C19.0314 22.99 18.9055 23.176 18.9055 23.3894C18.9055 23.559 19.0368 23.8271 19.6113 24.8173C20.3226 26.0538 20.4375 26.196 20.7274 26.196C21.0393 26.196 21.3183 25.8678 21.2636 25.5723C21.2472 25.5012 20.9244 24.8994 20.5414 24.2319C19.7481 22.8642 19.6332 22.7438 19.2228 22.9079Z" fill="#363636"/>
<path d="M13.6311 24.4672L13.4779 24.5985L13.4615 26.0647C13.4451 27.6568 13.4615 27.7827 13.7296 27.9194C13.9156 28.0179 14.0579 28.0234 14.2439 27.9358C14.5229 27.81 14.5448 27.6896 14.5448 26.1687C14.5448 24.686 14.5229 24.5219 14.2767 24.3906C14.0852 24.2921 13.7952 24.325 13.6311 24.4672Z" fill="#363636"/>
</svg>
