<svg width="723" height="95" viewBox="0 0 723 95" fill="none" xmlns="http://www.w3.org/2000/svg">
<path d="M25.9271 94.2882C20.1671 94.2946 15.9096 92.9553 13.1547 90.2704C10.4637 87.6494 9.11518 83.5549 9.10898 77.9869L9.08837 59.4589C9.08609 57.4109 8.54042 55.9075 7.45135 54.9487C6.42621 53.9258 4.79364 53.4157 2.55364 53.4182L0.441646 53.4205L0.429898 42.8605L2.5419 42.8582C4.7819 42.8557 6.41332 42.3418 7.43618 41.3167C8.52304 40.2915 9.06533 38.7549 9.06306 36.7069L9.0417 17.5069C9.0355 11.9389 10.3749 7.84142 13.06 5.21443C15.809 2.52337 20.0635 1.17464 25.8235 1.16823L30.8155 1.16268L30.8278 12.2027L26.9878 12.2069C23.0198 12.2114 21.0381 14.2936 21.0428 18.4536L21.063 36.6936C21.0673 40.4696 20.2063 43.2545 18.4803 45.0484C16.8183 46.7783 14.2272 47.6452 10.7072 47.6491L10.7083 48.6091C14.2283 48.6052 16.8213 49.4983 18.4873 51.2884C20.2172 53.0145 21.0842 55.7335 21.0884 59.4455L21.1079 77.0135C21.1125 81.1735 23.0988 83.2513 27.0668 83.2469L30.9068 83.2426L30.9191 94.2826L25.9271 94.2882Z" fill="white"/>
<path d="M65.4581 76.0042L65.3812 6.88422L78.8212 6.86927L78.8486 31.5413L79.4246 31.5406C80.383 30.0676 81.7894 28.626 83.6438 27.2159C85.5622 25.7418 87.8968 24.5552 90.6478 23.6561C93.3988 22.6931 96.4062 22.2097 99.6702 22.2061C107.094 22.1978 112.792 24.0795 116.765 27.8511C120.737 31.5587 122.726 36.7084 122.734 43.3004L122.77 75.9404L109.33 75.9554L109.296 44.9474C109.291 41.1074 108.104 38.1007 105.734 35.9273C103.363 33.69 100.002 32.5737 95.6498 32.5786C92.7698 32.5818 90.1783 33.0647 87.8754 34.0272C85.5724 34.9258 83.6537 36.1119 82.1193 37.5856C80.5849 38.9953 79.4985 40.4045 78.86 41.8133L78.8981 75.9892L65.4581 76.0042Z" fill="white"/>
<path d="M165.94 76.8524C158.964 76.8602 152.947 75.6509 147.888 73.2245C142.83 70.7981 138.954 67.5384 136.261 63.4454C133.633 59.2883 132.316 54.6498 132.31 49.5298C132.304 44.4098 133.547 39.7684 136.038 35.6056C138.594 31.4428 142.206 28.1748 146.876 25.8016C151.545 23.3644 156.919 22.1424 162.999 22.1356C168.951 22.129 174.201 23.3072 178.747 25.6701C183.294 28.0331 186.786 31.2932 189.222 35.4505C191.723 39.6077 192.976 44.2783 192.982 49.4623L192.985 52.7263L145.85 52.7787C146.428 55.3381 147.615 57.6088 149.409 59.5908C151.267 61.5727 153.701 63.106 156.71 64.1907C159.783 65.2752 163.336 65.8153 167.368 65.8108C171.528 65.8062 175.527 65.1617 179.366 63.8775C183.204 62.5932 186.147 61.1819 188.193 59.6436L188.206 71.2596C186.096 72.67 183.025 73.9534 178.994 75.1099C174.964 76.2664 170.612 76.8472 165.94 76.8524ZM179.249 45.0616C178.926 42.8219 178.092 40.7109 176.746 38.7284C175.464 36.7458 173.67 35.1478 171.365 33.9343C169.059 32.6569 166.338 32.0199 163.202 32.0234C160.13 32.0268 157.347 32.6059 154.852 33.7607C152.358 34.8515 150.343 36.3897 148.809 38.3754C147.276 40.3611 146.286 42.6022 145.841 45.0987L179.249 45.0616Z" fill="white"/>
<path d="M203.132 75.851L203.055 6.73106L216.495 6.71611L216.572 75.8361L203.132 75.851Z" fill="white"/>
<path d="M228.047 75.8233L227.97 6.70334L241.41 6.68839L241.487 75.8083L228.047 75.8233Z" fill="white"/>
<path d="M285.315 76.7196C278.275 76.7274 272.193 75.5502 267.071 73.1879C262.012 70.7615 258.136 67.4698 255.444 63.3128C252.815 59.1557 251.498 54.5172 251.492 49.3972C251.487 44.2772 252.793 39.6357 255.413 35.4728C258.096 31.3098 261.965 28.0415 267.018 25.6679C272.135 23.2302 278.214 22.0075 285.254 21.9996C292.294 21.9918 298.343 23.2011 303.402 25.6274C308.525 27.9897 312.4 31.2494 315.029 35.4065C317.721 39.5635 319.071 44.202 319.076 49.322C319.082 54.442 317.743 59.0835 315.06 63.2465C312.44 67.4094 308.572 70.7097 303.455 73.1474C298.401 75.521 292.355 76.7118 285.315 76.7196ZM285.303 66.1596C289.527 66.1549 293.11 65.4469 296.053 64.0356C299.059 62.6243 301.329 60.6378 302.862 58.0761C304.395 55.5143 305.16 52.6015 305.156 49.3375C305.153 46.0735 304.381 43.1624 302.843 40.6041C301.304 38.0458 299.03 36.0643 296.02 34.6596C293.074 33.2549 289.49 32.5549 285.266 32.5596C281.042 32.5643 277.426 33.2723 274.42 34.6837C271.478 36.095 269.24 38.0814 267.707 40.6432C266.173 43.2049 265.409 46.1177 265.412 49.3817C265.416 52.6457 266.187 55.5569 267.726 58.1151C269.265 60.6734 271.507 62.6549 274.453 64.0597C277.462 65.4643 281.079 66.1643 285.303 66.1596Z" fill="white"/>
<path d="M368.544 75.667L349.285 22.8884L362.629 22.8735L377.074 62.9855L377.554 62.985L392.101 22.8407L404.197 22.8273L419.026 62.9388L419.506 62.9383L433.765 22.7944L446.725 22.78L428.064 75.6008L412.128 75.6185L398.263 38.3859L397.783 38.3864L384.48 75.6493L368.544 75.667Z" fill="white"/>
<path d="M483.06 76.4996C476.02 76.5074 469.938 75.3302 464.816 72.9679C459.757 70.5415 455.881 67.2498 453.189 63.0928C450.56 58.9357 449.243 54.2972 449.237 49.1772C449.232 44.0572 450.538 39.4157 453.158 35.2528C455.841 31.0898 459.709 27.8215 464.763 25.4479C469.88 23.0102 475.959 21.7875 482.999 21.7796C490.039 21.7718 496.088 22.9811 501.147 25.4074C506.269 27.7697 510.145 31.0294 512.774 35.1865C515.466 39.3435 516.815 43.982 516.821 49.102C516.827 54.222 515.488 58.8635 512.805 63.0265C510.185 67.1894 506.317 70.4897 501.2 72.9274C496.146 75.301 490.1 76.4918 483.06 76.4996ZM483.048 65.9396C487.272 65.9349 490.855 65.2269 493.798 63.8156C496.804 62.4043 499.074 60.4178 500.607 57.8561C502.14 55.2943 502.905 52.3815 502.901 49.1175C502.898 45.8535 502.126 42.9424 500.587 40.3841C499.049 37.8258 496.774 35.8443 493.765 34.4396C490.819 33.0349 487.235 32.3349 483.011 32.3396C478.787 32.3443 475.171 33.0523 472.165 34.4637C469.222 35.875 466.985 37.8615 465.451 40.4232C463.918 42.9849 463.154 45.8977 463.157 49.1617C463.161 52.4257 463.932 55.3369 465.471 57.8951C467.01 60.4534 469.252 62.4349 472.198 63.8397C475.207 65.2443 478.824 65.9443 483.048 65.9396Z" fill="white"/>
<path d="M526.903 75.4908L526.844 22.6908L540.284 22.6759L540.293 31.0279L540.869 31.0272C541.764 29.5542 543.01 28.1129 544.609 26.7031C546.207 25.2933 548.094 24.1072 550.269 23.1448C552.508 22.1823 554.843 21.6997 557.275 21.697L562.651 21.691L562.665 34.651L557.289 34.657C554.089 34.6605 551.274 35.0797 548.843 35.9144C546.476 36.685 544.557 37.6791 543.086 38.8968C541.679 40.1143 540.753 41.3314 540.306 42.5479L540.343 75.4759L526.903 75.4908Z" fill="white"/>
<path d="M570.38 75.4424L570.303 6.32248L583.743 6.30753L583.82 75.4275L570.38 75.4424Z" fill="white"/>
<path d="M622.848 76.3441C617.152 76.3504 612.095 75.172 607.676 72.8089C603.322 70.4458 599.926 67.2176 597.49 63.1243C595.053 58.967 593.832 54.2643 593.826 49.0163C593.82 43.7683 595.031 39.095 597.458 34.9963C599.886 30.8336 603.274 27.5658 607.623 25.193C612.037 22.8201 617.091 21.6304 622.787 21.6241C627.395 21.619 631.588 22.4463 635.366 24.1061C639.208 25.7018 642.026 27.4907 643.82 29.4727L644.396 29.4721L644.37 6.24008L657.81 6.22513L657.887 75.3451L644.447 75.36L644.44 68.448L643.864 68.4487C642.074 70.4347 639.26 72.2618 635.422 73.9301C631.647 75.5343 627.456 76.3389 622.848 76.3441ZM627.157 65.7793C630.997 65.775 634.484 65.0351 637.618 63.5596C640.752 62.0201 643.023 60.3536 644.429 58.56L644.407 39.3601C643.51 38.2091 642.229 37.0905 640.563 36.0043C638.898 34.9182 636.881 34.0244 634.512 33.3231C632.208 32.5576 629.743 32.1764 627.119 32.1793C623.087 32.1838 619.6 32.9237 616.658 34.3989C613.779 35.8101 611.573 37.7966 610.04 40.3583C608.507 42.856 607.742 45.7369 607.746 49.0009C607.749 52.2649 608.521 55.176 610.06 57.7343C611.598 60.2286 613.809 62.2101 616.69 63.6789C619.636 65.0836 623.125 65.7838 627.157 65.7793Z" fill="white"/>
<path d="M692.47 93.5466L692.458 82.5066L696.298 82.5024C700.266 82.4979 702.248 80.4157 702.243 76.2557L702.224 58.6878C702.22 54.9758 703.049 52.2548 704.711 50.525C706.437 48.7311 709.06 47.8321 712.58 47.8282L712.579 46.8682C709.059 46.8721 706.434 46.0111 704.704 44.285C703.038 42.4948 702.203 39.7118 702.198 35.9358L702.178 17.6958C702.173 13.5358 700.187 11.458 696.219 11.4624L692.379 11.4667L692.367 0.426676L697.359 0.421122C703.119 0.414714 707.344 1.75401 710.035 4.43902C712.79 7.05996 714.171 11.1544 714.177 16.7224L714.198 35.9224C714.201 37.9704 714.714 39.5058 715.74 40.5287C716.829 41.5515 718.493 42.0616 720.733 42.0591L722.845 42.0568L722.857 52.6168L720.745 52.6191C718.505 52.6216 716.842 53.1355 715.755 54.1607C714.732 55.1218 714.221 56.6264 714.224 58.6744L714.244 77.2024C714.251 82.7704 712.879 86.8679 710.13 89.495C707.445 92.186 703.222 93.5347 697.462 93.5411L692.47 93.5466Z" fill="white"/>
</svg>
