<svg width="26" height="16" viewBox="0 0 26 16" fill="none" xmlns="http://www.w3.org/2000/svg">
<g clip-path="url(#clip0_62_198)">
<path fill-rule="evenodd" clip-rule="evenodd" d="M11.0346 0.896889C10.573 0.931449 9.98796 1.02346 9.75379 1.09829C9.35174 1.22682 8.85081 1.68516 8.94345 1.83969C8.96044 1.86809 9.05378 1.90652 9.15068 1.92504C9.58574 2.00829 9.95269 2.26264 10.1172 2.59492C10.3984 3.16291 10.5249 4.93939 10.3735 6.197C10.2736 7.02829 10.2313 7.221 10.0831 7.52243C9.68558 8.33099 8.77238 7.67641 7.76603 5.86156C7.40789 5.21573 6.4 3.14292 6.17511 2.58978C5.90329 1.92128 5.81724 1.79819 5.5082 1.63613L5.24734 1.49935L3.27872 1.51392C1.501 1.52707 1.29522 1.5369 1.15637 1.61506C0.936261 1.73903 0.842244 1.90828 0.871374 2.12836C0.902539 2.36412 1.64919 4.07442 2.1994 5.17042C3.27061 7.3042 4.17788 8.85366 5.14777 10.2055C6.57423 12.194 7.20537 12.8391 8.66277 13.7987C9.34334 14.2468 9.83448 14.4975 10.4417 14.7066C11.2759 14.9939 11.639 15.0492 12.8846 15.0785C14.1242 15.1078 14.4803 15.0709 14.743 14.8862C14.9593 14.7342 15.0262 14.5244 15.0666 13.8719C15.1064 13.2281 15.2284 12.6759 15.3962 12.3811C15.5442 12.1209 15.8658 11.8204 16.0037 11.8134C16.4852 11.7889 16.7548 11.995 17.7606 13.1569C18.7036 14.2463 19.0522 14.5669 19.5731 14.824C19.808 14.9398 20.0962 15.0574 20.2136 15.0851C20.4981 15.1524 24.3401 15.0767 24.5882 14.999C24.8337 14.922 25.0983 14.6545 25.1043 14.4773C25.1208 13.9919 25.0523 13.7732 24.7229 13.2606C24.2898 12.5867 23.9178 12.1564 22.6514 10.8644C21.3066 9.49238 21.2127 9.36474 21.2108 8.90572C21.2091 8.52041 21.3839 8.22437 22.5646 6.61253C24.2301 4.33879 24.8969 3.24053 25.0823 2.46625C25.1911 2.01215 25.1292 1.79305 24.8486 1.63848L24.6488 1.52849L22.2533 1.54491C20.5599 1.5565 19.8235 1.57801 19.7409 1.61824C19.5801 1.69651 19.4098 1.98189 19.1961 2.53063C18.6272 3.99214 17.4557 6.09767 16.6837 7.04629C16.3764 7.42382 15.899 7.81021 15.7397 7.81021C15.5174 7.81021 15.334 7.66223 15.195 7.37064L15.0667 7.10138L15.0797 4.56332C15.0937 1.83392 15.0877 1.75331 14.8426 1.39292C14.6011 1.03797 14.0125 0.916249 12.434 0.894889C11.7948 0.886185 11.1651 0.887114 11.0346 0.896889Z" stroke="white" stroke-width="1.2"/>
</g>
<defs>
<clipPath id="clip0_62_198">
<rect width="26" height="16" fill="white"/>
</clipPath>
</defs>
</svg>
