<svg width="165" height="11" viewBox="0 0 165 11" fill="none" xmlns="http://www.w3.org/2000/svg">
<path d="M0.0400391 7.99997L0.0400391 0.84997L0.950039 0.84997L0.950039 4.09997L5.43504 0.84997L6.77404 0.84997L1.91204 4.35997L6.77404 7.99997H5.43504L0.950039 4.61997L0.950039 7.99997H0.0400391Z" fill="#363636" fill-opacity="0.7"/>
<path d="M7.61609 10.47L7.61609 0.84997L8.52609 0.84997V1.95497H8.59109C8.85976 1.64297 9.26276 1.3613 9.80009 1.10997C10.3374 0.84997 10.9311 0.719971 11.5811 0.719971C12.3611 0.719971 13.0501 0.880304 13.6481 1.20097C14.2548 1.52164 14.7228 1.96364 15.0521 2.52697C15.3814 3.08164 15.5461 3.7143 15.5461 4.42497C15.5461 5.13564 15.3814 5.77264 15.0521 6.33597C14.7228 6.89064 14.2548 7.3283 13.6481 7.64897C13.0501 7.96964 12.3611 8.12997 11.5811 8.12997C10.9311 8.12997 10.3374 8.0043 9.80009 7.75297C9.26276 7.49297 8.85976 7.20697 8.59109 6.89497H8.52609V10.47H7.61609ZM11.4121 7.32397C12.0708 7.32397 12.6428 7.20264 13.1281 6.95997C13.6134 6.70864 13.9861 6.3663 14.2461 5.93297C14.5061 5.49097 14.6361 4.9883 14.6361 4.42497C14.6361 3.86164 14.5061 3.3633 14.2461 2.92997C13.9861 2.48797 13.6134 2.14564 13.1281 1.90297C12.6428 1.65164 12.0708 1.52597 11.4121 1.52597C10.9701 1.52597 10.5541 1.59964 10.1641 1.74697C9.78276 1.8943 9.45343 2.08064 9.17609 2.30597C8.89876 2.5313 8.68209 2.75664 8.52609 2.98197V5.86797C8.68209 6.0933 8.89876 6.31864 9.17609 6.54397C9.45343 6.7693 9.78276 6.95564 10.1641 7.10297C10.5541 7.2503 10.9701 7.32397 11.4121 7.32397Z" fill="#363636" fill-opacity="0.7"/>
<path d="M21.1361 8.12997C20.2781 8.12997 19.5284 7.96964 18.8871 7.64897C18.2544 7.3283 17.7648 6.89064 17.4181 6.33597C17.0801 5.77264 16.9111 5.13564 16.9111 4.42497C16.9111 3.72297 17.0758 3.0903 17.4051 2.52697C17.7344 1.96364 18.1894 1.52164 18.7701 1.20097C19.3594 0.880304 20.0268 0.719971 20.7721 0.719971C21.5001 0.719971 22.1501 0.880304 22.7221 1.20097C23.2941 1.51297 23.7361 1.95064 24.0481 2.51397C24.3688 3.06864 24.5291 3.70564 24.5291 4.42497V4.84097L17.8211 4.84097C17.8818 5.33497 18.0508 5.7683 18.3281 6.14097C18.6141 6.51364 18.9954 6.80397 19.4721 7.01197C19.9574 7.21997 20.5121 7.32397 21.1361 7.32397C21.7168 7.32397 22.2628 7.2373 22.7741 7.06397C23.2941 6.89064 23.6928 6.69564 23.9701 6.47897V7.37597C23.6928 7.56664 23.2941 7.73997 22.7741 7.89597C22.2628 8.05197 21.7168 8.12997 21.1361 8.12997ZM23.6191 4.00897C23.5758 3.5583 23.4371 3.14664 23.2031 2.77397C22.9691 2.39264 22.6441 2.0893 22.2281 1.86397C21.8208 1.63864 21.3484 1.52597 20.8111 1.52597C20.2478 1.52597 19.7451 1.6343 19.3031 1.85097C18.8698 2.06764 18.5231 2.36664 18.2631 2.74797C18.0031 3.12064 17.8558 3.54097 17.8211 4.00897L23.6191 4.00897Z" fill="#363636" fill-opacity="0.7"/>
<path d="M28.5499 8.12997C27.6399 8.12997 26.9465 7.94364 26.4699 7.57097C26.0019 7.18964 25.7679 6.6783 25.7679 6.03697C25.7679 5.36097 26.0452 4.82364 26.5999 4.42497C27.1632 4.01764 28.0429 3.81397 29.2389 3.81397C30.0362 3.81397 30.6429 3.77497 31.0589 3.69697C31.4749 3.61897 31.7522 3.51064 31.8909 3.37197C32.0295 3.22464 32.0989 3.02964 32.0989 2.78697C32.0989 2.55297 32.0165 2.34497 31.8519 2.16297C31.6872 1.9723 31.4099 1.82064 31.0199 1.70797C30.6385 1.58664 30.1402 1.52597 29.5249 1.52597C28.8749 1.52597 28.2422 1.61697 27.6269 1.79897C27.0202 1.9723 26.5392 2.17164 26.1839 2.39697V1.49997C26.4785 1.30064 26.9335 1.12297 27.5489 0.96697C28.1642 0.802304 28.8359 0.719971 29.5639 0.719971C30.3785 0.719971 31.0415 0.810971 31.5529 0.99297C32.0642 1.17497 32.4325 1.4263 32.6579 1.74697C32.8919 2.06764 33.0089 2.4403 33.0089 2.86497V7.99997H32.0989V6.79097C31.9082 6.99897 31.6395 7.20697 31.2929 7.41497C30.9462 7.62297 30.5345 7.7963 30.0579 7.93497C29.5899 8.06497 29.0872 8.12997 28.5499 8.12997ZM28.7579 7.32397C29.2865 7.32397 29.7762 7.25464 30.2269 7.11597C30.6775 6.96864 31.0589 6.79097 31.3709 6.58297C31.6915 6.3663 31.9342 6.14964 32.0989 5.93297V3.98297C32.0555 4.06964 31.9168 4.16064 31.6828 4.25597C31.4575 4.34264 31.1325 4.4163 30.7079 4.47697C30.2919 4.52897 29.7892 4.55497 29.1999 4.55497C28.3245 4.55497 27.6832 4.6893 27.2759 4.95797C26.8772 5.22664 26.6779 5.5733 26.6779 5.99797C26.6779 6.4053 26.8469 6.7303 27.1849 6.97297C27.5315 7.20697 28.0559 7.32397 28.7579 7.32397Z" fill="#363636" fill-opacity="0.7"/>
<path d="M37.2162 7.99997V1.68197L33.9142 1.68197V0.84997L41.4282 0.84997V1.68197L38.1262 1.68197V7.99997H37.2162Z" fill="#363636" fill-opacity="0.7"/>
<path d="M42.4018 7.99997V0.84997L43.3118 0.84997V7.03797H43.3768L48.0828 0.84997L49.3178 0.84997V7.99997H48.4078V1.81197H48.3428L43.6368 7.99997H42.4018Z" fill="#363636" fill-opacity="0.7"/>
<path d="M51.2727 7.99997V0.84997L55.2767 0.84997C55.9094 0.84997 56.4381 0.936637 56.8627 1.10997C57.2961 1.2833 57.6167 1.5173 57.8247 1.81197C58.0327 2.09797 58.1367 2.42297 58.1367 2.78697C58.1367 3.0903 58.0587 3.37197 57.9027 3.63197C57.7554 3.8833 57.5431 4.0913 57.2657 4.25597C56.9884 4.42064 56.6677 4.51597 56.3037 4.54197V4.60697C56.9104 4.6503 57.3654 4.8193 57.6687 5.11397C57.9807 5.39997 58.1367 5.75964 58.1367 6.19297C58.1367 6.72164 57.9157 7.15497 57.4737 7.49297C57.0317 7.83097 56.3817 7.99997 55.5237 7.99997L51.2727 7.99997ZM55.4717 7.16797C56.0697 7.16797 56.5117 7.0683 56.7977 6.86897C57.0837 6.66964 57.2267 6.40964 57.2267 6.08897C57.2267 5.75964 57.0837 5.4953 56.7977 5.29597C56.5204 5.09664 56.0784 4.99697 55.4717 4.99697L52.0267 4.99697V4.16497H55.2377C55.9224 4.16497 56.4251 4.0523 56.7457 3.82697C57.0664 3.60164 57.2267 3.2983 57.2267 2.91697C57.2267 2.5443 57.0664 2.2453 56.7457 2.01997C56.4251 1.79464 55.9224 1.68197 55.2377 1.68197L52.1827 1.68197V7.16797L55.4717 7.16797Z" fill="#363636" fill-opacity="0.7"/>
<path d="M65.9348 7.99997V0.84997L66.8448 0.84997V7.99997H65.9348ZM59.8898 7.99997V0.84997L60.7998 0.84997V7.99997H59.8898ZM60.6438 4.72397V3.89197L66.0908 3.89197V4.72397L60.6438 4.72397Z" fill="#363636" fill-opacity="0.7"/>
<path d="M72.7639 8.12997C71.8885 8.12997 71.1259 7.96964 70.4759 7.64897C69.8345 7.3283 69.3405 6.8863 68.9939 6.32297C68.6472 5.75964 68.4739 5.12697 68.4739 4.42497C68.4739 3.72297 68.6472 3.0903 68.9939 2.52697C69.3405 1.96364 69.8345 1.52164 70.4759 1.20097C71.1259 0.880304 71.8885 0.719971 72.7639 0.719971C73.6392 0.719971 74.3975 0.880304 75.0389 1.20097C75.6889 1.52164 76.1872 1.96364 76.5339 2.52697C76.8805 3.0903 77.0539 3.72297 77.0539 4.42497C77.0539 5.12697 76.8805 5.75964 76.5339 6.32297C76.1872 6.8863 75.6889 7.3283 75.0389 7.64897C74.3975 7.96964 73.6392 8.12997 72.7639 8.12997ZM72.7639 7.32397C73.4745 7.32397 74.0812 7.20264 74.5839 6.95997C75.0952 6.7173 75.4809 6.3793 75.7409 5.94597C76.0095 5.50397 76.1439 4.99697 76.1439 4.42497C76.1439 3.85297 76.0095 3.3503 75.7409 2.91697C75.4809 2.47497 75.0952 2.13264 74.5839 1.88997C74.0812 1.6473 73.4745 1.52597 72.7639 1.52597C72.0532 1.52597 71.4422 1.6473 70.9309 1.88997C70.4282 2.13264 70.0425 2.47497 69.7739 2.91697C69.5139 3.3503 69.3839 3.85297 69.3839 4.42497C69.3839 4.99697 69.5139 5.50397 69.7739 5.94597C70.0425 6.3793 70.4282 6.7173 70.9309 6.95997C71.4422 7.20264 72.0532 7.32397 72.7639 7.32397Z" fill="#363636" fill-opacity="0.7"/>
<path d="M82.5728 8.12997C81.7148 8.12997 80.9651 7.96964 80.3238 7.64897C79.6911 7.3283 79.2014 6.89064 78.8548 6.33597C78.5168 5.77264 78.3478 5.13564 78.3478 4.42497C78.3478 3.72297 78.5124 3.0903 78.8418 2.52697C79.1711 1.96364 79.6261 1.52164 80.2068 1.20097C80.7961 0.880304 81.4634 0.719971 82.2088 0.719971C82.9368 0.719971 83.5868 0.880304 84.1588 1.20097C84.7308 1.51297 85.1728 1.95064 85.4848 2.51397C85.8054 3.06864 85.9658 3.70564 85.9658 4.42497V4.84097L79.2578 4.84097C79.3184 5.33497 79.4874 5.7683 79.7648 6.14097C80.0508 6.51364 80.4321 6.80397 80.9088 7.01197C81.3941 7.21997 81.9488 7.32397 82.5728 7.32397C83.1534 7.32397 83.6994 7.2373 84.2108 7.06397C84.7308 6.89064 85.1294 6.69564 85.4068 6.47897V7.37597C85.1294 7.56664 84.7308 7.73997 84.2108 7.89597C83.6994 8.05197 83.1534 8.12997 82.5728 8.12997ZM85.0558 4.00897C85.0124 3.5583 84.8738 3.14664 84.6398 2.77397C84.4058 2.39264 84.0808 2.0893 83.6648 1.86397C83.2574 1.63864 82.7851 1.52597 82.2478 1.52597C81.6844 1.52597 81.1818 1.6343 80.7398 1.85097C80.3064 2.06764 79.9598 2.36664 79.6998 2.74797C79.4398 3.12064 79.2924 3.54097 79.2578 4.00897L85.0558 4.00897Z" fill="#363636" fill-opacity="0.7"/>
<path d="M93.754 8.12997C92.844 8.12997 92.1507 7.94364 91.674 7.57097C91.206 7.18964 90.972 6.6783 90.972 6.03697C90.972 5.36097 91.2493 4.82364 91.804 4.42497C92.3673 4.01764 93.247 3.81397 94.443 3.81397C95.2403 3.81397 95.847 3.77497 96.263 3.69697C96.679 3.61897 96.9563 3.51064 97.095 3.37197C97.2337 3.22464 97.303 3.02964 97.303 2.78697C97.303 2.55297 97.2207 2.34497 97.056 2.16297C96.8913 1.9723 96.614 1.82064 96.224 1.70797C95.8427 1.58664 95.3443 1.52597 94.729 1.52597C94.079 1.52597 93.4463 1.61697 92.831 1.79897C92.2243 1.9723 91.7433 2.17164 91.388 2.39697V1.49997C91.6827 1.30064 92.1377 1.12297 92.753 0.96697C93.3683 0.802304 94.04 0.719971 94.768 0.719971C95.5827 0.719971 96.2457 0.810971 96.757 0.99297C97.2683 1.17497 97.6367 1.4263 97.862 1.74697C98.096 2.06764 98.213 2.4403 98.213 2.86497V7.99997H97.303V6.79097C97.1123 6.99897 96.8437 7.20697 96.497 7.41497C96.1503 7.62297 95.7387 7.7963 95.262 7.93497C94.794 8.06497 94.2913 8.12997 93.754 8.12997ZM93.962 7.32397C94.4907 7.32397 94.9803 7.25464 95.431 7.11597C95.8817 6.96864 96.263 6.79097 96.575 6.58297C96.8957 6.3663 97.1383 6.14964 97.303 5.93297V3.98297C97.2597 4.06964 97.121 4.16064 96.887 4.25597C96.6617 4.34264 96.3367 4.4163 95.912 4.47697C95.496 4.52897 94.9933 4.55497 94.404 4.55497C93.5287 4.55497 92.8873 4.6893 92.48 4.95797C92.0813 5.22664 91.882 5.5733 91.882 5.99797C91.882 6.4053 92.051 6.7303 92.389 6.97297C92.7357 7.20697 93.26 7.32397 93.962 7.32397Z" fill="#363636" fill-opacity="0.7"/>
<path d="M100.093 7.99997V0.84997L105.865 0.84997V1.68197L101.003 1.68197V7.99997H100.093Z" fill="#363636" fill-opacity="0.7"/>
<path d="M110.414 8.12997C109.556 8.12997 108.806 7.96964 108.165 7.64897C107.532 7.3283 107.043 6.89064 106.696 6.33597C106.358 5.77264 106.189 5.13564 106.189 4.42497C106.189 3.72297 106.354 3.0903 106.683 2.52697C107.012 1.96364 107.467 1.52164 108.048 1.20097C108.637 0.880304 109.305 0.719971 110.05 0.719971C110.778 0.719971 111.428 0.880304 112 1.20097C112.572 1.51297 113.014 1.95064 113.326 2.51397C113.647 3.06864 113.807 3.70564 113.807 4.42497V4.84097L107.099 4.84097C107.16 5.33497 107.329 5.7683 107.606 6.14097C107.892 6.51364 108.273 6.80397 108.75 7.01197C109.235 7.21997 109.79 7.32397 110.414 7.32397C110.995 7.32397 111.541 7.2373 112.052 7.06397C112.572 6.89064 112.971 6.69564 113.248 6.47897V7.37597C112.971 7.56664 112.572 7.73997 112.052 7.89597C111.541 8.05197 110.995 8.12997 110.414 8.12997ZM112.897 4.00897C112.854 3.5583 112.715 3.14664 112.481 2.77397C112.247 2.39264 111.922 2.0893 111.506 1.86397C111.099 1.63864 110.626 1.52597 110.089 1.52597C109.526 1.52597 109.023 1.6343 108.581 1.85097C108.148 2.06764 107.801 2.36664 107.541 2.74797C107.281 3.12064 107.134 3.54097 107.099 4.00897H112.897Z" fill="#363636" fill-opacity="0.7"/>
<path d="M121.481 7.99997V0.84997L122.391 0.84997V7.99997H121.481ZM115.436 7.99997V0.84997L116.346 0.84997V7.99997H115.436ZM116.19 4.72397V3.89197L121.637 3.89197V4.72397L116.19 4.72397Z" fill="#363636" fill-opacity="0.7"/>
<path d="M126.672 7.99997V1.68197L123.37 1.68197V0.84997L130.884 0.84997V1.68197L127.582 1.68197V7.99997H126.672Z" fill="#363636" fill-opacity="0.7"/>
<path d="M135.426 8.12997C134.62 8.12997 133.9 7.96964 133.268 7.64897C132.644 7.3283 132.154 6.8863 131.799 6.32297C131.452 5.75964 131.279 5.12697 131.279 4.42497C131.279 3.72297 131.452 3.0903 131.799 2.52697C132.154 1.96364 132.652 1.52164 133.294 1.20097C133.935 0.880304 134.68 0.719971 135.53 0.719971C136.145 0.719971 136.708 0.793636 137.22 0.940969C137.731 1.0883 138.169 1.26597 138.533 1.47397V2.38397C138.169 2.14997 137.731 1.95064 137.22 1.78597C136.708 1.61264 136.145 1.52597 135.53 1.52597C134.845 1.52597 134.251 1.6473 133.749 1.88997C133.246 2.13264 132.86 2.47497 132.592 2.91697C132.323 3.3503 132.189 3.85297 132.189 4.42497C132.189 4.9883 132.323 5.49097 132.592 5.93297C132.86 6.3663 133.237 6.70864 133.723 6.95997C134.217 7.20264 134.784 7.32397 135.426 7.32397C136.041 7.32397 136.604 7.24597 137.116 7.08997C137.636 6.93397 138.021 6.76064 138.273 6.56997V7.44097C138.013 7.62297 137.623 7.7833 137.103 7.92197C136.591 8.06064 136.032 8.12997 135.426 8.12997Z" fill="#363636" fill-opacity="0.7"/>
<path d="M142.421 7.99997V1.68197L139.119 1.68197V0.84997L146.633 0.84997V1.68197L143.331 1.68197V7.99997H142.421Z" fill="#363636" fill-opacity="0.7"/>
<path d="M147.606 7.99997V0.84997L151.61 0.84997C152.243 0.84997 152.772 0.936637 153.196 1.10997C153.63 1.2833 153.95 1.5173 154.158 1.81197C154.366 2.09797 154.47 2.42297 154.47 2.78697C154.47 3.0903 154.392 3.37197 154.236 3.63197C154.089 3.8833 153.877 4.0913 153.599 4.25597C153.322 4.42064 153.001 4.51597 152.637 4.54197V4.60697C153.244 4.6503 153.699 4.8193 154.002 5.11397C154.314 5.39997 154.47 5.75964 154.47 6.19297C154.47 6.72164 154.249 7.15497 153.807 7.49297C153.365 7.83097 152.715 7.99997 151.857 7.99997H147.606ZM151.805 7.16797C152.403 7.16797 152.845 7.0683 153.131 6.86897C153.417 6.66964 153.56 6.40964 153.56 6.08897C153.56 5.75964 153.417 5.4953 153.131 5.29597C152.854 5.09664 152.412 4.99697 151.805 4.99697H148.36V4.16497L151.571 4.16497C152.256 4.16497 152.759 4.0523 153.079 3.82697C153.4 3.60164 153.56 3.2983 153.56 2.91697C153.56 2.5443 153.4 2.2453 153.079 2.01997C152.759 1.79464 152.256 1.68197 151.571 1.68197L148.516 1.68197V7.16797H151.805Z" fill="#363636" fill-opacity="0.7"/>
<path d="M160.188 8.12997C159.313 8.12997 158.55 7.96964 157.9 7.64897C157.259 7.3283 156.765 6.8863 156.418 6.32297C156.072 5.75964 155.898 5.12697 155.898 4.42497C155.898 3.72297 156.072 3.0903 156.418 2.52697C156.765 1.96364 157.259 1.52164 157.9 1.20097C158.55 0.880304 159.313 0.719971 160.188 0.719971C161.064 0.719971 161.822 0.880304 162.463 1.20097C163.113 1.52164 163.612 1.96364 163.958 2.52697C164.305 3.0903 164.478 3.72297 164.478 4.42497C164.478 5.12697 164.305 5.75964 163.958 6.32297C163.612 6.8863 163.113 7.3283 162.463 7.64897C161.822 7.96964 161.064 8.12997 160.188 8.12997ZM160.188 7.32397C160.899 7.32397 161.506 7.20264 162.008 6.95997C162.52 6.7173 162.905 6.3793 163.165 5.94597C163.434 5.50397 163.568 4.99697 163.568 4.42497C163.568 3.85297 163.434 3.3503 163.165 2.91697C162.905 2.47497 162.52 2.13264 162.008 1.88997C161.506 1.6473 160.899 1.52597 160.188 1.52597C159.478 1.52597 158.867 1.6473 158.355 1.88997C157.853 2.13264 157.467 2.47497 157.198 2.91697C156.938 3.3503 156.808 3.85297 156.808 4.42497C156.808 4.99697 156.938 5.50397 157.198 5.94597C157.467 6.3793 157.853 6.7173 158.355 6.95997C158.867 7.20264 159.478 7.32397 160.188 7.32397Z" fill="#363636" fill-opacity="0.7"/>
</svg>
