<svg width="885" height="849" fill="none" xmlns="http://www.w3.org/2000/svg"><path d="M864 339c11.685 187.415-105.678 348.406-328 380-222.322 31.594-412.315-106.585-424-294C100.315 237.585 221.379 88.8 443.701 57.206 666.023 25.612 852.315 151.585 864 339z" fill="url(#paint0_linear_11_77)"/><g filter="url(#filter0_b_11_77)"><path d="M843.321 376.113C855.859 577.207 748.459 748.544 506 783 263.541 817.456 34.538 676.094 22 475 9.462 273.906 139.148 108.843 381.608 74.387 624.067 39.932 830.783 175.02 843.321 376.113z" fill="#96FFC0" fill-opacity=".01"/></g><defs><linearGradient id="paint0_linear_11_77" x1="828.852" y1="221.592" x2="157.325" y2="627.211" gradientUnits="userSpaceOnUse"><stop offset=".141" stop-color="#96FFC0"/><stop offset="1" stop-color="#93F8BB" stop-opacity="0"/></linearGradient><filter id="filter0_b_11_77" x="-28.831" y="19.022" width="923.133" height="819.158" filterUnits="userSpaceOnUse" color-interpolation-filters="sRGB"><feFlood flood-opacity="0" result="BackgroundImageFix"/><feGaussianBlur in="BackgroundImageFix" stdDeviation="25"/><feComposite in2="SourceAlpha" operator="in" result="effect1_backgroundBlur_11_77"/><feBlend in="SourceGraphic" in2="effect1_backgroundBlur_11_77" result="shape"/></filter></defs></svg>