<svg width="216" height="72" fill="none" xmlns="http://www.w3.org/2000/svg"><path d="M.531 65.1L.518 53.519l33.844-12.81-.001-.89L.489 26.986.476 15.502 53.463 35.44l.01 9.603L.532 65.1zM92.2 71.434c-6.203.007-11.913-.746-17.129-2.258-5.15-1.513-9.045-3.158-11.687-4.937l-.015-12.87c2.775 2.109 6.638 4.051 11.59 5.828 4.952 1.71 10.233 2.562 15.843 2.556 4.29-.005 7.886-.537 10.789-1.596 2.903-1.06 5.046-2.414 6.43-4.066 1.385-1.652 2.076-3.434 2.073-5.348-.002-1.848-.697-3.597-2.084-5.245-1.322-1.715-3.37-3.098-6.143-4.151-2.707-1.053-6.074-1.577-10.1-1.573-3.828.004-7.16.536-9.997 1.595-2.77 1.06-4.716 2.25-5.837 3.57l-11.088.013 2.824-41.781 52.272-.058.014 12.375-40.392.045-1.167 18.316h.495c1.253-.86 3.265-1.621 6.036-2.284 2.837-.664 6.104-.997 9.8-1.001 6.336-.007 11.749.977 16.239 2.952 4.556 1.909 7.991 4.479 10.305 7.71 2.313 3.232 3.472 6.761 3.477 10.59.004 3.827-1.213 7.393-3.651 10.695-2.439 3.237-6.132 5.881-11.08 7.933-4.881 1.985-10.82 2.982-17.816 2.99zm83.108-.093c-7.986.009-15.083-1.567-21.29-4.728-6.142-3.161-10.899-7.446-14.271-12.854-3.372-5.409-5.061-11.413-5.069-18.013-.007-6.6 1.669-12.608 5.029-18.023 3.36-5.416 8.108-9.711 14.242-12.886 6.2-3.175 13.294-4.767 21.28-4.776 7.986-.009 15.049 1.567 21.191 4.729 6.207 3.16 10.997 7.445 14.369 12.854 3.372 5.408 5.062 11.412 5.069 18.012.008 6.6-1.669 12.608-5.029 18.024-3.36 5.415-8.14 9.71-14.34 12.886-6.135 3.174-13.195 4.766-21.181 4.775zm-.013-11.682c5.082-.005 9.602-1.033 13.56-3.084 3.957-2.116 6.99-4.99 9.098-8.623 2.174-3.633 3.258-7.726 3.253-12.28-.005-4.554-1.098-8.644-3.28-12.272-2.116-3.628-5.156-6.462-9.118-8.504-3.962-2.107-8.484-3.159-13.566-3.153-5.082.006-9.602 1.067-13.56 3.183-3.958 2.05-7.023 4.892-9.197 8.525-2.108 3.632-3.16 7.725-3.155 12.279.005 4.554 1.066 8.645 3.182 12.273 2.182 3.627 5.254 6.495 9.217 8.602 3.962 2.042 8.484 3.06 13.566 3.054z" fill="#363636"/></svg>