<svg width="264" height="91" fill="none" xmlns="http://www.w3.org/2000/svg"><path d="M.657 28.065l-.01-9.164 64.987 24.172.01 9.28L.711 76.785l-.01-9.28 57.745-21.06.003 2.668L.657 28.065zm94.64-25.973l61.249-.068.01 9.048-57.304.064 4.52-3.37-4.828 39.33-3.712.12c1.93-2.786 4.48-5.34 7.647-7.664 3.246-2.401 7.033-4.339 11.362-5.813 4.329-1.474 9.084-2.214 14.266-2.22 7.656-.008 14.076 1.3 19.26 3.923 5.184 2.623 9.093 6.138 11.728 10.543 2.711 4.405 4.07 9.352 4.076 14.843.007 5.8-1.573 10.944-4.739 15.433-3.165 4.412-7.608 7.897-13.328 10.455-5.72 2.559-12.446 3.842-20.18 3.85-7.888.01-14.694-1.143-20.42-3.457-5.725-2.39-10.291-5.595-13.698-9.612-3.33-4.018-5.462-8.54-6.395-13.565l11.02-.013c1.243 5.335 4.38 9.585 9.41 12.75 5.107 3.165 11.798 4.743 20.073 4.734 5.491-.006 10.246-.862 14.265-2.568 4.097-1.706 7.265-4.068 9.504-7.087 2.317-3.096 3.473-6.732 3.468-10.908-.004-4.098-1.014-7.655-3.028-10.668-2.014-3.091-4.916-5.485-8.708-7.183-3.714-1.697-8.277-2.542-13.691-2.536-4.717.005-8.969.667-12.757 1.986-3.788 1.241-7.073 2.83-9.855 4.767-2.782 1.936-5.06 3.988-6.837 6.155l-8.584.01 6.207-51.279zm124.084 88.37c-9.28.01-17.286-1.837-24.018-5.541-6.655-3.782-11.765-9.035-15.33-15.76-3.564-6.723-5.352-14.61-5.362-23.657-.01-9.048 1.76-16.938 5.31-23.67 3.55-6.732 8.648-11.958 15.294-15.677 6.724-3.797 14.726-5.7 24.006-5.71 9.28-.011 17.247 1.875 23.902 5.656 6.655 3.705 11.765 8.92 15.33 15.643 3.565 6.725 5.352 14.61 5.362 23.659.01 8.97-1.76 16.86-5.31 23.67-3.549 6.731-8.648 11.996-15.294 15.792-6.647 3.72-14.61 5.585-23.89 5.595zm-.126-9.28c10.595-.012 18.827-3.153 24.697-9.423 5.871-6.27 8.8-15.051 8.787-26.342-.012-11.29-2.961-20.065-8.845-26.322-5.885-6.335-14.124-9.497-24.719-9.485-10.517.012-18.711 3.192-24.581 9.54-5.871 6.27-8.799 15.05-8.787 26.341.013 11.291 2.961 20.065 8.845 26.323 5.885 6.257 14.086 9.38 24.603 9.368z" fill="#363636"/></svg>