<svg width="127" height="71" fill="none" xmlns="http://www.w3.org/2000/svg"><path d="M.531 64.1L.518 52.519l33.844-12.81-.001-.89L.489 25.986.476 14.502 53.463 34.44l.01 9.603L.532 64.1zm92.759 6.332c-7.26.008-13.4-.975-18.418-2.95-5.018-1.974-8.783-4.576-11.294-7.808-2.446-3.297-3.671-6.794-3.675-10.49-.004-3.233.686-6.27 2.069-9.11 1.449-2.84 3.491-5.845 6.128-9.016L94.102.141 110.14.124 86.61 28.068v.495c.594-.265 1.65-.497 3.167-.697 1.518-.2 3.267-.3 5.247-.303 6.798-.007 12.574.976 17.328 2.951s8.321 4.61 10.701 7.908c2.38 3.232 3.571 6.794 3.576 10.688.004 3.696-1.246 7.196-3.751 10.498-2.438 3.237-6.164 5.848-11.178 7.834-5.014 1.986-11.151 2.982-18.41 2.99zm-.013-10.89c4.092-.004 7.524-.536 10.295-1.595 2.836-1.06 4.947-2.415 6.331-4.066 1.384-1.652 2.075-3.368 2.073-5.15-.002-1.782-.697-3.498-2.084-5.146-1.388-1.649-3.502-3-6.341-4.052-2.773-1.053-6.206-1.577-10.298-1.573-4.092.005-7.556.537-10.393 1.596-2.77 1.059-4.848 2.414-6.232 4.066-1.385 1.651-2.076 3.368-2.074 5.15.002 1.782.697 3.497 2.085 5.146 1.388 1.648 3.469 2.999 6.242 4.052 2.839 1.053 6.304 1.577 10.396 1.572z" fill="#363636"/></svg>