<svg width="172" height="91" fill="none" xmlns="http://www.w3.org/2000/svg"><path d="M128.936.846c12.219-.014 21.694 2.025 28.427 6.116 6.81 4.014 10.219 9.694 10.227 17.04.007 6.806-3.157 12.145-9.494 16.02-6.338 3.796-15.229 5.623-26.674 5.48l-.003-2.435c12.682-.633 22.466 1.019 29.353 4.955 6.965 3.936 10.451 9.771 10.46 17.505.009 7.965-3.658 14.194-10.999 18.688-7.342 4.416-17.741 6.632-31.197 6.647-13.456.014-23.898-2.178-31.327-6.578-7.352-4.477-11.032-10.698-11.041-18.663-.009-7.734 3.465-13.576 10.42-17.528 6.956-4.03 16.737-5.703 29.343-5.02l.003 2.435c-11.291.168-20.148-1.64-26.57-5.422-6.346-3.86-9.523-9.192-9.53-15.997-.008-7.347 3.35-13.035 10.073-17.064 6.801-4.106 16.31-6.166 28.529-6.18zm.09 80.968c9.976-.012 17.669-1.45 23.079-4.318 5.488-2.945 8.228-7.085 8.222-12.421-.006-5.491-2.717-9.548-8.133-12.171-5.339-2.701-13.074-4.046-23.205-4.035-10.208.012-17.978 1.374-23.311 4.086-5.333 2.713-7.996 6.776-7.99 12.19.005 5.335 2.717 9.47 8.133 12.402 5.494 2.856 13.229 4.278 23.205 4.267zm-.047-41.876c5.646-.007 10.556-.592 14.731-1.757 4.174-1.164 7.382-2.87 9.622-5.115 2.24-2.322 3.358-5.146 3.354-8.471-.005-4.64-2.445-8.272-7.32-10.896-4.875-2.624-11.681-3.931-20.42-3.921-8.739.01-15.543 1.332-20.412 3.966-4.869 2.635-7.301 6.272-7.296 10.912.004 3.326 1.129 6.147 3.374 8.465 2.245 2.24 5.418 3.938 9.518 5.093 4.177 1.155 9.127 1.73 14.849 1.724zM.657 28.364L.647 19.2l64.987 24.172.01 9.28L.711 77.084l-.01-9.28 57.744-21.06.003 2.668L.657 28.364z" fill="#363636"/></svg>