<svg width="30" height="30" fill="none" xmlns="http://www.w3.org/2000/svg"><path fill-rule="evenodd" clip-rule="evenodd" d="M26.115 15.346L13.767 27.693l1.501 1.501 12.348-12.347-1.501-1.501z" fill="#fff"/><path fill-rule="evenodd" clip-rule="evenodd" d="M15.268 29.682l12.836-12.835-1.99-1.99L13.28 27.694l1.99 1.99zm0-.976l-1.013-1.013 11.86-11.86 1.013 1.014-11.86 11.86z" fill="#fff"/><path fill-rule="evenodd" clip-rule="evenodd" d="M14.106 3.338l13.51 13.51 1.371-1.373L15.478 1.966l-1.372 1.372z" fill="#fff"/><path fill-rule="evenodd" clip-rule="evenodd" d="M29.475 15.475L15.478 1.478l-1.86 1.86 13.997 13.997 1.86-1.86zm-.976 0l-.884.884-13.02-13.02.883-.885L28.5 15.475z" fill="#fff"/><path fill-rule="evenodd" clip-rule="evenodd" d="M1.79 16.167l25.795.199-.167-2.034-25.796-.199.167 2.034z" fill="#fff"/><path fill-rule="evenodd" clip-rule="evenodd" d="M27.735 13.991l-26.486-.204.223 2.721 26.486.204-.223-2.72zm-.634.683l.11 1.345-25.105-.193-.11-1.346 25.105.194z" fill="#fff"/></svg>