<svg width="43" height="43" fill="none" xmlns="http://www.w3.org/2000/svg"><path fill-rule="evenodd" clip-rule="evenodd" d="M4.869 21.485L22.76 39.376l-2.175 2.175L2.695 23.66l2.174-2.175z" fill="#fff"/><path fill-rule="evenodd" clip-rule="evenodd" d="M20.585 42.258L1.988 23.66l2.882-2.882 18.599 18.598-2.883 2.882zm0-1.414l1.468-1.468L4.87 22.192 3.401 23.66l17.184 17.184z" fill="#fff"/><path fill-rule="evenodd" clip-rule="evenodd" d="M22.269 4.087L2.695 23.66.707 21.672 20.281 2.1l1.988 1.988z" fill="#fff"/><path fill-rule="evenodd" clip-rule="evenodd" d="M0 21.672l20.28-20.28 2.696 2.695-20.281 20.28L0 21.672zm1.414 0l1.281 1.281L21.562 4.087 20.28 2.806 1.414 21.673z" fill="#fff"/><path fill-rule="evenodd" clip-rule="evenodd" d="M40.116 22.675l-37.376.288.241-2.947 37.377-.288-.242 2.947z" fill="#fff"/><path fill-rule="evenodd" clip-rule="evenodd" d="M2.522 19.522l38.377-.296-.324 3.943-38.376.296.323-3.943zm.918.989l-.16 1.95 36.377-.28.16-1.95-36.377.28z" fill="#fff"/></svg>