<svg width="22" height="16" fill="none" xmlns="http://www.w3.org/2000/svg"><path d="M21.267 10.91v.726H22v-.727h-.733zM.733.726V0H0v.727h.733zm0 14.546H0V16h.733v-.727zm11-4.364c0 2.812 2.299 5.091 5.134 5.091v-1.454c-2.025 0-3.667-1.629-3.667-3.637h-1.467zm5.134-5.09c-2.835 0-5.134 2.278-5.134 5.09H13.2c0-2.008 1.642-3.636 3.667-3.636V5.818zM22 10.908c0-2.812-2.298-5.09-5.133-5.09v1.454c2.025 0 3.666 1.628 3.666 3.636H22zm-2.16 2.13a3.67 3.67 0 01-2.973 1.507V16a5.142 5.142 0 004.16-2.108l-1.188-.853zM.732 1.455H4.4V0H.733v1.455zM4.4 7.273H.733v1.454H4.4V7.273zM1.467 8V.727H0V8h1.467zm5.866-3.636c0 1.606-1.313 2.909-2.933 2.909v1.454c2.43 0 4.4-1.953 4.4-4.363H7.333zM4.4 1.454c1.62 0 2.933 1.303 2.933 2.91H8.8C8.8 1.954 6.83 0 4.4 0v1.455zM.733 8.728h5.134V7.273H.733v1.454zm5.134 5.819H.733V16h5.134v-1.454zm-4.4.727V8H0v7.273h1.467zM8.8 11.636c0 1.607-1.313 2.91-2.933 2.91V16c2.43 0 4.4-1.954 4.4-4.364H8.8zM5.867 8.727c1.62 0 2.933 1.303 2.933 2.91h1.467c0-2.41-1.97-4.364-4.4-4.364v1.454zm6.6 2.91h8.8v-1.455h-8.8v1.454zm.733-8.728h7.333V1.455H13.2v1.454z" fill="#fff"/></svg>