<svg width="666" height="95" fill="none" xmlns="http://www.w3.org/2000/svg"><path d="M25.927 94.147c-5.76.006-10.017-1.333-12.772-4.018-2.691-2.621-4.04-6.716-4.046-12.284l-.02-18.528c-.003-2.048-.549-3.551-1.638-4.51-1.025-1.023-2.657-1.533-4.897-1.53l-2.112.002-.012-10.56 2.112-.002c2.24-.003 3.871-.517 4.894-1.542 1.087-1.025 1.63-2.562 1.627-4.61l-.021-19.2C9.036 11.797 10.375 7.7 13.06 5.073c2.749-2.691 7.004-4.04 12.763-4.046l4.992-.006.013 11.04-3.84.005c-3.968.004-5.95 2.086-5.945 6.246l.02 18.24c.004 3.776-.857 6.561-2.583 8.355-1.662 1.73-4.253 2.597-7.773 2.6l.001.96c3.52-.003 6.113.89 7.78 2.68 1.73 1.726 2.596 4.445 2.6 8.157l.02 17.568c.005 4.16 1.99 6.238 5.959 6.233l3.84-.004.012 11.04-4.992.006zm39.531-18.284l-.059-52.8 13.44-.015.026 22.944h.096l27.622-22.975 17.856-.02-31.651 25.667 31.614 27.133-17.76.02-27.675-24.45h-.096l.027 24.48-13.44.016zm93.831.855c-7.04.008-13.122-1.17-18.244-3.531-5.059-2.427-8.935-5.718-11.627-9.875-2.629-4.157-3.946-8.796-3.952-13.916-.006-5.12 1.301-9.761 3.921-13.924 2.683-4.163 6.551-7.432 11.605-9.805 5.117-2.438 11.196-3.66 18.236-3.669 7.04-.008 13.089 1.202 18.148 3.628 5.122 2.362 8.998 5.622 11.627 9.78 2.692 4.156 4.041 8.795 4.047 13.915.006 5.12-1.333 9.761-4.016 13.924-2.62 4.163-6.488 7.463-11.605 9.901-5.054 2.374-11.1 3.564-18.14 3.572zm-.012-10.56c4.224-.004 7.807-.712 10.749-2.124 3.007-1.411 5.277-3.398 6.81-5.96 1.533-2.56 2.298-5.474 2.294-8.738-.004-3.264-.775-6.175-2.314-8.733-1.538-2.559-3.813-4.54-6.822-5.945-2.946-1.404-6.531-2.104-10.755-2.1-4.224.005-7.839.713-10.845 2.124-2.943 1.412-5.18 3.398-6.714 5.96-1.533 2.562-2.297 5.474-2.294 8.738.004 3.264.775 6.176 2.314 8.734 1.539 2.558 3.781 4.54 6.726 5.944 3.01 1.405 6.627 2.105 10.851 2.1zm88.015 9.502l-.059-52.8 13.44-.014.059 52.8-13.44.014zm-44.16.05l-.059-52.8 13.44-.015.059 52.8-13.44.015zm11.88-21.614l-.013-11.04 33.792-.037.013 11.04-33.792.037zm75.237 21.517l-.047-41.76-23.232.026-.012-11.04 59.904-.067.012 11.04-23.232.026.047 41.76-13.44.015zm60.918.892c-6.592.007-11.65-1.395-15.173-4.207-3.523-2.876-5.287-6.586-5.292-11.13-.006-5.056 2.102-9.09 6.322-12.103 4.221-3.013 10.907-4.525 20.059-4.535 5.376-.006 9.44-.234 12.192-.685 2.751-.451 4.574-1.03 5.47-1.734.895-.77 1.342-1.698 1.341-2.786-.002-1.152-.515-2.207-1.54-3.166-.961-1.023-2.658-1.821-5.091-2.395-2.368-.637-5.601-.953-9.697-.949-4.8.006-9.567.683-14.301 2.032-4.671 1.285-8.381 2.761-11.131 4.429l-.013-11.712c2.366-1.475 5.948-2.791 10.747-3.948 4.799-1.222 10.014-1.835 15.646-1.842 6.848-.007 12.417.754 16.707 2.286 4.289 1.467 7.364 3.543 9.223 6.23 1.923 2.685 2.886 5.916 2.89 9.692l.04 35.52-13.44.015-.009-8.16h-.288c-1.279 1.41-3.133 2.82-5.563 4.23-2.367 1.411-5.214 2.598-8.541 3.562-3.263.9-6.782 1.352-10.558 1.356zm4.788-10.566c3.264-.003 6.24-.358 8.927-1.065 2.751-.707 5.054-1.606 6.909-2.696 1.919-1.09 3.358-2.18 4.316-3.269l-.011-10.176c-.831.449-1.791.866-2.879 1.251-1.087.386-2.847.771-5.278 1.158-2.432.323-5.632.518-9.6.587-4.864.07-8.383.777-10.557 2.124-2.111 1.346-3.165 3.075-3.162 5.187.002 1.984.932 3.647 2.789 4.989 1.922 1.278 4.77 1.915 8.546 1.91zm44.64 9.551l-.058-52.8 13.44-.015.025 22.944h.096l27.623-22.975 17.856-.02-31.652 25.667 31.614 27.133-17.76.02-27.675-24.45h-.096l.027 24.48-13.44.016z" fill="#fff"/><path d="M481.9 75.4l-.047-41.76-23.232.025-.012-11.04 59.904-.066.012 11.04-23.232.026.047 41.76-13.44.014zm76.142-35.413c7.488-.009 13.186 1.617 17.093 4.877 3.972 3.195 5.96 7.449 5.966 12.761.006 5.312-1.973 9.602-5.937 12.87-3.901 3.205-9.595 4.811-17.083 4.82l-33.312.037-.059-52.8 13.44-.015.029 26.208.019 16.512 18.432-.02c3.52-.005 6.143-.68 7.87-2.025 1.79-1.41 2.684-3.268 2.681-5.572-.002-2.303-.9-4.127-2.694-5.468-1.729-1.407-4.354-2.108-7.874-2.104l-20.16.023-.011-10.08 21.6-.024zm29.319 35.295l-.059-52.8 13.44-.015.059 52.8-13.44.015zm47.99 18.187l-.013-11.04 3.84-.005c3.968-.004 5.95-2.086 5.945-6.246l-.019-17.568c-.004-3.712.825-6.433 2.487-8.163 1.726-1.794 4.349-2.693 7.869-2.697l-.001-.96c-3.52.004-6.145-.857-7.875-2.583-1.666-1.79-2.501-4.573-2.506-8.35l-.02-18.24c-.004-4.16-1.991-6.237-5.959-6.233l-3.84.005-.012-11.04 4.992-.006c5.76-.006 9.985 1.333 12.676 4.018 2.755 2.621 4.136 6.715 4.142 12.284l.021 19.2c.003 2.047.516 3.583 1.542 4.606 1.089 1.023 2.753 1.533 4.993 1.53l2.112-.002.012 10.56-2.112.002c-2.24.003-3.903.517-4.99 1.542-1.023.96-1.534 2.465-1.531 4.514l.02 18.527c.007 5.569-1.365 9.666-4.114 12.293-2.685 2.691-6.907 4.04-12.667 4.046l-4.992.006z" fill="#fff"/></svg>