<svg width="59" height="15" fill="none" xmlns="http://www.w3.org/2000/svg"><path d="M18.026 5.799a1.223 1.223 0 100-2.446 1.223 1.223 0 000 2.446zm40.351 4.178c-.186-.13-.33-.152-.449.102-2.053 4.447-5.514 2.228-5.17 2.423.768-.35 2.786-1.97 2.481-4.205-.185-1.367-1.358-1.973-2.602-1.756-2.173.38-2.972 2.723-2.565 4.797.071.357.198.65.325.938-2.455 1.997-3.43-1.787-3.54-2.24-.005-.023 1.895-1.607 2.424-5.381.554-3.956-.708-4.676-1.999-4.653-2.387.041-3.032 5.03-2.166 9.187-.072.02-.41.206-.953.227-.39-1.229-2.06-2.306-2.497-1.891-1.093 1.039.266 3.07 1.221 3.229-.574 3.536-4.165 2.66-3.496-1.77 1.17-2.172 2.059-5.401 1.9-7.35-.056-.69-.567-1.615-1.72-1.57-2.22.088-2.462 5.078-2.201 8.62-.013-.087-.137.43-1.046.687-.215-1.194-2.138-2.392-2.59-1.816-.848 1.078.62 3.002 1.316 3.136-.574 3.536-4.165 2.66-3.497-1.77 1.17-2.172 2.059-5.4 1.9-7.35-.056-.69-.566-1.615-1.72-1.57-2.22.089-2.461 5.078-2.2 8.62-.014-.088-.14.446-1.087.7-.032-1.55-1.962-2.26-2.425-1.766-.826.881.189 2.689 1.128 3.136-.574 3.536-4.165 2.66-3.496-1.77 1.17-2.172 2.059-5.4 1.9-7.35-.056-.69-.567-1.615-1.72-1.57-2.22.089-2.399 5.33-2.138 8.87-.732 3.133-3.183 7.045-2.865-.791.032-.55.066-.758-.208-.964-.205-.16-.672-.083-.927-.077-.31.013-.388.194-.457.469-.16.708-.188 1.395-.211 2.332-.015.438-.05.643-.22 1.24-.168.598-1.13 1.69-1.656 1.508-.73-.252-.491-2.314-.354-3.731.114-1.12-.251-1.623-1.187-1.806-.548-.114-.881-.096-1.452-.276-.54-.17-.662-1.191-1.812-.85-.63.185-.225 1.52-.377 2.508-.743 4.863-2.291 4.996-3.01 2.634C10.195 3.147 7.896.025 6.55.025c-1.401 0-3.003.965-2.325 7.14-.33-.096-.43-.148-.792-.148C1.391 7.017 0 8.668 0 10.704c0 2.037 1.391 3.687 3.433 3.687 1.205 0 2.052-.548 2.693-1.396.418.599.927 1.405 1.858 1.37 2.776-.109 3.583-5.803 3.678-6.12.297.046.578.132.852.178.456.068.49.25.48.708-.122 3.873.593 5.228 2.214 5.228.903 0 1.708-.887 2.262-1.521.414.855 1.074 1.495 1.96 1.521 2.145.054 2.966-3.366 2.892-2.916-.06.354.695 2.897 2.904 2.906 2.736.012 3.244-2.997 3.305-3.5.01-.09.008-.101 0 0l-.002.03c.868-.162 1.317-.627 1.317-.627s.697 4.144 3.28 4.097c2.683-.048 3.189-2.768 3.255-3.298.014-.111.009-.126 0 0v.016c1.03-.376 1.302-.752 1.302-.752s.555 4.062 3.281 4.097c2.43.032 3.33-2.456 3.335-3.498.41.005 1.168-.243 1.15-.257 0 0 .89 3.552 3.376 3.734 1.166.086 2.042-.656 2.54-.995 1.173.95 5.078 2.163 7.544-2.018.348-.6-.4-1.308-.532-1.4zM3.335 13.012c-1.192 0-1.956-1.101-1.956-2.29 0-1.187.702-2.288 1.893-2.288.536 0 .834.059 1.252.422.075.298.29.986.394 1.299.14.418.307.774.474 1.162-.24.993-1.025 1.695-2.057 1.695zm2.902-4.121c-.049-.08-.039-.03-.094-.105-.218-.594-.64-1.92-.688-3.426-.055-1.704.229-3.7 1.066-3.7.567 0 1.17 4.046-.284 7.23zm16.774-1.775c-.134-1.011-.141-5.518.94-5.394.598.242-.378 4.495-.94 5.394zm7.9 0c-.134-1.011-.14-5.518.941-5.394.597.242-.379 4.495-.94 5.394zm7.838.063c-.134-1.011-.141-5.518.94-5.394.598.242-.378 4.495-.94 5.394zm8.653-5.72c.99-.103.948 4.217-1.037 6.944-.256-.986-.649-6.606 1.037-6.945zm4.158 9.294c-.318-1.604.503-2.659 1.35-2.774.295-.047.724.144.809.503.14.675-.02 1.676-1.915 2.947.003.01-.174-.318-.244-.675z" fill="#fff"/></svg>