<svg width="218" height="44" fill="none" xmlns="http://www.w3.org/2000/svg"><path d="M53.17 23.42V10.1h2.52v1.296h.108c.324-.348.828-.678 1.512-.99.696-.324 1.506-.486 2.43-.486 1.068 0 2.01.222 2.826.666a4.815 4.815 0 011.926 1.836c.456.768.684 1.644.684 2.628 0 .984-.228 1.866-.684 2.646-.456.768-1.098 1.374-1.926 1.818-.816.444-1.758.666-2.826.666-.876 0-1.668-.15-2.376-.45-.708-.312-1.23-.654-1.566-1.026h-.108v4.716h-2.52zm5.85-5.22c.72 0 1.344-.132 1.872-.396.54-.276.954-.648 1.242-1.116.288-.48.432-1.026.432-1.638 0-.612-.144-1.152-.432-1.62a2.885 2.885 0 00-1.242-1.116c-.528-.276-1.152-.414-1.872-.414-.528 0-1.02.072-1.476.216-.456.132-.84.3-1.152.504-.312.204-.546.414-.702.63v3.6c.156.216.39.426.702.63.312.204.696.378 1.152.522.456.132.948.198 1.476.198zm12.316 1.98c-1.404 0-2.484-.348-3.24-1.044-.744-.708-1.116-1.68-1.116-2.916V10.1h2.52v5.796c0 .732.222 1.308.666 1.728.444.408 1.074.612 1.89.612.528 0 1.008-.084 1.44-.252.432-.18.792-.402 1.08-.666.288-.264.498-.534.63-.81V10.1h2.52V20h-2.52v-1.566h-.108c-.18.276-.45.552-.81.828-.348.264-.78.486-1.296.666a5.21 5.21 0 01-1.656.252zM79.88 20v-9.9h2.52v1.566h.108c.168-.276.402-.546.702-.81.3-.264.654-.486 1.062-.666.42-.18.858-.27 1.314-.27h1.008v2.43h-1.008c-.6 0-1.128.078-1.584.234-.444.144-.804.33-1.08.558-.264.228-.438.456-.522.684V20h-2.52zm13.673.18c-1.32 0-2.46-.222-3.42-.666-.948-.456-1.674-1.074-2.178-1.854a4.791 4.791 0 01-.738-2.61c0-.96.246-1.83.738-2.61.504-.78 1.23-1.392 2.178-1.836.96-.456 2.1-.684 3.42-.684 1.32 0 2.454.228 3.402.684.96.444 1.686 1.056 2.178 1.836.504.78.756 1.65.756 2.61s-.252 1.83-.756 2.61c-.492.78-1.218 1.398-2.178 1.854-.948.444-2.082.666-3.402.666zm0-1.98c.792 0 1.464-.132 2.016-.396.564-.264.99-.636 1.278-1.116.288-.48.432-1.026.432-1.638 0-.612-.144-1.158-.432-1.638-.288-.48-.714-.852-1.278-1.116-.552-.264-1.224-.396-2.016-.396s-1.47.132-2.034.396c-.552.264-.972.636-1.26 1.116a3.121 3.121 0 00-.432 1.638c0 .612.144 1.158.432 1.638.288.48.708.852 1.26 1.116.564.264 1.242.396 2.034.396zm8.221 1.8V7.04h2.52V20h-2.52zm10.738.18c-1.32 0-2.46-.222-3.42-.666-.948-.456-1.674-1.074-2.178-1.854a4.791 4.791 0 01-.738-2.61c0-.96.246-1.83.738-2.61.504-.78 1.23-1.392 2.178-1.836.96-.456 2.1-.684 3.42-.684 1.32 0 2.454.228 3.402.684.96.444 1.686 1.056 2.178 1.836.504.78.756 1.65.756 2.61s-.252 1.83-.756 2.61c-.492.78-1.218 1.398-2.178 1.854-.948.444-2.082.666-3.402.666zm0-1.98c.792 0 1.464-.132 2.016-.396.564-.264.99-.636 1.278-1.116.288-.48.432-1.026.432-1.638 0-.612-.144-1.158-.432-1.638-.288-.48-.714-.852-1.278-1.116-.552-.264-1.224-.396-2.016-.396s-1.47.132-2.034.396c-.552.264-.972.636-1.26 1.116a3.121 3.121 0 00-.432 1.638c0 .612.144 1.158.432 1.638.288.48.708.852 1.26 1.116.564.264 1.242.396 2.034.396zm13.657 5.4c-.936 0-1.83-.108-2.682-.324-.84-.216-1.488-.456-1.944-.72v-2.214c.456.3 1.08.57 1.872.81.792.252 1.62.378 2.484.378.876 0 1.608-.132 2.196-.396.6-.252 1.044-.618 1.332-1.098.288-.468.432-1.02.432-1.656v-.288h-.108c-.324.372-.846.708-1.566 1.008-.708.3-1.5.45-2.376.45-1.068 0-2.01-.21-2.826-.63-.804-.42-1.428-.996-1.872-1.728-.432-.732-.648-1.548-.648-2.448 0-.912.216-1.734.648-2.466.444-.732 1.068-1.308 1.872-1.728.816-.42 1.758-.63 2.826-.63.876 0 1.668.156 2.376.468.708.3 1.23.636 1.566 1.008h.108V10.1h2.52v8.28c0 1.032-.24 1.938-.72 2.718-.468.792-1.17 1.404-2.106 1.836-.924.444-2.052.666-3.384.666zm.324-6.03c.504 0 .978-.066 1.422-.198a4.58 4.58 0 001.17-.504c.336-.204.594-.414.774-.63V13.25c-.18-.216-.438-.426-.774-.63a4.58 4.58 0 00-1.17-.504 4.582 4.582 0 00-1.422-.216c-.744 0-1.374.12-1.89.36-.504.228-.888.558-1.152.99-.252.42-.378.918-.378 1.494 0 .564.126 1.062.378 1.494.264.42.648.75 1.152.99.516.228 1.146.342 1.89.342zm8.052 2.43v-9.9h2.52V20h-2.52zm1.26-10.62c-.504 0-.9-.12-1.188-.36-.288-.24-.432-.564-.432-.972 0-.408.144-.732.432-.972.288-.24.684-.36 1.188-.36.504 0 .9.12 1.188.36.288.24.432.564.432.972 0 .408-.144.732-.432.972-.288.24-.684.36-1.188.36zm9.261 10.8c-1.248 0-2.334-.222-3.258-.666-.924-.456-1.632-1.074-2.124-1.854a4.791 4.791 0 01-.738-2.61c0-.96.252-1.83.756-2.61.504-.78 1.23-1.392 2.178-1.836.96-.456 2.088-.684 3.384-.684a8.44 8.44 0 012.448.342c.756.216 1.386.468 1.89.756v2.124c-.516-.348-1.14-.642-1.872-.882a7.465 7.465 0 00-2.34-.36c-.828 0-1.53.132-2.106.396-.576.264-1.008.636-1.296 1.116-.288.468-.432 1.014-.432 1.638 0 .612.138 1.158.414 1.638.288.48.708.852 1.26 1.116.552.264 1.212.396 1.98.396.804 0 1.566-.114 2.286-.342.732-.228 1.314-.492 1.746-.792v2.124c-.444.252-1.038.48-1.782.684a9.022 9.022 0 01-2.394.306zm12.306 0c-1.32 0-2.46-.222-3.42-.666-.948-.456-1.674-1.074-2.178-1.854a4.791 4.791 0 01-.738-2.61c0-.96.246-1.83.738-2.61.504-.78 1.23-1.392 2.178-1.836.96-.456 2.1-.684 3.42-.684 1.32 0 2.454.228 3.402.684.96.444 1.686 1.056 2.178 1.836.504.78.756 1.65.756 2.61s-.252 1.83-.756 2.61c-.492.78-1.218 1.398-2.178 1.854-.948.444-2.082.666-3.402.666zm0-1.98c.792 0 1.464-.132 2.016-.396.564-.264.99-.636 1.278-1.116.288-.48.432-1.026.432-1.638 0-.612-.144-1.158-.432-1.638-.288-.48-.714-.852-1.278-1.116-.552-.264-1.224-.396-2.016-.396s-1.47.132-2.034.396c-.552.264-.972.636-1.26 1.116a3.121 3.121 0 00-.432 1.638c0 .612.144 1.158.432 1.638.288.48.708.852 1.26 1.116.564.264 1.242.396 2.034.396z" fill="#363636"/><path d="M53.04 39v-7.15h.91v3.25l4.485-3.25h1.339l-4.862 3.51L59.774 39h-1.339l-4.485-3.38V39h-.91zm7.576 2.47v-9.62h.91v1.105h.065c.269-.312.672-.594 1.21-.845a4.035 4.035 0 011.78-.39c.78 0 1.47.16 2.067.481a3.45 3.45 0 011.404 1.326c.33.555.494 1.187.494 1.898 0 .71-.165 1.348-.494 1.911-.33.555-.797.992-1.404 1.313-.598.32-1.287.481-2.067.481-.65 0-1.244-.126-1.78-.377-.538-.26-.941-.546-1.21-.858h-.065v3.575h-.91zm3.796-3.146c.659 0 1.23-.121 1.716-.364a2.734 2.734 0 001.118-1.027c.26-.442.39-.945.39-1.508 0-.563-.13-1.062-.39-1.495a2.623 2.623 0 00-1.118-1.027c-.485-.251-1.057-.377-1.716-.377a3.51 3.51 0 00-1.248.221 3.64 3.64 0 00-.988.559c-.277.225-.494.45-.65.676v2.886c.156.225.373.45.65.676.277.225.607.412.988.559.39.147.806.221 1.248.221zm9.724.806c-.858 0-1.608-.16-2.249-.481-.633-.32-1.122-.758-1.469-1.313-.338-.563-.507-1.2-.507-1.911 0-.702.165-1.335.494-1.898a3.523 3.523 0 011.365-1.326c.59-.32 1.257-.481 2.002-.481.728 0 1.378.16 1.95.481a3.28 3.28 0 011.326 1.313c.32.555.481 1.192.481 1.911v.416h-6.708c.06.494.23.927.507 1.3a2.84 2.84 0 001.144.871c.485.208 1.04.312 1.664.312a5.07 5.07 0 001.638-.26c.52-.173.919-.368 1.196-.585v.897c-.277.19-.676.364-1.196.52a5.586 5.586 0 01-1.638.234zm2.483-4.121a2.793 2.793 0 00-.416-1.235 2.533 2.533 0 00-.975-.91c-.407-.225-.88-.338-1.417-.338-.563 0-1.066.108-1.508.325-.433.217-.78.516-1.04.897-.26.373-.407.793-.442 1.261h5.798zm4.931 4.121c-.91 0-1.603-.186-2.08-.559-.468-.381-.702-.893-.702-1.534 0-.676.277-1.213.832-1.612.563-.407 1.443-.611 2.639-.611.797 0 1.404-.039 1.82-.117.416-.078.693-.186.832-.325.138-.147.208-.342.208-.585a.904.904 0 00-.247-.624c-.165-.19-.442-.342-.832-.455-.382-.121-.88-.182-1.495-.182-.65 0-1.283.091-1.898.273-.607.173-1.088.373-1.443.598V32.5c.294-.2.75-.377 1.365-.533a7.777 7.777 0 012.015-.247c.815 0 1.478.091 1.989.273.511.182.88.433 1.105.754.234.32.35.693.35 1.118V39h-.91v-1.209c-.19.208-.459.416-.805.624a5.243 5.243 0 01-1.235.52 5.61 5.61 0 01-1.508.195zm.208-.806c.529 0 1.018-.07 1.469-.208a4.68 4.68 0 001.144-.533c.32-.217.563-.433.728-.65v-1.95c-.044.087-.182.178-.416.273-.226.087-.55.16-.975.221a12.41 12.41 0 01-1.508.078c-.876 0-1.517.134-1.924.403-.399.269-.598.615-.598 1.04 0 .407.169.732.507.975.346.234.87.351 1.573.351zm8.458.676v-6.318h-3.302v-.832h7.514v.832h-3.302V39h-.91zm5.186 0v-7.15h.91v6.188h.065l4.706-6.188h1.235V39h-.91v-6.188h-.065L96.637 39h-1.235zm8.871 0v-7.15h4.004c.632 0 1.161.087 1.586.26.433.173.754.407.962.702.208.286.312.611.312.975 0 .303-.078.585-.234.845a1.77 1.77 0 01-.637.624 2.16 2.16 0 01-.962.286v.065c.606.043 1.061.212 1.365.507.312.286.468.646.468 1.079 0 .529-.221.962-.663 1.3-.442.338-1.092.507-1.95.507h-4.251zm4.199-.832c.598 0 1.04-.1 1.326-.299.286-.2.429-.46.429-.78 0-.33-.143-.594-.429-.793-.278-.2-.72-.299-1.326-.299h-3.445v-.832h3.211c.684 0 1.187-.113 1.508-.338a1.06 1.06 0 00.481-.91c0-.373-.161-.672-.481-.897-.321-.225-.824-.338-1.508-.338h-3.055v5.486h3.289zm10.463.832v-7.15h.91V39h-.91zm-6.045 0v-7.15h.91V39h-.91zm.754-3.276v-.832h5.447v.832h-5.447zm12.12 3.406c-.876 0-1.638-.16-2.288-.481-.642-.32-1.136-.763-1.482-1.326a3.545 3.545 0 01-.52-1.898c0-.702.173-1.335.52-1.898.346-.563.84-1.005 1.482-1.326.65-.32 1.412-.481 2.288-.481.875 0 1.634.16 2.275.481.65.32 1.148.763 1.495 1.326.346.563.52 1.196.52 1.898s-.174 1.335-.52 1.898c-.347.563-.845 1.005-1.495 1.326-.641.32-1.4.481-2.275.481zm0-.806c.71 0 1.317-.121 1.82-.364.511-.243.897-.58 1.157-1.014.268-.442.403-.949.403-1.521s-.135-1.075-.403-1.508c-.26-.442-.646-.784-1.157-1.027-.503-.243-1.11-.364-1.82-.364-.711 0-1.322.121-1.833.364a2.671 2.671 0 00-1.157 1.027c-.26.433-.39.936-.39 1.508s.13 1.079.39 1.521c.268.433.654.771 1.157 1.014.511.243 1.122.364 1.833.364zm9.809.806c-.858 0-1.608-.16-2.249-.481-.633-.32-1.123-.758-1.469-1.313-.338-.563-.507-1.2-.507-1.911 0-.702.164-1.335.494-1.898a3.518 3.518 0 011.365-1.326c.589-.32 1.256-.481 2.002-.481.728 0 1.378.16 1.95.481a3.28 3.28 0 011.326 1.313c.32.555.481 1.192.481 1.911v.416h-6.708c.06.494.229.927.507 1.3.286.373.667.663 1.144.871.485.208 1.04.312 1.664.312.58 0 1.126-.087 1.638-.26.52-.173.918-.368 1.196-.585v.897c-.278.19-.676.364-1.196.52a5.591 5.591 0 01-1.638.234zm2.483-4.121a2.8 2.8 0 00-.416-1.235 2.533 2.533 0 00-.975-.91c-.408-.225-.88-.338-1.417-.338-.564 0-1.066.108-1.508.325-.434.217-.78.516-1.04.897-.26.373-.408.793-.442 1.261h5.798zm8.698 4.121c-.91 0-1.603-.186-2.08-.559-.468-.381-.702-.893-.702-1.534 0-.676.277-1.213.832-1.612.563-.407 1.443-.611 2.639-.611.797 0 1.404-.039 1.82-.117.416-.078.693-.186.832-.325.139-.147.208-.342.208-.585a.902.902 0 00-.247-.624c-.165-.19-.442-.342-.832-.455-.381-.121-.88-.182-1.495-.182-.65 0-1.283.091-1.898.273-.607.173-1.088.373-1.443.598V32.5c.295-.2.75-.377 1.365-.533a7.776 7.776 0 012.015-.247c.815 0 1.478.091 1.989.273.511.182.88.433 1.105.754.234.32.351.693.351 1.118V39h-.91v-1.209a3.615 3.615 0 01-.806.624 5.243 5.243 0 01-1.235.52c-.468.13-.971.195-1.508.195zm.208-.806c.529 0 1.018-.07 1.469-.208a4.674 4.674 0 001.144-.533c.321-.217.563-.433.728-.65v-1.95c-.043.087-.182.178-.416.273-.225.087-.55.16-.975.221a12.41 12.41 0 01-1.508.078c-.875 0-1.517.134-1.924.403-.399.269-.598.615-.598 1.04 0 .407.169.732.507.975.347.234.871.351 1.573.351zm6.131.676v-7.15h5.772v.832h-4.862V39h-.91zm10.321.13c-.858 0-1.608-.16-2.249-.481-.633-.32-1.122-.758-1.469-1.313-.338-.563-.507-1.2-.507-1.911 0-.702.165-1.335.494-1.898a3.518 3.518 0 011.365-1.326c.589-.32 1.257-.481 2.002-.481.728 0 1.378.16 1.95.481a3.28 3.28 0 011.326 1.313c.321.555.481 1.192.481 1.911v.416h-6.708c.061.494.23.927.507 1.3.286.373.667.663 1.144.871.485.208 1.04.312 1.664.312.581 0 1.127-.087 1.638-.26.52-.173.919-.368 1.196-.585v.897c-.277.19-.676.364-1.196.52a5.582 5.582 0 01-1.638.234zm2.483-4.121a2.788 2.788 0 00-.416-1.235 2.533 2.533 0 00-.975-.91c-.407-.225-.88-.338-1.417-.338-.563 0-1.066.108-1.508.325a2.69 2.69 0 00-1.04.897c-.26.373-.407.793-.442 1.261h5.798zM174.481 39v-7.15h.91V39h-.91zm-6.045 0v-7.15h.91V39h-.91zm.754-3.276v-.832h5.447v.832h-5.447zM179.672 39v-6.318h-3.302v-.832h7.514v.832h-3.302V39h-.91zm8.754.13c-.806 0-1.526-.16-2.158-.481a3.69 3.69 0 01-1.469-1.326 3.545 3.545 0 01-.52-1.898c0-.702.173-1.335.52-1.898.355-.563.853-1.005 1.495-1.326.641-.32 1.386-.481 2.236-.481.615 0 1.178.074 1.69.221a6 6 0 011.313.533v.91a5.603 5.603 0 00-1.313-.598 5.242 5.242 0 00-1.69-.26c-.685 0-1.279.121-1.781.364a2.671 2.671 0 00-1.157 1.027c-.269.433-.403.936-.403 1.508 0 .563.134 1.066.403 1.508.268.433.645.776 1.131 1.027.494.243 1.061.364 1.703.364.615 0 1.178-.078 1.69-.234.52-.156.905-.33 1.157-.52v.871c-.26.182-.65.342-1.17.481a6.4 6.4 0 01-1.677.208zm6.995-.13v-6.318h-3.302v-.832h7.514v.832h-3.302V39h-.91zm5.185 0v-7.15h4.004c.633 0 1.162.087 1.586.26.434.173.754.407.962.702.208.286.312.611.312.975 0 .303-.078.585-.234.845a1.75 1.75 0 01-.637.624c-.277.165-.598.26-.962.286v.065c.607.043 1.062.212 1.365.507.312.286.468.646.468 1.079 0 .529-.221.962-.663 1.3-.442.338-1.092.507-1.95.507h-4.251zm4.199-.832c.598 0 1.04-.1 1.326-.299.286-.2.429-.46.429-.78 0-.33-.143-.594-.429-.793-.277-.2-.719-.299-1.326-.299h-3.445v-.832h3.211c.685 0 1.188-.113 1.508-.338.321-.225.481-.529.481-.91 0-.373-.16-.672-.481-.897-.32-.225-.823-.338-1.508-.338h-3.055v5.486h3.289zm8.383.962c-.875 0-1.638-.16-2.288-.481-.641-.32-1.135-.763-1.482-1.326a3.554 3.554 0 01-.52-1.898c0-.702.174-1.335.52-1.898.347-.563.841-1.005 1.482-1.326.65-.32 1.413-.481 2.288-.481.876 0 1.634.16 2.275.481.65.32 1.149.763 1.495 1.326.347.563.52 1.196.52 1.898s-.173 1.335-.52 1.898c-.346.563-.845 1.005-1.495 1.326-.641.32-1.399.481-2.275.481zm0-.806c.711 0 1.318-.121 1.82-.364.512-.243.897-.58 1.157-1.014.269-.442.403-.949.403-1.521s-.134-1.075-.403-1.508c-.26-.442-.645-.784-1.157-1.027-.502-.243-1.109-.364-1.82-.364-.71 0-1.321.121-1.833.364a2.683 2.683 0 00-1.157 1.027c-.26.433-.39.936-.39 1.508s.13 1.079.39 1.521c.269.433.655.771 1.157 1.014.512.243 1.123.364 1.833.364z" fill="#363636" fill-opacity=".7"/><path d="M22 0l.427 6.284a16.442 16.442 0 0015.29 15.289L44 22l-6.284.427a16.442 16.442 0 00-15.289 15.29L22 44l-.427-6.284a16.442 16.442 0 00-15.29-15.289L0 22l6.284-.427a16.442 16.442 0 0015.289-15.29L22 0z" fill="#FFADC6"/></svg>