<svg width="850" height="251" fill="none" xmlns="http://www.w3.org/2000/svg"><path d="M514.486 222.885l12.5 5.774 8.667 4.949-3 5.444-8.834-5.279-11.167-7.589 1.167 13.528v10.063h-6.334v-10.063l1.167-13.528-11.001 7.589-9 5.279-3-5.444 8.667-4.949 12.667-5.774-12.667-5.775-8.667-5.114 3-5.279 9 5.114 11.001 7.754-1.167-13.528v-10.228h6.334v10.228l-1.167 13.528 11.167-7.754 8.834-5.114 3 5.279-8.667 5.114-12.5 5.775zm-109.943-24.57l8.242-.009.057 51.153-8.242.009-.057-51.153zm43.836-.049l8.333-.009.056 51.153-8.332.009-.057-51.153zm-39.193 21.941l43.112-.048.008 6.814-43.112.048-.008-6.814zm-39.843 30.481c-5.857.007-11.051-1.108-15.582-3.344-4.471-2.297-8.007-5.442-10.608-9.437-2.54-4.056-3.813-8.718-3.819-13.988-.006-5.33 1.196-9.996 3.607-13.996 2.411-4.001 5.759-7.124 10.043-9.37 4.285-2.246 9.205-3.372 14.76-3.378 5.494-.006 10.296 1.2 14.404 3.618 4.109 2.419 7.283 5.837 9.522 10.257 2.299 4.358 3.452 9.445 3.458 15.26l-49.451.055-.008-6.633 45.92-.051-4.888 3.004c-.185-3.816-1.095-7.116-2.728-9.9-1.633-2.785-3.84-4.933-6.619-6.444-2.779-1.511-6.01-2.265-9.693-2.261-3.985.005-7.456.826-10.413 2.465-2.957 1.578-5.279 3.822-6.967 6.731-1.627 2.91-2.438 6.333-2.434 10.27.005 4.119.945 7.692 2.82 10.718 1.875 3.027 4.504 5.356 7.887 6.987 3.383 1.632 7.369 2.445 11.958 2.44a36.824 36.824 0 0012.225-2.103c4.044-1.398 7.665-3.31 10.862-5.736l.007 6.541c-3.137 2.548-6.878 4.581-11.224 6.1-4.345 1.459-8.692 2.19-13.039 2.195zm-35.892-20.584c-.66 4.059-2.316 7.634-4.97 10.727-2.593 3.092-5.911 5.518-9.954 7.279-4.044 1.761-8.511 2.645-13.402 2.65-5.676.006-10.689-1.109-15.038-3.345-4.35-2.297-7.765-5.443-10.245-9.438-2.42-4.055-3.633-8.718-3.639-13.988-.006-5.269 1.197-9.904 3.608-13.905 2.471-4.061 5.879-7.214 10.224-9.46 4.345-2.246 9.355-3.373 15.031-3.379 4.89-.005 9.36.868 13.407 2.62 4.047 1.692 7.371 4.08 9.971 7.167 2.66 3.086 4.324 6.688 4.993 10.806l-8.604.01c-.91-4.239-3.178-7.568-6.804-9.987-3.565-2.479-7.884-3.716-12.956-3.711-4.106.005-7.697.827-10.775 2.465-3.017 1.639-5.369 3.944-7.057 6.914-1.687 2.909-2.529 6.393-2.524 10.451.004 4.058.854 7.57 2.548 10.537 1.693 2.966 4.051 5.265 7.072 6.897 3.081 1.571 6.674 2.355 10.78 2.35 5.133-.006 9.479-1.252 13.038-3.74 3.62-2.487 5.851-5.791 6.692-9.911l8.604-.009zm-93.99 20.729c-5.977.007-11.262-1.108-15.853-3.344-4.531-2.236-8.067-5.381-10.608-9.437-2.54-4.055-3.813-8.718-3.819-13.988-.006-5.33 1.257-9.995 3.788-13.996 2.532-4.001 6.061-7.124 10.587-9.37 4.586-2.246 9.868-3.373 15.846-3.379 6.038-.007 11.323 1.107 15.854 3.344 4.531 2.236 8.066 5.351 10.607 9.346 2.601 3.995 3.904 8.657 3.91 13.988.006 5.269-1.287 9.935-3.879 13.996-2.532 4.061-6.06 7.215-10.587 9.461-4.526 2.246-9.808 3.373-15.846 3.379zm-.007-6.996c4.468-.005 8.331-.796 11.59-2.375 3.259-1.639 5.762-3.943 7.51-6.913 1.808-2.97 2.71-6.485 2.705-10.543-.004-3.998-.914-7.479-2.729-10.445-1.754-2.966-4.262-5.265-7.525-6.897-3.262-1.632-7.127-2.445-11.595-2.44-4.408.005-8.272.827-11.591 2.466-3.258 1.639-5.762 3.943-7.509 6.913-1.748 2.97-2.62 6.454-2.615 10.452.004 4.058.883 7.57 2.638 10.536 1.754 2.966 4.262 5.265 7.525 6.897 3.323 1.571 7.188 2.354 11.596 2.349zm-36.156-13.588c-.66 4.059-2.316 7.635-4.97 10.727-2.593 3.092-5.911 5.518-9.954 7.28-4.044 1.761-8.511 2.644-13.402 2.649-5.676.007-10.689-1.108-15.039-3.345-4.349-2.296-7.764-5.442-10.245-9.437-2.419-4.056-3.632-8.719-3.638-13.988-.006-5.27 1.197-9.905 3.608-13.905 2.471-4.061 5.879-7.215 10.224-9.461 4.344-2.246 9.355-3.372 15.031-3.379 4.89-.005 9.36.868 13.407 2.62 4.047 1.692 7.371 4.081 9.971 7.167 2.66 3.086 4.324 6.688 4.993 10.806l-8.604.01c-.91-4.239-3.178-7.568-6.804-9.987-3.565-2.479-7.884-3.716-12.956-3.71-4.106.004-7.697.826-10.775 2.465-3.017 1.639-5.369 3.943-7.057 6.913-1.687 2.909-2.529 6.393-2.524 10.451.004 4.059.854 7.571 2.547 10.537 1.694 2.966 4.052 5.265 7.073 6.897 3.081 1.572 6.674 2.355 10.78 2.35 5.133-.005 9.479-1.252 13.038-3.739 3.62-2.488 5.851-5.791 6.692-9.911l8.604-.01zM90.2 251c-5.072.006-9.57-.686-13.497-2.075-3.866-1.449-6.917-3.505-9.154-6.168-2.238-2.662-3.479-5.811-3.724-9.445l8.151-.009c.487 3.513 2.301 6.206 5.443 8.08 3.202 1.814 7.46 2.718 12.774 2.712 5.192-.006 9.237-.737 12.134-2.194 2.957-1.518 4.434-3.852 4.43-7.001-.003-2.605-1.213-4.511-3.629-5.72-2.356-1.27-6.13-1.901-11.324-1.896l-10.596.012-.007-6.269 10.325-.011c4.649-.006 8.09-.797 10.322-2.374 2.293-1.578 3.438-3.487 3.436-5.728-.004-2.786-1.395-4.905-4.174-6.355-2.719-1.512-6.282-2.265-10.69-2.26-4.83.005-8.784.858-11.862 2.557-3.077 1.639-4.886 4.125-5.426 7.457l-8.151.009c.359-3.211 1.593-6.089 3.704-8.636 2.11-2.546 5.037-4.548 8.778-6.006 3.743-1.458 8.18-2.19 13.312-2.196 4.71-.005 8.786.627 12.229 1.895 3.443 1.207 6.102 2.9 7.976 5.079 1.874 2.178 2.813 4.661 2.816 7.447.003 2.362-.72 4.513-2.166 6.453-1.387 1.94-3.529 3.487-6.426 4.641-2.836 1.154-6.459 1.734-10.866 1.739l-.002-1.545c6.581-.189 11.715.774 15.4 2.89 3.746 2.116 5.621 5.173 5.626 9.171.003 3.089-.99 5.816-2.98 8.18-1.93 2.364-4.766 4.215-8.508 5.552-3.742 1.337-8.3 2.008-13.674 2.014zM.275 249.919l-.057-51.152 8.242-.01.053 47.337-3.17-.451 38.983-46.926 10.778-.012.057 51.153-8.242.009-.053-47.791 3.261.542-39.255 47.289-10.597.012zm519.922-97.828c-5.856.007-11.051-1.108-15.582-3.344-4.47-2.297-7.976-5.442-10.516-9.437-2.48-3.995-3.723-8.658-3.729-13.988-.006-5.331 1.227-9.996 3.698-13.996 2.531-4.001 6.03-7.124 10.496-9.37 4.526-2.247 9.717-3.373 15.574-3.38 5.978-.006 11.202 1.109 15.673 3.345 4.531 2.236 8.036 5.351 10.516 9.346 2.541 3.995 3.814 8.658 3.82 13.988.005 5.27-1.257 9.935-3.789 13.996-2.471 4.061-5.97 7.215-10.496 9.461-4.465 2.246-9.687 3.373-15.665 3.379zm-49.724-1.125l-.057-51.153 8.332-.01.057 51.153-8.332.01zm4.413-22.447l-.008-6.814 20.379-.023.007 6.814-20.378.023zm45.304 16.576c4.468-.005 8.271-.827 11.409-2.466 3.198-1.639 5.671-3.943 7.419-6.913 1.748-2.97 2.619-6.454 2.615-10.451-.004-3.998-.884-7.48-2.638-10.446-1.755-2.966-4.233-5.265-7.435-6.897-3.141-1.632-6.946-2.445-11.414-2.44-4.287.004-8.06.826-11.319 2.465-3.198 1.639-5.671 3.944-7.419 6.914-1.748 2.97-2.619 6.454-2.615 10.451.004 3.998.884 7.48 2.638 10.446 1.754 2.966 4.233 5.265 7.435 6.897 3.262 1.632 7.037 2.445 11.324 2.44zm-101.536 22.101c-2.597.003-4.922-.327-6.975-.991-2.054-.664-4.078-1.631-6.072-2.901l-.007-6.633c1.994 1.27 3.927 2.207 5.8 2.81 1.872.604 4.016.904 6.431.902 2.596-.003 4.83-.611 6.7-1.825 1.871-1.153 3.439-3.063 4.704-5.729l25.391-52.998 8.876-.01-27.833 56.09c-1.266 2.606-2.773 4.728-4.522 6.365-1.689 1.698-3.589 2.942-5.702 3.731-2.052.79-4.316 1.186-6.791 1.189zm8.494-17.817l-24.238-49.49 9.148-.01 23.513 49.49-8.423.01zm-100.096 1.747l-.056-51.153 12.317-.014 24.326 47.673-4.347.005 24.129-47.727 12.318-.014.057 51.153-7.88.009-.054-48.791 2.807-.003-25.124 48.819-8.242.009-25.233-48.671 2.808-.004.054 48.7-7.88.009zm-18.481-26.419l.007 6.36-26.538.03-.09-.182c-3.623.004-6.794-.628-9.512-1.897-2.659-1.269-4.744-3.054-6.256-5.354-1.512-2.361-2.27-5.085-2.273-8.175-.003-3.028.748-5.694 2.255-7.998 1.507-2.364 3.588-4.183 6.244-5.458 2.715-1.336 5.885-2.005 9.507-2.009l32.425-.037.056 51.153-8.332.009-.054-48.517 3.174 3.812-25.994.029c-3.381.004-6.037.824-7.967 2.462-1.93 1.638-2.894 3.85-2.891 6.636.003 2.726.972 4.935 2.906 6.629 1.934 1.694 4.591 2.539 7.973 2.535l25.36-.028zm-15.304 2.47l-20.171 24.009-10.053.011 20.442-24.009 9.782-.011zm-95.54-27.06l8.332-.009.022 19.353-.451 1.636.009 8.268.456 2.634.038 34.253-8.333.009-.073-66.144zm4.466 25.526c1.323-5.331 3.34-9.998 6.053-13.998 2.773-4.001 6.09-7.124 9.952-9.37 3.923-2.245 8.239-3.37 12.948-3.376 5.012-.006 9.451 1.11 13.318 3.347 3.867 2.237 6.889 5.353 9.067 9.348 2.239 3.995 3.361 8.658 3.367 13.988.006 5.27-1.106 9.935-3.336 13.996-2.169 4-5.184 7.153-9.046 9.459-3.862 2.246-8.299 3.371-13.31 3.377-4.71.005-9.029-1.111-12.956-3.347-3.867-2.237-7.191-5.353-9.973-9.348-2.722-4.055-4.75-8.747-6.084-14.076zm46.191-.051c-.004-3.877-.823-7.298-2.456-10.264-1.574-2.967-3.78-5.266-6.62-6.898-2.779-1.693-5.95-2.537-9.513-2.534-3.622.005-6.973.856-10.05 2.556-3.017 1.639-5.702 3.943-8.053 6.914-2.352 2.97-4.31 6.395-5.876 10.273 1.574 3.875 3.54 7.295 5.899 10.261 2.358 2.965 5.047 5.294 8.068 6.987 3.081 1.632 6.433 2.446 10.056 2.442 3.563-.004 6.732-.826 9.507-2.464 2.836-1.699 5.038-4.034 6.604-7.004 1.627-2.969 2.439-6.393 2.434-10.269zm-63.22-25.461l.057 51.153-8.332.009-.054-48.245 3.808 3.812-42.84.048 3.891-3.821.053 48.246-8.332.009-.057-51.153 51.806-.058zm-71.82 51.233l-1.833-19.35 2.258-6.272-2.272-6.176 1.79-19.354 8.514-.01-2.326 25.534 2.383 25.619-8.514.009zm3.232-25.625c-1.322 5.332-3.37 10.028-6.143 14.09-2.713 4-6.03 7.123-9.952 9.369-3.862 2.245-8.148 3.371-12.858 3.376-5.011.006-9.45-1.11-13.317-3.347-3.867-2.297-6.92-5.444-9.159-9.439-2.178-4.056-3.27-8.718-3.276-13.988-.006-5.33 1.076-9.996 3.245-13.996 2.23-4 5.276-7.123 9.138-9.368 3.862-2.246 8.298-3.371 13.31-3.377 4.71-.005 8.998 1.111 12.865 3.348 3.927 2.236 7.282 5.352 10.063 9.347 2.782 3.994 4.81 8.656 6.084 13.985zm-46.19.051c.003 3.877.792 7.298 2.365 10.265 1.634 2.966 3.84 5.295 6.62 6.988 2.84 1.632 6.04 2.447 9.603 2.443 3.623-.004 6.943-.826 9.96-2.465 3.078-1.699 5.792-4.034 8.144-7.005 2.412-2.97 4.37-6.395 5.875-10.273-1.513-3.875-3.48-7.295-5.898-10.26-2.358-2.966-5.078-5.265-8.16-6.896-3.02-1.693-6.342-2.537-9.965-2.533-3.562.004-6.761.855-9.597 2.554-2.776 1.639-4.977 3.943-6.604 6.913-1.567 2.97-2.348 6.393-2.344 10.269zM.11 100.338l8.241-.009.057 51.152-8.242.009-.057-51.152zm43.836-.049l8.332-.009.057 51.152-8.333.01-.056-51.153zm-39.193 21.94l43.111-.048.008 6.815-43.112.048-.007-6.815zM819.564 3.811l8.332-.009.054 48.336-8.333.01-.053-48.337zM797.461 1.02l52.531-.058.008 6.814-52.531.059-.008-6.815zm-46.146 67.376c-2.597.003-4.922-.328-6.976-.992-2.053-.663-4.077-1.63-6.071-2.9l-.007-6.633c1.994 1.27 3.927 2.207 5.799 2.81 1.873.604 4.017.905 6.432.902 2.596-.003 4.83-.611 6.7-1.825 1.871-1.153 3.438-3.063 4.703-5.73l25.392-52.997 8.876-.01-27.834 56.09c-1.265 2.606-2.772 4.728-4.521 6.365-1.689 1.698-3.59 2.942-5.702 3.731-2.052.79-4.316 1.186-6.791 1.19zm8.493-17.817l-24.237-49.49 9.148-.01 23.513 49.49-8.424.01zM703.651 3.94l8.332-.009.054 48.336-8.333.01-.053-48.336zm-22.103-2.79l52.531-.059.008 6.814-52.531.06-.008-6.815zm-.842 31.709c-.66 4.059-2.316 7.634-4.969 10.726-2.593 3.093-5.912 5.519-9.955 7.28-4.044 1.761-8.511 2.645-13.402 2.65-5.676.006-10.688-1.109-15.038-3.345-4.35-2.297-7.765-5.443-10.245-9.438-2.42-4.055-3.633-8.718-3.639-13.988-.005-5.27 1.197-9.904 3.608-13.905 2.471-4.061 5.879-7.214 10.224-9.46C641.635 1.133 646.645.006 652.321 0c4.891-.005 9.36.868 13.407 2.62 4.048 1.691 7.371 4.08 9.971 7.167 2.66 3.086 4.325 6.688 4.994 10.806l-8.605.01c-.91-4.24-3.178-7.568-6.804-9.987-3.565-2.48-7.883-3.716-12.955-3.71-4.106.004-7.698.825-10.776 2.464-3.017 1.64-5.369 3.944-7.057 6.913-1.687 2.91-2.528 6.393-2.524 10.452.005 4.058.854 7.57 2.548 10.536 1.694 2.966 4.051 5.266 7.072 6.898 3.081 1.571 6.675 2.355 10.781 2.35 5.132-.006 9.478-1.252 13.038-3.74 3.62-2.487 5.85-5.79 6.691-9.91l8.604-.01zm-74.21 19.526l-1.833-19.35 2.257-6.272-2.271-6.176 1.79-19.355 8.514-.009-2.327 25.534 2.383 25.619-8.513.01zm3.232-25.625c-1.323 5.332-3.37 10.028-6.143 14.09-2.713 4-6.031 7.123-9.953 9.369-3.862 2.245-8.147 3.37-12.857 3.376-5.012.005-9.451-1.11-13.318-3.347-3.867-2.297-6.919-5.444-9.158-9.439-2.178-4.056-3.27-8.718-3.276-13.988-.006-5.33 1.076-9.996 3.245-13.996 2.23-4 5.276-7.123 9.137-9.368C571.267 1.21 575.704.086 580.716.08c4.709-.005 8.997 1.11 12.864 3.347 3.928 2.237 7.282 5.353 10.064 9.348 2.782 3.994 4.81 8.656 6.084 13.985zm-46.191.051c.004 3.877.793 7.298 2.366 10.264 1.634 2.967 3.84 5.296 6.619 6.99 2.84 1.631 6.041 2.446 9.604 2.442 3.622-.005 6.943-.826 9.96-2.465 3.077-1.7 5.792-4.034 8.143-7.005 2.412-2.97 4.371-6.395 5.876-10.273-1.514-3.875-3.48-7.295-5.899-10.26-2.358-2.966-5.077-5.265-8.159-6.897-3.02-1.692-6.342-2.536-9.965-2.532-3.563.004-6.762.855-9.598 2.554-2.775 1.639-4.977 3.943-6.604 6.913-1.566 2.97-2.348 6.393-2.343 10.27zM489.192 1.363l8.333-.009.021 19.353-.451 1.636.009 8.268.456 2.634.038 34.253-8.333.01-.073-66.145zm4.466 25.526c1.323-5.331 3.34-9.998 6.053-13.998 2.773-4.001 6.091-7.124 9.953-9.37 3.922-2.245 8.238-3.37 12.947-3.376 5.012-.006 9.451 1.11 13.318 3.347 3.867 2.237 6.889 5.353 9.067 9.348 2.239 3.995 3.361 8.658 3.367 13.988.006 5.27-1.106 9.935-3.335 13.996-2.17 4-5.185 7.153-9.047 9.46-3.862 2.245-8.299 3.37-13.31 3.376-4.71.005-9.028-1.11-12.956-3.347-3.866-2.237-7.191-5.353-9.973-9.348-2.721-4.055-4.749-8.747-6.084-14.076zm46.191-.051c-.004-3.877-.823-7.298-2.456-10.264-1.573-2.967-3.78-5.266-6.62-6.898-2.779-1.693-5.95-2.538-9.512-2.534-3.623.004-6.973.856-10.051 2.556-3.017 1.638-5.702 3.943-8.053 6.914-2.352 2.97-4.31 6.395-5.876 10.273 1.574 3.875 3.541 7.295 5.899 10.26 2.358 2.966 5.047 5.295 8.068 6.988 3.081 1.632 6.434 2.445 10.056 2.441 3.563-.003 6.732-.825 9.508-2.463 2.836-1.7 5.037-4.034 6.603-7.004 1.627-2.97 2.439-6.393 2.434-10.27zM444.105 1.414l8.332-.01.057 51.153-8.332.01-.057-51.153zm-55.644 51.214l-.057-51.152 8.332-.01.054 48.518-3.355-3.994 23.82-.026c3.623-.004 6.49-.916 8.601-2.736 2.111-1.88 3.165-4.395 3.162-7.544-.004-3.21-1.063-5.723-3.179-7.538-2.115-1.875-4.984-2.811-8.607-2.807l-23.186.026-.007-6.451 23.91-.027c3.925-.004 7.337.689 10.237 2.079 2.96 1.39 5.257 3.355 6.89 5.898 1.633 2.542 2.452 5.479 2.455 8.81.004 3.392-.808 6.361-2.435 8.907-1.628 2.546-3.92 4.517-6.877 5.913-2.897 1.397-6.308 2.097-10.232 2.101l-29.526.033zm-7.799-6.805l.023 20.08-7.427.008-.015-13.266-54.342.061.014 13.265-7.336.008-.022-20.079 11.14-.012 2.446.088 39.941-.045 2.446-.093 13.132-.015zm-57.38-44.274l47.731-.054.054 48.7-8.333.009-.051-45.792 3.899 3.812-38.855.043 3.53-2.73c.304 2.726.519 5.42.643 8.086.123 2.604.186 5.057.189 7.36.01 9.085-1.069 16.264-3.237 21.536-2.107 5.212-5.033 7.82-8.777 7.824l-3.445-2.995c5.068-3.822 7.594-13.122 7.577-27.902a147.979 147.979 0 00-.281-8.813 146.227 146.227 0 00-.644-9.084zM279.996 53.93c-5.978.007-11.262-1.107-15.853-3.343-4.532-2.236-8.067-5.382-10.608-9.438-2.54-4.055-3.813-8.718-3.819-13.987-.006-5.33 1.257-9.996 3.788-13.997 2.532-4 6.061-7.124 10.587-9.37 4.586-2.246 9.868-3.373 15.846-3.38 6.038-.006 11.322 1.109 15.853 3.345 4.531 2.236 8.067 5.351 10.608 9.346 2.6 3.995 3.904 8.658 3.91 13.988.005 5.27-1.288 9.935-3.879 13.996-2.532 4.061-6.061 7.215-10.587 9.461-4.526 2.246-9.808 3.373-15.846 3.38zm-.008-6.995c4.469-.005 8.332-.797 11.591-2.376 3.259-1.639 5.762-3.943 7.51-6.913 1.808-2.97 2.709-6.484 2.705-10.543-.004-3.997-.914-7.48-2.729-10.445-1.754-2.966-4.262-5.265-7.525-6.897-3.262-1.632-7.127-2.445-11.596-2.44-4.407.005-8.271.827-11.59 2.466-3.259 1.64-5.762 3.944-7.51 6.914-1.747 2.97-2.619 6.453-2.615 10.451.005 4.058.884 7.57 2.639 10.537 1.754 2.966 4.262 5.265 7.525 6.896 3.322 1.572 7.188 2.355 11.595 2.35zm-83.308 5.908l-.056-51.153 8.332-.01.049 43.612-2.537-.906 35.275-42.742 9.691-.01-43.055 51.2-7.699.008zm42.569-.048l-16.875-25.512 5.428-6.275 21.409 31.776-9.962.011zM137.298 54.09c-5.857.006-11.051-1.108-15.582-3.344-4.47-2.297-8.006-5.443-10.607-9.438-2.54-4.055-3.814-8.718-3.819-13.987-.006-5.33 1.196-9.996 3.607-13.997 2.411-4 5.758-7.123 10.043-9.369 4.284-2.246 9.204-3.372 14.759-3.378 5.495-.006 10.296 1.2 14.405 3.618s7.282 5.837 9.521 10.256c2.3 4.359 3.452 9.446 3.459 15.26l-49.452.056-.007-6.633 45.919-.051-4.887 3.004c-.186-3.816-1.095-7.116-2.728-9.9-1.634-2.785-3.84-4.933-6.619-6.444-2.779-1.512-6.011-2.265-9.694-2.261-3.985.005-7.456.826-10.413 2.465-2.957 1.578-5.279 3.822-6.966 6.731-1.627 2.91-2.439 6.332-2.434 10.27.004 4.119.944 7.691 2.819 10.718 1.876 3.026 4.505 5.355 7.888 6.987 3.383 1.632 7.369 2.445 11.958 2.44a36.806 36.806 0 0012.225-2.104c4.044-1.397 7.664-3.31 10.862-5.736l.007 6.542c-3.137 2.547-6.878 4.58-11.224 6.1-4.346 1.458-8.692 2.19-13.04 2.195zm-33.372-7.958l.022 20.08-7.426.007-.015-13.265-54.343.061.015 13.265-7.336.008-.022-20.08 11.14-.011 2.445.088 39.942-.045 2.445-.093 13.133-.015zM46.546 1.857l47.73-.053.055 48.7-8.333.009-.05-45.792 3.898 3.812-38.855.043 3.53-2.73c.304 2.726.518 5.42.642 8.086.124 2.604.187 5.057.19 7.36.01 9.085-1.07 16.264-3.237 21.536-2.108 5.211-5.033 7.82-8.777 7.823l-3.445-2.994c5.068-3.822 7.594-13.122 7.577-27.902a147.732 147.732 0 00-.281-8.812 146.225 146.225 0 00-.644-9.086zm-8.326.01l.008 6.814-33.782.038 3.89-3.82.053 48.154-8.332.009L0 1.909l38.22-.042z" fill="#363636"/></svg>