<svg width="1330" height="209" fill="none" xmlns="http://www.w3.org/2000/svg"><path d="M641.293 37.734l14 6.56 9.707 5.62-3.36 6.185-9.893-5.997-12.507-8.621 1.307 15.368v11.432h-7.094V56.85l1.307-15.368-12.32 8.62-10.08 5.998-3.36-6.185 9.707-5.622 14.186-6.56-14.186-6.559-9.707-5.81 3.36-5.996 10.08 5.81 12.32 8.808-1.307-15.368V6.998h7.094v11.62l-1.307 15.368 12.507-8.809 9.893-5.81 3.36 5.998-9.707 5.81-14 6.559zM1290.45 4.865l10.58-.012.07 61.18-10.58.012-.07-61.18zm-28.06-3.534l66.7-.074.01 8.625-66.7.074-.01-8.625zm-58.6 85.28c-3.29.004-6.24-.415-8.85-1.255-2.61-.84-5.18-2.064-7.71-3.671l-.01-8.395c2.53 1.607 4.99 2.792 7.36 3.556 2.38.764 5.1 1.145 8.17 1.141 3.3-.003 6.13-.773 8.51-2.31 2.37-1.459 4.36-3.876 5.97-7.25l32.24-67.082 11.27-.012-35.34 70.994c-1.61 3.299-3.52 5.984-5.74 8.056-2.15 2.15-4.56 3.724-7.24 4.724-2.61 1-5.48 1.5-8.63 1.504zm10.79-22.552l-30.77-62.64 11.61-.014 29.85 62.642-10.69.012zm-71.3-59.031l10.58-.011.06 61.18-10.58.011-.06-61.18zm-28.07-3.533l66.7-.075.01 8.626-66.7.074-.01-8.625zm-1.07 40.135c-.84 5.138-2.94 9.664-6.31 13.578-3.29 3.913-7.5 6.985-12.64 9.214-5.13 2.229-10.8 3.347-17.01 3.354-7.21.008-13.58-1.403-19.1-4.234-5.52-2.907-9.86-6.889-13.01-11.946-3.07-5.133-4.61-11.034-4.62-17.704 0-6.67 1.52-12.537 4.58-17.6 3.14-5.14 7.47-9.132 12.99-11.975 5.51-2.843 11.87-4.268 19.08-4.276 6.21-.007 11.89 1.098 17.02 3.316 5.14 2.14 9.36 5.164 12.66 9.07 3.38 3.907 5.5 8.466 6.34 13.679l-10.92.012c-1.16-5.365-4.04-9.579-8.64-12.64-4.53-3.139-10.01-4.704-16.45-4.697-5.21.006-9.77 1.046-13.68 3.12-3.83 2.074-6.82 4.991-8.96 8.75-2.14 3.682-3.21 8.092-3.21 13.229.01 5.136 1.09 9.582 3.24 13.336 2.15 3.754 5.14 6.664 8.98 8.73 3.91 1.989 8.47 2.98 13.69 2.975 6.51-.008 12.03-1.585 16.55-4.734 4.6-3.148 7.43-7.33 8.5-12.544l10.92-.012zm-94.22 24.716l-2.33-24.493 2.86-7.938-2.88-7.817 2.27-24.497 10.81-.012-2.95 32.318 3.02 32.427-10.8.012zm4.1-32.435c-1.68 6.748-4.28 12.693-7.8 17.834-3.45 5.064-7.66 9.017-12.64 11.859-4.902 2.842-10.343 4.266-16.323 4.273-6.364.007-12-1.405-16.91-4.236-4.91-2.908-8.786-6.89-11.628-11.947-2.766-5.134-4.153-11.036-4.16-17.706-.008-6.746 1.366-12.651 4.12-17.714 2.831-5.064 6.699-9.016 11.602-11.858 4.904-2.842 10.537-4.267 16.9-4.274 5.98-.007 11.425 1.406 16.339 4.237 4.98 2.83 9.24 6.774 12.77 11.83 3.54 5.057 6.11 10.957 7.73 17.702zm-58.651.065c.005 4.907 1.007 9.238 3.004 12.992 2.075 3.754 4.876 6.703 8.405 8.846 3.606 2.066 7.67 3.096 12.194 3.091 4.6-.005 8.815-1.045 12.648-3.12 3.91-2.15 7.35-5.106 10.34-8.866 3.06-3.76 5.55-8.094 7.46-13.003-1.92-4.904-4.42-9.233-7.49-12.987-2.99-3.753-6.45-6.662-10.36-8.728-3.836-2.142-8.054-3.211-12.654-3.206-4.523.005-8.585 1.083-12.186 3.234-3.525 2.074-6.32 4.99-8.386 8.749-1.989 3.759-2.981 8.092-2.975 12.998zm-94.397-32.21l10.58-.011.027 24.495-.572 2.07.011 10.465.579 3.335.048 43.355-10.58.011-.093-83.72zm5.671 32.309c1.679-6.749 4.241-12.655 7.685-17.719 3.521-5.064 7.734-9.016 12.637-11.859 4.98-2.842 10.46-4.266 16.44-4.273 6.364-.007 12 1.405 16.91 4.236 4.91 2.832 8.748 6.776 11.513 11.832 2.843 5.057 4.267 10.96 4.275 17.706.007 6.67-1.404 12.575-4.235 17.715-2.755 5.063-6.584 9.053-11.487 11.972-4.904 2.842-10.537 4.267-16.9 4.274-5.98.007-11.464-1.406-16.45-4.237-4.91-2.83-9.131-6.775-12.663-11.83-3.456-5.133-6.031-11.072-7.725-17.817zm58.65-.065c-.006-4.907-1.045-9.237-3.12-12.992-1.997-3.754-4.799-6.664-8.404-8.73-3.529-2.143-7.555-3.212-12.079-3.207-4.6.005-8.854 1.083-12.761 3.234-3.831 2.075-7.24 4.992-10.226 8.752-2.985 3.76-5.472 8.094-7.46 13.003 1.999 4.904 4.495 9.233 7.489 12.987 2.995 3.753 6.41 6.7 10.245 8.843 3.913 2.066 8.169 3.096 12.769 3.091 4.523-.005 8.547-1.044 12.071-3.118 3.601-2.151 6.396-5.106 8.385-8.865 2.066-3.759 3.096-8.092 3.091-12.998zm321.957 88.338l10.47-.011.07 64.745-10.46.011-.08-64.745zm55.66-.062l10.58-.011.08 64.745-10.58.011-.08-64.745zm-49.76 27.771l54.74-.061.01 8.625-54.74.061-.01-8.625zm-50.59 38.581c-7.44.008-14.03-1.403-19.79-4.233-5.67-2.907-10.16-6.889-13.46-11.945-3.23-5.133-4.85-11.034-4.85-17.704-.01-6.747 1.52-12.652 4.58-17.716 3.06-5.063 7.31-9.016 12.75-11.859s11.69-4.268 18.74-4.276c6.98-.007 13.07 1.519 18.29 4.58 5.22 3.061 9.25 7.388 12.09 12.982 2.92 5.516 4.38 11.955 4.39 19.315l-62.79.07-.01-8.395 58.31-.065-6.21 3.802c-.24-4.83-1.39-9.007-3.46-12.532-2.08-3.524-4.88-6.242-8.41-8.155-3.53-1.913-7.63-2.867-12.31-2.862-5.06.006-9.46 1.046-13.22 3.12-3.75 1.998-6.7 4.838-8.84 8.52-2.07 3.682-3.1 8.015-3.09 12.998 0 5.214 1.2 9.736 3.58 13.567 2.38 3.83 5.72 6.778 10.01 8.843 4.3 2.066 9.36 3.095 15.18 3.088 5.29-.005 10.47-.893 15.53-2.662 5.13-1.769 9.73-4.189 13.79-7.26l.01 8.28c-3.99 3.224-8.74 5.798-14.25 7.721-5.52 1.846-11.04 2.772-16.56 2.778zm-45.57-26.054c-.84 5.137-2.94 9.663-6.31 13.577-3.3 3.913-7.51 6.985-12.64 9.214-5.14 2.229-10.81 3.347-17.02 3.354-7.21.008-13.57-1.403-19.09-4.234-5.53-2.907-9.86-6.889-13.01-11.946-3.07-5.133-4.61-11.034-4.62-17.704-.01-6.67 1.52-12.537 4.58-17.6 3.14-5.141 7.46-9.132 12.98-11.975 5.52-2.843 11.88-4.268 19.09-4.276 6.21-.007 11.88 1.098 17.02 3.316 5.14 2.141 9.36 5.164 12.66 9.071 3.38 3.906 5.49 8.465 6.34 13.678l-10.93.012c-1.15-5.365-4.03-9.579-8.63-12.64-4.53-3.139-10.01-4.704-16.45-4.697-5.22.006-9.78 1.046-13.69 3.12-3.83 2.074-6.81 4.991-8.96 8.75-2.14 3.682-3.21 8.092-3.2 13.229 0 5.136 1.08 9.582 3.23 13.336 2.15 3.754 5.15 6.664 8.98 8.73 3.91 1.989 8.48 2.981 13.69 2.975 6.52-.007 12.04-1.585 16.56-4.734 4.59-3.148 7.42-7.33 8.49-12.544l10.93-.012zm-119.34 26.238c-7.59.008-14.3-1.403-20.13-4.233-5.76-2.83-10.25-6.812-13.47-11.945-3.23-5.133-4.84-11.035-4.85-17.705-.01-6.746 1.59-12.651 4.81-17.715 3.21-5.064 7.69-9.017 13.44-11.86 5.82-2.843 12.53-4.269 20.12-4.277 7.67-.009 14.38 1.402 20.13 4.232 5.75 2.831 10.24 6.774 13.47 11.83 3.3 5.057 4.96 10.958 4.96 17.705.01 6.67-1.63 12.575-4.92 17.715-3.22 5.141-7.7 9.132-13.44 11.975-5.75 2.843-12.46 4.269-20.12 4.278zm-.01-8.855c5.67-.007 10.57-1.009 14.71-3.007 4.14-2.074 7.32-4.991 9.54-8.75 2.29-3.76 3.44-8.208 3.43-13.344 0-5.06-1.16-9.467-3.46-13.221-2.23-3.755-5.41-6.664-9.56-8.73-4.14-2.065-9.05-3.095-14.72-3.088-5.6.006-10.5 1.046-14.72 3.121-4.13 2.075-7.31 4.992-9.53 8.751-2.22 3.759-3.33 8.168-3.32 13.228 0 5.137 1.12 9.582 3.35 13.337 2.23 3.754 5.41 6.664 9.55 8.729 4.22 1.989 9.13 2.98 14.73 2.974zm-45.91-17.199c-.84 5.137-2.943 9.663-6.312 13.577-3.292 3.913-7.505 6.985-12.639 9.214-5.135 2.229-10.807 3.347-17.017 3.354-7.206.008-13.571-1.404-19.094-4.234-5.524-2.907-9.86-6.889-13.009-11.946-3.072-5.133-4.612-11.035-4.619-17.705-.008-6.67 1.519-12.536 4.58-17.6 3.138-5.14 7.465-9.131 12.982-11.974 5.516-2.843 11.878-4.268 19.085-4.276 6.21-.007 11.884 1.098 17.024 3.316 5.139 2.141 9.359 5.164 12.66 9.071 3.377 3.906 5.489 8.465 6.339 13.678l-10.924.012c-1.156-5.366-4.036-9.579-8.639-12.641-4.527-3.138-10.01-4.703-16.45-4.696-5.214.005-9.774 1.046-13.682 3.12-3.831 2.074-6.818 4.991-8.96 8.75-2.143 3.682-3.211 8.092-3.205 13.228.005 5.137 1.084 9.583 3.234 13.337 2.151 3.754 5.145 6.664 8.98 8.73 3.912 1.989 8.475 2.98 13.688 2.975 6.517-.008 12.035-1.585 16.555-4.734 4.597-3.148 7.429-7.33 8.496-12.544l10.927-.012zm-143.604 26.264c-6.44.008-12.153-.868-17.138-2.626-4.909-1.834-8.783-4.436-11.624-7.807-2.84-3.37-4.416-7.355-4.728-11.954l10.35-.012c.618 4.446 2.922 7.855 6.911 10.227 4.066 2.296 9.473 3.44 16.219 3.432 6.594-.007 11.729-.933 15.407-2.777 3.755-1.921 5.63-4.874 5.625-8.861-.003-3.297-1.539-5.71-4.608-7.24-2.992-1.607-7.784-2.406-14.378-2.399l-13.454.015-.009-7.935 13.11-.014c5.903-.007 10.272-1.009 13.106-3.005 2.911-1.997 4.365-4.413 4.362-7.25-.004-3.527-1.77-6.208-5.299-8.044-3.452-1.913-7.976-2.866-13.573-2.86-6.133.007-11.154 1.086-15.061 3.237-3.908 2.074-6.204 5.22-6.89 9.438l-10.35.011c.456-4.064 2.023-7.707 4.703-10.93s6.395-5.757 11.147-7.603c4.751-1.845 10.385-2.771 16.902-2.778 5.98-.007 11.155.792 15.527 2.397 4.372 1.529 7.748 3.672 10.127 6.429 2.38 2.757 3.572 5.899 3.576 9.426.003 2.99-.914 5.713-2.751 8.168-1.761 2.455-4.48 4.413-8.158 5.874-3.602 1.461-8.201 2.194-13.798 2.201l-.002-1.955c8.356-.24 14.874.98 19.554 3.658 4.756 2.678 7.137 6.547 7.143 11.607.004 3.91-1.257 7.361-3.784 10.354-2.45 2.993-6.05 5.335-10.802 7.027-4.751 1.692-10.539 2.542-17.362 2.549zm-114.181-1.368l-.072-64.745 10.466-.011.066 59.915-4.025-.571 49.498-59.395 13.685-.015.072 64.745-10.465.011-.067-60.489 4.141.685-49.843 59.855-13.456.015zm-80.896 1.585c-7.436.009-14.031-1.402-19.785-4.233-5.676-2.907-10.127-6.888-13.353-11.945-3.149-5.056-4.727-10.958-4.735-17.704-.007-6.747 1.558-12.652 4.696-17.716 3.214-5.063 7.656-9.017 13.327-11.86 5.746-2.843 12.338-4.268 19.775-4.277 7.59-.008 14.223 1.403 19.9 4.233 5.753 2.831 10.204 6.774 13.353 11.83 3.225 5.057 4.842 10.958 4.849 17.705.008 6.67-1.596 12.575-4.81 17.715-3.138 5.141-7.58 9.132-13.327 11.975-5.67 2.843-12.3 4.269-19.89 4.277zm-63.136-1.424l-.072-64.745 10.58-.012.072 64.745-10.58.012zm5.603-28.412l-.01-8.625 25.875-.028.01 8.625-25.875.028zm57.523 20.981c5.674-.006 10.503-1.046 14.487-3.121 4.061-2.074 7.201-4.991 9.42-8.75 2.219-3.759 3.326-8.169 3.32-13.229-.005-5.06-1.122-9.467-3.349-13.221-2.228-3.754-5.374-6.664-9.44-8.73-3.989-2.065-8.82-3.095-14.493-3.089-5.444.007-10.234 1.047-14.372 3.121-4.061 2.075-7.201 4.992-9.42 8.751-2.219 3.759-3.326 8.169-3.321 13.229.006 5.06 1.123 9.467 3.35 13.221 2.228 3.754 5.374 6.664 9.44 8.729 4.142 2.066 8.935 3.095 14.378 3.089zm-128.922 27.974c-3.297.004-6.249-.415-8.857-1.255-2.607-.841-5.177-2.065-7.709-3.672l-.009-8.395c2.532 1.607 4.986 2.793 7.364 3.557 2.377.764 5.099 1.144 8.166 1.141 3.297-.004 6.133-.773 8.508-2.309 2.375-1.46 4.365-3.877 5.972-7.252l32.24-67.081 11.27-.013-35.341 70.995c-1.607 3.298-3.52 5.984-5.741 8.056-2.144 2.149-4.558 3.724-7.24 4.723-2.606 1-5.48 1.501-8.623 1.505zm10.785-22.552l-30.775-62.641 11.615-.013 29.855 62.642-10.695.012zm-127.094 2.211l-.072-64.745 15.64-.017 30.887 60.341-5.52.006 30.638-60.409 15.64-.018.072 64.745-10.005.011-.068-61.755 3.565-.003-31.902 61.79-10.465.012-32.038-61.605 3.565-.004.068 61.64-10.005.011zm-23.466-33.439l.009 8.05-33.695.038-.116-.23c-4.6.005-8.626-.795-12.077-2.402-3.375-1.606-6.023-3.865-7.943-6.776-1.92-2.988-2.882-6.437-2.886-10.347-.005-3.833.95-7.207 2.863-10.123 1.914-2.992 4.556-5.295 7.928-6.909 3.448-1.69 7.472-2.538 12.072-2.543l41.17-.046.072 64.745-10.58.012-.068-61.41 4.03 4.826-33.005.036c-4.293.005-7.666 1.044-10.117 3.117-2.451 2.072-3.674 4.872-3.67 8.399.004 3.45 1.233 6.247 3.689 8.39 2.456 2.144 5.83 3.214 10.124 3.209l32.2-.036zm-19.432 3.127l-25.611 30.389-12.765.014 25.956-30.389 12.42-.014zm-121.309-34.25l10.58-.012.027 24.495-.573 2.071.012 10.465.579 3.334.048 43.355-10.58.012-.093-83.72zm5.671 32.309c1.679-6.749 4.241-12.655 7.685-17.719 3.521-5.064 7.733-9.017 12.637-11.859 4.98-2.842 10.46-4.267 16.44-4.273 6.364-.007 12 1.405 16.91 4.236 4.91 2.831 8.747 6.775 11.513 11.832 2.842 5.057 4.267 10.959 4.275 17.705.007 6.67-1.405 12.575-4.235 17.715-2.755 5.063-6.584 9.054-11.487 11.973-4.904 2.842-10.537 4.267-16.9 4.274-5.98.006-11.464-1.406-16.45-4.237-4.91-2.831-9.131-6.775-12.663-11.831-3.456-5.133-6.031-11.072-7.725-17.816zm58.65-.066c-.006-4.906-1.045-9.237-3.12-12.991-1.997-3.755-4.799-6.665-8.404-8.731-3.529-2.143-7.556-3.211-12.079-3.206-4.6.005-8.854 1.083-12.761 3.234-3.831 2.074-7.24 4.991-10.226 8.751-2.985 3.76-5.472 8.095-7.46 13.004 1.999 4.904 4.495 9.233 7.489 12.986 2.994 3.754 6.409 6.701 10.245 8.844 3.912 2.065 8.169 3.096 12.769 3.091 4.523-.005 8.547-1.045 12.071-3.119 3.601-2.15 6.396-5.105 8.385-8.864 2.066-3.759 3.096-8.092 3.091-12.999zm-80.272-32.225l.072 64.745-10.58.011-.068-61.065 4.835 4.825-54.394.061 4.939-4.836.068 61.065-10.58.012-.072-64.745 65.78-.073zm-91.192 64.846l-2.327-24.492 2.866-7.938-2.884-7.817 2.273-24.498 10.81-.012-2.954 32.318 3.026 32.427-10.81.012zm4.104-32.434c-1.679 6.748-4.279 12.693-7.8 17.833-3.445 5.064-7.657 9.017-12.637 11.859-4.904 2.842-10.345 4.267-16.325 4.273-6.364.008-12-1.405-16.91-4.236-4.91-2.908-8.786-6.89-11.628-11.947-2.766-5.133-4.153-11.035-4.16-17.705-.008-6.747 1.366-12.652 4.12-17.715 2.831-5.063 6.699-9.016 11.602-11.858 4.903-2.842 10.537-4.266 16.9-4.273 5.98-.007 11.425 1.405 16.335 4.236 4.986 2.831 9.246 6.775 12.778 11.831 3.532 5.056 6.107 10.957 7.725 17.702zm-58.65.065c.005 4.906 1.007 9.237 3.004 12.991 2.075 3.755 4.876 6.703 8.405 8.846 3.606 2.066 7.67 3.097 12.194 3.092 4.6-.006 8.815-1.045 12.646-3.12 3.908-2.151 7.354-5.106 10.34-8.866 3.063-3.76 5.55-8.095 7.461-13.003-1.922-4.905-4.419-9.234-7.49-12.987-2.994-3.753-6.447-6.663-10.359-8.728-3.836-2.143-8.054-3.212-12.654-3.206-4.523.005-8.585 1.082-12.186 3.233-3.525 2.074-6.32 4.991-8.386 8.749-1.989 3.759-2.98 8.092-2.975 12.999zM2.68 123.744l10.466-.012.072 64.745-10.465.012-.072-64.745zm55.66-.062l10.58-.012.073 64.745-10.58.012-.072-64.745zM8.578 151.453l54.74-.061.01 8.625-54.74.061-.01-8.625zM564.571 3.37l10.58-.011.072 64.745-10.58.011-.072-64.745zm-70.653 64.824l-.072-64.745 10.58-.012.069 61.41-4.261-5.055 30.245-.034c4.6-.005 8.24-1.159 10.921-3.462 2.681-2.38 4.019-5.563 4.015-9.55-.005-4.063-1.35-7.243-4.036-9.54-2.686-2.373-6.329-3.558-10.929-3.553l-29.44.033-.009-8.165 30.36-.034c4.983-.005 9.316.872 12.998 2.631 3.759 1.76 6.675 4.247 8.748 7.465 2.074 3.218 3.113 6.935 3.118 11.152.004 4.293-1.026 8.05-3.093 11.273-2.066 3.222-4.977 5.717-8.732 7.485-3.678 1.767-8.008 2.654-12.992 2.66l-37.49.041zm-9.901-8.614l.028 25.415-9.43.01-.018-16.79-69 .077.018 16.79-9.315.01-.028-25.414 14.145-.016 3.105.112 50.715-.057 3.105-.118 16.675-.019zM411.16 3.541l60.605-.067.068 61.64-10.58.011-.064-57.96 4.95 4.825-49.335.055 4.481-3.455c.387 3.45.66 6.86.817 10.234.157 3.296.237 6.401.24 9.315.013 11.5-1.357 20.586-4.11 27.26-2.676 6.596-6.39 9.896-11.144 9.902l-4.374-3.79c6.435-4.838 9.642-16.61 9.621-35.316a185.743 185.743 0 00-.358-11.155c-.157-3.91-.43-7.743-.817-11.499zm-54.961 66.301c-7.59.009-14.3-1.402-20.13-4.232-5.753-2.83-10.243-6.812-13.468-11.945-3.226-5.133-4.843-11.035-4.85-17.705-.007-6.747 1.596-12.652 4.81-17.715 3.215-5.064 7.695-9.017 13.442-11.86 5.824-2.843 12.53-4.27 20.12-4.278C363.79 2.1 370.5 3.51 376.253 6.34c5.753 2.83 10.243 6.774 13.468 11.83 3.303 5.056 4.957 10.958 4.965 17.704.007 6.67-1.634 12.576-4.925 17.716-3.215 5.14-7.695 9.132-13.442 11.975s-12.454 4.269-20.12 4.277zm-.01-8.855c5.673-.006 10.579-1.008 14.717-3.006 4.137-2.075 7.316-4.992 9.535-8.75 2.296-3.76 3.441-8.208 3.435-13.345-.006-5.06-1.161-9.467-3.465-13.22-2.227-3.755-5.412-6.665-9.554-8.73-4.143-2.065-9.051-3.095-14.724-3.089-5.597.007-10.502 1.047-14.716 3.122-4.138 2.074-7.317 4.991-9.536 8.75-2.219 3.76-3.326 8.169-3.32 13.229.006 5.137 1.122 9.582 3.35 13.336 2.227 3.755 5.412 6.664 9.555 8.73 4.218 1.988 9.126 2.98 14.723 2.973zm-105.778 7.478l-.072-64.745 10.58-.012.061 55.2-3.221-1.146 44.79-54.1 12.305-.014-54.668 64.806-9.775.01zm54.05-.06l-21.426-32.291 6.891-7.943 27.185 40.22-12.65.014zm-129.449 1.639c-7.437.008-14.032-1.403-19.785-4.233-5.676-2.907-10.166-6.889-13.468-11.945-3.226-5.133-4.842-11.035-4.85-17.705-.007-6.746 1.519-12.652 4.58-17.715 3.061-5.063 7.312-9.016 12.752-11.86 5.44-2.842 11.687-4.267 18.74-4.275 6.977-.008 13.074 1.519 18.291 4.58 5.216 3.06 9.246 7.388 12.089 12.981 2.919 5.517 4.383 11.955 4.392 19.315l-62.79.07-.01-8.395 58.305-.065-6.206 3.802c-.235-4.83-1.39-9.006-3.464-12.53-2.073-3.525-4.875-6.244-8.404-8.156-3.528-1.913-7.631-2.867-12.308-2.862-5.06.006-9.467 1.046-13.221 3.12-3.755 1.997-6.703 4.837-8.846 8.52-2.066 3.682-3.096 8.015-3.09 12.998.005 5.214 1.199 9.736 3.58 13.566 2.381 3.83 5.719 6.779 10.015 8.844 4.295 2.065 9.356 3.095 15.183 3.088a46.86 46.86 0 0015.522-2.662c5.135-1.77 9.732-4.19 13.792-7.26l.009 8.28c-3.983 3.224-8.733 5.798-14.251 7.72-5.518 1.847-11.037 2.773-16.557 2.779zm-42.374-10.073l.029 25.415-9.43.01-.019-16.79-69 .077.019 16.79-9.315.01-.029-25.414 14.145-.016 3.106.111 50.715-.056 3.104-.118 16.675-.019zM59.781 3.932l60.605-.067.069 61.64-10.58.011-.065-57.96 4.95 4.825-49.335.055 4.482-3.455c.387 3.45.659 6.86.816 10.234.157 3.296.237 6.401.24 9.315.013 11.5-1.357 20.586-4.11 27.26-2.675 6.596-6.39 9.896-11.143 9.902l-4.374-3.79c6.434-4.838 9.641-16.61 9.62-35.316A186.404 186.404 0 0060.6 15.43c-.158-3.91-.43-7.743-.818-11.499zm-10.571.012l.01 8.625-42.895.047 4.94-4.835.068 60.95-10.58.012L.68 3.998l48.53-.054z" fill="#363636"/></svg>