<svg width="1349" height="212" fill="none" xmlns="http://www.w3.org/2000/svg"><path d="M646.563 55.089l13.25 6.208 9.187 5.32-3.18 5.854-9.363-5.676-11.837-8.159 1.237 14.544V84h-6.714V73.18l1.237-14.544-11.66 8.16-9.54 5.675-3.18-5.853 9.187-5.321 13.426-6.208-13.426-6.208L616 43.382l3.18-5.676 9.54 5.499 11.66 8.336-1.237-14.544V26h6.714v10.997L644.62 51.54l11.837-8.336 9.363-5.499 3.18 5.676-9.187 5.499-13.25 6.208zM1311.8 27.802l10.02-.011.07 57.988-10.03.011-.06-57.988zm-26.6-3.35l63.22-.07.01 8.175-63.22.07-.01-8.174zm-1.02 38.043c-.79 4.87-2.78 9.159-5.98 12.868-3.12 3.71-7.11 6.621-11.98 8.734-4.86 2.113-10.24 3.172-16.13 3.179-6.83.007-12.86-1.33-18.1-4.013-5.23-2.756-9.34-6.53-12.32-11.323-2.92-4.865-4.38-10.459-4.38-16.78-.01-6.323 1.44-11.883 4.34-16.682 2.97-4.872 7.07-8.656 12.3-11.35 5.23-2.695 11.26-4.046 18.09-4.053 5.89-.007 11.27 1.04 16.14 3.143 4.87 2.029 8.87 4.895 12 8.597 3.2 3.703 5.2 8.024 6.01 12.965l-10.36.011c-1.09-5.085-3.82-9.079-8.19-11.98-4.29-2.975-9.48-4.46-15.59-4.452-4.94.005-9.26.991-12.97 2.957-3.63 1.966-6.46 4.73-8.49 8.294-2.03 3.49-3.04 7.67-3.04 12.538.01 4.869 1.03 9.082 3.07 12.64 2.04 3.559 4.87 6.317 8.51 8.275 3.71 1.885 8.03 2.825 12.97 2.82 6.18-.007 11.41-1.503 15.7-4.487 4.35-2.984 7.04-6.947 8.05-11.89l10.35-.011zm-132.72 23.473l-.07-61.367 10.03-.01.06 52.32-3.06-1.087 42.46-51.278 11.66-.013-51.82 61.425-9.26.01zm51.23-.057l-20.31-30.606 6.53-7.528 25.77 38.121-11.99.013zm-93.66 1.522c-7.05.007-13.3-1.33-18.75-4.013-5.38-2.755-9.64-6.529-12.77-11.321-3.06-4.866-4.59-10.46-4.6-16.781 0-6.395 1.44-11.992 4.35-16.791 2.9-4.8 6.93-8.546 12.08-11.24 5.16-2.695 11.08-4.046 17.76-4.053 6.62-.008 12.4 1.44 17.34 4.34 4.94 2.902 8.76 7.003 11.46 12.305 2.77 5.229 4.15 11.331 4.16 18.307l-59.51.066-.01-7.957 55.26-.061-5.88 3.603c-.22-4.577-1.32-8.537-3.28-11.877-1.97-3.34-4.62-5.917-7.97-7.73-3.34-1.813-7.23-2.717-11.67-2.712-4.79.005-8.97.99-12.53 2.957-3.56 1.893-6.35 4.585-8.38 8.075-1.96 3.49-2.94 7.597-2.93 12.32.01 4.942 1.14 9.228 3.39 12.859 2.26 3.63 5.42 6.425 9.5 8.382 4.07 1.957 8.86 2.933 14.39 2.927 5.01-.005 9.91-.847 14.71-2.523 4.87-1.677 9.22-3.97 13.07-6.882l.01 7.848c-3.78 3.056-8.28 5.496-13.51 7.318-5.23 1.75-10.46 2.628-15.69 2.634zm-74.1-59.323l10.03-.011.06 57.988-10.03.011-.06-57.988zm-26.6-3.35l63.22-.07.01 8.175-63.22.07-.01-8.174zM515.227 86.676l-.069-61.367 9.919-.01.064 56.788-3.816-.54 46.916-56.297 12.971-.014.069 61.367-9.919.01-.064-57.333 3.925.65-47.243 56.732-12.753.014zm32.297-68.16c-5.959.006-10.793-1.515-14.502-4.563-3.637-3.12-5.858-7.55-6.664-13.29l8.502-.01c.658 3.56 2.078 6.32 4.26 8.28 2.255 1.886 5.054 2.828 8.396 2.824 3.416-.003 6.212-.951 8.39-2.843 2.178-1.964 3.592-4.727 4.242-8.289l8.502-.01c-.72 5.742-2.932 10.177-6.634 13.306-3.703 3.056-8.533 4.588-14.492 4.594zM433.928 86.767L433.86 25.4l9.919-.011.063 56.789-3.816-.541 46.917-56.296 12.971-.015.068 61.367-9.919.011-.064-57.334 3.925.65-47.243 56.733-12.753.014zm-118.448.131l-.068-61.366 10.028-.012.062 56.353-3.6-3.157 42.183-.047-1.959 3.164-.062-56.353 10.028-.012.062 56.353-2.51-3.158 42.619-.047-3.485 3.165-.062-56.353 10.028-.012.068 61.368-103.332.114zm-47.958 1.471c-7.194.008-13.554-1.33-19.08-4.012-5.453-2.683-9.708-6.457-12.765-11.322-3.058-4.865-4.59-10.459-4.597-16.78-.007-6.395 1.513-11.992 4.559-16.792 3.047-4.8 7.294-8.546 12.741-11.24 5.519-2.696 11.876-4.047 19.07-4.055 7.267-.008 13.627 1.329 19.08 4.012 5.453 2.682 9.708 6.42 12.765 11.212 3.13 4.793 4.699 10.387 4.706 16.781.007 6.322-1.549 11.92-4.668 16.791-3.047 4.873-7.294 8.656-12.741 11.35-5.447 2.695-11.804 4.047-19.07 4.055zm-.01-8.393c5.378-.006 10.027-.956 13.949-2.85 3.922-1.966 6.935-4.73 9.038-8.294 2.176-3.563 3.261-7.779 3.256-12.647-.006-4.796-1.1-8.974-3.284-12.532-2.111-3.558-5.13-6.316-9.056-8.274-3.927-1.957-8.578-2.933-13.956-2.927-5.304.006-9.954.992-13.948 2.958-3.922 1.967-6.935 4.731-9.038 8.295-2.103 3.563-3.152 7.742-3.147 12.538.005 4.869 1.064 9.082 3.175 12.64 2.111 3.559 5.13 6.317 9.056 8.274 3.999 1.885 8.651 2.825 13.955 2.819zM151.963 25.713l10.028-.01.026 23.216-.543 1.963.011 9.919.549 3.16.045 41.093-10.028.011-.088-79.352zm5.375 30.623c1.592-6.396 4.02-11.994 7.284-16.794 3.338-4.8 7.33-8.546 11.978-11.24 4.72-2.694 9.914-4.044 15.582-4.05 6.032-.007 11.374 1.331 16.028 4.015 4.653 2.683 8.291 6.422 10.912 11.215 2.694 4.793 4.045 10.386 4.052 16.781.007 6.322-1.331 11.919-4.014 16.79-2.611 4.8-6.24 8.582-10.888 11.349-4.647 2.694-9.987 4.044-16.018 4.05-5.668.007-10.865-1.332-15.592-4.015-4.653-2.684-8.654-6.421-12.002-11.214-3.276-4.865-5.716-10.494-7.322-16.887zm55.59-.061c-.005-4.651-.991-8.756-2.957-12.314-1.893-3.559-4.548-6.317-7.966-8.275-3.345-2.031-7.161-3.044-11.448-3.04-4.36.005-8.392 1.027-12.096 3.066-3.631 1.966-6.862 4.73-9.692 8.295-2.83 3.564-5.187 7.672-7.071 12.325 1.895 4.648 4.261 8.751 7.099 12.309 2.838 3.557 6.074 6.351 9.71 8.382 3.708 1.958 7.742 2.934 12.102 2.93 4.288-.005 8.102-.99 11.442-2.956 3.413-2.039 6.062-4.84 7.948-8.402 1.958-3.563 2.934-7.67 2.929-12.32zM104.073 88.55c-7.194.009-13.554-1.329-19.08-4.011-5.453-2.683-9.708-6.457-12.765-11.322-3.058-4.865-4.59-10.459-4.597-16.78-.007-6.395 1.513-11.992 4.56-16.792 3.046-4.8 7.293-8.546 12.74-11.241 5.52-2.695 11.876-4.046 19.07-4.054 7.267-.008 13.627 1.329 19.08 4.011 5.453 2.683 9.708 6.42 12.765 11.213 3.13 4.793 4.699 10.386 4.706 16.781.007 6.322-1.549 11.92-4.668 16.791-3.047 4.872-7.294 8.656-12.741 11.35-5.447 2.695-11.804 4.047-19.07 4.055zm-.01-8.392c5.378-.006 10.027-.956 13.949-2.85 3.922-1.966 6.935-4.73 9.038-8.294 2.176-3.563 3.261-7.779 3.256-12.647-.005-4.796-1.1-8.974-3.284-12.532-2.111-3.558-5.13-6.316-9.056-8.274-3.926-1.958-8.578-2.933-13.955-2.927-5.305.006-9.955.992-13.95 2.958-3.92 1.967-6.934 4.731-9.037 8.294-2.103 3.563-3.152 7.743-3.147 12.539.005 4.869 1.064 9.082 3.175 12.64 2.111 3.559 5.13 6.317 9.056 8.274 4 1.885 8.65 2.825 13.955 2.819zM1.268 87.248l30.154-35.459-.101 7.304L2.944 25.879l11.88-.013 23.03 26.788-5.886.007 23.078-26.84 11.445-.013-28.63 33.386-.227-7.847 30.67 35.827-11.664.012-25.102-29.075 5.995-.006-24.929 29.13-11.336.013zM1330.51 193.02l-2.21-23.215 2.72-7.524-2.74-7.409 2.16-23.219 10.24-.011-2.8 30.632 2.87 30.735-10.24.011zm3.89-30.742c-1.59 6.396-4.06 12.031-7.4 16.903-3.26 4.8-7.25 8.546-11.97 11.24-4.65 2.694-9.81 4.044-15.48 4.05-6.03.007-11.37-1.331-16.02-4.015-4.66-2.756-8.33-6.53-11.03-11.323-2.62-4.866-3.93-10.46-3.94-16.782-.01-6.395 1.3-11.992 3.91-16.79 2.68-4.799 6.34-8.546 10.99-11.24 4.65-2.694 9.99-4.044 16.02-4.05 5.67-.007 10.83 1.332 15.48 4.015 4.73 2.684 8.77 6.422 12.11 11.214 3.35 4.792 5.79 10.385 7.33 16.778zm-55.59.062c0 4.65.95 8.755 2.84 12.313 1.97 3.559 4.63 6.354 7.97 8.385 3.42 1.958 7.27 2.934 11.56 2.93 4.36-.005 8.35-.991 11.98-2.957 3.71-2.038 6.98-4.84 9.81-8.404 2.9-3.563 5.26-7.672 7.07-12.324-1.83-4.649-4.19-8.752-7.1-12.31-2.84-3.557-6.11-6.315-9.82-8.273-3.64-2.03-7.63-3.043-11.99-3.038-4.29.004-8.14 1.026-11.56 3.065-3.34 1.965-5.99 4.73-7.94 8.292-1.89 3.563-2.83 7.67-2.82 12.321zm-84.58-30.535l9.92-.011.07 61.367-9.92.011-.07-61.367zm52.76-.059l10.03-.011.06 61.367-10.02.011-.07-61.367zm-47.17 26.321l51.88-.057.01 8.175-51.88.057-.01-8.175zm-29.67 35.131l-2.21-23.214 2.72-7.524-2.74-7.409 2.16-23.22 10.24-.011-2.8 30.632 2.87 30.735-10.24.011zm3.88-30.742c-1.59 6.397-4.05 12.031-7.39 16.903-3.26 4.8-7.26 8.547-11.98 11.241-4.64 2.694-9.8 4.044-15.47 4.05-6.03.007-11.37-1.332-16.03-4.015-4.65-2.756-8.32-6.531-11.02-11.324-2.62-4.866-3.93-10.46-3.94-16.782-.01-6.394 1.29-11.991 3.9-16.79 2.69-4.799 6.35-8.545 11-11.239 4.65-2.694 9.99-4.044 16.02-4.051 5.67-.006 10.83 1.332 15.48 4.016 4.73 2.683 8.77 6.421 12.11 11.213 3.35 4.793 5.79 10.385 7.32 16.778zm-55.59.062c.01 4.651.96 8.755 2.85 12.314 1.97 3.558 4.62 6.353 7.97 8.384 3.42 1.958 7.27 2.935 11.56 2.93 4.36-.005 8.35-.99 11.98-2.956 3.71-2.039 6.97-4.84 9.8-8.404 2.91-3.564 5.26-7.672 7.07-12.325-1.82-4.649-4.18-8.752-7.09-12.309-2.84-3.558-6.11-6.315-9.82-8.273-3.64-2.031-7.64-3.044-12-3.039-4.28.005-8.13 1.026-11.55 3.065-3.34 1.966-5.99 4.73-7.94 8.293-1.89 3.563-2.83 7.669-2.83 12.32zm-89.47-30.53l10.03-.011.03 23.217-.55 1.963.01 9.919.55 3.16.05 41.093-10.03.011-.09-79.352zm5.38 30.624c1.59-6.397 4.02-11.995 7.28-16.795 3.34-4.799 7.33-8.546 11.98-11.24 4.72-2.694 9.91-4.044 15.58-4.05 6.03-.007 11.38 1.331 16.03 4.015 4.65 2.683 8.29 6.422 10.91 11.215 2.7 4.793 4.05 10.387 4.05 16.781.01 6.322-1.33 11.919-4.01 16.791-2.61 4.799-6.24 8.581-10.89 11.348-4.65 2.694-9.99 4.044-16.02 4.051-5.66.006-10.86-1.333-15.59-4.016-4.65-2.683-8.65-6.421-12-11.214-3.28-4.865-5.72-10.494-7.32-16.886zm55.59-.062c-.01-4.651-.99-8.756-2.96-12.314-1.89-3.559-4.55-6.317-7.96-8.275-3.35-2.031-7.17-3.044-11.45-3.039-4.36.004-8.4 1.026-12.1 3.065-3.63 1.966-6.86 4.731-9.69 8.295-2.83 3.564-5.19 7.672-7.07 12.325 1.89 4.648 4.26 8.751 7.1 12.309 2.83 3.557 6.07 6.351 9.71 8.382 3.71 1.958 7.74 2.934 12.1 2.93 4.29-.005 8.1-.991 11.44-2.956 3.41-2.039 6.06-4.839 7.95-8.402 1.96-3.563 2.93-7.67 2.93-12.32zm-131.234 30.884l-.068-61.367 10.028-.011.058 52.32-3.053-1.087 42.449-51.277 11.67-.013-51.819 61.424-9.265.011zm51.234-.057l-20.312-30.607 6.532-7.528 25.77 38.121-11.99.014zm-97.667 1.525c-5.886.007-11.228-1.004-16.026-3.034-4.798-2.029-8.798-4.822-12-8.379-3.128-3.63-5.204-7.734-6.226-12.311l10.355-.011c1.313 4.649 4.079 8.425 8.296 11.327 4.291 2.829 9.488 4.24 15.592 4.233 5.014-.005 9.373-.991 13.077-2.957 3.776-1.966 6.68-4.731 8.711-8.294 2.03-3.635 3.043-7.888 3.037-12.756-.005-4.869-1.027-9.082-3.066-12.641-2.038-3.631-4.948-6.425-8.729-8.383-3.708-1.958-8.069-2.934-13.083-2.929-6.032.007-11.189 1.466-15.473 4.378-4.284 2.911-7.078 6.656-8.381 11.236l-10.355.011c1.012-4.651 3.079-8.723 6.2-12.214 3.193-3.565 7.186-6.367 11.98-8.407 4.794-2.04 10.134-3.063 16.02-3.07 6.903-.007 12.972 1.33 18.207 4.013 5.235 2.683 9.309 6.457 12.221 11.323 2.985 4.792 4.48 10.35 4.487 16.672.007 6.322-1.476 11.919-4.45 16.791-2.901 4.799-6.966 8.582-12.195 11.349-5.229 2.695-11.295 4.046-18.199 4.053zm29.508-28.263l-39.785.044-.009-7.739 39.785-.044.009 7.739zm-136.15 28.382c-7.194.008-13.554-1.329-19.079-4.012-5.453-2.682-9.708-6.456-12.766-11.322-3.057-4.865-4.589-10.458-4.596-16.78-.008-6.395 1.512-11.992 4.559-16.792 3.047-4.799 7.293-8.546 12.74-11.241 5.52-2.695 11.877-4.046 19.071-4.054 7.266-.008 13.626 1.329 19.079 4.012 5.453 2.682 9.708 6.42 12.766 11.213 3.13 4.792 4.698 10.386 4.705 16.78.008 6.322-1.549 11.919-4.668 16.792-3.046 4.872-7.293 8.655-12.74 11.35-5.447 2.694-11.804 4.046-19.071 4.054zm-.009-8.393c5.377-.006 10.027-.956 13.949-2.85 3.922-1.966 6.934-4.731 9.038-8.294 2.176-3.563 3.261-7.779 3.255-12.647-.005-4.796-1.1-8.973-3.283-12.532-2.112-3.558-5.13-6.316-9.057-8.274-3.926-1.957-8.578-2.933-13.955-2.927-5.305.006-9.954.992-13.949 2.959-3.922 1.966-6.934 4.731-9.037 8.294-2.104 3.563-3.153 7.742-3.148 12.538.006 4.869 1.064 9.082 3.176 12.641 2.111 3.558 5.13 6.316 9.056 8.274 3.999 1.884 8.65 2.824 13.955 2.818zm-37.405-54.349l.009 8.175-40.657.045 4.682-4.583.064 57.77-10.028.011-.068-61.367 45.998-.051zm-93.888 62.888c-7.194.008-13.554-1.329-19.08-4.012-5.453-2.682-9.708-6.456-12.765-11.322-3.058-4.865-4.59-10.458-4.597-16.78-.007-6.395 1.513-11.992 4.559-16.792 3.047-4.799 7.294-8.546 12.741-11.241 5.52-2.695 11.876-4.046 19.07-4.054 7.267-.008 13.627 1.329 19.08 4.012 5.453 2.682 9.708 6.42 12.765 11.213 3.13 4.792 4.699 10.386 4.706 16.78.007 6.322-1.549 11.919-4.668 16.792-3.047 4.872-7.294 8.655-12.741 11.35-5.447 2.695-11.803 4.046-19.07 4.054zm-.009-8.393c5.377-.006 10.027-.956 13.948-2.849 3.922-1.967 6.935-4.732 9.038-8.295 2.176-3.563 3.261-7.779 3.256-12.647-.005-4.796-1.1-8.973-3.284-12.532-2.111-3.558-5.13-6.316-9.056-8.273-3.926-1.958-8.578-2.934-13.955-2.928-5.305.006-9.955.992-13.949 2.959-3.922 1.966-6.934 4.731-9.038 8.294-2.103 3.563-3.152 7.742-3.147 12.538.006 4.869 1.064 9.082 3.175 12.641 2.111 3.558 5.13 6.316 9.056 8.274 3.999 1.884 8.651 2.824 13.956 2.818zm-110.653-54.268l9.919-.011.068 61.367-9.919.011-.068-61.367zm52.756-.059l10.028-.011.068 61.367-10.028.011-.068-61.367zm-47.168 26.322l51.884-.058.009 8.175-51.884.058-.009-8.175zm-81.421 35.189l2.8-30.742-2.868-30.625 41.638-.047c5.959-.006 10.575 1.369 13.848 4.127 3.345 2.685 5.021 6.498 5.026 11.439.005 4.506-1.662 8.104-5.002 10.797-3.267 2.619-7.807 4.151-13.62 4.593l.979-2.072c6.976.065 12.319 1.476 16.028 4.233 3.709 2.685 5.566 6.534 5.572 11.548.006 5.232-1.879 9.34-5.655 12.323-3.702 2.911-8.896 4.37-15.582 4.378l-43.164.048zm9.807-2.954l-3.82-4.683 35.534-.04c4.287-.004 7.447-.844 9.48-2.517 2.106-1.674 3.157-4.073 3.153-7.198-.004-3.197-1.278-5.703-3.823-7.516-2.473-1.814-6.362-2.718-11.666-2.713l-30.302.034-.008-7.194 29.648-.033c3.996-.004 7.011-.916 9.044-2.735 2.105-1.819 3.156-4.218 3.153-7.197-.004-2.834-.951-5.05-2.842-6.646-1.818-1.67-4.653-2.502-8.505-2.498l-32.809.037 3.701-4.582 2.756 27.683-2.694 27.798zm-32.653 2.979l-2.206-23.215 2.717-7.524-2.734-7.409 2.155-23.219 10.246-.011-2.8 30.632 2.868 30.735-10.246.011zm3.89-30.742c-1.592 6.396-4.056 12.03-7.394 16.903-3.264 4.799-7.257 8.546-11.977 11.24-4.648 2.694-9.806 4.044-15.474 4.05-6.031.007-11.373-1.331-16.027-4.015-4.654-2.756-8.328-6.531-11.022-11.324-2.621-4.865-3.935-10.459-3.942-16.781-.007-6.395 1.294-11.992 3.905-16.791 2.683-4.798 6.349-8.545 10.996-11.239 4.648-2.694 9.988-4.044 16.019-4.051 5.668-.006 10.829 1.333 15.482 4.016 4.727 2.684 8.764 6.421 12.112 11.214 3.348 4.792 5.789 10.385 7.322 16.778zm-55.59.061c.005 4.651.954 8.756 2.847 12.314 1.966 3.559 4.622 6.353 7.967 8.384 3.417 1.959 7.27 2.935 11.557 2.931 4.36-.005 8.356-.991 11.987-2.957 3.703-2.039 6.97-4.84 9.8-8.404 2.903-3.564 5.26-7.672 7.072-12.325-1.822-4.648-4.188-8.751-7.099-12.309-2.838-3.557-6.111-6.315-9.819-8.273-3.636-2.03-7.634-3.043-11.994-3.038-4.287.004-8.137 1.026-11.55 3.064-3.341 1.966-5.99 4.73-7.948 8.293-1.885 3.563-2.826 7.67-2.82 12.32zm-79.214-30.54l57.334-.064.069 61.367-10.028.011-.065-57.879 4.583 4.573-46.652.052 4.248-3.493c.441 4.578.773 9.082.996 13.515.295 4.36.445 8.247.449 11.662.012 11.409-1.504 19.731-4.551 24.967-3.046 5.162-7.912 7.747-14.597 7.755a20.174 20.174 0 01-5.124-.649 17.523 17.523 0 01-4.58-1.738l-.009-7.957c1.309.507 2.581.941 3.817 1.303 1.308.29 2.544.433 3.706.432 4.215-.005 7.265-2.006 9.15-6.005 1.957-3.999 2.931-10.504 2.921-19.514-.004-3.706-.154-7.957-.45-12.753-.224-4.868-.629-10.063-1.217-15.585zm-9.58.01l.009 8.175-40.657.045 4.682-4.583.064 57.77-10.028.011-.068-61.367 45.998-.051zm-97.206 29.756l.008 7.63-31.937.036-.109-.218c-4.36.005-8.176-.754-11.448-2.276-3.199-1.523-5.708-3.664-7.528-6.423-1.82-2.832-2.732-6.101-2.736-9.807-.004-3.633.901-6.832 2.715-9.595 1.813-2.836 4.318-5.019 7.513-6.548 3.268-1.603 7.083-2.406 11.443-2.411l39.022-.043.068 61.367-10.028.011-.065-58.206 3.82 4.574-31.283.034c-4.069.005-7.265.989-9.589 2.954-2.323 1.965-3.482 4.618-3.479 7.961.004 3.27 1.17 5.921 3.497 7.953 2.328 2.032 5.526 3.046 9.596 3.041l30.52-.034zm-18.418 2.964l-24.275 28.803-12.099.013 24.602-28.803 11.772-.013zm-104.722-32.475l57.334-.063.069 61.367-10.028.011-.065-57.879 4.583 4.573-46.652.052 4.248-3.493c.441 4.577.773 9.082.996 13.515.295 4.359.445 8.247.449 11.662.012 11.409-1.504 19.731-4.551 24.966-3.046 5.163-7.912 7.748-14.597 7.756a20.261 20.261 0 01-5.124-.649 17.479 17.479 0 01-4.58-1.739l-.008-7.957c1.308.508 2.58.942 3.816 1.304 1.308.289 2.544.433 3.706.432 4.215-.005 7.265-2.006 9.15-6.005 1.957-3.999 2.931-10.504 2.921-19.514-.004-3.706-.154-7.957-.45-12.753-.224-4.868-.629-10.064-1.217-15.586zm-20.107 53.215l.027 24.089-8.938.01-.018-15.914-65.4.072.018 15.914-8.83.01-.026-24.089 13.407-.015 2.943.106 48.07-.053 2.942-.113 15.805-.017zm-69.056-53.115l57.443-.064.065 58.424-10.028.011-.061-54.936 4.692 4.573-46.761.052 4.247-3.275c.367 3.269.625 6.503.774 9.7.149 3.125.225 6.067.228 8.829.012 10.9-1.287 19.512-3.895 25.837-2.537 6.252-6.058 9.381-10.563 9.386l-4.146-3.593c6.099-4.584 9.139-15.742 9.119-33.473a176.653 176.653 0 00-.339-10.572 175.49 175.49 0 00-.775-10.899z" fill="#363636"/></svg>