<svg width="1335" height="456" fill="none" xmlns="http://www.w3.org/2000/svg"><path d="M.118 101.841L.087 73.437l7.56-.009c1.078-1.513 2.12-3.71 3.124-6.591 1.005-2.953 1.865-6.554 2.58-10.803.716-4.32 1.07-9.037 1.065-14.15l-.018-15.983 54.216-.06.053 47.52 9.396-.011.031 28.404-15.12.017-.018-16.524-47.736.053.018 16.524-15.12.017zm22.865-28.43l30.564-.034-.04-35.64-24.084.027.005 4.428c.007 6.624-.67 12.673-2.032 18.146-1.29 5.474-2.761 9.615-4.414 12.425v.648zm62.158 11.811l-.066-59.4 15.12-.017.052 46.548h.54l29.432-46.581 19.332-.022.066 59.4-15.12.017-.051-46.548h-.54l-29.433 46.582-19.332.021zm104.606.964c-5.472.006-10.728-.6-15.77-1.819-4.969-1.218-8.787-2.546-11.452-3.983l-.014-12.312c2.594 1.581 6.16 3.017 10.697 4.308a50.081 50.081 0 0013.826 1.929c6.12-.007 10.403-.624 12.85-1.85 2.447-1.227 3.669-3.029 3.666-5.405-.002-2.304-1.3-4.102-3.894-5.395-2.593-1.294-7.166-1.936-13.718-1.93l-11.34.014-.01-8.64 11.124-.013c4.176-.005 7.56-.296 10.151-.875 2.592-.651 4.427-1.517 5.505-2.598 1.079-1.081 1.618-2.342 1.616-3.782-.001-1.44-.543-2.7-1.624-3.778-1.009-1.08-2.738-1.941-5.187-2.587-2.377-.645-5.509-.965-9.397-.961-5.184.006-10.115.587-14.794 1.744-4.607 1.086-8.313 2.314-11.12 3.685l-.013-11.988c3.022-1.3 6.981-2.492 11.876-3.577 4.895-1.158 10.186-1.74 15.874-1.746 6.696-.008 12.241.778 16.635 2.357 4.465 1.507 7.707 3.52 9.726 6.038 2.091 2.517 3.138 5.216 3.141 8.096.003 2.448-.823 4.717-2.476 6.807-1.582 2.09-3.884 3.784-6.907 5.084-2.95 1.299-6.405 2.023-10.365 2.171l.001.648c6.408.065 11.377 1.391 14.908 3.98 3.603 2.516 5.406 5.717 5.411 9.605.003 3.025-1.002 5.798-3.015 8.32-2.013 2.522-5.179 4.578-9.497 6.166-4.318 1.517-9.79 2.28-16.414 2.287zm60.563-.068c-7.416.008-13.106-1.57-17.069-4.733-3.964-3.235-5.949-7.41-5.954-12.521-.007-5.688 2.364-10.227 7.113-13.616 4.748-3.39 12.27-5.09 22.566-5.101 6.048-.007 10.62-.264 13.715-.771 3.096-.508 5.147-1.158 6.154-1.951 1.007-.865 1.51-1.91 1.508-3.134-.001-1.296-.578-2.483-1.731-3.562-1.082-1.15-2.991-2.049-5.727-2.694-2.665-.717-6.302-1.073-10.91-1.067-5.4.005-10.763.767-16.089 2.285-5.255 1.446-9.429 3.107-12.523 4.982l-.014-13.176c2.662-1.659 6.692-3.14 12.091-4.441 5.398-1.374 11.266-2.065 17.602-2.072 7.704-.008 13.968.849 18.794 2.571 4.826 1.651 8.285 3.987 10.376 7.009 2.164 3.022 3.248 6.656 3.252 10.904l.045 39.96-15.12.017-.01-9.18h-.324c-1.439 1.586-3.525 3.172-6.259 4.76-2.662 1.586-5.865 2.922-9.608 4.006-3.671 1.012-7.63 1.52-11.878 1.525zm5.387-11.886c3.672-.004 7.019-.403 10.042-1.199 3.096-.795 5.686-1.806 7.773-3.032 2.159-1.227 3.777-2.453 4.856-3.678l-.013-11.448c-.935.505-2.015.974-3.238 1.408-1.224.433-3.203.867-5.939 1.302-2.735.363-6.335.583-10.799.66-5.472.078-9.431.875-11.877 2.39-2.375 1.514-3.561 3.46-3.558 5.836.003 2.231 1.049 4.102 3.138 5.612 2.162 1.438 5.367 2.154 9.615 2.15zm50.22 10.744l-.066-59.4 15.12-.016.052 46.548.54-.001 29.432-46.58 19.332-.022.066 59.4-15.12.016-.052-46.548-.54.001-29.432 46.58-19.332.022zm31.784-68.075c-6.48.007-11.377-1.391-14.692-4.196-3.316-2.804-4.976-6.618-4.981-11.442l10.8-.012c.002 2.16.724 3.851 2.165 5.073 1.442 1.15 3.674 1.724 6.698 1.721 3.024-.003 5.256-.582 6.694-1.735 1.439-1.226 2.157-2.919 2.155-5.079l10.8-.012c.005 4.824-1.647 8.642-4.955 11.454-3.309 2.811-8.204 4.22-14.684 4.228zm95.285 67.934l-.066-59.4 15.12-.017.066 59.4-15.12.017zm-49.68.055l-.066-59.4 15.12-.016.066 59.4-15.12.016zm13.365-24.315l-.014-12.42 38.016-.042.014 12.42-38.016.042zM42.343 196.35c-7.488.008-14.005-1.317-19.552-3.975-5.547-2.729-9.8-6.433-12.756-11.109-2.958-4.677-4.44-9.895-4.446-15.655-.006-5.76 1.5-10.982 4.519-15.665 3.019-4.684 7.37-8.361 13.056-11.031 5.757-2.742 12.523-4.118 20.299-4.127 5.256-.005 10.153.673 14.69 2.036 4.538 1.291 8.32 2.799 11.345 4.523l.014 12.744c-3.098-2.084-6.844-3.844-11.237-5.279-4.394-1.435-9.075-2.15-14.043-2.144-4.968.005-9.179.802-12.633 2.39-3.454 1.587-6.044 3.822-7.769 6.704-1.724 2.81-2.585 6.087-2.58 9.831.003 3.672.835 6.947 2.494 9.825 1.731 2.878 4.254 5.108 7.568 6.688 3.313 1.58 7.274 2.368 11.882 2.363 4.824-.006 9.395-.695 13.714-2.067 4.39-1.373 7.88-2.961 10.47-4.764l.015 12.744c-2.662 1.515-6.225 2.887-10.688 4.116-4.462 1.229-9.25 1.846-14.361 1.852zm61.715-1.905c2.228-2.738 4.311-7.601 6.247-14.587 2.008-7.058 3.151-15.375 3.429-24.952l.518-19.116 54.54-.061.066 59.4-15.12.017-.052-46.98-24.408.027-.423 7.776c-.565 9.793-1.744 18.146-3.536 25.06-1.721 6.914-3.551 11.632-5.493 14.155l-15.768.017v-.756zm136.626 1.684c-7.416.008-13.862-1.317-19.337-3.974-5.475-2.658-9.655-6.29-12.54-10.894-2.885-4.677-4.331-9.968-4.338-15.872-.006-5.904 1.428-11.161 4.303-15.772 2.875-4.684 7.047-8.36 12.516-11.03s11.911-4.01 19.327-4.018c7.416-.008 13.862 1.317 19.337 3.975 5.475 2.658 9.655 6.325 12.54 11.002 2.885 4.604 4.331 9.859 4.337 15.763.007 5.904-1.427 11.197-4.302 15.881-2.875 4.611-7.047 8.251-12.516 10.922-5.469 2.67-11.911 4.009-19.327 4.017zm-58.861-1.014l-.067-59.4 15.12-.017.067 59.4-15.12.017zm12.715-25.395l-.009-8.64 12.528-.014.009 8.64-12.528.014zm46.132 14.529c4.392-.005 8.1-.801 11.122-2.388 3.094-1.588 5.432-3.786 7.013-6.596 1.58-2.882 2.369-6.195 2.364-9.939-.004-3.744-.799-7.019-2.386-9.825-1.588-2.878-3.93-5.108-7.028-6.688-3.026-1.581-6.735-2.369-11.127-2.364-4.392.005-8.135.801-11.229 2.389-3.022 1.587-5.324 3.822-6.904 6.703-1.581 2.81-2.37 6.087-2.366 9.831.005 3.744.8 7.055 2.388 9.933 1.587 2.806 3.893 5 6.919 6.581 3.098 1.58 6.842 2.368 11.234 2.363zm83.51 11.787c-8.424.01-15.445-1.279-21.064-3.864-5.547-2.586-9.691-6.326-12.432-11.219-2.742-4.893-4.117-10.867-4.124-17.923l-.004-3.24c-.014-12.384 2.927-21.999 8.824-28.846 5.968-6.846 14.784-10.276 26.448-10.289l12.96-.015 11.124-.012 10.044-.011 1.944-.002.014 12.42-2.808.003-8.856.01-9.504.01-15.336.017c-4.752.005-8.639.91-11.661 2.713-3.022 1.732-5.287 4.146-6.796 7.244-1.436 3.025-2.26 6.626-2.472 10.803l.108-.001h.54c.36-.001 1.116-.469 2.267-1.407 2.661-2.091 5.755-3.858 9.282-5.302 3.526-1.444 8.241-2.169 14.145-2.176 7.632-.008 14.042 1.101 19.228 3.327 5.259 2.154 9.15 5.138 11.674 8.951 2.596 3.741 3.897 8.023 3.902 12.847.006 4.968-1.357 9.398-4.089 13.289-2.659 3.891-6.796 6.992-12.409 9.302-5.614 2.238-12.597 3.362-20.949 3.371zm-.122-12.42c4.68-.005 8.64-.621 11.878-1.849 3.311-1.228 5.793-2.958 7.447-5.192 1.725-2.234 2.586-4.827 2.583-7.779-.003-2.88-.87-5.435-2.601-7.665-1.658-2.23-4.144-3.956-7.457-5.176-3.242-1.22-7.202-1.828-11.882-1.823-4.608.005-8.568.622-11.878 1.85-3.239 1.227-5.721 2.958-7.446 5.192-1.654 2.234-2.479 4.791-2.476 7.671.003 2.952.834 5.543 2.493 7.773 1.73 2.23 4.216 3.955 7.457 5.176 3.314 1.22 7.274 1.827 11.882 1.822zm84.799 12.326c-7.92.009-14.762-1.316-20.525-3.973-5.691-2.73-10.051-6.433-13.08-11.11-2.958-4.676-4.439-9.895-4.446-15.655-.006-5.76 1.464-10.981 4.411-15.665 3.019-4.683 7.371-8.36 13.056-11.03 5.757-2.743 12.595-4.118 20.515-4.127 7.92-.009 14.726 1.352 20.417 4.081 5.763 2.658 10.123 6.325 13.08 11.002 3.029 4.676 4.547 9.895 4.553 15.655.007 5.76-1.5 10.981-4.518 15.665-2.947 4.683-7.299 8.396-13.056 11.138-5.685 2.671-12.488 4.01-20.407 4.019zm-.014-11.88c4.752-.005 8.783-.802 12.094-2.389 3.382-1.588 5.935-3.823 7.66-6.705 1.725-2.882 2.585-6.159 2.581-9.831-.004-3.672-.872-6.947-2.603-9.825-1.731-2.878-4.289-5.107-7.675-6.687-3.314-1.581-7.347-2.368-12.099-2.363-4.752.005-8.819.802-12.201 2.39-3.31 1.587-5.828 3.822-7.553 6.704-1.724 2.882-2.585 6.159-2.581 9.831.004 3.672.872 6.947 2.603 9.825 1.731 2.878 4.254 5.107 7.568 6.688 3.385 1.58 7.454 2.367 12.206 2.362zm49.337 10.745l-.066-59.4 38.556-.043c5.76-.006 10.549.708 14.366 2.144 3.818 1.436 6.592 3.377 8.323 5.823 1.802 2.374 2.705 5.109 2.709 8.205.003 2.592-.751 4.969-2.26 7.13-1.51 2.162-3.704 3.929-6.582 5.3-2.807 1.299-6.154 1.987-10.042 2.063l.001.648c6.192.065 10.873 1.32 14.044 3.764 3.243 2.373 4.866 5.395 4.87 9.067.005 4.392-1.971 8.03-5.928 10.915-3.885 2.884-9.715 4.33-17.491 4.339l-40.5.045zm38.003-11.382c3.672-.004 6.336-.583 7.99-1.737 1.727-1.154 2.589-2.703 2.587-4.647-.002-1.944-.868-3.491-2.597-4.641-1.657-1.15-4.322-1.723-7.994-1.719l-24.516.027-.009-8.64 22.68-.025c4.32-.005 7.451-.692 9.393-2.063 2.015-1.442 3.021-3.315 3.018-5.619-.003-2.304-1.013-4.139-3.03-5.505-1.946-1.437-5.078-2.154-9.398-2.149l-21.06.023.04 36.72 22.896-.025zm76.328-28.489c8.424-.01 14.834 1.819 19.23 5.486 4.468 3.595 6.706 8.381 6.712 14.357.007 5.976-2.22 10.802-6.68 14.479-4.388 3.605-10.794 5.412-19.218 5.422l-39.096.043-.066-59.4 15.12-.016.033 29.808.021 18.252 22.356-.025c3.96-.005 6.911-.764 8.853-2.278 2.014-1.586 3.02-3.676 3.017-6.268-.003-2.592-1.013-4.642-3.031-6.152-1.945-1.582-4.898-2.371-8.858-2.366l-24.3.027-.013-11.34 25.92-.029zm95.089 40.718c-7.416.008-13.862-1.316-19.337-3.974-5.475-2.658-9.655-6.29-12.54-10.894-2.885-4.677-4.331-9.968-4.337-15.872-.007-5.904 1.427-11.161 4.302-15.772 2.875-4.684 7.047-8.36 12.516-11.03s11.911-4.01 19.327-4.018c7.416-.008 13.862 1.317 19.337 3.975 5.475 2.658 9.655 6.325 12.54 11.002 2.885 4.604 4.331 9.859 4.338 15.763.006 5.904-1.428 11.197-4.303 15.881-2.875 4.611-7.047 8.252-12.516 10.922s-11.911 4.009-19.327 4.017zm-58.861-1.014l-.066-59.4 15.12-.017.066 59.4-15.12.017zm12.715-25.395l-.009-8.64 12.528-.014.009 8.64-12.528.014zm46.133 14.529c4.392-.005 8.099-.801 11.121-2.388 3.094-1.588 5.432-3.786 7.013-6.596 1.58-2.882 2.369-6.195 2.365-9.939-.005-3.744-.8-7.019-2.387-9.825-1.588-2.878-3.93-5.108-7.028-6.688-3.026-1.581-6.734-2.369-11.126-2.364-4.392.005-8.136.801-11.23 2.389-3.022 1.587-5.324 3.822-6.904 6.703-1.581 2.81-2.37 6.087-2.365 9.831.004 3.744.799 7.055 2.387 9.933 1.587 2.807 3.893 5 6.919 6.581 3.098 1.58 6.843 2.368 11.235 2.363zm-266.77 271.789c-6.48.007-11.27-1.499-14.369-4.52-3.028-2.949-4.545-7.555-4.552-13.819l-.023-20.844c-.003-2.304-.616-3.995-1.842-5.074-1.153-1.151-2.99-1.725-5.51-1.722l-2.376.003-.013-11.88 2.376-.003c2.52-.003 4.356-.581 5.506-1.734 1.223-1.153 1.833-2.882 1.831-5.186l-.025-21.6c-.006-6.264 1.5-10.874 4.521-13.829 3.093-3.027 7.879-4.545 14.359-4.552l5.616-.006.014 12.42-4.32.005c-4.464.005-6.694 2.347-6.688 7.027l.023 20.52c.004 4.248-.964 7.381-2.906 9.399-1.87 1.946-4.785 2.922-8.745 2.926l.001 1.08c3.96-.004 6.878 1 8.752 3.014 1.946 1.942 2.921 5.001 2.926 9.177l.022 19.764c.005 4.68 2.24 7.018 6.704 7.013l4.32-.005.014 12.42-5.616.006zm13.173-20.535l-.066-59.4 15.12-.016.029 25.812.108-.001 31.075-25.846 20.088-.022-35.608 28.875 35.566 30.525-19.98.022-31.135-27.506-.108.001.031 27.54-15.12.016zm119.606.947c-7.416.009-13.106-1.569-17.069-4.733-3.964-3.235-5.948-7.409-5.954-12.521-.006-5.688 2.365-10.227 7.113-13.616 4.748-3.389 12.27-5.09 22.566-5.101 6.048-.007 10.62-.264 13.715-.771 3.096-.508 5.147-1.158 6.154-1.951 1.007-.865 1.51-1.91 1.509-3.134-.002-1.296-.579-2.483-1.732-3.562-1.082-1.151-2.991-2.049-5.727-2.694-2.665-.717-6.302-1.073-10.91-1.067-5.4.006-10.763.768-16.089 2.285-5.254 1.446-9.429 3.107-12.522 4.982l-.015-13.176c2.662-1.659 6.692-3.139 12.091-4.441 5.398-1.374 11.266-2.065 17.602-2.072 7.704-.008 13.969.849 18.794 2.571 4.826 1.651 8.285 3.987 10.376 7.009 2.164 3.021 3.248 6.656 3.252 10.904l.045 39.96-15.12.017-.01-9.18h-.324c-1.439 1.586-3.525 3.172-6.259 4.759-2.662 1.587-5.865 2.923-9.608 4.007-3.67 1.012-7.63 1.521-11.878 1.525zm5.387-11.886c3.672-.004 7.019-.403 10.043-1.199 3.095-.795 5.686-1.806 7.772-3.032 2.159-1.227 3.777-2.453 4.856-3.678l-.013-11.448c-.935.505-2.015.974-3.238 1.408-1.224.433-3.203.867-5.939 1.302-2.735.363-6.335.583-10.799.66-5.472.078-9.431.875-11.877 2.39-2.375 1.514-3.56 3.46-3.558 5.836.003 2.232 1.049 4.102 3.138 5.612 2.162 1.438 5.367 2.154 9.615 2.149zm43.199 9.996c2.229-2.738 4.312-7.601 6.248-14.587 2.008-7.058 3.151-15.375 3.428-24.952l.519-19.116 54.54-.061.066 59.4-15.12.017-.052-46.98-24.408.027-.424 7.777c-.565 9.792-1.743 18.146-3.536 25.06-1.72 6.914-3.551 11.632-5.492 14.154l-15.768.017-.001-.756zm77.765.67l-.066-59.4 53.136-.059.014 12.42-38.016.042.052 46.98-15.12.017zm93.852.975c-7.919.009-14.761-1.315-20.524-3.973-5.691-2.729-10.051-6.433-13.08-11.109-2.958-4.677-4.439-9.895-4.446-15.655-.006-5.76 1.464-10.982 4.411-15.665 3.019-4.684 7.371-8.36 13.056-11.031 5.757-2.742 12.595-4.118 20.515-4.127 7.92-.008 14.726 1.352 20.417 4.082 5.763 2.657 10.123 6.324 13.08 11.001 3.029 4.677 4.547 9.895 4.553 15.655.007 5.76-1.5 10.982-4.518 15.665-2.947 4.683-7.299 8.396-13.056 11.139-5.685 2.67-12.488 4.01-20.408 4.018zm-.013-11.88c4.752-.005 8.783-.801 12.094-2.389 3.382-1.588 5.935-3.823 7.66-6.705 1.725-2.882 2.585-6.159 2.581-9.831-.004-3.672-.872-6.947-2.603-9.825-1.731-2.878-4.289-5.107-7.675-6.687-3.314-1.58-7.347-2.368-12.099-2.363-4.752.006-8.819.802-12.201 2.39-3.31 1.588-5.828 3.822-7.553 6.704-1.725 2.882-2.585 6.159-2.581 9.831.004 3.672.872 6.947 2.603 9.825 1.731 2.878 4.254 5.108 7.568 6.688 3.385 1.58 7.454 2.368 12.206 2.362zm49.36 31.265l-.089-79.919 15.12-.017.009 7.776.648-.001c1.941-2.09 4.963-4.074 9.065-5.95 4.174-1.949 9.033-2.926 14.577-2.932 6.408-.007 12.061 1.318 16.96 3.977 4.971 2.658 8.827 6.326 11.568 11.003 2.742 4.605 4.115 9.859 4.122 15.763.007 5.904-1.356 11.198-4.086 15.881-2.731 4.611-6.579 8.251-11.544 10.921-4.893 2.669-10.544 4.007-16.952 4.015-5.256.005-10.009-.889-14.259-2.685-4.25-1.867-7.384-3.915-9.403-6.145l-.648.001.032 28.296-15.12.016zm35.065-31.359c4.32-.004 8.063-.801 11.229-2.388 3.239-1.66 5.72-3.894 7.445-6.704 1.725-2.882 2.585-6.159 2.581-9.831-.004-3.672-.872-6.911-2.603-9.717-1.731-2.878-4.218-5.108-7.459-6.688-3.17-1.653-6.915-2.476-11.235-2.472-3.168.004-6.12.439-8.855 1.306-2.735.795-5.038 1.806-6.908 3.032-1.871 1.226-3.273 2.488-4.208 3.785l.024 21.6c.937 1.295 2.343 2.553 4.216 3.775 1.874 1.222 4.179 2.263 6.916 3.124 2.737.789 5.689 1.182 8.857 1.178zm48.312 10.747l-.066-59.4 15.12-.017.052 46.548.54-.001 29.432-46.581 19.332-.021.067 59.4-15.121.017-.051-46.548h-.54l-29.433 46.581-19.332.022zm97.585-.109l-.052-46.98-26.136.029-.014-12.42 67.394-.075.01 12.42-26.134.029.052 46.98-15.12.017zm91.432 2.706l-27.59-48.029-.54.001.05 45.252-15.12.016-.07-59.4 22.57-.025 20.56 36.374.54-.001 20.05-36.418 22.14-.025.07 59.4-15.12.017-.05-45.252h-.54l-26.95 48.09zm75.9-1.812c-7.42.008-13.11-1.569-17.07-4.733-3.96-3.236-5.95-7.409-5.95-12.521-.01-5.688 2.36-10.227 7.11-13.616 4.75-3.39 12.27-5.09 22.57-5.101 6.04-.007 10.62-.264 13.71-.772 3.1-.507 5.15-1.157 6.16-1.951 1-.865 1.5-1.909 1.5-3.133 0-1.296-.58-2.484-1.73-3.562-1.08-1.151-2.99-2.049-5.73-2.694-2.66-.717-6.3-1.073-10.9-1.068-5.4.006-10.77.768-16.09 2.286-5.26 1.446-9.43 3.107-12.53 4.982l-.01-13.176c2.66-1.659 6.69-3.139 12.09-4.441 5.4-1.374 11.27-2.065 17.6-2.072 7.71-.009 13.97.848 18.8 2.571 4.82 1.651 8.28 3.987 10.37 7.009 2.17 3.021 3.25 6.656 3.25 10.904l.05 39.96-15.12.017-.01-9.18h-.33c-1.43 1.586-3.52 3.172-6.25 4.759-2.67 1.587-5.87 2.923-9.61 4.007-3.67 1.012-7.63 1.52-11.88 1.525zm5.39-11.886c3.67-.004 7.02-.404 10.04-1.199 3.09-.796 5.69-1.807 7.77-3.033 2.16-1.226 3.78-2.452 4.86-3.677l-.01-11.448a23.4 23.4 0 01-3.24 1.407c-1.23.434-3.21.868-5.94 1.303-2.74.363-6.34.583-10.8.66-5.47.078-9.43.874-11.88 2.389-2.37 1.515-3.56 3.46-3.56 5.836.01 2.232 1.05 4.103 3.14 5.613 2.16 1.437 5.37 2.154 9.62 2.149zm93.42 13.504l-27.59-48.029h-.54l.05 45.252-15.12.017-.07-59.4 22.57-.025 20.56 36.373h.54l20.05-36.419 22.14-.024.07 59.4-15.12.016-.05-45.252-.54.001-26.95 48.09zm50.22 17.656l-.02-12.42 4.32-.005c4.47-.005 6.7-2.347 6.69-7.027l-.02-19.764c0-4.176.93-7.237 2.8-9.183 1.94-2.018 4.89-3.03 8.85-3.034v-1.08c-3.96.004-6.91-.964-8.86-2.906-1.87-2.014-2.81-5.145-2.82-9.393l-.02-20.52c-.01-4.68-2.24-7.018-6.7-7.013l-4.32.005-.02-12.42 5.62-.006c6.48-.007 11.23 1.499 14.26 4.52 3.1 2.949 4.65 7.555 4.66 13.819l.02 21.6c.01 2.304.58 4.031 1.74 5.182 1.22 1.151 3.09 1.725 5.61 1.722l2.38-.003.01 11.88-2.37.003c-2.52.003-4.39.581-5.62 1.734-1.15 1.081-1.72 2.774-1.72 5.078l.02 20.844c.01 6.264-1.53 10.874-4.62 13.829-3.02 3.027-7.78 4.545-14.26 4.552l-5.61.006z" fill="#fff"/></svg>