<svg width="963" height="966" fill="none" xmlns="http://www.w3.org/2000/svg"><path d="M.111 100.897L.08 72.524l7.552-.008c1.077-1.512 2.117-3.707 3.12-6.585 1.005-2.95 1.864-6.547 2.578-10.79.714-4.317 1.069-9.028 1.063-14.135l-.018-15.966 54.158-.06.053 47.468 9.385-.01.032 28.373-15.104.017-.018-16.507-47.684.053.018 16.507-15.104.016zm22.84-28.398l30.531-.034-.04-35.602-24.058.027.005 4.423c.008 6.617-.669 12.66-2.03 18.127-1.288 5.467-2.758 9.605-4.409 12.411l.001.648zm62.092 11.798l-.067-59.336 15.104-.017.052 46.498h.539l29.401-46.531 19.311-.022.066 59.336-15.104.017-.052-46.498h-.539l-29.4 46.531-19.311.022zm104.492.963c-5.466.005-10.717-.6-15.753-1.817-4.964-1.217-8.777-2.544-11.44-3.98l-.013-12.298c2.591 1.58 6.152 3.014 10.685 4.304a50.026 50.026 0 0013.811 1.926c6.113-.007 10.392-.623 12.836-1.848 2.444-1.225 3.665-3.025 3.662-5.398-.002-2.302-1.299-4.098-3.89-5.39-2.59-1.292-7.158-1.934-13.703-1.927l-11.328.013-.009-8.63 11.112-.013c4.171-.005 7.551-.296 10.14-.875 2.588-.65 4.421-1.515 5.499-2.595 1.077-1.08 1.615-2.34 1.614-3.778-.002-1.438-.543-2.696-1.623-3.774-1.008-1.077-2.735-1.939-5.181-2.583-2.374-.645-5.503-.965-9.387-.96-5.178.005-10.104.586-14.778 1.742-4.602 1.084-8.304 2.31-11.108 3.68l-.013-11.975c3.019-1.298 6.974-2.489 11.863-3.573 4.89-1.156 10.175-1.738 15.857-1.744 6.689-.007 12.228.778 16.617 2.355 4.461 1.506 7.699 3.516 9.716 6.03 2.088 2.516 3.134 5.212 3.137 8.088.003 2.446-.821 4.712-2.473 6.8-1.58 2.087-3.88 3.78-6.899 5.078-2.947 1.298-6.399 2.021-10.355 2.17l.001.647c6.401.064 11.365 1.39 14.893 3.975 3.598 2.513 5.4 5.712 5.404 9.595.004 3.021-1 5.791-3.011 8.31-2.011 2.52-5.173 4.573-9.487 6.16-4.314 1.516-9.779 2.277-16.396 2.284zm60.497-.068c-7.408.008-13.091-1.568-17.05-4.728-3.96-3.232-5.942-7.401-5.948-12.508-.006-5.681 2.362-10.215 7.105-13.6 4.743-3.387 12.257-5.085 22.542-5.096 6.042-.007 10.608-.264 13.701-.77 3.092-.508 5.141-1.157 6.147-1.95 1.006-.864 1.508-1.907 1.507-3.13-.002-1.294-.579-2.48-1.73-3.558-1.081-1.15-2.988-2.047-5.721-2.69-2.662-.717-6.295-1.073-10.898-1.068-5.394.006-10.751.768-16.072 2.284-5.248 1.444-9.418 3.103-12.509 4.976l-.014-13.161c2.659-1.658 6.685-3.136 12.078-4.437 5.392-1.372 11.253-2.062 17.582-2.07 7.696-.008 13.954.848 18.775 2.569 4.82 1.649 8.275 3.983 10.364 7 2.161 3.02 3.244 6.65 3.249 10.893l.044 39.917-15.103.017-.01-9.17h-.324c-1.437 1.584-3.521 3.169-6.252 4.754-2.659 1.585-5.858 2.92-9.597 4.002-3.667 1.011-7.622 1.52-11.866 1.524zm5.381-11.873c3.668-.004 7.012-.404 10.032-1.198 3.092-.794 5.68-1.804 7.764-3.03 2.157-1.224 3.774-2.449 4.851-3.673l-.013-11.435c-.934.504-2.012.973-3.235 1.406-1.222.433-3.199.866-5.932 1.3-2.732.364-6.328.583-10.787.66-5.466.078-9.421.874-11.865 2.387-2.372 1.513-3.556 3.456-3.553 5.83.002 2.23 1.047 4.098 3.134 5.606 2.16 1.436 5.361 2.152 9.604 2.147zm50.166 10.732l-.066-59.335 15.104-.017.052 46.498.539-.001 29.4-46.53 19.311-.022.066 59.336-15.103.017-.052-46.498h-.539L324.89 84.03l-19.311.022zm31.75-68.001c-6.473.007-11.365-1.39-14.677-4.192-3.311-2.8-4.97-6.61-4.975-11.43l10.788-.012c.003 2.158.724 3.847 2.164 5.069 1.439 1.149 3.67 1.722 6.69 1.718 3.021-.003 5.25-.581 6.687-1.733 1.437-1.225 2.155-2.916 2.152-5.073l10.788-.012c.006 4.819-1.644 8.632-4.949 11.44-3.306 2.81-8.195 4.217-14.668 4.225zm95.181 67.86l-.066-59.335 15.104-.017.066 59.335-15.104.017zm-49.626.055l-.066-59.335 15.104-.017.066 59.336-15.104.016zm13.351-24.288l-.014-12.407 37.975-.042.014 12.407-37.975.042zM42.29 195.304c-7.479.009-13.99-1.315-19.53-3.97-5.541-2.727-9.789-6.426-12.743-11.097-2.954-4.672-4.434-9.885-4.44-15.639-.007-5.753 1.498-10.969 4.513-15.648 3.016-4.678 7.363-8.351 13.042-11.018 5.75-2.74 12.51-4.114 20.277-4.122 5.25-.006 10.142.672 14.675 2.033 4.532 1.29 8.31 2.796 11.332 4.519l.014 12.73c-3.095-2.083-6.836-3.841-11.225-5.274-4.39-1.434-9.065-2.148-14.027-2.142-4.963.005-9.17.801-12.62 2.387-3.45 1.586-6.037 3.819-7.76 6.698-1.723 2.807-2.583 6.08-2.578 9.82.004 3.668.834 6.94 2.492 9.815 1.729 2.875 4.249 5.101 7.559 6.68 3.31 1.579 7.267 2.365 11.87 2.36 4.819-.005 9.385-.694 13.699-2.065 4.385-1.371 7.872-2.957 10.459-4.758l.014 12.73c-2.66 1.513-6.218 2.884-10.676 4.111-4.458 1.228-9.24 1.845-14.346 1.85zm61.648-1.902c2.227-2.736 4.307-7.593 6.241-14.572 2.006-7.05 3.148-15.358 3.425-24.924l.518-19.096 54.481-.061.066 59.336-15.104.017-.052-46.93-24.382.028-.422 7.768c-.565 9.782-1.742 18.126-3.533 25.033-1.718 6.906-3.547 11.619-5.486 14.138l-15.751.018-.001-.755zm136.479 1.682c-7.408.008-13.847-1.315-19.316-3.97-5.469-2.655-9.645-6.283-12.527-10.883-2.882-4.671-4.326-9.956-4.333-15.854-.006-5.897 1.427-11.149 4.298-15.755 2.872-4.679 7.039-8.351 12.502-11.018 5.464-2.668 11.899-4.005 19.307-4.014 7.408-.008 13.847 1.316 19.316 3.971 5.469 2.655 9.644 6.318 12.526 10.99 2.882 4.6 4.327 9.848 4.333 15.746.007 5.898-1.426 11.185-4.298 15.864-2.871 4.606-7.039 8.242-12.502 10.91-5.463 2.667-11.898 4.005-19.306 4.013zm-58.798-1.014l-.066-59.335 15.104-.017.066 59.336-15.104.016zm12.702-25.366l-.01-8.631 12.515-.014.009 8.631-12.514.014zm46.082 14.513c4.388-.005 8.091-.8 11.11-2.386 3.091-1.586 5.426-3.782 7.005-6.589 1.579-2.878 2.366-6.188 2.362-9.928-.004-3.74-.799-7.011-2.384-9.814-1.586-2.875-3.926-5.102-7.02-6.681-3.023-1.579-6.727-2.366-11.115-2.361-4.387.004-8.126.8-11.217 2.386-3.019 1.585-5.318 3.817-6.897 6.696-1.579 2.807-2.367 6.08-2.362 9.82.004 3.74.799 7.047 2.384 9.923 1.585 2.803 3.889 4.994 6.912 6.573 3.094 1.579 6.835 2.366 11.222 2.361zm83.42 11.774c-8.415.009-15.429-1.277-21.042-3.86-5.541-2.583-9.68-6.319-12.419-11.206-2.738-4.888-4.111-10.856-4.119-17.904l-.004-3.237c-.014-12.371 2.925-21.975 8.815-28.815 5.961-6.839 14.768-10.265 26.42-10.278l12.945-.014 11.112-.013 10.034-.011 1.941-.002.014 12.407-2.805.003-8.846.01-9.494.01-15.319.017c-4.747.005-8.63.909-11.649 2.71-3.018 1.73-5.281 4.142-6.788 7.236-1.435 3.022-2.258 6.619-2.47 10.791h.108l.54-.001c.359 0 1.114-.468 2.264-1.405 2.659-2.088 5.749-3.854 9.272-5.296 3.522-1.443 8.233-2.167 14.13-2.174 7.624-.008 14.026 1.1 19.207 3.323 5.253 2.152 9.14 5.133 11.661 8.942 2.594 3.737 3.893 8.015 3.898 12.833.006 4.963-1.356 9.388-4.084 13.275-2.657 3.886-6.789 6.984-12.397 9.291-5.607 2.236-12.582 3.359-20.925 3.368zm-.122-12.406c4.675-.006 8.63-.621 11.865-1.848 3.307-1.226 5.787-2.955 7.438-5.186 1.724-2.232 2.584-4.822 2.581-7.771-.003-2.877-.869-5.429-2.598-7.657-1.656-2.227-4.14-3.951-7.449-5.17-3.238-1.219-7.195-1.826-11.87-1.82-4.603.005-8.558.62-11.865 1.847-3.235 1.226-5.714 2.955-7.438 5.186-1.652 2.232-2.476 4.786-2.473 7.663.004 2.949.834 5.537 2.49 7.765 1.729 2.227 4.212 3.951 7.45 5.17 3.31 1.219 7.266 1.826 11.869 1.821zm84.706 12.312c-7.911.009-14.745-1.314-20.502-3.969-5.685-2.727-10.04-6.426-13.066-11.097-2.954-4.672-4.434-9.885-4.441-15.638-.006-5.754 1.463-10.97 4.406-15.648 3.016-4.679 7.363-8.352 13.042-11.019 5.75-2.74 12.582-4.114 20.493-4.122 7.911-.009 14.71 1.35 20.394 4.076 5.757 2.655 10.113 6.318 13.067 10.99 3.025 4.672 4.542 9.884 4.548 15.638.006 5.754-1.498 10.97-4.514 15.648-2.943 4.678-7.29 8.387-13.041 11.127-5.679 2.667-12.474 4.005-20.386 4.014zm-.013-11.867c4.747-.005 8.774-.801 12.08-2.387 3.379-1.586 5.93-3.819 7.653-6.697 1.723-2.879 2.582-6.153 2.578-9.821-.004-3.668-.871-6.939-2.6-9.814s-4.285-5.102-7.667-6.68c-3.31-1.579-7.339-2.366-12.086-2.36-4.747.005-8.809.801-12.188 2.387-3.307 1.586-5.821 3.818-7.544 6.697-1.723 2.879-2.583 6.152-2.579 9.82.004 3.668.871 6.94 2.601 9.815 1.729 2.875 4.249 5.101 7.559 6.68 3.382 1.578 7.446 2.365 12.193 2.36zm49.284 10.733l-.066-59.335 38.514-.043c5.754-.007 10.537.707 14.351 2.141 3.813 1.435 6.584 3.373 8.313 5.817 1.801 2.371 2.703 5.103 2.706 8.196.003 2.589-.749 4.963-2.257 7.123-1.508 2.159-3.7 3.924-6.575 5.293-2.804 1.298-6.147 1.985-10.031 2.061l.001.648c6.185.065 10.861 1.318 14.029 3.76 3.239 2.37 4.86 5.389 4.865 9.057.004 4.387-1.969 8.021-5.922 10.903-3.881 2.881-9.705 4.326-17.472 4.334l-40.456.045zm37.962-11.37c3.668-.004 6.328-.582 7.981-1.735 1.725-1.152 2.586-2.7 2.584-4.642-.002-1.941-.867-3.487-2.594-4.636-1.656-1.149-4.317-1.721-7.985-1.717l-24.49.027-.009-8.63 22.655-.025c4.315-.005 7.443-.692 9.384-2.061 2.012-1.44 3.017-3.311 3.014-5.613-.002-2.302-1.011-4.134-3.027-5.499-1.943-1.436-5.073-2.152-9.388-2.147l-21.037.024.041 36.68 22.871-.026zm76.245-28.458c8.415-.009 14.818 1.818 19.209 5.481 4.464 3.591 6.698 8.371 6.705 14.341.007 5.969-2.217 10.791-6.673 14.464-4.383 3.601-10.782 5.406-19.197 5.415l-39.053.044-.066-59.336 15.103-.017.033 29.776.021 18.232 22.331-.025c3.956-.004 6.904-.763 8.844-2.275 2.012-1.585 3.017-3.672 3.014-6.261-.003-2.589-1.012-4.638-3.028-6.146-1.943-1.58-4.893-2.368-8.849-2.363l-24.273.027-.013-11.328 25.892-.029zm94.986 40.674c-7.408.009-13.847-1.315-19.316-3.97-5.469-2.655-9.644-6.282-12.526-10.882-2.882-4.672-4.327-9.956-4.333-15.854-.007-5.898 1.426-11.15 4.298-15.756 2.871-4.678 7.039-8.351 12.502-11.018 5.463-2.667 11.899-4.005 19.306-4.013 7.408-.008 13.847 1.315 19.316 3.97 5.469 2.655 9.645 6.319 12.527 10.99 2.882 4.6 4.326 9.849 4.333 15.747.006 5.897-1.426 11.185-4.298 15.863-2.872 4.606-7.039 8.243-12.502 10.91-5.464 2.667-11.899 4.005-19.307 4.013zm-58.798-1.013l-.066-59.336 15.104-.017.066 59.336-15.104.017zm12.702-25.367l-.009-8.63 12.514-.014.01 8.63-12.515.014zm46.083 14.513c4.387-.005 8.09-.8 11.109-2.386 3.091-1.585 5.426-3.781 7.005-6.588 1.579-2.879 2.367-6.188 2.363-9.928-.005-3.74-.799-7.012-2.385-9.815-1.585-2.875-3.925-5.102-7.02-6.681-3.022-1.579-6.727-2.366-11.114-2.361-4.388.005-8.127.8-11.217 2.386-3.019 1.586-5.318 3.818-6.898 6.697-1.579 2.806-2.366 6.08-2.362 9.82.004 3.739.799 7.047 2.384 9.922 1.586 2.803 3.89 4.994 6.912 6.573 3.095 1.579 6.835 2.366 11.223 2.361zM28.736 965.797c-6.48.007-11.27-1.5-14.369-4.52-3.027-2.949-4.544-7.555-4.55-13.819l-.024-20.844c-.003-2.304-.617-3.995-1.842-5.074-1.153-1.151-2.99-1.725-5.51-1.722l-2.376.003-.013-11.88 2.376-.003c2.52-.003 4.355-.581 5.506-1.734 1.223-1.153 1.833-2.882 1.83-5.186l-.024-21.6c-.007-6.264 1.5-10.874 4.521-13.829 3.093-3.027 7.879-4.545 14.359-4.552l5.616-.006.014 12.42-4.32.005c-4.464.005-6.694 2.347-6.688 7.027l.022 20.52c.005 4.248-.963 7.381-2.905 9.399-1.87 1.946-4.785 2.922-8.745 2.926l.001 1.08c3.96-.004 6.877 1 8.752 3.014 1.946 1.942 2.921 5.001 2.926 9.177l.022 19.764c.005 4.68 2.24 7.017 6.704 7.013l4.32-.005.014 12.42-5.617.006zm13.174-20.535l-.066-59.4 15.12-.017.029 25.812h.108l31.075-25.846 20.088-.023-35.608 28.876 35.566 30.525-19.98.022-31.135-27.506H57l.03 27.54-15.12.017zm119.606.947c-7.416.008-13.106-1.569-17.069-4.733-3.964-3.235-5.948-7.409-5.954-12.521-.007-5.688 2.364-10.227 7.113-13.616 4.748-3.389 12.27-5.09 22.566-5.101 6.048-.007 10.62-.264 13.715-.771 3.096-.508 5.147-1.158 6.154-1.951 1.007-.865 1.51-1.91 1.508-3.134-.001-1.296-.578-2.483-1.731-3.562-1.082-1.151-2.991-2.049-5.727-2.694-2.665-.717-6.302-1.073-10.91-1.068-5.4.006-10.763.768-16.089 2.286-5.255 1.446-9.429 3.107-12.523 4.982l-.014-13.176c2.662-1.659 6.692-3.139 12.091-4.441 5.398-1.374 11.266-2.065 17.602-2.072 7.704-.008 13.968.849 18.794 2.571 4.826 1.651 8.285 3.987 10.376 7.009 2.164 3.021 3.248 6.656 3.252 10.904l.045 39.96-15.12.017-.01-9.18h-.324c-1.439 1.586-3.525 3.172-6.259 4.759-2.662 1.587-5.865 2.923-9.608 4.007-3.671 1.012-7.63 1.52-11.878 1.525zm5.387-11.886c3.672-.004 7.019-.404 10.042-1.199 3.096-.795 5.686-1.806 7.773-3.033 2.159-1.226 3.777-2.452 4.856-3.677l-.013-11.448c-.935.505-2.015.974-3.238 1.408-1.224.433-3.203.867-5.939 1.302-2.735.363-6.335.583-10.799.66-5.472.078-9.431.875-11.877 2.389-2.375 1.515-3.56 3.46-3.558 5.836.003 2.232 1.049 4.103 3.138 5.613 2.162 1.438 5.367 2.154 9.615 2.149zm43.199 9.996c2.229-2.738 4.312-7.601 6.248-14.587 2.008-7.058 3.151-15.375 3.428-24.952l.519-19.116 54.54-.061.066 59.4-15.12.017-.052-46.98-24.408.027-.424 7.777c-.565 9.792-1.743 18.145-3.536 25.059-1.72 6.914-3.551 11.632-5.492 14.155l-15.768.017-.001-.756zm77.765.67l-.066-59.4 53.136-.059.014 12.42-38.016.042.052 46.98-15.12.017zm93.852.975c-7.92.009-14.761-1.315-20.524-3.973-5.691-2.73-10.051-6.433-13.08-11.109-2.958-4.677-4.439-9.895-4.446-15.655-.006-5.76 1.464-10.982 4.411-15.665 3.019-4.684 7.37-8.361 13.055-11.031 5.757-2.742 12.596-4.118 20.516-4.127 7.92-.009 14.725 1.352 20.416 4.082 5.763 2.657 10.124 6.324 13.081 11.001 3.029 4.677 4.547 9.895 4.553 15.655.007 5.76-1.5 10.982-4.518 15.665-2.947 4.683-7.299 8.396-13.056 11.139-5.685 2.67-12.488 4.009-20.408 4.018zm-.013-11.88c4.752-.005 8.783-.802 12.094-2.389 3.382-1.588 5.935-3.823 7.66-6.705 1.725-2.882 2.585-6.159 2.581-9.831-.004-3.672-.872-6.947-2.603-9.825-1.731-2.878-4.289-5.107-7.675-6.687-3.314-1.581-7.347-2.368-12.099-2.363-4.752.006-8.819.802-12.201 2.39-3.31 1.588-5.828 3.822-7.553 6.704-1.725 2.882-2.585 6.159-2.581 9.831.004 3.672.872 6.947 2.603 9.825 1.731 2.878 4.254 5.108 7.568 6.688 3.385 1.58 7.454 2.368 12.206 2.362zm49.36 31.265l-.089-79.92 15.12-.016.009 7.776.648-.001c1.941-2.09 4.963-4.074 9.065-5.95 4.174-1.949 9.033-2.926 14.577-2.932 6.408-.008 12.061 1.318 16.96 3.977 4.971 2.658 8.827 6.326 11.568 11.003 2.742 4.605 4.115 9.859 4.122 15.763.007 5.904-1.356 11.198-4.086 15.881-2.731 4.611-6.579 8.251-11.544 10.921-4.893 2.669-10.544 4.007-16.952 4.015-5.256.005-10.009-.889-14.259-2.685-4.25-1.867-7.384-3.915-9.403-6.145l-.648.001.032 28.296-15.12.016zm35.065-31.359c4.32-.004 8.063-.801 11.229-2.388 3.238-1.66 5.72-3.895 7.445-6.704 1.725-2.882 2.585-6.159 2.581-9.831-.004-3.672-.872-6.911-2.603-9.717-1.731-2.879-4.218-5.108-7.459-6.688-3.17-1.653-6.915-2.476-11.235-2.472-3.168.004-6.12.439-8.855 1.306-2.735.795-5.038 1.806-6.908 3.032-1.871 1.226-3.273 2.488-4.208 3.785l.024 21.6c.937 1.295 2.343 2.553 4.216 3.775 1.874 1.222 4.179 2.263 6.916 3.124 2.737.789 5.689 1.182 8.857 1.178zm48.312 10.747l-.066-59.4 15.12-.017.052 46.548.54-.001 29.432-46.581 19.332-.021.066 59.4-15.12.017-.051-46.548h-.54l-29.433 46.581-19.332.022zm97.585-.109l-.052-46.98-26.136.029-.014-12.42 67.392-.075.014 12.42-26.136.029.052 46.98-15.12.017zm91.431 2.706l-27.593-48.029-.54.001.05 45.252-15.12.016-.066-59.4 22.572-.025 20.56 36.373h.54l20.048-36.419 22.14-.024.066 59.4-15.12.017-.05-45.252h-.54l-26.947 48.09zm75.901-1.812c-7.416.008-13.106-1.57-17.069-4.733-3.964-3.236-5.949-7.41-5.954-12.522-.007-5.688 2.364-10.226 7.113-13.615 4.748-3.39 12.27-5.09 22.566-5.102 6.048-.006 10.62-.263 13.715-.771 3.096-.507 5.147-1.158 6.154-1.951 1.007-.865 1.51-1.909 1.509-3.133-.002-1.296-.579-2.484-1.732-3.562-1.082-1.151-2.991-2.049-5.727-2.694-2.665-.717-6.302-1.073-10.91-1.068-5.4.006-10.763.768-16.089 2.286-5.255 1.446-9.429 3.106-12.523 4.982l-.014-13.176c2.662-1.659 6.692-3.14 12.091-4.442 5.398-1.374 11.266-2.064 17.602-2.071 7.704-.009 13.968.848 18.794 2.571 4.826 1.651 8.285 3.987 10.376 7.008 2.164 3.022 3.248 6.657 3.252 10.905l.045 39.96-15.12.017-.01-9.18h-.324c-1.439 1.586-3.525 3.172-6.259 4.759-2.662 1.587-5.865 2.922-9.608 4.007-3.671 1.012-7.63 1.52-11.878 1.525zm5.387-11.886c3.672-.004 7.019-.404 10.042-1.199 3.095-.796 5.686-1.807 7.773-3.033 2.159-1.226 3.777-2.452 4.856-3.677l-.013-11.448c-.935.505-2.015.974-3.238 1.407-1.224.434-3.203.868-5.939 1.303-2.735.363-6.335.583-10.799.66-5.472.078-9.431.874-11.877 2.389-2.375 1.515-3.561 3.46-3.558 5.836.003 2.232 1.049 4.103 3.138 5.613 2.162 1.437 5.367 2.154 9.615 2.149zm93.423 13.504l-27.593-48.029h-.54l.05 45.252-15.12.017-.066-59.4 22.572-.025 20.56 36.373.54-.001 20.048-36.418 22.14-.025.066 59.4-15.12.017-.05-45.252-.54.001-26.947 48.09zm50.219 17.656l-.014-12.42 4.32-.005c4.464-.005 6.693-2.347 6.688-7.027l-.022-19.764c-.005-4.176.928-7.237 2.798-9.183 1.942-2.018 4.893-3.03 8.853-3.034l-.002-1.08c-3.96.004-6.913-.964-8.859-2.906-1.874-2.014-2.814-5.145-2.818-9.393l-.023-20.52c-.005-4.68-2.24-7.018-6.704-7.013l-4.32.005-.014-12.42 5.616-.006c6.48-.007 11.234 1.499 14.261 4.52 3.099 2.949 4.653 7.555 4.66 13.819l.024 21.6c.002 2.304.58 4.031 1.733 5.182 1.226 1.151 3.098 1.724 5.618 1.722l2.376-.003.013 11.88-2.376.003c-2.52.002-4.391.581-5.614 1.734-1.15 1.081-1.725 2.774-1.722 5.078l.023 20.844c.007 6.264-1.536 10.874-4.628 13.829-3.021 3.027-7.771 4.545-14.251 4.552l-5.616.006z" fill="#363636"/></svg>