<svg width="1326" height="305" fill="none" xmlns="http://www.w3.org/2000/svg"><path d="M159.447 253.832l14.5 6.793L184 266.448l-3.48 6.406-10.247-6.212-12.953-8.928 1.353 15.916v11.84h-7.346v-11.84l1.353-15.916-12.76 8.928-10.44 6.212-3.48-6.406 10.053-5.823 14.694-6.793-14.694-6.794L126 241.021l3.48-6.211 10.44 6.017 12.76 9.123-1.353-15.917v-12.034h7.346v12.034l-1.353 15.917 12.953-9.123 10.247-6.017 3.48 6.211-10.053 6.017-14.5 6.794zM1293.92 286.47c-7.12.008-13.42-1.342-18.93-4.049-5.43-2.781-9.72-6.589-12.88-11.426-3.08-4.91-4.63-10.555-4.64-16.935-.01-6.453 1.45-12.101 4.38-16.945 2.93-4.843 7-8.624 12.2-11.343 5.2-2.719 11.18-4.083 17.93-4.09 6.67-.008 12.5 1.453 17.49 4.38 4.99 2.928 8.85 7.067 11.56 12.417 2.8 5.277 4.2 11.436 4.21 18.476l-60.06.067-.01-8.03 55.77-.062-5.94 3.636c-.22-4.62-1.33-8.615-3.31-11.986-1.99-3.371-4.67-5.972-8.04-7.801-3.38-1.83-7.3-2.742-11.77-2.737-4.84.005-9.06 1-12.65 2.984-3.59 1.911-6.41 4.627-8.46 8.149-1.98 3.523-2.96 7.667-2.96 12.434.01 4.986 1.15 9.312 3.43 12.976 2.27 3.664 5.47 6.484 9.58 8.459 4.1 1.976 8.95 2.96 14.52 2.954a44.857 44.857 0 0014.85-2.546c4.91-1.693 9.3-4.007 13.19-6.945l.01 7.92c-3.81 3.084-8.36 5.546-13.64 7.385-5.27 1.766-10.55 2.652-15.83 2.658z" fill="#363636"/><path d="M1293.92 286.47c-7.12.008-13.42-1.342-18.93-4.049-5.43-2.781-9.72-6.589-12.88-11.426-3.08-4.91-4.63-10.555-4.64-16.935-.01-6.453 1.45-12.101 4.38-16.945 2.93-4.843 7-8.624 12.2-11.343 5.2-2.719 11.18-4.083 17.93-4.09 6.67-.008 12.5 1.453 17.49 4.38 4.99 2.928 8.85 7.067 11.56 12.417 2.8 5.277 4.2 11.436 4.21 18.476l-60.06.067-.01-8.03 55.77-.062-5.94 3.636c-.22-4.62-1.33-8.615-3.31-11.986-1.99-3.371-4.67-5.972-8.04-7.801-3.38-1.83-7.3-2.742-11.77-2.737-4.84.005-9.06 1-12.65 2.984-3.59 1.911-6.41 4.627-8.46 8.149-1.98 3.523-2.96 7.667-2.96 12.434.01 4.986 1.15 9.312 3.43 12.976 2.27 3.664 5.47 6.484 9.58 8.459 4.1 1.976 8.95 2.96 14.52 2.954a44.857 44.857 0 0014.85-2.546c4.91-1.693 9.3-4.007 13.19-6.945l.01 7.92c-3.81 3.084-8.36 5.546-13.64 7.385-5.27 1.766-10.55 2.652-15.83 2.658z" fill="url(#paint0_linear_79_134)" fill-opacity=".8"/><path d="M1179.2 285.167l-.07-61.93 10.01-.011.07 57.31-3.85-.546 47.34-56.812 13.09-.015.07 61.93-10.01.011-.06-57.86 3.96.656-47.68 57.253-12.87.014z" fill="#363636"/><path d="M1179.2 285.167l-.07-61.93 10.01-.011.07 57.31-3.85-.546 47.34-56.812 13.09-.015.07 61.93-10.01.011-.06-57.86 3.96.656-47.68 57.253-12.87.014z" fill="url(#paint1_linear_79_134)" fill-opacity=".8"/><path d="M1100.53 223.325l10.01-.011.06 61.93-10.01.011-.06-61.93zm53.24-.06l10.12-.011.06 61.93-10.12.011-.06-61.93zm-47.6 26.563l52.36-.058v8.25l-52.36.058v-8.25z" fill="#363636"/><path d="M1100.53 223.325l10.01-.011.06 61.93-10.01.011-.06-61.93zm53.24-.06l10.12-.011.06 61.93-10.12.011-.06-61.93zm-47.6 26.563l52.36-.058v8.25l-52.36.058v-8.25z" fill="url(#paint2_linear_79_134)" fill-opacity=".8"/><path d="M1078.15 253.27l.01 7.7-32.23.035-.11-.219c-4.4.004-8.25-.761-11.56-2.298-3.22-1.536-5.76-3.697-7.59-6.481-1.84-2.858-2.76-6.157-2.76-9.897-.01-3.667.91-6.894 2.74-9.683 1.83-2.862 4.35-5.065 7.58-6.609 3.3-1.617 7.15-2.428 11.55-2.432l39.38-.044.06 61.93-10.12.011-.06-58.74 3.85 4.616-31.57.035c-4.1.004-7.33.998-9.67 2.981-2.35 1.982-3.52 4.66-3.51 8.034 0 3.3 1.18 5.975 3.53 8.026 2.34 2.05 5.57 3.073 9.68 3.069l30.8-.034zm-18.59 2.99l-24.5 29.068-12.21.013 24.83-29.068 11.88-.013z" fill="#363636"/><path d="M1078.15 253.27l.01 7.7-32.23.035-.11-.219c-4.4.004-8.25-.761-11.56-2.298-3.22-1.536-5.76-3.697-7.59-6.481-1.84-2.858-2.76-6.157-2.76-9.897-.01-3.667.91-6.894 2.74-9.683 1.83-2.862 4.35-5.065 7.58-6.609 3.3-1.617 7.15-2.428 11.55-2.432l39.38-.044.06 61.93-10.12.011-.06-58.74 3.85 4.616-31.57.035c-4.1.004-7.33.998-9.67 2.981-2.35 1.982-3.52 4.66-3.51 8.034 0 3.3 1.18 5.975 3.53 8.026 2.34 2.05 5.57 3.073 9.68 3.069l30.8-.034zm-18.59 2.99l-24.5 29.068-12.21.013 24.83-29.068 11.88-.013z" fill="url(#paint3_linear_79_134)" fill-opacity=".8"/><path d="M945.1 285.428l-.069-61.93 10.01-.011.064 57.31-3.851-.546 47.347-56.813 13.089-.014.07 61.93-10.01.011-.06-57.86 3.96.655-47.68 57.253-12.87.015z" fill="#363636"/><path d="M945.1 285.428l-.069-61.93 10.01-.011.064 57.31-3.851-.546 47.347-56.813 13.089-.014.07 61.93-10.01.011-.06-57.86 3.96.655-47.68 57.253-12.87.015z" fill="url(#paint4_linear_79_134)" fill-opacity=".8"/><path d="M934.18 261.9c-.801 4.914-2.813 9.243-6.036 12.987-3.149 3.743-7.179 6.681-12.09 8.813-4.911 2.132-10.336 3.202-16.276 3.208-6.894.008-12.982-1.342-18.265-4.05-5.283-2.78-9.43-6.589-12.442-11.426-2.939-4.91-4.412-10.555-4.419-16.935-.007-6.38 1.453-11.991 4.381-16.835 3.001-4.916 7.14-8.734 12.417-11.454 5.277-2.719 11.362-4.082 18.256-4.09 5.94-.006 11.368 1.051 16.283 3.172 4.916 2.048 8.952 4.94 12.11 8.677 3.231 3.736 5.252 8.097 6.064 13.083l-10.45.011c-1.105-5.132-3.86-9.162-8.263-12.09-4.33-3.002-9.575-4.5-15.735-4.493-4.987.006-9.349 1.001-13.087 2.985-3.664 1.984-6.521 4.774-8.57 8.369-2.05 3.523-3.072 7.74-3.066 12.654.005 4.913 1.037 9.165 3.094 12.756 2.057 3.591 4.92 6.375 8.589 8.351 3.742 1.902 8.107 2.851 13.093 2.845 6.234-.007 11.512-1.516 15.835-4.527 4.397-3.012 7.106-7.012 8.127-12l10.45-.011z" fill="#363636"/><path d="M934.18 261.9c-.801 4.914-2.813 9.243-6.036 12.987-3.149 3.743-7.179 6.681-12.09 8.813-4.911 2.132-10.336 3.202-16.276 3.208-6.894.008-12.982-1.342-18.265-4.05-5.283-2.78-9.43-6.589-12.442-11.426-2.939-4.91-4.412-10.555-4.419-16.935-.007-6.38 1.453-11.991 4.381-16.835 3.001-4.916 7.14-8.734 12.417-11.454 5.277-2.719 11.362-4.082 18.256-4.09 5.94-.006 11.368 1.051 16.283 3.172 4.916 2.048 8.952 4.94 12.11 8.677 3.231 3.736 5.252 8.097 6.064 13.083l-10.45.011c-1.105-5.132-3.86-9.162-8.263-12.09-4.33-3.002-9.575-4.5-15.735-4.493-4.987.006-9.349 1.001-13.087 2.985-3.664 1.984-6.521 4.774-8.57 8.369-2.05 3.523-3.072 7.74-3.066 12.654.005 4.913 1.037 9.165 3.094 12.756 2.057 3.591 4.92 6.375 8.589 8.351 3.742 1.902 8.107 2.851 13.093 2.845 6.234-.007 11.512-1.516 15.835-4.527 4.397-3.012 7.106-7.012 8.127-12l10.45-.011z" fill="url(#paint5_linear_79_134)" fill-opacity=".8"/><path d="M796.306 287.023c-7.114.008-13.422-1.342-18.925-4.049-5.43-2.78-9.724-6.589-12.883-11.425-3.085-4.91-4.631-10.555-4.638-16.935-.008-6.454 1.453-12.102 4.381-16.945s6.993-8.625 12.197-11.344c5.204-2.719 11.179-4.082 17.926-4.09 6.673-.007 12.505 1.453 17.494 4.381 4.99 2.928 8.845 7.067 11.564 12.417 2.793 5.277 4.193 11.435 4.201 18.475l-60.06.067-.009-8.03 55.77-.062-5.936 3.637c-.225-4.62-1.33-8.616-3.313-11.987-1.984-3.371-4.664-5.971-8.039-7.801-3.375-1.829-7.3-2.742-11.773-2.737-4.84.006-9.056 1-12.647 2.984-3.591 1.911-6.411 4.628-8.461 8.15-1.976 3.522-2.961 7.667-2.956 12.433.006 4.987 1.147 9.312 3.425 12.976 2.277 3.664 5.47 6.484 9.579 8.46 4.109 1.975 8.95 2.96 14.523 2.954a44.832 44.832 0 0014.847-2.547c4.912-1.692 9.309-4.007 13.193-6.945l.009 7.92c-3.81 3.085-8.354 5.546-13.632 7.386-5.278 1.765-10.557 2.651-15.837 2.657z" fill="#363636"/><path d="M796.306 287.023c-7.114.008-13.422-1.342-18.925-4.049-5.43-2.78-9.724-6.589-12.883-11.425-3.085-4.91-4.631-10.555-4.638-16.935-.008-6.454 1.453-12.102 4.381-16.945s6.993-8.625 12.197-11.344c5.204-2.719 11.179-4.082 17.926-4.09 6.673-.007 12.505 1.453 17.494 4.381 4.99 2.928 8.845 7.067 11.564 12.417 2.793 5.277 4.193 11.435 4.201 18.475l-60.06.067-.009-8.03 55.77-.062-5.936 3.637c-.225-4.62-1.33-8.616-3.313-11.987-1.984-3.371-4.664-5.971-8.039-7.801-3.375-1.829-7.3-2.742-11.773-2.737-4.84.006-9.056 1-12.647 2.984-3.591 1.911-6.411 4.628-8.461 8.15-1.976 3.522-2.961 7.667-2.956 12.433.006 4.987 1.147 9.312 3.425 12.976 2.277 3.664 5.47 6.484 9.579 8.46 4.109 1.975 8.95 2.96 14.523 2.954a44.832 44.832 0 0014.847-2.547c4.912-1.692 9.309-4.007 13.193-6.945l.009 7.92c-3.81 3.085-8.354 5.546-13.632 7.386-5.278 1.765-10.557 2.651-15.837 2.657z" fill="url(#paint6_linear_79_134)" fill-opacity=".8"/><path d="M715.236 287.113c-7.26.008-13.678-1.341-19.255-4.048-5.503-2.707-9.797-6.516-12.882-11.426-3.086-4.91-4.632-10.555-4.639-16.935-.007-6.453 1.526-12.101 4.601-16.945 3.074-4.843 7.36-8.625 12.857-11.344 5.571-2.72 11.986-4.084 19.246-4.092 7.333-.008 13.751 1.342 19.254 4.049 5.503 2.707 9.797 6.479 12.883 11.316 3.158 4.836 4.741 10.481 4.749 16.934.007 6.38-1.564 12.029-4.712 16.946-3.074 4.916-7.36 8.734-12.857 11.454-5.497 2.719-11.912 4.083-19.245 4.091zm-.01-8.47c5.427-.006 10.119-.964 14.077-2.875 3.958-1.985 6.998-4.775 9.121-8.37 2.196-3.596 3.291-7.851 3.286-12.764-.006-4.84-1.11-9.056-3.314-12.646-2.131-3.591-5.178-6.375-9.14-8.35-3.962-1.976-8.656-2.961-14.083-2.955-5.353.006-10.046 1.002-14.077 2.986-3.958 1.984-6.998 4.775-9.12 8.37-2.123 3.596-3.182 7.814-3.176 12.654.005 4.913 1.073 9.165 3.204 12.756 2.131 3.591 5.177 6.374 9.139 8.35 4.036 1.902 8.73 2.85 14.083 2.844z" fill="#363636"/><path d="M715.236 287.113c-7.26.008-13.678-1.341-19.255-4.048-5.503-2.707-9.797-6.516-12.882-11.426-3.086-4.91-4.632-10.555-4.639-16.935-.007-6.453 1.526-12.101 4.601-16.945 3.074-4.843 7.36-8.625 12.857-11.344 5.571-2.72 11.986-4.084 19.246-4.092 7.333-.008 13.751 1.342 19.254 4.049 5.503 2.707 9.797 6.479 12.883 11.316 3.158 4.836 4.741 10.481 4.749 16.934.007 6.38-1.564 12.029-4.712 16.946-3.074 4.916-7.36 8.734-12.857 11.454-5.497 2.719-11.912 4.083-19.245 4.091zm-.01-8.47c5.427-.006 10.119-.964 14.077-2.875 3.958-1.985 6.998-4.775 9.121-8.37 2.196-3.596 3.291-7.851 3.286-12.764-.006-4.84-1.11-9.056-3.314-12.646-2.131-3.591-5.178-6.375-9.14-8.35-3.962-1.976-8.656-2.961-14.083-2.955-5.353.006-10.046 1.002-14.077 2.986-3.958 1.984-6.998 4.775-9.12 8.37-2.123 3.596-3.182 7.814-3.176 12.654.005 4.913 1.073 9.165 3.204 12.756 2.131 3.591 5.177 6.374 9.139 8.35 4.036 1.902 8.73 2.85 14.083 2.844z" fill="url(#paint7_linear_79_134)" fill-opacity=".8"/><path d="M603.558 223.878l10.01-.011.069 61.93-10.01.011-.069-61.93zm53.24-.06l10.12-.011.069 61.93-10.12.011-.069-61.93zm-47.6 26.563l52.36-.058.009 8.25-52.36.058-.009-8.25z" fill="#363636"/><path d="M603.558 223.878l10.01-.011.069 61.93-10.01.011-.069-61.93zm53.24-.06l10.12-.011.069 61.93-10.12.011-.069-61.93zm-47.6 26.563l52.36-.058.009 8.25-52.36.058-.009-8.25z" fill="url(#paint8_linear_79_134)" fill-opacity=".8"/><path d="M520.01 223.971l10.12-.012.026 23.43-.548 1.981.011 10.01.554 3.189.046 41.47-10.12.011-.089-80.079zm5.424 30.904c1.606-6.456 4.057-12.105 7.351-16.949 3.368-4.843 7.397-8.625 12.088-11.343 4.763-2.719 10.005-4.081 15.725-4.088 6.087-.006 11.478 1.344 16.175 4.052 4.696 2.708 8.367 6.481 11.012 11.318 2.719 4.837 4.082 10.482 4.089 16.936.007 6.38-1.343 12.028-4.051 16.944-2.635 4.843-6.297 8.66-10.987 11.452-4.69 2.719-10.079 4.082-16.166 4.088-5.72.007-10.964-1.344-15.734-4.052-4.697-2.708-8.734-6.48-12.113-11.317-3.305-4.909-5.768-10.59-7.389-17.041zm56.1-.063c-.005-4.693-1-8.835-2.984-12.427-1.91-3.591-4.59-6.374-8.039-8.351-3.376-2.049-7.227-3.072-11.553-3.067-4.4.005-8.469 1.036-12.207 3.094-3.664 1.984-6.925 4.774-9.781 8.371-2.856 3.596-5.234 7.742-7.136 12.438 1.912 4.691 4.3 8.832 7.164 12.422s6.131 6.41 9.799 8.459c3.743 1.976 7.814 2.961 12.214 2.956 4.326-.005 8.175-.999 11.546-2.983 3.445-2.057 6.118-4.883 8.021-8.479 1.976-3.595 2.961-7.74 2.956-12.433z" fill="#363636"/><path d="M520.01 223.971l10.12-.012.026 23.43-.548 1.981.011 10.01.554 3.189.046 41.47-10.12.011-.089-80.079zm5.424 30.904c1.606-6.456 4.057-12.105 7.351-16.949 3.368-4.843 7.397-8.625 12.088-11.343 4.763-2.719 10.005-4.081 15.725-4.088 6.087-.006 11.478 1.344 16.175 4.052 4.696 2.708 8.367 6.481 11.012 11.318 2.719 4.837 4.082 10.482 4.089 16.936.007 6.38-1.343 12.028-4.051 16.944-2.635 4.843-6.297 8.66-10.987 11.452-4.69 2.719-10.079 4.082-16.166 4.088-5.72.007-10.964-1.344-15.734-4.052-4.697-2.708-8.734-6.48-12.113-11.317-3.305-4.909-5.768-10.59-7.389-17.041zm56.1-.063c-.005-4.693-1-8.835-2.984-12.427-1.91-3.591-4.59-6.374-8.039-8.351-3.376-2.049-7.227-3.072-11.553-3.067-4.4.005-8.469 1.036-12.207 3.094-3.664 1.984-6.925 4.774-9.781 8.371-2.856 3.596-5.234 7.742-7.136 12.438 1.912 4.691 4.3 8.832 7.164 12.422s6.131 6.41 9.799 8.459c3.743 1.976 7.814 2.961 12.214 2.956 4.326-.005 8.175-.999 11.546-2.983 3.445-2.057 6.118-4.883 8.021-8.479 1.976-3.595 2.961-7.74 2.956-12.433z" fill="url(#paint9_linear_79_134)" fill-opacity=".8"/><path d="M477.259 287.378c-7.114.008-13.422-1.342-18.925-4.049-5.43-2.78-9.724-6.589-12.883-11.426-3.085-4.909-4.631-10.554-4.638-16.934-.008-6.454 1.453-12.102 4.381-16.945 2.928-4.844 6.993-8.625 12.197-11.344 5.204-2.719 11.179-4.082 17.926-4.09 6.673-.007 12.505 1.453 17.494 4.381 4.99 2.928 8.845 7.067 11.564 12.417 2.793 5.277 4.193 11.435 4.201 18.475l-60.06.067-.009-8.03 55.77-.062-5.936 3.637c-.225-4.62-1.33-8.616-3.313-11.987-1.984-3.371-4.664-5.971-8.039-7.801-3.375-1.829-7.3-2.742-11.773-2.737-4.84.006-9.056 1-12.647 2.984-3.591 1.911-6.411 4.628-8.461 8.15-1.976 3.522-2.961 7.666-2.956 12.433.006 4.987 1.147 9.312 3.425 12.976 2.277 3.664 5.47 6.484 9.579 8.46 4.109 1.975 8.95 2.96 14.523 2.954a44.832 44.832 0 0014.847-2.547c4.912-1.692 9.309-4.007 13.193-6.945l.009 7.92c-3.81 3.085-8.354 5.546-13.632 7.386-5.278 1.765-10.557 2.651-15.837 2.657z" fill="#363636"/><path d="M477.259 287.378c-7.114.008-13.422-1.342-18.925-4.049-5.43-2.78-9.724-6.589-12.883-11.426-3.085-4.909-4.631-10.554-4.638-16.934-.008-6.454 1.453-12.102 4.381-16.945 2.928-4.844 6.993-8.625 12.197-11.344 5.204-2.719 11.179-4.082 17.926-4.09 6.673-.007 12.505 1.453 17.494 4.381 4.99 2.928 8.845 7.067 11.564 12.417 2.793 5.277 4.193 11.435 4.201 18.475l-60.06.067-.009-8.03 55.77-.062-5.936 3.637c-.225-4.62-1.33-8.616-3.313-11.987-1.984-3.371-4.664-5.971-8.039-7.801-3.375-1.829-7.3-2.742-11.773-2.737-4.84.006-9.056 1-12.647 2.984-3.591 1.911-6.411 4.628-8.461 8.15-1.976 3.522-2.961 7.666-2.956 12.433.006 4.987 1.147 9.312 3.425 12.976 2.277 3.664 5.47 6.484 9.579 8.46 4.109 1.975 8.95 2.96 14.523 2.954a44.832 44.832 0 0014.847-2.547c4.912-1.692 9.309-4.007 13.193-6.945l.009 7.92c-3.81 3.085-8.354 5.546-13.632 7.386-5.278 1.765-10.557 2.651-15.837 2.657z" fill="url(#paint10_linear_79_134)" fill-opacity=".8"/><path d="M367.99 286.07l2.826-31.023-2.895-30.907 42.02-.047c6.013-.007 10.672 1.382 13.975 4.165 3.376 2.709 5.067 6.557 5.073 11.544.005 4.547-1.678 8.179-5.048 10.896-3.297 2.643-7.879 4.188-13.745 4.635l.988-2.091c7.04.065 12.431 1.489 16.174 4.272 3.743 2.709 5.618 6.594 5.623 11.654.006 5.28-1.896 9.425-5.706 12.436-3.737 2.937-8.978 4.41-15.725 4.417l-43.56.049zm9.897-2.981l-3.856-4.726 35.86-.04c4.327-.005 7.516-.851 9.568-2.54 2.124-1.689 3.185-4.111 3.182-7.264-.004-3.227-1.29-5.755-3.859-7.586-2.495-1.83-6.42-2.743-11.773-2.737l-30.58.034-.008-7.26 29.92-.033c4.033-.004 7.076-.924 9.127-2.76 2.125-1.836 3.185-4.257 3.182-7.264-.003-2.86-.959-5.095-2.868-6.706-1.835-1.685-4.696-2.525-8.582-2.521l-33.11.037 3.734-4.624 2.782 27.937-2.719 28.053z" fill="#363636"/><path d="M367.99 286.07l2.826-31.023-2.895-30.907 42.02-.047c6.013-.007 10.672 1.382 13.975 4.165 3.376 2.709 5.067 6.557 5.073 11.544.005 4.547-1.678 8.179-5.048 10.896-3.297 2.643-7.879 4.188-13.745 4.635l.988-2.091c7.04.065 12.431 1.489 16.174 4.272 3.743 2.709 5.618 6.594 5.623 11.654.006 5.28-1.896 9.425-5.706 12.436-3.737 2.937-8.978 4.41-15.725 4.417l-43.56.049zm9.897-2.981l-3.856-4.726 35.86-.04c4.327-.005 7.516-.851 9.568-2.54 2.124-1.689 3.185-4.111 3.182-7.264-.004-3.227-1.29-5.755-3.859-7.586-2.495-1.83-6.42-2.743-11.773-2.737l-30.58.034-.008-7.26 29.92-.033c4.033-.004 7.076-.924 9.127-2.76 2.125-1.836 3.185-4.257 3.182-7.264-.003-2.86-.959-5.095-2.868-6.706-1.835-1.685-4.696-2.525-8.582-2.521l-33.11.037 3.734-4.624 2.782 27.937-2.719 28.053z" fill="url(#paint11_linear_79_134)" fill-opacity=".8"/><path d="M326.49 287.546c-7.113.008-13.422-1.342-18.925-4.049-5.429-2.781-9.724-6.589-12.882-11.426-3.086-4.91-4.632-10.555-4.639-16.935-.007-6.453 1.453-12.101 4.381-16.945 2.928-4.843 6.994-8.624 12.197-11.343 5.204-2.719 11.179-4.083 17.926-4.09 6.673-.007 12.505 1.453 17.495 4.381 4.99 2.927 8.844 7.066 11.563 12.417 2.793 5.277 4.193 11.435 4.201 18.475l-60.06.067-.009-8.03 55.77-.062-5.936 3.636c-.225-4.619-1.329-8.615-3.313-11.986-1.984-3.371-4.664-5.971-8.039-7.801s-7.3-2.742-11.773-2.737c-4.84.005-9.055 1-12.647 2.984-3.591 1.911-6.411 4.627-8.461 8.15-1.976 3.522-2.961 7.666-2.956 12.433.006 4.987 1.147 9.312 3.425 12.976 2.277 3.664 5.47 6.484 9.579 8.459 4.109 1.976 8.95 2.96 14.523 2.954a44.81 44.81 0 0014.848-2.546c4.911-1.692 9.308-4.007 13.192-6.945l.009 7.92c-3.81 3.084-8.354 5.546-13.632 7.385-5.278 1.766-10.557 2.652-15.837 2.658z" fill="#363636"/><path d="M326.49 287.546c-7.113.008-13.422-1.342-18.925-4.049-5.429-2.781-9.724-6.589-12.882-11.426-3.086-4.91-4.632-10.555-4.639-16.935-.007-6.453 1.453-12.101 4.381-16.945 2.928-4.843 6.994-8.624 12.197-11.343 5.204-2.719 11.179-4.083 17.926-4.09 6.673-.007 12.505 1.453 17.495 4.381 4.99 2.927 8.844 7.066 11.563 12.417 2.793 5.277 4.193 11.435 4.201 18.475l-60.06.067-.009-8.03 55.77-.062-5.936 3.636c-.225-4.619-1.329-8.615-3.313-11.986-1.984-3.371-4.664-5.971-8.039-7.801s-7.3-2.742-11.773-2.737c-4.84.005-9.055 1-12.647 2.984-3.591 1.911-6.411 4.627-8.461 8.15-1.976 3.522-2.961 7.666-2.956 12.433.006 4.987 1.147 9.312 3.425 12.976 2.277 3.664 5.47 6.484 9.579 8.459 4.109 1.976 8.95 2.96 14.523 2.954a44.81 44.81 0 0014.848-2.546c4.911-1.692 9.308-4.007 13.192-6.945l.009 7.92c-3.81 3.084-8.354 5.546-13.632 7.385-5.278 1.766-10.557 2.652-15.837 2.658z" fill="url(#paint12_linear_79_134)" fill-opacity=".8"/><path d="M282.899 262.624c-.801 4.915-2.813 9.244-6.036 12.987-3.149 3.744-7.179 6.682-12.09 8.814-4.911 2.132-10.336 3.201-16.276 3.208-6.894.007-12.982-1.342-18.265-4.05-5.283-2.781-9.431-6.589-12.443-11.426-2.938-4.91-4.411-10.555-4.419-16.935-.007-6.38 1.454-11.992 4.382-16.835 3.001-4.917 7.14-8.735 12.417-11.454 5.277-2.719 11.362-4.083 18.255-4.09 5.94-.007 11.368 1.05 16.284 3.172 4.916 2.048 8.952 4.94 12.11 8.676 3.23 3.737 5.252 8.098 6.064 13.083l-10.45.012c-1.105-5.132-3.86-9.162-8.263-12.091-4.33-3.002-9.575-4.499-15.735-4.492-4.987.005-9.349 1-13.087 2.984-3.664 1.984-6.521 4.774-8.571 8.37-2.049 3.522-3.071 7.74-3.066 12.653.006 4.914 1.037 9.166 3.095 12.757 2.057 3.591 4.92 6.374 8.589 8.35 3.742 1.903 8.106 2.851 13.093 2.846 6.233-.007 11.512-1.516 15.835-4.528 4.397-3.011 7.106-7.011 8.127-11.999l10.45-.012z" fill="#363636"/><path d="M282.899 262.624c-.801 4.915-2.813 9.244-6.036 12.987-3.149 3.744-7.179 6.682-12.09 8.814-4.911 2.132-10.336 3.201-16.276 3.208-6.894.007-12.982-1.342-18.265-4.05-5.283-2.781-9.431-6.589-12.443-11.426-2.938-4.91-4.411-10.555-4.419-16.935-.007-6.38 1.454-11.992 4.382-16.835 3.001-4.917 7.14-8.735 12.417-11.454 5.277-2.719 11.362-4.083 18.255-4.09 5.94-.007 11.368 1.05 16.284 3.172 4.916 2.048 8.952 4.94 12.11 8.676 3.23 3.737 5.252 8.098 6.064 13.083l-10.45.012c-1.105-5.132-3.86-9.162-8.263-12.091-4.33-3.002-9.575-4.499-15.735-4.492-4.987.005-9.349 1-13.087 2.984-3.664 1.984-6.521 4.774-8.571 8.37-2.049 3.522-3.071 7.74-3.066 12.653.006 4.914 1.037 9.166 3.095 12.757 2.057 3.591 4.92 6.374 8.589 8.35 3.742 1.903 8.106 2.851 13.093 2.846 6.233-.007 11.512-1.516 15.835-4.528 4.397-3.011 7.106-7.011 8.127-11.999l10.45-.012z" fill="url(#paint13_linear_79_134)" fill-opacity=".8"/><path d="M848.848 60.548l-.065-58.552 9.464-.01.06 54.184-3.64-.516L899.431 1.94l12.376-.014.065 58.552-9.464.01-.061-54.703 3.745.62-45.076 54.13-12.168.013zm-77.569.086l-.065-58.552 9.464-.01.06 54.184-3.64-.516 44.764-53.714 12.376-.014.065 58.552-9.464.01-.061-54.703 3.745.62-45.076 54.13-12.168.013zm-8.051-58.543l.008 7.8-38.791.043 4.467-4.373.061 55.12-9.568.011-.065-58.552 43.888-.049zm-89.582 60.004c-6.864.008-12.932-1.268-18.204-3.828-5.203-2.56-9.263-6.16-12.18-10.802-2.917-4.642-4.379-9.98-4.386-16.011-.006-6.102 1.444-11.442 4.351-16.021 2.906-4.58 6.958-8.155 12.156-10.726 5.266-2.57 11.331-3.86 18.195-3.868 6.934-.008 13.002 1.268 18.205 3.828 5.202 2.56 9.262 6.126 12.179 10.698 2.987 4.573 4.484 9.91 4.49 16.011.007 6.032-1.478 11.373-4.454 16.021-2.907 4.649-6.959 8.259-12.156 10.83-5.197 2.57-11.262 3.86-18.196 3.868zm-.008-8.008c5.13-.006 9.567-.912 13.309-2.719 3.741-1.876 6.616-4.514 8.623-7.913 2.076-3.4 3.111-7.422 3.106-12.068-.005-4.576-1.049-8.561-3.133-11.956-2.014-3.396-4.895-6.027-8.641-7.895-3.746-1.868-8.184-2.799-13.315-2.793-5.061.006-9.498.947-13.309 2.823-3.742 1.876-6.616 4.514-8.623 7.913-2.007 3.4-3.008 7.388-3.003 11.964.005 4.645 1.015 8.665 3.03 12.06 2.014 3.395 4.894 6.027 8.641 7.895 3.815 1.798 8.253 2.695 13.315 2.689zM573.177 2.303l54.704-.061.065 58.552-9.568.01-.061-55.223 4.372 4.363-44.512.05 4.053-3.333c.421 4.367.737 8.666.95 12.895.282 4.16.425 7.869.428 11.127.013 10.886-1.435 18.826-4.341 23.821-2.907 4.926-7.549 7.393-13.928 7.4a19.296 19.296 0 01-4.889-.619 16.704 16.704 0 01-4.369-1.66l-.009-7.591c1.249.484 2.463.898 3.642 1.244 1.248.276 2.427.413 3.536.412 4.021-.005 6.931-1.914 8.73-5.73 1.867-3.815 2.797-10.022 2.787-18.619-.004-3.536-.147-7.592-.43-12.168-.213-4.645-.6-9.601-1.16-14.87zm-53.451 59.963c-6.864.008-12.932-1.268-18.204-3.828-5.203-2.559-9.263-6.16-12.18-10.802-2.917-4.642-4.379-9.98-4.386-16.011-.006-6.101 1.444-11.442 4.351-16.02 2.906-4.58 6.958-8.155 12.156-10.726 5.266-2.572 11.331-3.861 18.195-3.869 6.934-.007 13.002 1.269 18.205 3.828 5.202 2.56 9.262 6.126 12.179 10.699 2.987 4.572 4.484 9.91 4.49 16.01.007 6.033-1.478 11.373-4.454 16.021-2.907 4.65-6.959 8.259-12.156 10.83-5.197 2.571-11.262 3.86-18.196 3.868zm-.008-8.008c5.13-.005 9.567-.912 13.309-2.719 3.741-1.876 6.616-4.514 8.623-7.913 2.076-3.4 3.112-7.422 3.106-12.068-.005-4.576-1.049-8.561-3.133-11.956-2.014-3.395-4.895-6.027-8.641-7.895-3.746-1.867-8.184-2.798-13.315-2.793-5.061.006-9.498.947-13.309 2.823-3.742 1.876-6.616 4.514-8.623 7.914-2.007 3.4-3.008 7.387-3.003 11.963.006 4.645 1.015 8.666 3.03 12.06 2.014 3.396 4.894 6.027 8.641 7.895 3.815 1.798 8.253 2.695 13.315 2.69zM414.141 2.48l9.464-.01.065 58.551-9.464.01-.065-58.551zm50.336-.056l9.568-.01.065 58.551-9.568.01-.065-58.551zm-45.004 25.114l49.503-.055.009 7.8-49.504.055-.008-7.8zM343.662 61.11l28.77-33.832-.096 6.968-27.075-31.69 11.336-.012 21.972 25.56-5.616.006 22.02-25.61 10.92-.012-27.317 31.854-.216-7.487 29.262 34.183-11.128.012-23.951-27.741 5.72-.006-23.785 27.794-10.816.012zm-30.549 1.386c-6.726.008-12.69-1.268-17.893-3.828-5.133-2.629-9.193-6.23-12.18-10.802-2.917-4.642-4.379-9.98-4.385-16.012-.007-6.1 1.374-11.441 4.142-16.02 2.768-4.58 6.612-8.154 11.532-10.725 4.92-2.57 10.569-3.86 16.948-3.867 6.309-.007 11.822 1.374 16.54 4.142 4.718 2.768 8.362 6.681 10.933 11.74 2.64 4.989 3.964 10.811 3.972 17.467l-56.784.063-.009-7.592 52.728-.058-5.612 3.438c-.213-4.368-1.257-8.145-3.133-11.333-1.875-3.187-4.408-5.645-7.6-7.375-3.191-1.73-6.901-2.592-11.131-2.588-4.576.005-8.561.946-11.957 2.821-3.395 1.807-6.061 4.375-7.999 7.705-1.868 3.33-2.8 7.249-2.795 11.755.005 4.715 1.085 8.805 3.238 12.269 2.153 3.464 5.172 6.13 9.057 7.998 3.884 1.868 8.461 2.798 13.731 2.793a42.375 42.375 0 0014.037-2.408c4.644-1.6 8.801-3.788 12.473-6.566l.008 7.488c-3.602 2.916-7.898 5.244-12.888 6.983-4.99 1.669-9.981 2.507-14.973 2.512zM242.411 5.895l9.568-.01.062 55.327-9.568.01-.062-55.327zm-25.38-3.196l60.32-.067.009 7.8-60.32.067-.009-7.8zm-58.525 59.969c-6.725.008-12.689-1.268-17.892-3.828-5.134-2.629-9.194-6.23-12.18-10.802-2.917-4.642-4.379-9.98-4.386-16.012-.007-6.1 1.374-11.441 4.142-16.02 2.769-4.58 6.613-8.154 11.532-10.725 4.92-2.57 10.569-3.86 16.948-3.867 6.309-.007 11.823 1.374 16.541 4.142 4.717 2.768 8.362 6.681 10.933 11.74 2.64 4.989 3.964 10.811 3.971 17.467l-56.784.063-.008-7.592 52.728-.058-5.612 3.438c-.213-4.368-1.257-8.145-3.133-11.333-1.876-3.187-4.409-5.645-7.6-7.375-3.191-1.73-6.902-2.592-11.131-2.588-4.576.005-8.562.946-11.957 2.822-3.395 1.806-6.062 4.374-7.999 7.704-1.869 3.33-2.8 7.249-2.795 11.755.005 4.715 1.084 8.805 3.237 12.269 2.154 3.464 5.173 6.13 9.057 7.998 3.885 1.868 8.462 2.798 13.731 2.793a42.385 42.385 0 0014.038-2.408c4.643-1.6 8.801-3.788 12.472-6.566l.009 7.488c-3.602 2.916-7.898 5.244-12.889 6.983-4.99 1.669-9.981 2.507-14.973 2.512zm-38.32-9.109l.026 22.984-8.528.01-.017-15.185-62.4.07.017 15.184-8.424.009-.026-22.984 12.792-.014 2.808.1 45.864-.05 2.808-.108 15.08-.016zM54.298 2.88l54.808-.061.062 55.744-9.568.01-.059-52.415 4.477 4.363-44.616.05 4.053-3.125c.35 3.12.596 6.204.738 9.255a181.9 181.9 0 01.217 8.424c.012 10.4-1.227 18.617-3.716 24.652-2.42 5.965-5.78 8.95-10.078 8.955l-3.956-3.428c5.819-4.374 8.72-15.02 8.7-31.937a168.637 168.637 0 00-.323-10.088 165.957 165.957 0 00-.74-10.399zm-9.559.01l.008 7.8-38.792.044 4.467-4.373.062 55.12-9.568.01L.85 2.94l43.888-.048zm613.847 112.333l10.12-.011.066 58.519-10.12.012-.066-58.52zm-26.843-3.38l63.8-.071.009 8.25-63.8.071-.009-8.25zm-37.753 63.402c-7.113.008-13.421-1.342-18.924-4.049-5.43-2.781-9.687-6.59-12.773-11.426-3.012-4.837-4.522-10.482-4.529-16.935-.007-6.453 1.49-12.102 4.491-16.945 3.075-4.844 7.324-8.625 12.748-11.344 5.497-2.72 11.802-4.083 18.915-4.091 7.26-.008 13.605 1.341 19.035 4.048 5.503 2.708 9.76 6.48 12.772 11.316 3.086 4.837 4.632 10.482 4.639 16.935.007 6.38-1.526 12.029-4.601 16.945-3.001 4.917-7.25 8.735-12.747 11.454-5.424 2.72-11.766 4.084-19.026 4.092zm-60.391-1.363l-.069-61.93 10.12-.011.069 61.93-10.12.011zm5.36-27.176l-.01-8.25 24.75-.028.01 8.25-24.75.028zm55.022 20.069c5.427-.006 10.045-1.002 13.857-2.986 3.884-1.984 6.888-4.774 9.01-8.37 2.123-3.596 3.182-7.813 3.176-12.653-.005-4.84-1.073-9.056-3.204-12.647-2.13-3.591-5.14-6.374-9.029-8.35-3.816-1.976-8.437-2.96-13.863-2.954-5.207.005-9.789 1.001-13.747 2.985-3.885 1.984-6.888 4.774-9.011 8.37-2.122 3.596-3.181 7.814-3.176 12.654.006 4.84 1.074 9.055 3.204 12.646 2.131 3.591 5.141 6.374 9.03 8.35 3.962 1.976 8.546 2.96 13.753 2.955zm-84.758 7.134l-2.226-23.428 2.741-7.593-2.758-7.477 2.174-23.432 10.34-.011-2.826 30.913 2.895 31.016-10.34.012zm3.925-31.024c-1.606 6.455-4.093 12.141-7.461 17.058-3.295 4.844-7.324 8.625-12.087 11.343-4.691 2.719-9.896 4.081-15.616 4.088-6.086.007-11.478-1.344-16.174-4.052-4.697-2.782-8.404-6.591-11.123-11.428-2.646-4.91-3.972-10.555-3.979-16.935-.007-6.454 1.307-12.102 3.941-16.945 2.708-4.843 6.407-8.624 11.098-11.342 4.69-2.719 10.078-4.081 16.165-4.088 5.72-.007 10.928 1.344 15.625 4.052 4.769 2.708 8.844 6.481 12.222 11.317 3.379 4.836 5.842 10.48 7.389 16.932zm-56.1.062c.005 4.693.963 8.836 2.874 12.427 1.984 3.591 4.664 6.411 8.039 8.461 3.449 1.976 7.337 2.962 11.664 2.957 4.4-.005 8.432-.999 12.096-2.984 3.738-2.057 7.035-4.884 9.891-8.481 2.929-3.596 5.308-7.742 7.136-12.438-1.838-4.691-4.226-8.831-7.164-12.422-2.864-3.59-6.167-6.373-9.909-8.349-3.669-2.049-7.703-3.071-12.103-3.066-4.327.005-8.213 1.036-11.657 3.093-3.371 1.984-6.045 4.773-8.021 8.369-1.902 3.595-2.851 7.74-2.846 12.433zm-57.302 10.734c-8.36.009-14.706-2.221-19.038-6.689-4.331-4.542-6.502-11.213-6.512-20.013l-.017-14.85 10.12-.011.017 14.52c.013 12.32 5.777 18.473 17.29 18.461 4.693-.006 9.056-1 13.087-2.985 4.104-2.058 7.951-5.142 11.54-9.253l.778 8.029c-2.928 4.037-6.775 7.195-11.539 9.473-4.764 2.206-10.006 3.311-15.726 3.318zm25.102 20.322l-.069-61.93 10.12-.011.069 61.93-10.12.011zm-88.813 1.529c-7.113.008-13.421-1.342-18.924-4.049-5.43-2.781-9.724-6.589-12.883-11.426-3.085-4.91-4.632-10.555-4.639-16.935-.007-6.453 1.453-12.101 4.381-16.945 2.928-4.843 6.994-8.624 12.198-11.343 5.203-2.719 11.179-4.083 17.925-4.09 6.674-.008 12.505 1.453 17.495 4.38 4.99 2.928 8.845 7.067 11.564 12.417 2.792 5.277 4.193 11.436 4.2 18.476l-60.06.067-.008-8.03 55.77-.062-5.936 3.636c-.226-4.62-1.33-8.615-3.314-11.986-1.984-3.371-4.663-5.972-8.038-7.801-3.376-1.83-7.3-2.742-11.774-2.737-4.84.005-9.055 1-12.646 2.984-3.591 1.911-6.412 4.627-8.461 8.149-1.976 3.523-2.962 7.667-2.956 12.434.005 4.986 1.147 9.312 3.424 12.976 2.278 3.664 5.471 6.484 9.58 8.459 4.108 1.976 8.95 2.96 14.523 2.954a44.83 44.83 0 0014.847-2.546c4.911-1.693 9.309-4.007 13.192-6.945l.009 7.92c-3.81 3.084-8.354 5.546-13.632 7.385-5.278 1.766-10.557 2.652-15.837 2.658zm-116.289-63.231l10.12-.011.027 23.43-.548 1.98.011 10.01.553 3.19.047 41.47-10.12.011-.09-80.08zm5.425 30.904c1.606-6.455 4.056-12.105 7.351-16.948 3.368-4.844 7.397-8.625 12.087-11.344 4.764-2.718 10.006-4.081 15.726-4.087 6.087-.007 11.478 1.344 16.174 4.052 4.697 2.708 8.368 6.481 11.013 11.318 2.719 4.837 4.082 10.482 4.089 16.935.007 6.38-1.343 12.028-4.051 16.945-2.635 4.842-6.297 8.66-10.988 11.452-4.69 2.718-10.078 4.081-16.165 4.088-5.72.006-10.965-1.345-15.735-4.053-4.696-2.708-8.733-6.48-12.112-11.316-3.306-4.91-5.769-10.591-7.389-17.042zm56.1-.062c-.005-4.694-1-8.836-2.984-12.427-1.911-3.591-4.59-6.375-8.039-8.351-3.376-2.05-7.227-3.072-11.554-3.067-4.4.005-8.469 1.036-12.206 3.093-3.665 1.984-6.925 4.775-9.781 8.371-2.856 3.597-5.235 7.743-7.136 12.438 1.912 4.691 4.3 8.832 7.164 12.422s6.13 6.41 9.799 8.459c3.742 1.976 7.813 2.962 12.213 2.957 4.327-.005 8.176-.999 11.547-2.983 3.444-2.057 6.118-4.884 8.021-8.479 1.976-3.596 2.961-7.74 2.956-12.433zm-107.002-27.381l10.12-.012.065 58.52-10.12.012-.065-58.52zm-26.844-3.381l63.8-.071.009 8.25-63.8.071-.009-8.25zm-1.023 38.392c-.801 4.914-2.813 9.243-6.036 12.986-3.149 3.744-7.179 6.682-12.09 8.814-4.911 2.132-10.336 3.201-16.276 3.208-6.894.008-12.982-1.342-18.265-4.05-5.283-2.781-9.43-6.589-12.442-11.426-2.94-4.91-4.412-10.555-4.42-16.935-.007-6.38 1.454-11.992 4.382-16.835 3.001-4.917 7.14-8.735 12.417-11.454 5.277-2.719 11.362-4.082 18.256-4.09 5.94-.007 11.367 1.051 16.283 3.172 4.916 2.048 8.952 4.94 12.11 8.676 3.231 3.737 5.252 8.098 6.064 13.084l-10.45.011c-1.105-5.132-3.86-9.162-8.263-12.091-4.33-3.001-9.575-4.499-15.735-4.492-4.987.005-9.349 1-13.087 2.984-3.664 1.985-6.521 4.774-8.57 8.37-2.05 3.522-3.072 7.74-3.066 12.653.005 4.914 1.037 9.166 3.094 12.757 2.057 3.591 4.92 6.374 8.59 8.35 3.741 1.903 8.106 2.851 13.092 2.846 6.234-.007 11.512-1.516 15.835-4.528 4.397-3.011 7.106-7.011 8.127-11.999l10.45-.011zM4.051 174.471l2.826-31.023-2.895-30.907 42.02-.047c6.014-.006 10.672 1.382 13.975 4.165 3.376 2.709 5.067 6.557 5.073 11.544.005 4.547-1.678 8.179-5.048 10.896-3.297 2.643-7.879 4.188-13.745 4.635l.988-2.091c7.04.065 12.431 1.489 16.175 4.272 3.743 2.709 5.617 6.594 5.623 11.654.005 5.28-1.897 9.425-5.707 12.436-3.736 2.938-8.978 4.41-15.725 4.418l-43.56.048zm9.897-2.981l-3.855-4.726 35.86-.04c4.326-.004 7.515-.851 9.567-2.54 2.125-1.689 3.185-4.11 3.182-7.264-.004-3.226-1.29-5.755-3.859-7.586-2.495-1.83-6.42-2.742-11.773-2.736l-30.58.034-.008-7.26 29.92-.034c4.034-.004 7.076-.924 9.127-2.76 2.125-1.836 3.185-4.257 3.182-7.263-.003-2.86-.959-5.096-2.867-6.707-1.836-1.685-4.697-2.525-8.583-2.521l-33.11.037 3.735-4.624 2.78 27.937-2.718 28.053z" fill="#363636"/><defs><linearGradient id="paint0_linear_79_134" x1="1330" y1="245" x2="242" y2="279" gradientUnits="userSpaceOnUse"><stop offset=".242" stop-color="#83F5D9"/><stop offset="1" stop-color="#8C64FF" stop-opacity=".39"/></linearGradient><linearGradient id="paint1_linear_79_134" x1="1330" y1="245" x2="242" y2="279" gradientUnits="userSpaceOnUse"><stop offset=".242" stop-color="#83F5D9"/><stop offset="1" stop-color="#8C64FF" stop-opacity=".39"/></linearGradient><linearGradient id="paint2_linear_79_134" x1="1330" y1="245" x2="242" y2="279" gradientUnits="userSpaceOnUse"><stop offset=".242" stop-color="#83F5D9"/><stop offset="1" stop-color="#8C64FF" stop-opacity=".39"/></linearGradient><linearGradient id="paint3_linear_79_134" x1="1330" y1="245" x2="242" y2="279" gradientUnits="userSpaceOnUse"><stop offset=".242" stop-color="#83F5D9"/><stop offset="1" stop-color="#8C64FF" stop-opacity=".39"/></linearGradient><linearGradient id="paint4_linear_79_134" x1="1330" y1="245.001" x2="242" y2="279" gradientUnits="userSpaceOnUse"><stop offset=".242" stop-color="#83F5D9"/><stop offset="1" stop-color="#8C64FF" stop-opacity=".39"/></linearGradient><linearGradient id="paint5_linear_79_134" x1="1330" y1="245" x2="242" y2="279" gradientUnits="userSpaceOnUse"><stop offset=".242" stop-color="#83F5D9"/><stop offset="1" stop-color="#8C64FF" stop-opacity=".39"/></linearGradient><linearGradient id="paint6_linear_79_134" x1="1330" y1="245" x2="242" y2="279" gradientUnits="userSpaceOnUse"><stop offset=".242" stop-color="#83F5D9"/><stop offset="1" stop-color="#8C64FF" stop-opacity=".39"/></linearGradient><linearGradient id="paint7_linear_79_134" x1="1330" y1="245" x2="242" y2="279" gradientUnits="userSpaceOnUse"><stop offset=".242" stop-color="#83F5D9"/><stop offset="1" stop-color="#8C64FF" stop-opacity=".39"/></linearGradient><linearGradient id="paint8_linear_79_134" x1="1330" y1="245" x2="242" y2="279" gradientUnits="userSpaceOnUse"><stop offset=".242" stop-color="#83F5D9"/><stop offset="1" stop-color="#8C64FF" stop-opacity=".39"/></linearGradient><linearGradient id="paint9_linear_79_134" x1="1330" y1="245" x2="242" y2="279" gradientUnits="userSpaceOnUse"><stop offset=".242" stop-color="#83F5D9"/><stop offset="1" stop-color="#8C64FF" stop-opacity=".39"/></linearGradient><linearGradient id="paint10_linear_79_134" x1="1330" y1="245" x2="242" y2="279" gradientUnits="userSpaceOnUse"><stop offset=".242" stop-color="#83F5D9"/><stop offset="1" stop-color="#8C64FF" stop-opacity=".39"/></linearGradient><linearGradient id="paint11_linear_79_134" x1="1330" y1="245" x2="242" y2="279" gradientUnits="userSpaceOnUse"><stop offset=".242" stop-color="#83F5D9"/><stop offset="1" stop-color="#8C64FF" stop-opacity=".39"/></linearGradient><linearGradient id="paint12_linear_79_134" x1="1330" y1="245" x2="242" y2="279" gradientUnits="userSpaceOnUse"><stop offset=".242" stop-color="#83F5D9"/><stop offset="1" stop-color="#8C64FF" stop-opacity=".39"/></linearGradient><linearGradient id="paint13_linear_79_134" x1="1330" y1="245" x2="242" y2="279" gradientUnits="userSpaceOnUse"><stop offset=".242" stop-color="#83F5D9"/><stop offset="1" stop-color="#8C64FF" stop-opacity=".39"/></linearGradient></defs></svg>