<svg width="946" height="344" fill="none" xmlns="http://www.w3.org/2000/svg"><path d="M526.563 297.089l13.25 6.208 9.187 5.321-3.18 5.853-9.363-5.676-11.837-8.159 1.237 14.544V326h-6.714v-10.82l1.237-14.544-11.66 8.159-9.54 5.676-3.18-5.853 9.187-5.321 13.426-6.208-13.426-6.208-9.187-5.499 3.18-5.676 9.54 5.499 11.66 8.336-1.237-14.544V268h6.714v10.997l-1.237 14.544 11.837-8.336 9.363-5.499 3.18 5.676-9.187 5.499-13.25 6.208zM.004 86.183L29.881 51.05l-.1 7.236L1.665 25.378l11.772-.014 22.817 26.543-5.832.007L53.29 25.32l11.34-.012-28.368 33.08-.224-7.777L66.424 86.11l-11.556.012-24.872-28.808 5.94-.007-24.7 28.864-11.232.012zm101.862 1.291c-7.128.008-13.43-1.317-18.904-3.975-5.404-2.658-9.62-6.397-12.649-11.218-3.03-4.82-4.547-10.363-4.555-16.627-.007-6.336 1.5-11.881 4.518-16.637 3.019-4.755 7.227-8.468 12.624-11.138 5.469-2.67 11.767-4.009 18.895-4.017 7.2-.008 13.502 1.317 18.905 3.975 5.403 2.658 9.619 6.361 12.648 11.11 3.101 4.749 4.655 10.29 4.662 16.627.007 6.264-1.534 11.81-4.625 16.637-3.019 4.827-7.227 8.576-12.624 11.246s-11.695 4.01-18.895 4.017zm-.009-8.316c5.328-.006 9.935-.947 13.821-2.823 3.885-1.949 6.87-4.688 8.954-8.218 2.156-3.53 3.232-7.708 3.226-12.532-.005-4.752-1.089-8.89-3.253-12.416-2.092-3.526-5.083-6.259-8.973-8.198-3.891-1.94-8.5-2.907-13.828-2.9-5.256.005-9.863.982-13.82 2.93-3.886 1.949-6.871 4.688-8.955 8.218-2.084 3.53-3.124 7.672-3.118 12.424.005 4.824 1.053 8.999 3.145 12.525 2.092 3.525 5.083 6.258 8.974 8.197 3.962 1.868 8.57 2.799 13.827 2.793zm47.46-53.945l9.936-.01.025 23.003-.538 1.945.011 9.828.544 3.131.045 40.716-9.936.011-.087-78.624zm5.325 30.342c1.577-6.337 3.983-11.884 7.218-16.64 3.307-4.755 7.263-8.468 11.868-11.137 4.677-2.67 9.823-4.007 15.439-4.013 5.976-.007 11.27 1.32 15.881 3.978 4.611 2.66 8.215 6.363 10.812 11.112 2.669 4.75 4.007 10.292 4.014 16.628.007 6.264-1.318 11.81-3.977 16.636-2.587 4.755-6.183 8.503-10.788 11.244-4.605 2.67-9.895 4.007-15.871 4.014-5.616.006-10.766-1.32-15.449-3.979-4.611-2.659-8.575-6.362-11.892-11.11-3.245-4.821-5.664-10.398-7.255-16.733zm55.08-.06c-.005-4.609-.981-8.676-2.929-12.202-1.876-3.526-4.507-6.259-7.893-8.199-3.315-2.012-7.096-3.016-11.344-3.011-4.32.005-8.315 1.017-11.984 3.037-3.598 1.948-6.799 4.688-9.603 8.219-2.804 3.53-5.14 7.602-7.007 12.212 1.878 4.605 4.222 8.67 7.034 12.196 2.812 3.525 6.019 6.293 9.621 8.305 3.674 1.94 7.672 2.907 11.992 2.903 4.248-.005 8.026-.981 11.336-2.929 3.382-2.02 6.007-4.795 7.875-8.325 1.94-3.53 2.908-7.599 2.902-12.207zm54.093 31.799c-7.128.008-13.429-1.317-18.904-3.975-5.403-2.658-9.619-6.397-12.649-11.218-3.029-4.82-4.547-10.363-4.554-16.627-.007-6.336 1.499-11.882 4.517-16.637 3.019-4.755 7.227-8.468 12.624-11.138 5.469-2.67 11.767-4.01 18.895-4.017 7.2-.008 13.502 1.317 18.905 3.975 5.403 2.658 9.619 6.361 12.648 11.11 3.102 4.748 4.656 10.29 4.663 16.627.007 6.264-1.535 11.81-4.626 16.637-3.018 4.827-7.226 8.576-12.623 11.246-5.397 2.67-11.696 4.009-18.896 4.017zm-.009-8.316c5.328-.006 9.935-.947 13.821-2.823 3.886-1.949 6.871-4.688 8.955-8.218 2.156-3.53 3.231-7.708 3.226-12.532-.006-4.752-1.09-8.89-3.254-12.416-2.092-3.526-5.083-6.259-8.973-8.198-3.89-1.94-8.499-2.907-13.827-2.901-5.256.006-9.863.983-13.821 2.931-3.886 1.949-6.871 4.688-8.955 8.218-2.084 3.53-3.124 7.672-3.118 12.424.005 4.824 1.054 8.999 3.146 12.524 2.092 3.526 5.083 6.259 8.973 8.198 3.962 1.868 8.571 2.799 13.827 2.793zm47.528 6.859l-.068-60.804 9.936-.01.062 55.835-3.567-3.128 41.796-.047-1.941 3.135-.062-55.836 9.936-.011.062 55.836-2.487-3.13 42.228-.047-3.453 3.136-.062-55.836 9.936-.01.068 60.803-102.384.114zm117.361-.13l-.068-60.804 9.828-.011.063 56.268-3.781-.536 46.486-55.78 12.852-.014.068 60.804-9.828.01-.063-56.807 3.888.643-46.809 56.212-12.636.015zm80.553-.09l-.068-60.804 9.828-.011.063 56.268-3.781-.536 46.486-55.78 12.852-.014.068 60.804-9.828.011-.063-56.808 3.888.644-46.809 56.212-12.636.014zm32.001-67.536c-5.904.007-10.694-1.5-14.369-4.52-3.604-3.092-5.805-7.481-6.603-13.168l8.424-.01c.652 3.527 2.059 6.262 4.221 8.203 2.234 1.87 5.007 2.803 8.319 2.8 3.384-.004 6.155-.944 8.313-2.818 2.158-1.946 3.559-4.684 4.203-8.213l8.424-.01c-.714 5.69-2.905 10.084-6.573 13.184-3.669 3.028-8.455 4.546-14.359 4.552zm93.642 9.94l9.936-.011.064 57.456-9.936.011-.064-57.456zm-26.356-3.319l62.64-.07.009 8.1-62.64.07-.009-8.1zM708.312 86.8c-6.984.007-13.178-1.318-18.581-3.976-5.331-2.73-9.547-6.47-12.648-11.218-3.03-4.82-4.548-10.363-4.555-16.627-.007-6.336 1.427-11.881 4.302-16.637 2.875-4.755 6.866-8.467 11.975-11.137s10.976-4.008 17.6-4.015c6.552-.008 12.278 1.426 17.177 4.3 4.899 2.875 8.684 6.939 11.353 12.192 2.742 5.18 4.117 11.227 4.125 18.14l-58.968.065-.009-7.884 54.756-.061-5.828 3.57c-.221-4.535-1.306-8.458-3.253-11.768-1.948-3.31-4.579-5.863-7.893-7.66-3.314-1.796-7.167-2.691-11.559-2.686-4.752.005-8.891.982-12.417 2.93-3.526 1.875-6.295 4.542-8.307 8-1.94 3.459-2.907 7.528-2.902 12.208.005 4.896 1.126 9.143 3.362 12.74 2.236 3.598 5.371 6.366 9.405 8.306 4.034 1.94 8.787 2.906 14.259 2.9a44.015 44.015 0 0014.578-2.5c4.822-1.662 9.139-3.934 12.952-6.819l.009 7.776c-3.741 3.028-8.202 5.445-13.384 7.251-5.182 1.734-10.365 2.604-15.549 2.61zm42.041-1.451l-.067-60.804 9.936-.011.057 51.84-3.025-1.077 42.064-50.807 11.556-.013-51.341 60.861-9.18.01zm50.76-.057l-20.121-30.325 6.471-7.46 25.53 37.772-11.88.013zm80.746-23.202c-.787 4.825-2.762 9.075-5.926 12.75-3.092 3.676-7.049 6.56-11.87 8.654-4.822 2.094-10.149 3.143-15.981 3.15-6.768.007-12.745-1.318-17.932-3.976-5.187-2.73-9.259-6.47-12.217-11.219-2.885-4.82-4.331-10.363-4.338-16.627-.007-6.264 1.427-11.773 4.301-16.529 2.947-4.827 7.011-8.575 12.192-11.245s11.155-4.008 17.923-4.016c5.832-.006 11.162 1.032 15.988 3.114 4.826 2.01 8.789 4.85 11.889 8.519 3.172 3.668 5.157 7.95 5.955 12.845l-10.26.012c-1.086-5.039-3.79-8.996-8.114-11.871-4.251-2.948-9.4-4.418-15.448-4.411-4.896.005-9.179.982-12.849 2.93-3.598 1.948-6.403 4.687-8.415 8.218-2.012 3.458-3.016 7.599-3.01 12.423.005 4.824 1.018 8.999 3.038 12.525 2.02 3.525 4.831 6.258 8.433 8.198 3.674 1.868 7.959 2.8 12.855 2.794 6.12-.007 11.302-1.489 15.547-4.445 4.317-2.957 6.976-6.884 7.979-11.781l10.26-.012zm27.36-34.374l9.936-.011.064 57.456-9.936.01-.064-57.455zm-26.356-3.319l62.64-.07.009 8.1-62.64.07-.009-8.1zM83.397 197.991l.026 23.868-8.856.01-.017-15.768-64.8.072.017 15.768-8.748.009-.026-23.868 13.284-.014 2.916.104 47.628-.053 2.916-.111 15.66-.017zm-68.423-52.628l56.916-.063.065 57.887-9.936.012-.06-54.432 4.648 4.53-46.332.052 4.209-3.245c.363 3.24.619 6.444.766 9.611.148 3.096.223 6.012.226 8.748.012 10.8-1.274 19.334-3.86 25.6-2.513 6.195-6.001 9.295-10.465 9.3l-4.108-3.559c6.043-4.543 9.055-15.598 9.035-33.166a175.064 175.064 0 00-.336-10.476 173.175 173.175 0 00-.768-10.799zm88.346-.098l56.808-.064.067 60.804-9.935.011-.064-57.348 4.541 4.531-46.224.052 4.208-3.461c.437 4.536.766 8.999.987 13.391.293 4.32.441 8.172.445 11.556.012 11.304-1.491 19.549-4.509 24.737-3.018 5.115-7.839 7.676-14.463 7.684a20.03 20.03 0 01-5.077-.643 17.318 17.318 0 01-4.538-1.723l-.009-7.884a47.12 47.12 0 003.782 1.292c1.296.287 2.52.429 3.672.428 4.176-.005 7.198-1.988 9.066-5.95 1.939-3.962 2.904-10.407 2.894-19.335-.004-3.672-.153-7.884-.446-12.636-.221-4.824-.623-9.971-1.205-15.442zm122.009 29.24l.009 7.56-31.644.035-.109-.216c-4.32.005-8.1-.747-11.342-2.255-3.17-1.509-5.656-3.63-7.459-6.364-1.803-2.806-2.707-6.045-2.711-9.717-.004-3.6.892-6.769 2.689-9.507 1.797-2.81 4.279-4.973 7.445-6.488 3.238-1.588 7.018-2.384 11.338-2.389l38.664-.043.067 60.804-9.936.011-.064-57.672 3.785 4.532-30.996.034c-4.032.005-7.199.98-9.501 2.927-2.302 1.947-3.451 4.576-3.447 7.888.004 3.24 1.159 5.867 3.465 7.88s5.475 3.018 9.507 3.013l30.24-.033zm-18.249 2.936l-24.052 28.539-11.988.013 24.376-28.539 11.664-.013zm114.563-32.419l.009 8.1-40.284.044 4.639-4.541.064 57.24-9.936.011-.068-60.804 45.576-.05zm9.493-.011l56.808-.063.068 60.804-9.936.011-.064-57.348 4.541 4.531-46.224.051 4.209-3.46c.437 4.535.766 8.999.986 13.391.293 4.319.442 8.171.445 11.555.013 11.304-1.49 19.55-4.508 24.737-3.019 5.115-7.84 7.677-14.464 7.684a20.022 20.022 0 01-5.076-.642 17.347 17.347 0 01-4.538-1.723l-.009-7.884a47.5 47.5 0 003.781 1.292c1.297.286 2.521.429 3.673.428 4.176-.005 7.198-1.988 9.065-5.951 1.94-3.962 2.905-10.407 2.895-19.335-.004-3.672-.153-7.884-.446-12.635-.222-4.824-.623-9.972-1.206-15.443zm129.713 60.66l-2.186-23.002 2.692-7.455-2.708-7.341 2.134-23.006 10.152-.011-2.774 30.351 2.842 30.453-10.152.011zm3.854-30.46c-1.577 6.337-4.019 11.92-7.326 16.748-3.234 4.755-7.19 8.468-11.867 11.137-4.605 2.669-9.716 4.007-15.332 4.013-5.976.007-11.269-1.32-15.88-3.978-4.611-2.731-8.251-6.471-10.921-11.22-2.597-4.821-3.899-10.364-3.906-16.628-.007-6.336 1.283-11.881 3.869-16.636 2.659-4.755 6.291-8.467 10.896-11.136 4.605-2.669 9.896-4.007 15.872-4.014 5.616-.006 10.729 1.32 15.34 3.979 4.683 2.659 8.683 6.362 12 11.111 3.318 4.748 5.736 10.289 7.255 16.624zm-55.08.061c.005 4.608.946 8.675 2.821 12.201 1.948 3.525 4.579 6.295 7.894 8.307 3.386 1.94 7.203 2.908 11.451 2.903 4.32-.005 8.279-.981 11.877-2.929 3.669-2.02 6.906-4.796 9.71-8.327 2.877-3.531 5.212-7.602 7.007-12.212-1.805-4.606-4.15-8.671-7.034-12.196-2.812-3.525-6.055-6.257-9.729-8.197-3.602-2.012-7.563-3.016-11.883-3.011-4.248.005-8.063 1.017-11.445 3.037-3.31 1.948-5.935 4.687-7.875 8.217-1.868 3.53-2.799 7.599-2.794 12.207zm73.863 30.374l2.774-30.459-2.842-30.345 41.256-.046c5.904-.007 10.478 1.356 13.721 4.089 3.315 2.66 4.975 6.438 4.98 11.334.005 4.464-1.647 8.03-4.956 10.697-3.237 2.596-7.735 4.113-13.495 4.552l.97-2.054c6.912.065 12.205 1.463 15.881 4.195 3.674 2.66 5.515 6.474 5.52 11.442.006 5.184-1.861 9.254-5.602 12.21-3.669 2.884-8.815 4.33-15.439 4.337l-42.768.048zm9.716-2.927l-3.785-4.64 35.208-.039c4.248-.005 7.379-.836 9.393-2.495 2.087-1.658 3.128-4.035 3.125-7.131-.004-3.168-1.267-5.651-3.789-7.448-2.45-1.797-6.303-2.693-11.559-2.687l-30.024.033-.008-7.128 29.376-.032c3.96-.005 6.947-.908 8.961-2.71 2.086-1.803 3.128-4.18 3.124-7.132-.003-2.808-.941-5.003-2.815-6.585-1.802-1.654-4.611-2.478-8.427-2.474l-32.508.036 3.667-4.54 2.731 27.429-2.67 27.543zm65.42-57.961l9.828-.011.068 60.804-9.828.011-.068-60.804zm52.272-.058l9.936-.011.068 60.804-9.936.011-.068-60.804zm-46.735 26.08l51.408-.057.009 8.1-51.408.057-.009-8.1zm104.11 36.064c-7.128.008-13.429-1.317-18.904-3.975-5.403-2.658-9.619-6.397-12.649-11.218-3.029-4.82-4.547-10.363-4.554-16.627-.007-6.336 1.499-11.881 4.517-16.637 3.019-4.755 7.227-8.468 12.624-11.138 5.469-2.67 11.767-4.009 18.895-4.017 7.2-.008 13.502 1.317 18.905 3.975 5.403 2.658 9.619 6.361 12.648 11.11 3.102 4.749 4.656 10.291 4.663 16.627.007 6.264-1.535 11.81-4.626 16.637-3.018 4.827-7.226 8.576-12.623 11.246-5.397 2.67-11.696 4.009-18.896 4.017zm-.009-8.316c5.328-.006 9.935-.947 13.821-2.823 3.886-1.949 6.871-4.688 8.955-8.218 2.156-3.531 3.231-7.708 3.226-12.532-.005-4.752-1.09-8.891-3.254-12.416-2.092-3.526-5.083-6.259-8.973-8.198-3.89-1.94-8.499-2.907-13.827-2.901-5.256.006-9.863.983-13.821 2.931-3.886 1.949-6.871 4.688-8.955 8.218-2.084 3.531-3.123 7.672-3.118 12.424.005 4.824 1.054 8.999 3.146 12.524 2.092 3.526 5.083 6.259 8.973 8.198 3.962 1.868 8.571 2.799 13.827 2.793zm93.036-53.995l.009 8.1-40.284.044 4.639-4.541.064 57.24-9.936.011-.068-60.804 45.576-.05zm37.071 62.166c-7.128.008-13.43-1.317-18.904-3.975-5.403-2.658-9.62-6.397-12.649-11.218-3.029-4.82-4.547-10.363-4.554-16.627-.007-6.336 1.498-11.881 4.517-16.637 3.019-4.755 7.227-8.468 12.624-11.138 5.469-2.67 11.767-4.009 18.895-4.017 7.2-.008 13.502 1.317 18.905 3.975 5.403 2.658 9.619 6.362 12.648 11.11 3.101 4.749 4.655 10.291 4.663 16.627.007 6.264-1.535 11.81-4.626 16.637-3.019 4.828-7.226 8.576-12.623 11.246-5.398 2.67-11.696 4.009-18.896 4.017zm-.009-8.316c5.328-.006 9.935-.947 13.821-2.823 3.885-1.948 6.87-4.688 8.954-8.218 2.157-3.53 3.232-7.708 3.226-12.532-.005-4.752-1.089-8.89-3.253-12.416-2.092-3.526-5.083-6.258-8.973-8.198-3.891-1.94-8.5-2.907-13.828-2.901-5.256.006-9.863.983-13.82 2.932-3.886 1.948-6.871 4.687-8.955 8.218-2.084 3.53-3.124 7.671-3.118 12.423.005 4.824 1.054 8.999 3.145 12.525 2.092 3.525 5.083 6.258 8.974 8.198 3.962 1.867 8.571 2.798 13.827 2.792zM37.857 327.546c-5.832.006-11.125-.996-15.88-3.007-4.754-2.011-8.717-4.778-11.889-8.303-3.1-3.596-5.156-7.662-6.17-12.197l10.26-.011c1.302 4.606 4.042 8.347 8.221 11.223 4.251 2.803 9.4 4.201 15.449 4.194 4.968-.005 9.287-.982 12.957-2.93 3.742-1.948 6.618-4.687 8.63-8.218 2.012-3.602 3.016-7.815 3.01-12.639-.005-4.824-1.017-8.999-3.037-12.525-2.02-3.597-4.904-6.366-8.65-8.306-3.674-1.94-7.995-2.907-12.963-2.901-5.976.006-11.086 1.452-15.331 4.337-4.245 2.884-7.013 6.595-8.304 11.133l-10.26.011c1.003-4.609 3.05-8.643 6.143-12.103 3.164-3.531 7.12-6.308 11.87-8.329 4.75-2.021 10.041-3.035 15.873-3.041 6.84-.008 12.854 1.317 18.04 3.975 5.188 2.659 9.224 6.398 12.11 11.219 2.956 4.749 4.438 10.255 4.445 16.519.007 6.264-1.462 11.81-4.409 16.637-2.875 4.755-6.903 8.504-12.083 11.245-5.181 2.67-11.192 4.009-18.032 4.017zm29.237-28.005l-39.42.044-.009-7.668 39.42-.044.009 7.668zm16.77 26.549l-.068-60.804 9.936-.011.058 51.84-3.025-1.076 42.064-50.807 11.556-.013-51.34 60.861-9.18.01zm50.76-.056l-20.122-30.326 6.472-7.459 25.53 37.772-11.88.013zm18.862-60.825l9.936-.011.026 23.004-.538 1.944.011 9.828.543 3.132.046 40.716-9.936.011-.088-78.624zm5.326 30.342c1.577-6.338 3.983-11.885 7.217-16.64 3.307-4.756 7.263-8.468 11.868-11.137 4.677-2.67 9.823-4.007 15.439-4.014 5.976-.006 11.27 1.32 15.881 3.979 4.611 2.659 8.215 6.363 10.812 11.112 2.67 4.749 4.008 10.291 4.015 16.627.007 6.264-1.319 11.81-3.978 16.637-2.586 4.755-6.182 8.503-10.787 11.244-4.605 2.669-9.896 4.007-15.872 4.013-5.616.007-10.765-1.32-15.448-3.978-4.611-2.659-8.575-6.363-11.893-11.111-3.245-4.821-5.663-10.398-7.254-16.732zm55.08-.061c-.005-4.608-.982-8.675-2.93-12.201-1.876-3.526-4.507-6.259-7.893-8.199-3.314-2.013-7.095-3.016-11.343-3.012-4.32.005-8.315 1.018-11.985 3.038-3.598 1.948-6.799 4.687-9.603 8.218-2.804 3.531-5.139 7.602-7.006 12.212 1.877 4.606 4.221 8.671 7.033 12.196 2.812 3.525 6.019 6.294 9.622 8.306 3.674 1.939 7.671 2.907 11.991 2.902 4.248-.004 8.027-.981 11.337-2.928 3.381-2.02 6.006-4.795 7.874-8.325 1.94-3.53 2.908-7.599 2.903-12.207zm79.471 30.367l-2.186-23.001 2.692-7.455-2.708-7.341 2.134-23.007 10.152-.011-2.774 30.351 2.842 30.453-10.152.011zm3.854-30.46c-1.577 6.338-4.019 11.92-7.325 16.748-3.235 4.756-7.191 8.468-11.868 11.137-4.605 2.669-9.715 4.007-15.331 4.013-5.976.007-11.27-1.319-15.881-3.978-4.611-2.731-8.251-6.471-10.92-11.22-2.598-4.821-3.9-10.364-3.907-16.628-.007-6.336 1.283-11.881 3.87-16.636 2.658-4.755 6.29-8.467 10.895-11.136 4.605-2.669 9.896-4.007 15.872-4.014 5.616-.006 10.729 1.32 15.34 3.979 4.683 2.659 8.683 6.363 12.001 11.111 3.317 4.748 5.735 10.29 7.254 16.624zm-55.08.061c.005 4.608.946 8.675 2.822 12.201 1.948 3.526 4.579 6.295 7.893 8.307 3.386 1.941 7.203 2.908 11.451 2.904 4.32-.005 8.279-.982 11.877-2.93 3.67-2.02 6.907-4.795 9.711-8.326 2.876-3.532 5.211-7.602 7.006-12.212-1.805-4.606-4.15-8.672-7.033-12.196-2.812-3.525-6.055-6.258-9.73-8.198-3.602-2.012-7.563-3.015-11.883-3.01-4.248.004-8.063 1.017-11.445 3.036-3.309 1.948-5.934 4.687-7.874 8.217-1.869 3.53-2.8 7.599-2.795 12.207zm75.091-30.431l9.828-.011.068 60.804-9.828.011-.068-60.804zm52.272-.059l9.936-.011.068 60.804-9.936.011-.068-60.804zm-46.735 26.08l51.408-.057.009 8.1-51.408.057-.009-8.1zm129.489 34.632l-2.186-23.001 2.692-7.455-2.708-7.341 2.134-23.007 10.152-.011-2.774 30.351 2.842 30.453-10.152.011zm3.854-30.46c-1.577 6.338-4.019 11.921-7.326 16.748-3.234 4.756-7.19 8.468-11.867 11.138-4.605 2.669-9.716 4.006-15.332 4.013-5.976.006-11.269-1.32-15.88-3.979-4.611-2.731-8.251-6.471-10.921-11.22-2.597-4.821-3.899-10.363-3.906-16.627-.007-6.336 1.283-11.882 3.869-16.637 2.659-4.755 6.291-8.467 10.896-11.136 4.605-2.669 9.895-4.007 15.871-4.013 5.616-.007 10.73 1.32 15.341 3.979 4.683 2.658 8.683 6.362 12 11.11 3.318 4.749 5.736 10.29 7.255 16.624zm-55.08.061c.005 4.608.945 8.675 2.821 12.201 1.948 3.526 4.579 6.295 7.894 8.308 3.386 1.94 7.203 2.908 11.451 2.903 4.32-.005 8.279-.981 11.877-2.929 3.669-2.021 6.906-4.796 9.71-8.327 2.876-3.531 5.212-7.602 7.007-12.212-1.805-4.606-4.15-8.671-7.034-12.196-2.812-3.525-6.055-6.257-9.729-8.197-3.602-2.012-7.563-3.016-11.883-3.011-4.248.005-8.063 1.017-11.445 3.037-3.31 1.947-5.935 4.686-7.875 8.216-1.868 3.53-2.799 7.599-2.794 12.207z" fill="#363636"/></svg>