<svg width="24" height="24" fill="none" xmlns="http://www.w3.org/2000/svg"><path fill-rule="evenodd" clip-rule="evenodd" d="M8.996 8.688a1.076 1.076 0 100-2.152 1.076 1.076 0 000 2.152zm0 1a2.076 2.076 0 100-4.152 2.076 2.076 0 000 4.152zm0 8.687a1.076 1.076 0 100-2.152 1.076 1.076 0 000 2.152zm0 1a2.076 2.076 0 100-4.152 2.076 2.076 0 000 4.152zm6.228-6.535a1.768 1.768 0 100-3.536 1.768 1.768 0 000 3.535zm0 1a2.768 2.768 0 100-5.536 2.768 2.768 0 000 5.535z" fill="#363636"/><path fill-rule="evenodd" clip-rule="evenodd" d="M12 23c6.075 0 11-4.925 11-11S18.075 1 12 1 1 5.925 1 12s4.925 11 11 11zm0 1c6.627 0 12-5.373 12-12S18.627 0 12 0 0 5.373 0 12s5.373 12 12 12z" fill="#363636"/></svg>