<svg width="76" height="76" fill="none" xmlns="http://www.w3.org/2000/svg"><path d="M20.588 10.39c-3.117.387-6.115 2.005-8.743 4.721-3.844 3.963-6.368 9.678-7.496 16.951-.326 2.138-.37 9.248-.074 11.356 1.084 7.466 3.622 13.36 7.54 17.441 3.088 3.221 6.398 4.765 10.228 4.78 2.212.015 3.874-.356 5.819-1.291 6.16-2.999 10.554-10.376 12.097-20.336.46-3.014.46-9.01 0-12.024-1.113-7.199-3.577-12.795-7.392-16.847-3.295-3.489-7.778-5.27-11.979-4.75zm3.978 5.062c1.41.43 2.717 1.292 4.172 2.732 2.048 2.018 3.606 4.586 4.853 7.941.802 2.167 1.841 6.665 1.5 6.502-1.707-.802-2.895-1.07-4.097-.92-3.266.415-5.611 3.042-5.611 6.293 0 3.25 2.345 5.878 5.61 6.294 1.203.148 2.39-.119 4.098-.92.341-.164-.698 4.334-1.5 6.501-1.247 3.355-2.805 5.923-4.854 7.941-2.137 2.123-4.17 3.088-6.471 3.103-1.44 0-2.48-.253-3.86-.965-2.672-1.38-4.794-3.83-6.62-7.615C9.767 48.14 8.758 43.374 8.758 38c0-5.388 1.01-10.138 3.058-14.384 2.182-4.557 5.373-7.674 8.52-8.312.445-.09.95-.193 1.113-.223.52-.118 2.197.075 3.117.371zm27.907-5.047c-2.271.297-4.453 1.129-6.443 2.435-1.157.772-3.488 2.983-3.651 3.473-.06.193.193.846.712 1.9.446.876.92 1.93 1.07 2.316.148.386.31.742.385.772.06.044.327-.297.594-.757.668-1.173 2.241-2.806 3.503-3.622a11.19 11.19 0 014.186-1.707c1.098-.223 1.306-.238 2.36-.015 2.227.445 4.587 1.96 6.205 3.963 2.137 2.657 3.666 5.774 4.646 9.485.415 1.589.92 4.008.831 4.008-.015 0-.4-.163-.831-.356-2.435-1.098-5.047-.698-7.006 1.098-2.717 2.48-2.687 6.799.044 9.248 1.945 1.752 4.557 2.152 6.962 1.054.43-.193.816-.356.831-.356.09 0-.416 2.42-.831 4.008-1.945 7.347-6.086 12.483-10.851 13.448-1.069.223-1.262.208-2.375-.015-3.176-.638-6.205-2.746-7.689-5.344-.267-.46-.534-.786-.594-.712-.074.06-.297.55-.52 1.084a35.787 35.787 0 01-1.068 2.27c-.416.847-.623 1.41-.564 1.604.163.49 2.494 2.701 3.651 3.473 1.218.802 3.133 1.678 4.513 2.049 4.898 1.32 9.648-.193 13.641-4.35 3.92-4.082 6.457-9.975 7.541-17.441.252-1.796.252-9.04 0-10.836-1.084-7.466-3.622-13.36-7.54-17.441-3.43-3.563-7.63-5.27-11.712-4.736z" fill="#fff"/></svg>