<svg width="774" height="95" fill="none" xmlns="http://www.w3.org/2000/svg"><path d="M25.927 94.147c-5.76.006-10.017-1.333-12.772-4.018-2.691-2.621-4.04-6.716-4.046-12.284l-.02-18.528c-.003-2.048-.549-3.551-1.638-4.51-1.025-1.023-2.657-1.533-4.897-1.53l-2.112.002-.012-10.56 2.112-.002c2.24-.003 3.871-.517 4.894-1.542 1.087-1.025 1.63-2.562 1.627-4.61l-.021-19.2C9.036 11.797 10.375 7.7 13.06 5.073c2.749-2.691 7.004-4.04 12.763-4.046l4.992-.006.013 11.04-3.84.005c-3.968.004-5.95 2.086-5.945 6.246l.02 18.24c.004 3.776-.857 6.561-2.583 8.355-1.662 1.73-4.253 2.597-7.773 2.6l.001.96c3.52-.003 6.113.89 7.78 2.68 1.73 1.726 2.596 4.445 2.6 8.157l.02 17.568c.005 4.16 1.99 6.238 5.959 6.233l3.84-.004.012 11.04-4.992.006zm39.531-18.284l-.059-52.8 57.312-.064.059 52.8-13.44.015-.046-41.76-30.432.034.046 41.76-13.44.015zm101.143.847c-7.04.008-13.121-1.17-18.244-3.531-5.059-2.427-8.934-5.719-11.627-9.876-2.628-4.157-3.946-8.795-3.951-13.915-.006-5.12 1.301-9.762 3.92-13.925 2.684-4.163 6.552-7.43 11.605-9.805 5.118-2.437 11.196-3.66 18.236-3.668 7.04-.008 13.09 1.202 18.148 3.628 5.123 2.362 8.998 5.622 11.627 9.78 2.693 4.156 4.042 8.795 4.048 13.915.005 5.12-1.334 9.761-4.017 13.924-2.619 4.163-6.488 7.463-11.605 9.901-5.053 2.374-11.1 3.564-18.14 3.572zm-.012-10.56c4.224-.005 7.808-.713 10.75-2.124 3.006-1.411 5.276-3.398 6.809-5.96 1.533-2.561 2.298-5.474 2.295-8.738-.004-3.264-.775-6.175-2.314-8.733-1.539-2.559-3.813-4.54-6.823-5.945-2.945-1.404-6.53-2.105-10.754-2.1-4.224.005-7.839.713-10.846 2.124-2.942 1.412-5.18 3.398-6.713 5.96-1.533 2.562-2.298 5.474-2.294 8.738.003 3.264.775 6.175 2.313 8.734 1.539 2.558 3.781 4.54 6.727 5.944 3.01 1.405 6.626 2.105 10.85 2.1zm43.876 27.791l-.08-71.04 13.44-.014.008 6.912.576-.001c1.726-1.858 4.412-3.621 8.058-5.29 3.71-1.731 8.029-2.6 12.957-2.605 5.696-.007 10.722 1.172 15.076 3.535 4.419 2.363 7.847 5.623 10.283 9.78 2.437 4.093 3.658 8.764 3.664 14.012.006 5.248-1.205 9.954-3.632 14.116-2.428 4.099-5.848 7.335-10.262 9.708-4.349 2.373-9.372 3.562-15.068 3.568-4.672.006-8.897-.79-12.674-2.385-3.778-1.66-6.564-3.481-8.358-5.463h-.576l.028 25.152-13.44.015zm31.169-27.874c3.84-.005 7.167-.712 9.981-2.123 2.879-1.476 5.084-3.462 6.618-5.96 1.533-2.562 2.297-5.474 2.294-8.738-.004-3.264-.775-6.144-2.314-8.638-1.539-2.558-3.749-4.54-6.63-5.944-2.818-1.47-6.147-2.202-9.987-2.197-2.816.003-5.439.39-7.871 1.16-2.431.707-4.478 1.605-6.141 2.695-1.662 1.09-2.909 2.211-3.74 3.364l.022 19.2c.833 1.151 2.082 2.27 3.747 3.356 1.665 1.086 3.715 2.012 6.147 2.777 2.433.702 5.058 1.05 7.874 1.048zm59.021 9.534l-.047-41.76-23.232.026-.012-11.04 59.904-.067.012 11.04-23.232.026.047 41.76-13.44.015zm87.362-.097l-.012-10.56 7.68-.009c5.248-.005 9.311-1.45 12.188-4.333 2.94-2.883 4.408-6.885 4.402-12.005-.005-5.12-1.482-9.119-4.429-11.995-2.883-2.877-6.949-4.313-12.197-4.307l-7.68.009-.012-10.56 8.64-.01c6.144-.007 11.426 1.108 15.844 3.343 4.483 2.235 7.878 5.367 10.187 9.396 2.372 4.03 3.561 8.732 3.567 14.108.006 5.376-1.173 10.082-3.536 14.116-2.3 4.035-5.688 7.175-10.166 9.42-4.413 2.245-9.692 3.37-15.836 3.377l-8.64.01zm-18.24.02c-6.144.007-11.457-1.107-15.94-3.342-4.418-2.235-7.814-5.367-10.186-9.397-2.309-4.03-3.466-8.732-3.472-14.108-.006-5.376 1.141-10.081 3.441-14.116 2.363-4.034 5.752-7.174 10.165-9.42 4.478-2.244 9.788-3.37 15.932-3.377l8.64-.01.012 10.56-7.68.01c-5.248.005-9.342 1.45-12.283 4.333-2.877 2.883-4.312 6.885-4.307 12.005.006 5.12 1.45 9.118 4.334 11.995 2.947 2.877 7.044 4.312 12.292 4.306l7.68-.008.012 10.56-8.64.01zm6.74 18.233l-.032-28.8-.036-32.64-.029-25.92 13.44-.015.029 25.92.036 32.64.032 28.8-13.44.015zm92.056-17.383c-7.04.008-13.121-1.17-18.244-3.531-5.058-2.427-8.934-5.719-11.627-9.876-2.628-4.157-3.945-8.795-3.951-13.915-.006-5.12 1.301-9.762 3.92-13.925 2.684-4.163 6.552-7.43 11.606-9.804 5.117-2.438 11.196-3.66 18.236-3.669 7.04-.008 13.089 1.202 18.148 3.628 5.122 2.362 8.998 5.622 11.626 9.78 2.693 4.156 4.042 8.795 4.048 13.915.006 5.12-1.333 9.761-4.017 13.924-2.619 4.163-6.487 7.463-11.605 9.901-5.053 2.374-11.1 3.564-18.14 3.572zm-.011-10.56c4.224-.004 7.807-.712 10.749-2.124 3.007-1.411 5.277-3.398 6.81-5.96 1.533-2.561 2.298-5.474 2.294-8.738-.004-3.264-.775-6.175-2.314-8.733-1.539-2.559-3.813-4.54-6.822-5.945-2.946-1.404-6.531-2.104-10.755-2.1-4.224.005-7.839.713-10.845 2.124-2.943 1.412-5.181 3.398-6.714 5.96-1.533 2.561-2.298 5.474-2.294 8.738.004 3.264.775 6.175 2.314 8.734 1.539 2.558 3.781 4.54 6.726 5.944 3.01 1.405 6.627 2.105 10.851 2.1zm37.614 8.886c1.981-2.434 3.832-6.756 5.553-12.966 1.785-6.274 2.801-13.667 3.048-22.18l.461-16.992 48.48-.054.059 52.8-13.44.015-.047-41.76-21.696.024-.376 6.913c-.503 8.704-1.55 16.13-3.143 22.275-1.53 6.146-3.157 10.34-4.882 12.582l-14.016.015-.001-.672zm69.124.596l-.058-52.8 13.44-.015.046 41.376.48-.001 26.161-41.405 17.184-.02.059 52.8-13.44.016-.046-41.376h-.48l-26.162 41.405-17.184.02zm101.143.847c-7.04.008-13.121-1.17-18.244-3.532-5.058-2.426-8.934-5.718-11.627-9.875-2.628-4.157-3.945-8.795-3.951-13.915-.006-5.12 1.301-9.762 3.92-13.925 2.684-4.163 6.552-7.431 11.605-9.805 5.118-2.437 11.196-3.66 18.236-3.668 7.04-.008 13.09 1.201 18.148 3.628 5.123 2.362 8.999 5.622 11.627 9.779 2.693 4.157 4.042 8.795 4.048 13.915.006 5.12-1.333 9.762-4.017 13.925-2.619 4.163-6.487 7.463-11.605 9.9-5.053 2.374-11.1 3.565-18.14 3.573zm-.011-10.56c4.224-.005 7.807-.713 10.749-2.124 3.007-1.411 5.276-3.398 6.81-5.96 1.533-2.561 2.297-5.474 2.294-8.738-.004-3.264-.775-6.175-2.314-8.734-1.539-2.558-3.813-4.54-6.822-5.944-2.946-1.405-6.531-2.105-10.755-2.1-4.224.005-7.839.713-10.845 2.124-2.943 1.411-5.181 3.398-6.714 5.96-1.533 2.561-2.298 5.474-2.294 8.738.003 3.264.775 6.175 2.314 8.733 1.538 2.559 3.781 4.54 6.726 5.945 3.01 1.405 6.627 2.105 10.851 2.1zm66.896 27.766l-.012-11.04 3.84-.005c3.968-.004 5.949-2.086 5.945-6.246l-.02-17.568c-.004-3.712.825-6.433 2.487-8.163 1.726-1.794 4.349-2.693 7.869-2.697l-.001-.96c-3.52.004-6.145-.857-7.875-2.583-1.666-1.79-2.501-4.573-2.505-8.35l-.02-18.24c-.005-4.16-1.991-6.237-5.959-6.233l-3.84.005-.013-11.04 4.992-.006c5.76-.006 9.986 1.333 12.677 4.018 2.755 2.62 4.135 6.715 4.141 12.283l.022 19.2c.002 2.048.516 3.584 1.541 4.607 1.089 1.022 2.754 1.533 4.994 1.53l2.112-.002.011 10.56-2.112.002c-2.24.003-3.903.516-4.99 1.542-1.023.96-1.533 2.465-1.531 4.513l.021 18.528c.006 5.568-1.365 9.666-4.115 12.293-2.685 2.69-6.907 4.04-12.667 4.046l-4.992.006z" fill="#fff"/></svg>