<svg width="111" height="18" fill="none" xmlns="http://www.w3.org/2000/svg"><path d="M.17 17.42V4.1h2.52v1.296h.108c.324-.348.828-.678 1.512-.99.696-.324 1.506-.486 2.43-.486 1.068 0 2.01.222 2.826.666a4.815 4.815 0 011.926 1.836c.456.768.684 1.644.684 2.628 0 .984-.228 1.866-.684 2.646-.456.768-1.098 1.374-1.926 1.818-.816.444-1.758.666-2.826.666-.876 0-1.668-.15-2.376-.45-.708-.312-1.23-.654-1.566-1.026H2.69v4.716H.17zm5.85-5.22c.72 0 1.344-.132 1.872-.396.54-.276.954-.648 1.242-1.116.288-.48.432-1.026.432-1.638 0-.612-.144-1.152-.432-1.62a2.885 2.885 0 00-1.242-1.116C7.364 6.038 6.74 5.9 6.02 5.9c-.528 0-1.02.072-1.476.216-.456.132-.84.3-1.152.504-.312.204-.546.414-.702.63v3.6c.156.216.39.426.702.63.312.204.696.378 1.152.522.456.132.948.198 1.476.198zm12.316 1.98c-1.404 0-2.484-.348-3.24-1.044-.744-.708-1.116-1.68-1.116-2.916V4.1h2.52v5.796c0 .732.222 1.308.666 1.728.444.408 1.074.612 1.89.612.528 0 1.008-.084 1.44-.252.432-.18.792-.402 1.08-.666.288-.264.498-.534.63-.81V4.1h2.52V14h-2.52v-1.566h-.108c-.18.276-.45.552-.81.828-.348.264-.78.486-1.296.666a5.21 5.21 0 01-1.656.252zM26.88 14V4.1h2.52v1.566h.108c.168-.276.402-.546.702-.81.3-.264.654-.486 1.062-.666.42-.18.858-.27 1.314-.27h1.008v2.43h-1.008c-.6 0-1.128.078-1.584.234-.444.144-.804.33-1.08.558-.264.228-.438.456-.522.684V14h-2.52zm13.673.18c-1.32 0-2.46-.222-3.42-.666-.948-.456-1.674-1.074-2.178-1.854a4.792 4.792 0 01-.738-2.61c0-.96.246-1.83.738-2.61.504-.78 1.23-1.392 2.178-1.836.96-.456 2.1-.684 3.42-.684 1.32 0 2.454.228 3.402.684.96.444 1.686 1.056 2.178 1.836.504.78.756 1.65.756 2.61s-.252 1.83-.756 2.61c-.492.78-1.218 1.398-2.178 1.854-.948.444-2.082.666-3.402.666zm0-1.98c.792 0 1.464-.132 2.016-.396.564-.264.99-.636 1.278-1.116.288-.48.432-1.026.432-1.638 0-.612-.144-1.158-.432-1.638-.288-.48-.714-.852-1.278-1.116-.552-.264-1.224-.396-2.016-.396s-1.47.132-2.034.396c-.552.264-.972.636-1.26 1.116a3.121 3.121 0 00-.432 1.638c0 .612.144 1.158.432 1.638.288.48.708.852 1.26 1.116.564.264 1.242.396 2.034.396zm8.221 1.8V1.04h2.52V14h-2.52zm10.738.18c-1.32 0-2.46-.222-3.42-.666-.948-.456-1.674-1.074-2.178-1.854a4.792 4.792 0 01-.738-2.61c0-.96.246-1.83.738-2.61.504-.78 1.23-1.392 2.178-1.836.96-.456 2.1-.684 3.42-.684 1.32 0 2.454.228 3.402.684.96.444 1.686 1.056 2.178 1.836.504.78.756 1.65.756 2.61s-.252 1.83-.756 2.61c-.492.78-1.218 1.398-2.178 1.854-.948.444-2.082.666-3.402.666zm0-1.98c.792 0 1.464-.132 2.016-.396.564-.264.99-.636 1.278-1.116.288-.48.432-1.026.432-1.638 0-.612-.144-1.158-.432-1.638-.288-.48-.714-.852-1.278-1.116-.552-.264-1.224-.396-2.016-.396s-1.47.132-2.034.396c-.552.264-.972.636-1.26 1.116a3.121 3.121 0 00-.432 1.638c0 .612.144 1.158.432 1.638.288.48.708.852 1.26 1.116.564.264 1.242.396 2.034.396zm13.656 5.4c-.936 0-1.83-.108-2.681-.324-.84-.216-1.488-.456-1.944-.72v-2.214c.456.3 1.08.57 1.871.81.793.252 1.62.378 2.484.378.877 0 1.609-.132 2.197-.396.6-.252 1.043-.618 1.332-1.098.287-.468.431-1.02.431-1.656v-.288h-.108c-.323.372-.846.708-1.566 1.008-.707.3-1.5.45-2.376.45-1.068 0-2.01-.21-2.826-.63-.803-.42-1.427-.996-1.871-1.728-.433-.732-.648-1.548-.648-2.448 0-.912.216-1.734.648-2.466.444-.732 1.067-1.308 1.871-1.728.817-.42 1.758-.63 2.826-.63.876 0 1.668.156 2.376.468.709.3 1.23.636 1.567 1.008h.108V4.1h2.52v8.28c0 1.032-.24 1.938-.72 2.718-.469.792-1.17 1.404-2.107 1.836-.924.444-2.052.666-3.384.666zm.325-6.03c.504 0 .978-.066 1.422-.198a4.58 4.58 0 001.17-.504c.336-.204.594-.414.774-.63V7.25c-.18-.216-.438-.426-.774-.63a4.58 4.58 0 00-1.17-.504 4.582 4.582 0 00-1.422-.216c-.744 0-1.374.12-1.89.36-.504.228-.888.558-1.152.99-.252.42-.378.918-.378 1.494 0 .564.126 1.062.378 1.494.264.42.648.75 1.152.99.516.228 1.146.342 1.89.342zM81.545 14V4.1h2.52V14h-2.52zm1.26-10.62c-.504 0-.9-.12-1.188-.36-.288-.24-.432-.564-.432-.972 0-.408.144-.732.432-.972.288-.24.684-.36 1.188-.36.504 0 .9.12 1.188.36.288.24.432.564.432.972 0 .408-.144.732-.432.972-.288.24-.684.36-1.188.36zm9.261 10.8c-1.248 0-2.334-.222-3.258-.666-.924-.456-1.632-1.074-2.124-1.854a4.791 4.791 0 01-.738-2.61c0-.96.252-1.83.756-2.61.504-.78 1.23-1.392 2.178-1.836.96-.456 2.088-.684 3.384-.684a8.44 8.44 0 012.448.342c.756.216 1.386.468 1.89.756v2.124c-.516-.348-1.14-.642-1.872-.882a7.464 7.464 0 00-2.34-.36c-.828 0-1.53.132-2.106.396-.576.264-1.008.636-1.296 1.116-.288.468-.432 1.014-.432 1.638 0 .612.138 1.158.414 1.638.288.48.708.852 1.26 1.116.552.264 1.212.396 1.98.396.804 0 1.566-.114 2.286-.342.732-.228 1.314-.492 1.746-.792v2.124c-.444.252-1.038.48-1.782.684a9.023 9.023 0 01-2.394.306zm12.306 0c-1.32 0-2.46-.222-3.42-.666-.948-.456-1.674-1.074-2.178-1.854a4.792 4.792 0 01-.738-2.61c0-.96.246-1.83.738-2.61.504-.78 1.23-1.392 2.178-1.836.96-.456 2.1-.684 3.42-.684 1.32 0 2.454.228 3.402.684.96.444 1.686 1.056 2.178 1.836.504.78.756 1.65.756 2.61s-.252 1.83-.756 2.61c-.492.78-1.218 1.398-2.178 1.854-.948.444-2.082.666-3.402.666zm0-1.98c.792 0 1.464-.132 2.016-.396.564-.264.99-.636 1.278-1.116.288-.48.432-1.026.432-1.638 0-.612-.144-1.158-.432-1.638-.288-.48-.714-.852-1.278-1.116-.552-.264-1.224-.396-2.016-.396s-1.47.132-2.034.396c-.552.264-.972.636-1.26 1.116a3.121 3.121 0 00-.432 1.638c0 .612.144 1.158.432 1.638.288.48.708.852 1.26 1.116.564.264 1.242.396 2.034.396z" fill="#363636"/></svg>