<svg width="912" height="95" fill="none" xmlns="http://www.w3.org/2000/svg"><path d="M25.927 94.147c-5.76.006-10.017-1.333-12.772-4.018-2.691-2.621-4.04-6.716-4.046-12.284l-.02-18.528c-.003-2.048-.549-3.551-1.638-4.51-1.025-1.023-2.657-1.533-4.897-1.53l-2.112.002-.012-10.56 2.112-.002c2.24-.003 3.871-.517 4.894-1.542 1.087-1.025 1.63-2.562 1.627-4.61l-.021-19.2C9.036 11.797 10.375 7.7 13.06 5.073c2.749-2.691 7.004-4.04 12.763-4.046l4.992-.006.013 11.04-3.84.005c-3.968.004-5.95 2.086-5.945 6.246l.02 18.24c.004 3.776-.857 6.561-2.583 8.355-1.662 1.73-4.253 2.597-7.773 2.6l.001.96c3.52-.003 6.113.89 7.78 2.68 1.73 1.726 2.596 4.445 2.6 8.157l.02 17.568c.005 4.16 1.99 6.238 5.959 6.233l3.84-.004.012 11.04-4.992.006zm48.191-.054l11.303-23.245L58.678 23.07l14.688-.016 18.278 33.58.48-.001 16.282-33.618 13.92-.016-34.48 71.079-13.729.015zm82.425-17.372c-6.656.008-12.449-1.17-17.38-3.532-4.931-2.427-8.71-5.719-11.339-9.876-2.629-4.157-3.946-8.795-3.952-13.915-.005-5.12 1.334-9.762 4.017-13.925 2.683-4.163 6.552-7.431 11.605-9.805 5.117-2.437 11.132-3.66 18.044-3.668 4.672-.005 9.025.598 13.058 1.81 4.033 1.147 7.395 2.488 10.084 4.02l.013 11.328c-2.754-1.852-6.084-3.417-9.989-4.692-3.906-1.276-8.066-1.911-12.482-1.907-4.416.005-8.16.714-11.23 2.125-3.07 1.411-5.372 3.398-6.905 5.96-1.534 2.497-2.298 5.41-2.295 8.738.004 3.264.743 6.175 2.218 8.734 1.539 2.558 3.781 4.54 6.727 5.944 2.945 1.405 6.466 2.105 10.562 2.1 4.288-.004 8.351-.617 12.19-1.837 3.903-1.22 7.005-2.632 9.307-4.234l.013 11.328c-2.367 1.346-5.533 2.566-9.5 3.658-3.967 1.093-8.222 1.641-12.766 1.646zm27.035-1.661c1.982-2.435 3.833-6.757 5.554-12.967 1.785-6.274 2.801-13.667 3.047-22.18l.461-16.992 48.48-.054.059 52.8-13.44.015-.046-41.76-21.696.024-.377 6.913c-.502 8.704-1.55 16.13-3.143 22.275-1.529 6.146-3.156 10.34-4.882 12.582l-14.016.015-.001-.672zm77.785 18.825l11.302-23.245-26.741-47.778 14.688-.016 18.278 33.58.48-.001 16.282-33.618 13.92-.016-34.481 71.079-13.728.015zm53.099-18.299l-.059-52.8 47.232-.053.012 11.04-33.792.038.047 41.76-13.44.015zm53.977-.06l-.059-52.8 13.44-.015.046 41.376h.48l26.162-41.406 17.184-.02.059 52.8-13.44.016-.046-41.376h-.48l-26.162 41.406-17.184.019zm96.611-.108l-.058-52.8 13.44-.015.046 41.376h.48l26.162-41.406 17.184-.019.058 52.8-13.44.015-.046-41.376h-.48L482.234 75.4l-17.184.02zm146.932 14.525l-.016-14.688-50.304.056-.059-52.8 13.44-.015.046 41.76 28.512-.032-.046-41.76 13.44-.015.046 41.76 8.352-.01.029 25.729-13.44.015zm51.849-13.786c-6.976.008-12.993-1.202-18.052-3.628-5.058-2.426-8.934-5.686-11.627-9.779-2.628-4.157-3.945-8.796-3.951-13.916-.006-5.12 1.237-9.761 3.728-13.924 2.556-4.163 6.168-7.43 10.837-9.804 4.67-2.437 10.044-3.659 16.124-3.666 5.952-.006 11.202 1.172 15.748 3.535 4.547 2.363 8.039 5.623 10.475 9.78 2.501 4.157 3.754 8.828 3.76 14.012l.003 3.264-47.136.052c.579 2.56 1.766 4.83 3.56 6.812 1.858 1.982 4.292 3.516 7.301 4.6 3.073 1.085 6.626 1.625 10.658 1.62 4.16-.004 8.159-.649 11.998-1.933 3.838-1.284 6.781-2.696 8.827-4.234l.013 11.616c-2.11 1.41-5.181 2.694-9.212 3.85-4.03 1.157-8.382 1.738-13.054 1.743zm13.309-31.79c-.323-2.24-1.157-4.351-2.503-6.334-1.282-1.983-3.076-3.58-5.381-4.794-2.306-1.277-5.027-1.914-8.163-1.911-3.072.003-5.855.582-8.35 1.737-2.494 1.091-4.509 2.63-6.043 4.615a15.208 15.208 0 00-2.968 6.723l33.408-.037zm68.043 30.739l-.059-52.8 13.44-.014.059 52.8-13.44.014zm-44.16.05l-.059-52.8 13.44-.015.059 52.8-13.44.015zm11.88-21.614l-.013-11.04 33.792-.037.013 11.04-33.792.037zm90.557-13.828c7.488-.009 13.186 1.617 17.094 4.877 3.971 3.195 5.96 7.449 5.966 12.761.006 5.312-1.973 9.602-5.938 12.87-3.9 3.205-9.594 4.811-17.082 4.82l-33.312.037-.059-52.8 13.44-.015.029 26.208.018 16.512 18.432-.02c3.52-.005 6.144-.68 7.87-2.026 1.791-1.41 2.685-3.267 2.682-5.57-.003-2.305-.901-4.128-2.694-5.47-1.73-1.406-4.354-2.107-7.874-2.103l-20.16.023-.012-10.08 21.6-.024zm29.32 35.295l-.059-52.8 13.44-.015.059 52.8-13.44.015zm47.989 18.187l-.012-11.04 3.84-.005c3.968-.004 5.95-2.086 5.945-6.246l-.02-17.568c-.004-3.712.825-6.433 2.487-8.163 1.726-1.794 4.349-2.693 7.869-2.697l-.001-.96c-3.52.004-6.145-.857-7.875-2.583-1.666-1.79-2.501-4.573-2.505-8.35l-.02-18.24c-.005-4.16-1.991-6.237-5.959-6.233l-3.84.005-.012-11.04 4.992-.006c5.76-.006 9.985 1.333 12.676 4.018 2.755 2.621 4.135 6.715 4.142 12.284l.021 19.2c.002 2.047.516 3.583 1.541 4.606 1.089 1.023 2.754 1.533 4.994 1.53l2.112-.002.012 10.56-2.112.002c-2.24.003-3.904.517-4.991 1.542-1.023.96-1.533 2.465-1.531 4.513l.021 18.528c.006 5.568-1.365 9.666-4.114 12.293-2.685 2.691-6.908 4.04-12.668 4.046l-4.992.006z" fill="#fff"/></svg>