<svg width="28" height="28" fill="none" xmlns="http://www.w3.org/2000/svg"><path d="M13.73.066c-.263.143-.274.236-.28 1.746 0 1.154.017 1.439.083 1.57.098.191.235.273.465.273.23 0 .366-.082.465-.273.066-.131.082-.416.082-1.554 0-.963-.022-1.439-.066-1.537-.12-.263-.481-.372-.75-.225zM6.99 1.877c-.17.093-.29.356-.258.542.016.071.34.673.728 1.346.585 1.012.727 1.225.88 1.296.35.17.761-.098.756-.492-.006-.252-1.357-2.588-1.565-2.697a.533.533 0 00-.542.005zm13.47-.005c-.088.049-.4.525-.849 1.296-.58 1.002-.706 1.264-.706 1.434a.523.523 0 00.772.454c.126-.066.323-.361.864-1.297.383-.667.706-1.269.723-1.34.082-.427-.416-.76-.805-.547zM13.013 5.33c-3.376.426-6.22 2.735-7.277 5.914-.339 1.023-.405 1.46-.405 2.752 0 1.006.017 1.252.12 1.712.504 2.276 1.73 4.13 3.59 5.444.897.634 2.16 1.165 3.37 1.417.717.148 2.572.137 3.3-.028 3.561-.787 6.165-3.435 6.86-6.986.148-.75.131-2.539-.027-3.272-.777-3.523-3.409-6.133-6.905-6.85-.4-.087-2.216-.153-2.626-.103zm2.161 1.143a7.555 7.555 0 014.06 2.013 7.226 7.226 0 011.575 2.145c.553 1.116.794 2.128.794 3.365 0 1.236-.241 2.248-.794 3.364a7.227 7.227 0 01-1.575 2.145A7.571 7.571 0 018.756 19.5a7.119 7.119 0 01-1.57-2.14c-.558-1.121-.793-2.122-.793-3.364s.235-2.244.793-3.365a7.118 7.118 0 011.57-2.14 7.657 7.657 0 014.033-2.018c.574-.098 1.789-.098 2.385 0zm-13.098.323c-.257.142-.345.46-.203.733.11.208 2.446 1.56 2.698 1.565.24 0 .47-.18.53-.416.093-.367-.027-.47-1.39-1.253-.705-.405-1.285-.706-1.367-.706a.79.79 0 00-.268.077zm22.191.64c-.963.558-1.264.755-1.33.88-.18.356.06.767.455.772.17 0 .438-.131 1.428-.706 1.23-.71 1.379-.826 1.379-1.11a.578.578 0 00-.559-.553c-.07 0-.689.323-1.373.717zM.27 13.525c-.257.142-.344.46-.202.739.137.262.257.279 1.762.279 1.477 0 1.641-.022 1.772-.268a.627.627 0 00-.076-.646l-.132-.153-1.499-.011c-1.17-.011-1.52 0-1.625.06zm24.364-.022c-.257.104-.378.504-.241.772.131.246.296.268 1.778.268 1.521 0 1.642-.022 1.767-.301a.524.524 0 000-.493c-.125-.284-.246-.3-1.778-.295-.777 0-1.466.022-1.526.05zM4.341 18.952c-.088.044-.667.372-1.275.723-1.121.64-1.27.765-1.27 1.045 0 .29.269.552.559.552.071 0 .684-.317 1.357-.706 1.34-.766 1.466-.88 1.4-1.23a.54.54 0 00-.771-.384zm18.93-.049c-.175.044-.35.24-.388.427-.066.356.044.454 1.351 1.209.668.383 1.27.706 1.34.722.296.055.624-.224.624-.536 0-.252-.153-.41-.694-.717-.296-.175-.838-.487-1.21-.7-.683-.394-.831-.454-1.023-.405zM8.302 22.94c-.098.055-.372.471-.848 1.292-.383.667-.706 1.27-.722 1.34-.055.296.224.624.536.624.285 0 .405-.148 1.05-1.27.865-1.498.832-1.427.756-1.651A.767.767 0 008.915 23c-.142-.131-.443-.159-.613-.06zm10.921-.032a.521.521 0 00-.317.481c0 .17.13.438.705 1.428.712 1.237.826 1.379 1.116 1.379.312 0 .591-.328.537-.624-.017-.07-.34-.673-.723-1.34-.793-1.368-.908-1.488-1.318-1.324zm-5.592 1.559l-.153.132-.017 1.466c-.016 1.592 0 1.718.269 1.854a.51.51 0 00.514.017c.279-.126.3-.246.3-1.767 0-1.483-.021-1.647-.267-1.778a.627.627 0 00-.646.076z" fill="#363636"/></svg>