<svg width="723" height="95" fill="none" xmlns="http://www.w3.org/2000/svg"><path d="M25.927 94.288c-5.76.007-10.017-1.333-12.772-4.018-2.691-2.62-4.04-6.715-4.046-12.283l-.02-18.528c-.003-2.048-.549-3.552-1.638-4.51-1.025-1.023-2.657-1.533-4.897-1.53l-2.112.002L.43 42.86l2.112-.003c2.24-.002 3.871-.516 4.894-1.541 1.087-1.026 1.63-2.562 1.627-4.61l-.021-19.2c-.006-5.568 1.333-9.666 4.018-12.293 2.749-2.69 7.004-4.04 12.763-4.046l4.992-.005.013 11.04-3.84.004c-3.968.004-5.95 2.087-5.945 6.247l.02 18.24c.004 3.776-.857 6.56-2.583 8.354-1.662 1.73-4.253 2.597-7.773 2.601l.001.96c3.52-.004 6.113.89 7.78 2.68 1.73 1.725 2.596 4.444 2.6 8.157l.02 17.567c.005 4.16 1.99 6.238 5.959 6.234l3.84-.004.012 11.04-4.992.005zm39.531-18.284l-.077-69.12 13.44-.015.028 24.672h.576c.958-1.473 2.364-2.915 4.219-4.325 1.918-1.474 4.253-2.66 7.004-3.56 2.75-.963 5.758-1.446 9.022-1.45 7.424-.008 13.122 1.873 17.095 5.645 3.972 3.708 5.961 8.857 5.969 15.45l.036 32.64-13.44.014-.034-31.008c-.005-3.84-1.192-6.846-3.562-9.02-2.371-2.237-5.732-3.353-10.084-3.348-2.88.003-5.472.486-7.775 1.448-2.303.899-4.221 2.085-5.756 3.559-1.534 1.41-2.62 2.819-3.259 4.227l.038 34.176-13.44.015zm100.482.848c-6.976.008-12.993-1.201-18.052-3.627-5.058-2.427-8.934-5.687-11.627-9.78-2.628-4.157-3.945-8.795-3.951-13.915-.006-5.12 1.237-9.762 3.728-13.924 2.556-4.163 6.168-7.431 10.838-9.804 4.669-2.438 10.043-3.66 16.123-3.666 5.952-.007 11.202 1.171 15.748 3.534 4.547 2.363 8.039 5.623 10.475 9.78 2.501 4.158 3.754 8.828 3.76 14.012l.003 3.264-47.135.053c.578 2.56 1.765 4.83 3.559 6.812 1.858 1.982 4.292 3.515 7.301 4.6 3.073 1.084 6.626 1.624 10.658 1.62 4.16-.005 8.159-.65 11.998-1.934 3.838-1.284 6.781-2.695 8.827-4.233l.013 11.616c-2.11 1.41-5.181 2.693-9.212 3.85-4.03 1.156-8.382 1.737-13.054 1.742zm13.309-31.79c-.323-2.24-1.157-4.351-2.503-6.334-1.282-1.982-3.076-3.58-5.381-4.794-2.306-1.277-5.027-1.914-8.163-1.91-3.072.003-5.855.582-8.35 1.737-2.494 1.09-4.509 2.629-6.043 4.614a15.208 15.208 0 00-2.968 6.724l33.408-.037zm23.883 30.789l-.077-69.12 13.44-.015.077 69.12-13.44.015zm24.915-.028l-.077-69.12 13.44-.015.077 69.12-13.44.015zm57.268.897c-7.04.007-13.122-1.17-18.244-3.532-5.059-2.427-8.935-5.718-11.627-9.875-2.629-4.157-3.946-8.796-3.952-13.916-.005-5.12 1.301-9.761 3.921-13.924 2.683-4.163 6.552-7.431 11.605-9.805 5.117-2.438 11.196-3.66 18.236-3.668 7.04-.008 13.089 1.201 18.148 3.627 5.123 2.363 8.998 5.622 11.627 9.78 2.692 4.157 4.042 8.795 4.047 13.915.006 5.12-1.333 9.761-4.016 13.924-2.62 4.163-6.488 7.464-11.605 9.901-5.054 2.374-11.1 3.565-18.14 3.573zm-.012-10.56c4.224-.005 7.807-.713 10.75-2.124 3.006-1.412 5.276-3.398 6.809-5.96 1.533-2.562 2.298-5.474 2.294-8.739-.003-3.264-.775-6.175-2.313-8.733-1.539-2.558-3.813-4.54-6.823-5.944-2.946-1.405-6.53-2.105-10.754-2.1-4.224.004-7.84.712-10.846 2.124-2.942 1.411-5.18 3.397-6.713 5.96-1.534 2.56-2.298 5.474-2.295 8.738.004 3.264.775 6.175 2.314 8.733 1.539 2.558 3.781 4.54 6.727 5.945 3.009 1.404 6.626 2.104 10.85 2.1zm83.241 9.507l-19.259-52.779 13.344-.015 14.445 40.112h.48l14.547-40.144 12.096-.014 14.829 40.112h.48l14.259-40.145 12.96-.014-18.661 52.82-15.936.019-13.865-37.233h-.48L384.48 75.65l-15.936.018zm114.516.833c-7.04.007-13.122-1.17-18.244-3.532-5.059-2.427-8.935-5.718-11.627-9.875-2.629-4.157-3.946-8.796-3.952-13.916-.005-5.12 1.301-9.761 3.921-13.924 2.683-4.163 6.551-7.431 11.605-9.805 5.117-2.438 11.196-3.66 18.236-3.668 7.04-.008 13.089 1.201 18.148 3.627 5.122 2.363 8.998 5.622 11.627 9.78 2.692 4.157 4.041 8.795 4.047 13.915.006 5.12-1.333 9.762-4.016 13.925-2.62 4.162-6.488 7.463-11.605 9.9-5.054 2.374-11.1 3.565-18.14 3.573zm-.012-10.56c4.224-.005 7.807-.713 10.75-2.124 3.006-1.412 5.276-3.398 6.809-5.96 1.533-2.562 2.298-5.474 2.294-8.739-.003-3.264-.775-6.175-2.314-8.733-1.538-2.558-3.813-4.54-6.822-5.944-2.946-1.405-6.53-2.105-10.754-2.1-4.224.004-7.84.712-10.846 2.124-2.943 1.411-5.18 3.398-6.714 5.96-1.533 2.56-2.297 5.474-2.294 8.738.004 3.264.775 6.175 2.314 8.733 1.539 2.558 3.781 4.54 6.727 5.945 3.009 1.404 6.626 2.104 10.85 2.1zm43.855 9.55l-.059-52.8 13.44-.014.009 8.352h.576c.895-1.474 2.141-2.915 3.74-4.325 1.598-1.41 3.485-2.596 5.66-3.558a17.61 17.61 0 017.006-1.448l5.376-.006.014 12.96-5.376.006c-3.2.004-6.015.423-8.446 1.257-2.367.771-4.286 1.765-5.757 2.983-1.407 1.217-2.333 2.434-2.78 3.65l.037 32.929-13.44.015zm43.477-.048l-.077-69.12 13.44-.014.077 69.12-13.44.014zm52.468.902c-5.696.006-10.753-1.172-15.172-3.535-4.354-2.363-7.75-5.591-10.186-9.685-2.437-4.157-3.658-8.86-3.664-14.108-.006-5.248 1.205-9.921 3.632-14.02 2.428-4.162 5.816-7.43 10.165-9.803 4.414-2.373 9.468-3.563 15.164-3.569 4.608-.005 8.801.822 12.579 2.482 3.842 1.596 6.66 3.385 8.454 5.367h.576L644.37 6.24l13.44-.015.077 69.12-13.44.015-.007-6.912h-.576c-1.79 1.987-4.604 3.814-8.442 5.482-3.775 1.604-7.966 2.409-12.574 2.414zm4.309-10.565c3.84-.004 7.327-.744 10.461-2.22 3.134-1.539 5.405-3.205 6.811-4.999l-.022-19.2c-.897-1.15-2.178-2.27-3.844-3.356-1.665-1.086-3.682-1.98-6.051-2.68-2.304-.766-4.769-1.148-7.393-1.145-4.032.005-7.519.745-10.461 2.22-2.879 1.411-5.085 3.398-6.618 5.96-1.533 2.497-2.298 5.378-2.294 8.642.003 3.264.775 6.175 2.314 8.733 1.538 2.495 3.749 4.476 6.63 5.945 2.946 1.405 6.435 2.105 10.467 2.1zm65.313 27.768l-.012-11.04 3.84-.005c3.968-.004 5.95-2.086 5.945-6.246l-.019-17.568c-.004-3.712.825-6.433 2.487-8.163 1.726-1.794 4.349-2.693 7.869-2.697l-.001-.96c-3.52.004-6.145-.857-7.875-2.583-1.666-1.79-2.501-4.573-2.506-8.35l-.02-18.24c-.005-4.16-1.991-6.237-5.959-6.233l-3.84.005-.012-11.04 4.992-.006c5.76-.006 9.985 1.333 12.676 4.018 2.755 2.621 4.136 6.715 4.142 12.283l.021 19.2c.003 2.048.516 3.584 1.542 4.607 1.089 1.022 2.753 1.533 4.993 1.53l2.112-.002.012 10.56-2.112.002c-2.24.003-3.903.517-4.99 1.542-1.023.96-1.534 2.465-1.531 4.513l.02 18.528c.007 5.568-1.365 9.666-4.114 12.293-2.685 2.691-6.908 4.04-12.668 4.046l-4.992.006z" fill="#fff"/></svg>