<svg width="26" height="16" fill="none" xmlns="http://www.w3.org/2000/svg"><g clip-path="url(#clip0_62_198)"><path clip-rule="evenodd" d="M11.035.897c-.462.034-1.047.126-1.281.201-.402.129-.903.587-.81.742.016.028.11.067.207.085.435.083.802.338.966.67.281.568.408 2.344.256 3.602-.1.831-.142 1.024-.29 1.325-.397.809-1.31.154-2.317-1.66-.358-.646-1.366-2.72-1.59-3.272-.273-.669-.359-.792-.668-.954l-.26-.137-1.97.015c-1.777.013-1.983.023-2.122.101-.22.124-.314.293-.285.513.032.236.778 1.946 1.328 3.042 1.072 2.134 1.979 3.684 2.949 5.036 1.426 1.988 2.057 2.633 3.515 3.593.68.448 1.171.699 1.779.908.834.287 1.197.342 2.443.371 1.24.03 1.595-.007 1.858-.192.216-.152.283-.362.324-1.014.04-.644.161-1.196.33-1.49.147-.261.469-.562.607-.569.481-.024.75.182 1.757 1.344.943 1.09 1.291 1.41 1.812 1.667.235.116.523.233.64.261.285.067 4.127-.008 4.375-.086.246-.077.51-.345.516-.522.017-.485-.052-.704-.381-1.216-.433-.674-.805-1.105-2.072-2.397-1.344-1.372-1.438-1.5-1.44-1.958-.002-.386.173-.682 1.354-2.293 1.665-2.274 2.332-3.372 2.517-4.147.11-.454.047-.673-.233-.828l-.2-.11-2.396.017c-1.693.012-2.43.033-2.512.073-.16.079-.331.364-.545.913-.569 1.461-1.74 3.567-2.512 4.515-.308.378-.785.764-.944.764-.223 0-.406-.148-.545-.44l-.128-.269.013-2.538c.014-2.73.008-2.81-.237-3.17-.242-.355-.83-.477-2.409-.498a31.466 31.466 0 00-1.4.002z" stroke="#fff" stroke-width="1.2"/></g><defs><clipPath id="clip0_62_198"><path fill="#fff" d="M0 0h26v16H0z"/></clipPath></defs></svg>