<svg width="165" height="11" fill="none" xmlns="http://www.w3.org/2000/svg"><path d="M.04 8V.85h.91V4.1L5.435.85h1.339L1.912 4.36 6.774 8H5.435L.95 4.62V8H.04zm7.576 2.47V.85h.91v1.105h.065c.269-.312.672-.594 1.21-.845a4.035 4.035 0 011.78-.39c.78 0 1.47.16 2.067.481a3.45 3.45 0 011.404 1.326c.33.555.494 1.187.494 1.898 0 .71-.165 1.348-.494 1.911-.33.555-.797.992-1.404 1.313-.598.32-1.287.481-2.067.481-.65 0-1.244-.126-1.78-.377-.538-.26-.941-.546-1.21-.858h-.065v3.575h-.91zm3.796-3.146c.659 0 1.23-.121 1.716-.364a2.734 2.734 0 001.118-1.027c.26-.442.39-.945.39-1.508 0-.563-.13-1.062-.39-1.495a2.623 2.623 0 00-1.118-1.027c-.485-.251-1.057-.377-1.716-.377a3.51 3.51 0 00-1.248.221 3.64 3.64 0 00-.988.559c-.277.225-.494.45-.65.676v2.886c.156.225.373.45.65.676.277.225.607.412.988.559.39.147.806.221 1.248.221zm9.724.806c-.858 0-1.608-.16-2.249-.481-.633-.32-1.122-.758-1.469-1.313-.338-.563-.507-1.2-.507-1.911 0-.702.165-1.335.494-1.898a3.522 3.522 0 011.365-1.326c.59-.32 1.257-.481 2.002-.481.728 0 1.378.16 1.95.481a3.28 3.28 0 011.326 1.313c.32.555.481 1.192.481 1.911v.416h-6.708c.06.494.23.927.507 1.3a2.84 2.84 0 001.144.871c.485.208 1.04.312 1.664.312a5.08 5.08 0 001.638-.26c.52-.173.919-.368 1.196-.585v.897c-.277.19-.676.364-1.196.52a5.585 5.585 0 01-1.638.234zm2.483-4.121a2.791 2.791 0 00-.416-1.235 2.533 2.533 0 00-.975-.91c-.407-.225-.88-.338-1.417-.338-.563 0-1.066.108-1.508.325-.433.217-.78.516-1.04.897-.26.373-.407.793-.442 1.261h5.798zM28.55 8.13c-.91 0-1.604-.186-2.08-.559-.468-.381-.702-.893-.702-1.534 0-.676.277-1.213.832-1.612.563-.407 1.443-.611 2.639-.611.797 0 1.404-.039 1.82-.117.416-.078.693-.186.832-.325.139-.147.208-.342.208-.585a.904.904 0 00-.247-.624c-.165-.19-.442-.342-.832-.455-.381-.121-.88-.182-1.495-.182-.65 0-1.283.091-1.898.273-.607.173-1.088.373-1.443.598V1.5c.294-.2.75-.377 1.365-.533A7.779 7.779 0 0129.564.72c.814 0 1.477.091 1.989.273.511.182.88.433 1.105.754.234.32.35.693.35 1.118V8h-.91V6.791c-.19.208-.458.416-.805.624a5.244 5.244 0 01-1.235.52 5.61 5.61 0 01-1.508.195zm.208-.806c.529 0 1.018-.07 1.469-.208a4.68 4.68 0 001.144-.533c.32-.217.563-.433.728-.65v-1.95c-.043.087-.182.178-.416.273-.226.087-.55.16-.975.221a12.41 12.41 0 01-1.508.078c-.875 0-1.517.134-1.924.403-.399.269-.598.615-.598 1.04 0 .407.169.732.507.975.347.234.87.351 1.573.351zM37.216 8V1.682h-3.302V.85h7.514v.832h-3.302V8h-.91zm5.186 0V.85h.91v6.188h.065L48.083.85h1.235V8h-.91V1.812h-.065L43.637 8h-1.235zm8.871 0V.85h4.004c.632 0 1.161.087 1.586.26.433.173.754.407.962.702.208.286.312.611.312.975 0 .303-.078.585-.234.845a1.76 1.76 0 01-.637.624c-.278.165-.598.26-.962.286v.065c.606.043 1.061.212 1.365.507.312.286.468.646.468 1.079 0 .529-.221.962-.663 1.3-.442.338-1.092.507-1.95.507h-4.251zm4.199-.832c.598 0 1.04-.1 1.326-.299.286-.2.429-.46.429-.78 0-.33-.143-.594-.43-.793-.277-.2-.719-.299-1.325-.299h-3.445v-.832h3.21c.685 0 1.188-.113 1.509-.338.32-.225.48-.529.48-.91 0-.373-.16-.672-.48-.897-.32-.225-.824-.338-1.508-.338h-3.055v5.486h3.289zM65.935 8V.85h.91V8h-.91zM59.89 8V.85h.91V8h-.91zm.754-3.276v-.832h5.447v.832h-5.447zm12.12 3.406c-.876 0-1.638-.16-2.288-.481-.641-.32-1.135-.763-1.482-1.326a3.548 3.548 0 01-.52-1.898c0-.702.173-1.335.52-1.898.347-.563.84-1.005 1.482-1.326.65-.32 1.412-.481 2.288-.481.875 0 1.633.16 2.275.481.65.32 1.148.763 1.495 1.326.346.563.52 1.196.52 1.898s-.174 1.335-.52 1.898c-.347.563-.845 1.005-1.495 1.326-.642.32-1.4.481-2.275.481zm0-.806c.71 0 1.317-.121 1.82-.364.511-.243.897-.58 1.157-1.014.269-.442.403-.949.403-1.521s-.135-1.075-.403-1.508c-.26-.442-.646-.784-1.157-1.027-.503-.243-1.11-.364-1.82-.364s-1.322.121-1.833.364a2.676 2.676 0 00-1.157 1.027c-.26.433-.39.936-.39 1.508s.13 1.079.39 1.521a2.71 2.71 0 001.157 1.014c.511.243 1.122.364 1.833.364zm9.809.806c-.858 0-1.608-.16-2.25-.481-.632-.32-1.122-.758-1.468-1.313-.338-.563-.507-1.2-.507-1.911 0-.702.164-1.335.494-1.898a3.522 3.522 0 011.365-1.326c.59-.32 1.256-.481 2.002-.481.728 0 1.378.16 1.95.481a3.28 3.28 0 011.326 1.313c.32.555.48 1.192.48 1.911v.416h-6.707c.06.494.23.927.507 1.3a2.84 2.84 0 001.144.871c.485.208 1.04.312 1.664.312a5.07 5.07 0 001.638-.26c.52-.173.918-.368 1.196-.585v.897c-.278.19-.676.364-1.196.52a5.586 5.586 0 01-1.638.234zm2.483-4.121a2.793 2.793 0 00-.416-1.235 2.533 2.533 0 00-.975-.91c-.408-.225-.88-.338-1.417-.338-.564 0-1.066.108-1.508.325-.434.217-.78.516-1.04.897-.26.373-.408.793-.442 1.261h5.798zm8.698 4.121c-.91 0-1.603-.186-2.08-.559-.468-.381-.702-.893-.702-1.534 0-.676.277-1.213.832-1.612.563-.407 1.443-.611 2.639-.611.797 0 1.404-.039 1.82-.117.416-.078.693-.186.832-.325.139-.147.208-.342.208-.585a.904.904 0 00-.247-.624c-.165-.19-.442-.342-.832-.455-.381-.121-.88-.182-1.495-.182-.65 0-1.283.091-1.898.273-.607.173-1.088.373-1.443.598V1.5c.295-.2.75-.377 1.365-.533A7.779 7.779 0 0194.768.72c.815 0 1.478.091 1.989.273.511.182.88.433 1.105.754.234.32.351.693.351 1.118V8h-.91V6.791c-.19.208-.46.416-.806.624a5.242 5.242 0 01-1.235.52 5.61 5.61 0 01-1.508.195zm.208-.806c.529 0 1.018-.07 1.469-.208a4.68 4.68 0 001.144-.533c.32-.217.563-.433.728-.65v-1.95c-.043.087-.182.178-.416.273-.225.087-.55.16-.975.221a12.41 12.41 0 01-1.508.078c-.875 0-1.517.134-1.924.403-.399.269-.598.615-.598 1.04 0 .407.169.732.507.975.347.234.871.351 1.573.351zm6.131.676V.85h5.772v.832h-4.862V8h-.91zm10.321.13c-.858 0-1.608-.16-2.249-.481-.633-.32-1.122-.758-1.469-1.313-.338-.563-.507-1.2-.507-1.911 0-.702.165-1.335.494-1.898a3.518 3.518 0 011.365-1.326c.589-.32 1.257-.481 2.002-.481.728 0 1.378.16 1.95.481a3.28 3.28 0 011.326 1.313c.321.555.481 1.192.481 1.911v.416h-6.708c.061.494.23.927.507 1.3.286.373.667.663 1.144.871.485.208 1.04.312 1.664.312.581 0 1.127-.087 1.638-.26.52-.173.919-.368 1.196-.585v.897c-.277.19-.676.364-1.196.52a5.582 5.582 0 01-1.638.234zm2.483-4.121a2.788 2.788 0 00-.416-1.235 2.533 2.533 0 00-.975-.91c-.407-.225-.88-.338-1.417-.338-.563 0-1.066.108-1.508.325a2.69 2.69 0 00-1.04.897c-.26.373-.407.793-.442 1.261h5.798zM121.481 8V.85h.91V8h-.91zm-6.045 0V.85h.91V8h-.91zm.754-3.276v-.832h5.447v.832h-5.447zM126.672 8V1.682h-3.302V.85h7.514v.832h-3.302V8h-.91zm8.754.13c-.806 0-1.526-.16-2.158-.481a3.69 3.69 0 01-1.469-1.326 3.545 3.545 0 01-.52-1.898c0-.702.173-1.335.52-1.898.355-.563.853-1.005 1.495-1.326.641-.32 1.386-.481 2.236-.481.615 0 1.178.074 1.69.221.511.147.949.325 1.313.533v.91a5.601 5.601 0 00-1.313-.598 5.242 5.242 0 00-1.69-.26c-.685 0-1.279.121-1.781.364a2.671 2.671 0 00-1.157 1.027c-.269.433-.403.936-.403 1.508 0 .563.134 1.066.403 1.508.268.433.645.776 1.131 1.027.494.243 1.061.364 1.703.364.615 0 1.178-.078 1.69-.234.52-.156.905-.33 1.157-.52v.871c-.26.182-.65.342-1.17.481a6.401 6.401 0 01-1.677.208zm6.995-.13V1.682h-3.302V.85h7.514v.832h-3.302V8h-.91zm5.185 0V.85h4.004c.633 0 1.162.087 1.586.26.434.173.754.407.962.702.208.286.312.611.312.975 0 .303-.078.585-.234.845a1.75 1.75 0 01-.637.624c-.277.165-.598.26-.962.286v.065c.607.043 1.062.212 1.365.507.312.286.468.646.468 1.079 0 .529-.221.962-.663 1.3-.442.338-1.092.507-1.95.507h-4.251zm4.199-.832c.598 0 1.04-.1 1.326-.299.286-.2.429-.46.429-.78 0-.33-.143-.594-.429-.793-.277-.2-.719-.299-1.326-.299h-3.445v-.832h3.211c.685 0 1.188-.113 1.508-.338.321-.225.481-.529.481-.91 0-.373-.16-.672-.481-.897-.32-.225-.823-.338-1.508-.338h-3.055v5.486h3.289zm8.383.962c-.875 0-1.638-.16-2.288-.481-.641-.32-1.135-.763-1.482-1.326a3.554 3.554 0 01-.52-1.898c0-.702.174-1.335.52-1.898.347-.563.841-1.005 1.482-1.326.65-.32 1.413-.481 2.288-.481.876 0 1.634.16 2.275.481.65.32 1.149.763 1.495 1.326.347.563.52 1.196.52 1.898s-.173 1.335-.52 1.898c-.346.563-.845 1.005-1.495 1.326-.641.32-1.399.481-2.275.481zm0-.806c.711 0 1.318-.121 1.82-.364.512-.243.897-.58 1.157-1.014.269-.442.403-.949.403-1.521s-.134-1.075-.403-1.508c-.26-.442-.645-.784-1.157-1.027-.502-.243-1.109-.364-1.82-.364-.71 0-1.321.121-1.833.364a2.682 2.682 0 00-1.157 1.027c-.26.433-.39.936-.39 1.508s.13 1.079.39 1.521c.269.433.655.771 1.157 1.014.512.243 1.123.364 1.833.364z" fill="#363636" fill-opacity=".7"/></svg>